<?xml version="1.0" encoding="utf-8"?>
<!-- Generator: Adobe Illustrator 16.0.3, SVG Export Plug-In . SVG Version: 6.00 Build 0)  -->
<!DOCTYPE svg PUBLIC "-//W3C//DTD SVG 1.1//EN" "http://www.w3.org/Graphics/SVG/1.1/DTD/svg11.dtd">
<svg version="1.1" id="Layer_1" xmlns="http://www.w3.org/2000/svg" xmlns:xlink="http://www.w3.org/1999/xlink" x="0px" y="0px"
	 width="200px" height="198.134px" viewBox="80.899 81.137 200 198.134" enable-background="new 80.899 81.137 200 198.134"
	 xml:space="preserve">
<path fill="#FFFFFF" d="M261.244,173.365c-0.336-0.015-0.697-0.028-1.069-0.028c-0.275,0-0.529,0.007-0.775,0.022
	c-0.069,0.005-0.139,0.007-0.207,0.007c-0.616,0-0.804-0.145-1.054-0.58c-1.279-2.214-3.315-3.638-5.735-4.008l-0.118-0.018
	c-2.475-0.379-5.033-0.771-7.65-0.795c-0.412-0.004-0.828-0.006-1.248-0.006c-0.962,0-1.942,0.009-2.934,0.017
	c-0.997,0.009-2.003,0.018-3.014,0.018c-2.996,0-6.48-0.071-9.612-0.6c-5.272-0.891-9.699-2.59-15.47-8.308l-4.873-4.828
	l0.174,3.365c-0.132-0.288-0.266-0.576-0.397-0.863c-5.604-12.164-9.287-19.743-13.153-22.422c-1.903-1.319-3.72-2.873-5.397-4.619
	c-3.705-3.858-6.304-8.431-8.358-12.396c-4.348-8.395-10.072-23.284-12.227-28.889l-2.809-7.297l-2.436,6.611
	c-3.316,9-3.961,20.657-3.134,30.156c-2.998-2.666-4.884-5.642-9.168-13.118l-4.98-8.687l0.023,10.012
	c0.033,14.803,2.294,24.076,6.55,32.027c-1.094-0.859-2.142-1.766-3.118-2.705l-5.369-5.163l0.895,7.395
	c0.912,7.533,5.159,14.423,9.144,18.921c-1.625-0.014-3.982-0.197-6.342-0.958l-6.304-2.035l3.156,5.824
	c1.695,3.129,4.21,5.919,7.134,8.283c-0.412-0.01-0.828-0.017-1.253-0.017c-4.493,0-9.227,0.524-14.709,1.13
	c-2.052,0.227-4.174,0.462-6.396,0.681c-3.037,0.299-7.241,0.451-12.493,0.451c-9.536,0-33.318-0.242-35.104-0.572
	c0,0,0.389,2.825,3.143,4.367c8.249,4.617,17.223,8.708,26.5,10.968l34.437,26.473l-22.124,68.091l57.833-42.019l57.834,42.019
	l-22.142-68.151l18.897-16.446c1.044-0.908,2.712-0.481,2.712-0.481c2.574-1.645,12.944-5.539,19.679-5.539
	c0.15,0,0.299,0.001,0.445,0.005c1.538,0.043,4.242,0.429,5.904,0.846l2.513,0.629l0.689-2.497c0.065-0.232,0.138-0.49,0.216-0.765
	c0.654-2.294,1.15-4.165,1.112-5.623C268.93,176.373,266.153,173.573,261.244,173.365z"/>
<path fill="#E83836" d="M201.901,248.954l9.639,7.002v-51.563c-2.979,0.872-6.199,1.497-9.639,1.725V248.954z M185.203,236.822
	l9.639,7.002v-38.179c-3.246-0.609-6.48-1.695-9.639-3.05V236.822z M218.601,201.74v3.76c5.968-5.192,14.604-12.706,14.598-12.703
	C230.589,194.504,225.563,198.537,218.601,201.74z M168.503,193.477v49.219l9.638-7.002v-36.564c-3.086-1.681-6.04-3.47-8.791-5.138
	L168.503,193.477z M144.744,259.958v-37.305l-15.868,48.832L144.744,259.958z M218.601,261.088l14.313,10.397l-14.313-44.049
	V261.088z M128.045,193.493v-7.734c-5.639-1.342-13.503-4.309-16.441-5.642L128.045,193.493z M151.805,254.828l9.638-7.003v-57.931
	c-2.982-1.181-6.101-2.003-9.638-2.559V254.828z M137.858,186.488c-0.906,0.009-1.826,0.015-2.753,0.012v12.738l9.639,7.841v-20.462
	c-0.073-0.005-0.146-0.009-0.218-0.012C142.337,186.451,140.06,186.47,137.858,186.488z"/>
<path fill="#034162" d="M223.372,182.917c0.01-0.014-0.088-0.104-0.262-0.255c0.015,0.009,0.029,0.016,0.043,0.023
	c-0.758-0.568-1.271-2.004,2.019-3.472c-5.263,0.911-7.084-1.518-7.084-1.518s1.924,0.505,5.313-0.658
	c-4.974-0.37-6.964-1.641-7.536-2.106c-0.038-0.057-0.075-0.115-0.113-0.172c0.434-0.01,2.742-0.068,3.095-0.302
	c-3.44-0.253-5.15-4.27-5.15-4.27c0.668,0.349,0.984,0.544,1.32,0.685c2.292,0.96,4.529,2.102,6.894,2.824
	c4.886,1.49,9.888,0.727,14.862,0.444c3.688-0.21,7.384-0.374,11.076-0.36c1.765,0.006,3.623,0.444,4.438,2.311
	c0.798,1.822,2.083,2.49,3.974,2.357c0.679-0.047,1.38,0.022,2.051,0.14c1.983,0.347,3.679,2.658,3.785,5.915
	c-1.442-0.854-4.718-0.885-6.124-0.738c-7.09,0.734-17.054,5.759-20.021,8.523c3.072-1.962,14.146-6.063,21.313-5.865
	c1.794,0.05,4.671,0.483,6.382,0.912c0.428-1.549,1.25-4.175,1.215-5.531c-0.091-3.497-1.729-5.077-5.196-5.225
	c-0.517-0.022-1.035-0.039-1.55-0.007c-1.594,0.095-2.83-0.419-3.666-1.87c-0.836-1.449-2.14-2.42-3.781-2.671
	c-2.414-0.37-4.853-0.749-7.284-0.771c-5.441-0.051-11.597,0.309-16.975-0.6c-6.034-1.019-10.829-3.14-16.65-8.908
	c0.152,2.974,1.298,8.946,4.132,13.035C216.079,177.806,219.485,180.499,223.372,182.917z M146.765,158.974
	c4.179,7.713,14.432,13.419,22.259,14.801c-3.475-0.191-5.317,1.795-11.898-0.091c0.255,0.45,11.53,8.72,18.064,10.13
	c3.746,0.81,7.491,0.739,11.519-0.038c3.021-0.729,22.074-3.014,34.095-1.391c-3.415-2.124-6.071-4.4-8.044-6.904
	c-6.341-9.43-14.68-33.702-20.634-37.828c-2.053-1.422-3.985-3.089-5.716-4.89c-3.614-3.762-6.285-8.213-8.673-12.824
	c-4.553-8.79-10.566-24.575-12.441-29.444c-4.091,11.105-3.695,25.99-2.15,34.642c-7.107-4.888-8.569-6.762-14.697-17.455
	c0.046,20.452,4.548,29.62,12.319,39.59c-4.576-1.874-9.444-5.031-13.366-8.804c1.106,9.146,7.949,17.685,12.151,20.8
	C157.75,160.055,151.939,160.643,146.765,158.974z M105.909,176.063c29.243,1.591,35.533-5.551,55.636-3.31
	c-8.686-3.222-18.46-1.314-31.827,0.001c-13.29,1.308-42.599-0.628-42.653-0.452c7.688,4.497,15.905,8.007,25.322,10.3
	C108.671,180.014,106.664,177.954,105.909,176.063z M267.887,211.599l11.046-11.24l1.967-2.002H239.33v5.224
	c-19.123,3.933-38.646,5.925-58.167,5.925c-19.49,0-38.98-1.986-58.072-5.906v-5.243H80.9l1.967,2.002l11.046,11.24l-11.047,11.241
	l-1.967,2.001h29.69v4.356l0.902,0.218l1.083,0.261c22.437,5.386,45.513,8.118,68.586,8.118s46.149-2.732,68.587-8.118l1.082-0.261
	l0.902-0.218v-4.356h29.166l-1.967-2.001L267.887,211.599z M248.692,176.58c0-0.509-0.677-0.844-1.695-0.844
	c-1.018,0-1.072,0.24-2.503-0.126c0,0.334,2.377,1.856,3.395,1.856C248.533,177.466,248.692,176.914,248.692,176.58z"/>
<path fill="#FFFFFF" d="M97.543,211.599l-10.469-10.653h24.832l10.007-1.412H83.707l11.856,12.065l-11.856,12.065h26.884v-1.413
	H87.075L97.543,211.599z M278.093,199.533h-37.587l10.012,1.412h24.207l-10.469,10.653l10.469,10.652h-22.991v1.413h26.359
	l-11.857-12.065L278.093,199.533z M245.569,203.433c-0.107,0.023-0.216,0.049-0.324,0.074c-1.836,0.416-3.678,0.814-5.522,1.194
	c-0.131,0.027-0.263,0.054-0.393,0.081c-19.126,3.916-38.646,5.899-58.168,5.899c-19.488,0-38.978-1.978-58.072-5.88
	c-0.051-0.012-0.103-0.021-0.154-0.032c-0.812-0.167-1.623-0.335-2.434-0.51c-0.006-0.001-0.011-0.003-0.017-0.005
	c-1.128-0.242-2.255-0.488-3.379-0.743c-0.093-0.021-0.187-0.043-0.28-0.063c-1.106-0.253-2.213-0.51-3.316-0.775l-1.742-0.418
	v26.014l1.083,0.26c22.347,5.366,45.33,8.087,68.312,8.087s45.965-2.721,68.313-8.087l1.081-0.26v-26.014l-1.741,0.419
	C247.734,202.935,246.651,203.186,245.569,203.433z M249.145,227.156c-44.688,10.729-91.278,10.729-135.965,0v-23.109
	c44.687,10.729,91.278,10.729,135.965,0V227.156z M155.648,232.018c0.19,0.019,0.381,0.038,0.573,0.057v-4.265
	c-0.191-0.018-0.382-0.037-0.573-0.058V232.018z M168.095,231.265c-0.411-0.164-0.601-0.282-0.601-0.522
	c0-0.216,0.19-0.386,0.529-0.369c0.294,0.015,0.522,0.121,0.646,0.2c0.048-0.127,0.096-0.252,0.144-0.379
	c-0.176-0.104-0.457-0.202-0.777-0.219c-0.679-0.035-1.09,0.327-1.09,0.796c0,0.349,0.268,0.652,0.835,0.868
	c0.424,0.166,0.587,0.312,0.587,0.564c0,0.241-0.196,0.423-0.613,0.403c-0.288-0.016-0.587-0.14-0.758-0.252
	c-0.047,0.132-0.095,0.264-0.144,0.395c0.222,0.131,0.542,0.228,0.888,0.244c0.75,0.039,1.182-0.303,1.182-0.813
	C168.924,231.75,168.643,231.484,168.095,231.265z M165.028,229.808c-0.522-0.033-0.887,0.215-1.044,0.479
	c-0.004,0-0.008,0-0.013-0.001c-0.011-0.161-0.021-0.321-0.032-0.482c-0.17-0.012-0.34-0.022-0.509-0.035
	c0.02,0.241,0.026,0.488,0.026,0.789v2.121c0.191,0.011,0.383,0.024,0.574,0.036v-1.746c0-0.092,0.013-0.181,0.039-0.244
	c0.098-0.289,0.392-0.515,0.77-0.491c0.542,0.034,0.73,0.436,0.73,0.904v1.675c0.191,0.013,0.383,0.024,0.574,0.036v-1.736
	C166.143,230.116,165.465,229.836,165.028,229.808z M164.602,221.425c1.239,0.074,2.48,0.14,3.72,0.195v-2.174
	c-1.24-0.058-2.48-0.123-3.72-0.196v-2.146c1.386,0.082,2.773,0.154,4.161,0.216v-2.19c-2.244-0.099-4.487-0.226-6.729-0.38v10.767
	c0.855,0.059,1.712,0.114,2.568,0.164V221.425z M155.663,213.902c-1.836,3.531-3.671,7.045-5.504,10.539
	c0.863,0.097,1.727,0.19,2.591,0.278c0.233-0.499,0.467-0.997,0.7-1.497c1.46,0.147,2.921,0.281,4.382,0.406
	c0.229,0.541,0.458,1.081,0.687,1.622c0.9,0.073,1.8,0.143,2.7,0.207c-1.798-3.829-3.596-7.676-5.393-11.54
	C155.772,213.913,155.718,213.908,155.663,213.902z M154.195,221.441c0.479-1.077,0.959-2.155,1.438-3.234
	c0.467,1.167,0.934,2.332,1.401,3.496C156.088,221.62,155.142,221.533,154.195,221.441z M161.851,232.563
	c0.189,0.014,0.378,0.028,0.567,0.042v-4.048c-0.189-0.015-0.378-0.028-0.567-0.043V232.563z M158.435,229.308
	c-0.919-0.083-1.479,0.554-1.479,1.432c0,0.877,0.58,1.522,1.55,1.608c0.502,0.045,0.847-0.021,1.049-0.089
	c-0.033-0.129-0.065-0.258-0.098-0.386c-0.215,0.064-0.463,0.11-0.873,0.073c-0.573-0.05-1.068-0.391-1.081-1.106
	c0.738,0.068,1.477,0.134,2.215,0.196c0.007-0.054,0.02-0.137,0.02-0.245C159.738,230.255,159.464,229.398,158.435,229.308z
	 M157.51,230.462c0.046-0.362,0.3-0.831,0.879-0.779c0.645,0.058,0.801,0.593,0.795,0.929
	C158.626,230.563,158.067,230.514,157.51,230.462z M121.915,208.678c-1.81,3.304-3.617,6.59-5.42,9.856
	c0.849,0.204,1.699,0.404,2.55,0.601c0.229-0.47,0.459-0.939,0.689-1.409c1.438,0.328,2.878,0.642,4.32,0.945
	c0.225,0.569,0.451,1.141,0.676,1.708c0.888,0.186,1.777,0.366,2.666,0.542c-1.776-4.052-3.55-8.121-5.321-12.208
	C122.022,208.7,121.969,208.689,121.915,208.678z M120.468,216.034c0.472-1.018,0.945-2.036,1.417-3.056
	c0.461,1.224,0.921,2.446,1.383,3.669C122.333,216.448,121.4,216.244,120.468,216.034z M138.353,226.601
	c0-0.444,0.129-0.817,0.608-0.736c0.168,0.028,0.278,0.077,0.369,0.128c0.024-0.133,0.048-0.264,0.071-0.396
	c-0.11-0.061-0.278-0.131-0.485-0.166c-0.258-0.043-0.543-0.014-0.756,0.142c-0.264,0.188-0.368,0.542-0.368,0.95v0.139
	c-0.437-0.075-0.875-0.153-1.311-0.231v-0.126c0-0.457,0.123-0.79,0.568-0.71c0.129,0.022,0.252,0.08,0.335,0.132
	c0.039-0.125,0.078-0.247,0.116-0.37c-0.097-0.065-0.265-0.149-0.446-0.182c-0.349-0.063-0.606-0.006-0.788,0.128
	c-0.245,0.185-0.349,0.521-0.349,0.928v0.098c-0.146-0.027-0.292-0.054-0.438-0.081v0.403c0.147,0.027,0.292,0.055,0.438,0.08v2.505
	c0.188,0.034,0.375,0.068,0.562,0.102v-2.504c0.437,0.078,0.874,0.156,1.311,0.232v2.504c0.19,0.033,0.379,0.065,0.568,0.1v-2.506
	c0.25,0.043,0.5,0.085,0.75,0.128v-0.402c-0.252-0.043-0.504-0.086-0.756-0.13V226.601z M140.869,227.111
	c-0.867-0.141-1.552,0.314-1.552,1.287c0,0.92,0.653,1.606,1.501,1.743c0.758,0.122,1.561-0.222,1.561-1.297
	C142.378,227.956,141.769,227.255,140.869,227.111z M140.843,229.75c-0.557-0.09-0.951-0.636-0.951-1.273
	c0-0.553,0.292-1.08,0.965-0.972c0.673,0.108,0.938,0.775,0.938,1.268C141.795,229.427,141.387,229.837,140.843,229.75z
	 M130.144,225.438c0.115,0.024,0.231,0.048,0.347,0.072c0.037-0.474,0.073-0.946,0.109-1.42c-0.186-0.039-0.373-0.077-0.56-0.116
	C130.075,224.463,130.109,224.95,130.144,225.438z M133.125,224.66c-0.492,1.254-0.983,2.507-1.475,3.758
	c0.193,0.038,0.386,0.077,0.58,0.116c0.15-0.396,0.3-0.791,0.451-1.186c0.513,0.102,1.027,0.199,1.541,0.296
	c0.154,0.453,0.31,0.907,0.464,1.361c0.2,0.036,0.4,0.074,0.6,0.11c-0.495-1.441-0.989-2.882-1.483-4.327
	C133.576,224.747,133.35,224.704,133.125,224.66z M132.795,226.962c0.142-0.362,0.284-0.726,0.426-1.088
	c0.084-0.23,0.155-0.462,0.219-0.69c0.004,0.001,0.009,0.001,0.013,0.002c0.064,0.247,0.128,0.5,0.226,0.783
	c0.142,0.415,0.284,0.831,0.425,1.246C133.668,227.132,133.232,227.048,132.795,226.962z M134.157,221.551
	c0.712-0.523,1.069-1.313,1.069-2.362c0-0.679-0.181-1.295-0.544-1.852c-0.362-0.558-1.069-1.216-2.118-1.987
	c-0.419-0.308-0.838-0.615-1.256-0.925c-0.247-0.178-0.431-0.36-0.554-0.546c-0.123-0.187-0.185-0.374-0.185-0.563
	c0-0.267,0.104-0.459,0.31-0.577s0.49-0.145,0.85-0.079c0.324,0.059,0.718,0.218,1.182,0.479c0.463,0.26,0.954,0.598,1.472,1.013
	v-2.524c-0.543-0.281-1.036-0.506-1.479-0.673c-0.444-0.169-0.855-0.287-1.234-0.355c-1.03-0.187-1.869-0.067-2.517,0.362
	c-0.649,0.43-0.974,1.077-0.974,1.943c0,0.639,0.17,1.243,0.509,1.814c0.339,0.57,0.861,1.123,1.564,1.654
	c0.241,0.183,0.482,0.362,0.724,0.544c0.083,0.064,0.202,0.155,0.354,0.273c0.955,0.724,1.433,1.302,1.433,1.742
	c0,0.308-0.135,0.534-0.402,0.683c-0.269,0.147-0.625,0.182-1.068,0.101c-0.438-0.081-0.887-0.246-1.347-0.495
	c-0.46-0.25-1.019-0.641-1.678-1.176c0.072,0.973,0.143,1.943,0.215,2.917c0.561,0.286,1.075,0.516,1.542,0.688
	s0.901,0.294,1.299,0.365C132.5,222.231,133.445,222.073,134.157,221.551z M131.109,225.637c0.114,0.022,0.228,0.045,0.341,0.068
	c0.037-0.474,0.073-0.946,0.11-1.42c-0.188-0.038-0.374-0.075-0.56-0.113C131.036,224.66,131.073,225.148,131.109,225.637z
	 M153.597,228.83c-0.507-0.057-0.872,0.113-1.073,0.415c-0.004-0.001-0.008-0.001-0.013-0.002v-1.826
	c-0.188-0.021-0.377-0.042-0.565-0.064v3.514c0,0.259-0.014,0.552-0.026,0.748c0.165,0.02,0.33,0.038,0.495,0.056
	c0.009-0.158,0.017-0.317,0.026-0.477c0.007,0.001,0.013,0.002,0.02,0.002c0.234,0.411,0.598,0.613,1.053,0.664
	c0.703,0.077,1.412-0.365,1.412-1.405C154.931,229.572,154.378,228.914,153.597,228.83z M153.396,231.426
	c-0.417-0.045-0.748-0.335-0.858-0.713c-0.013-0.063-0.026-0.13-0.026-0.196v-0.522c0-0.084,0.021-0.154,0.033-0.213
	c0.117-0.388,0.48-0.594,0.871-0.551c0.612,0.067,0.938,0.599,0.938,1.182C154.353,231.079,153.994,231.491,153.396,231.426z
	 M151.021,229.724c0-0.583-0.234-1.216-1.196-1.335c-0.396-0.049-0.773,0.005-1.032,0.128c0.043,0.121,0.086,0.242,0.13,0.364
	c0.221-0.103,0.526-0.147,0.818-0.111c0.644,0.078,0.715,0.52,0.715,0.761v0.059c-1.215-0.153-1.89,0.142-1.89,0.845
	c0,0.42,0.324,0.877,0.96,0.957c0.449,0.058,0.786-0.105,0.962-0.313c0.007,0.001,0.013,0.001,0.02,0.003
	c0.015,0.124,0.031,0.247,0.046,0.372c0.173,0.021,0.346,0.041,0.519,0.061c-0.039-0.202-0.052-0.451-0.052-0.703V229.724z
	 M150.437,230.627c-0.091,0.235-0.351,0.444-0.76,0.394c-0.292-0.037-0.539-0.23-0.539-0.573c0-0.564,0.708-0.576,1.332-0.489
	c0,0.168,0,0.337,0,0.505C150.47,230.517,150.457,230.575,150.437,230.627z M172.308,230.222c-0.192-0.007-0.383-0.013-0.575-0.019
	v1.783c0,0.096-0.02,0.19-0.053,0.268c-0.104,0.23-0.372,0.468-0.757,0.452c-0.523-0.021-0.706-0.401-0.706-0.953v-1.609
	c-0.192-0.008-0.383-0.017-0.575-0.025v1.701c0,1.021,0.594,1.299,1.091,1.318c0.562,0.021,0.894-0.272,1.045-0.501
	c0.004,0,0.008,0,0.013,0.001c0.011,0.158,0.021,0.316,0.033,0.475c0.17,0.006,0.339,0.012,0.51,0.017
	c-0.02-0.229-0.026-0.493-0.026-0.794C172.308,231.631,172.308,230.926,172.308,230.222z M139.625,218.094
	c1.275,1.846,2.552,3.684,3.829,5.513c1.034,0.142,2.069,0.277,3.105,0.407c-1.462-2.064-2.922-4.142-4.382-6.229
	c1.353-1.517,2.707-3.042,4.063-4.578c-1.021-0.129-2.041-0.266-3.061-0.405c-1.185,1.398-2.37,2.788-3.554,4.17v-4.685
	c-0.846-0.128-1.69-0.26-2.535-0.396v10.767c0.845,0.135,1.689,0.268,2.535,0.396V218.094z M147.864,226.846
	c-0.19-0.024-0.381-0.05-0.571-0.075v1.735c-0.004-0.001-0.009-0.001-0.014-0.002c-0.143-0.253-0.467-0.507-0.947-0.574
	c-0.766-0.106-1.414,0.396-1.407,1.363c0,0.882,0.584,1.562,1.343,1.668c0.512,0.071,0.895-0.125,1.07-0.426
	c0.004,0,0.009,0.002,0.013,0.004c0.009,0.169,0.017,0.337,0.026,0.507c0.171,0.022,0.341,0.045,0.513,0.067
	c-0.02-0.199-0.026-0.495-0.026-0.753V226.846z M147.293,229.816c0,0.083-0.007,0.154-0.026,0.225
	c-0.104,0.382-0.455,0.568-0.837,0.516c-0.616-0.085-0.927-0.617-0.927-1.205c0-0.644,0.35-1.072,0.94-0.992
	c0.428,0.061,0.739,0.378,0.824,0.726c0.019,0.069,0.026,0.16,0.026,0.227V229.816z M143.616,228.176
	c-0.009-0.003-0.018-0.004-0.026-0.005c-0.006-0.19-0.013-0.382-0.02-0.574c-0.166-0.023-0.332-0.05-0.498-0.074
	c0.019,0.273,0.025,0.568,0.025,0.911c0,0.666,0,1.332,0,2.001c0.188,0.027,0.376,0.056,0.564,0.083v-1.549
	c0-0.09,0.013-0.173,0.025-0.242c0.078-0.385,0.363-0.625,0.765-0.565c0.078,0.011,0.137,0.025,0.194,0.046v-0.498
	c-0.052-0.02-0.097-0.033-0.162-0.041C144.102,227.611,143.758,227.806,143.616,228.176z M193.709,223.606
	c-1.408,0.065-2.815,0.119-4.223,0.162v-2.131c1.188-0.036,2.376-0.08,3.564-0.132V219.3c-1.188,0.052-2.376,0.097-3.564,0.133
	v-1.945c1.388-0.043,2.775-0.097,4.162-0.159v-2.222c-2.225,0.103-4.45,0.179-6.675,0.228v10.767
	c2.245-0.049,4.49-0.126,6.734-0.229L193.709,223.606L193.709,223.606z M215.49,230.803c0.039-0.584,0.078-1.169,0.116-1.753
	c0.038-0.612,0.071-1.296,0.084-1.801c0.005-0.001,0.009-0.001,0.013-0.003c0.124,0.464,0.298,0.961,0.506,1.501
	c0.234,0.608,0.471,1.218,0.705,1.825c0.144-0.021,0.286-0.042,0.429-0.064c0.257-0.691,0.514-1.385,0.771-2.08
	c0.22-0.592,0.401-1.124,0.551-1.622c0.007-0.001,0.012-0.002,0.019-0.003c-0.007,0.506,0.033,1.179,0.064,1.738l0.111,1.761
	c0.183-0.028,0.366-0.058,0.55-0.087c-0.091-1.333-0.182-2.67-0.272-4.005c-0.24,0.037-0.478,0.075-0.719,0.111
	c-0.258,0.693-0.518,1.386-0.776,2.076c-0.194,0.541-0.35,1.009-0.46,1.433c-0.008,0.001-0.012,0.002-0.02,0.003
	c-0.108-0.404-0.26-0.826-0.44-1.299c-0.248-0.616-0.498-1.232-0.746-1.849c-0.24,0.033-0.479,0.068-0.72,0.102
	c-0.103,1.364-0.203,2.728-0.306,4.091C215.131,230.854,215.311,230.828,215.49,230.803z M216.787,223.994
	c0.078,0.006,0.159,0.003,0.243-0.009c0.352-0.046,0.653-0.209,0.903-0.491c0.249-0.281,0.375-0.596,0.375-0.941
	c0-0.356-0.123-0.639-0.371-0.847c-0.187-0.157-0.403-0.243-0.649-0.255c-0.082-0.006-0.169-0.001-0.258,0.011
	c-0.346,0.046-0.641,0.206-0.885,0.481c-0.181,0.208-0.294,0.437-0.34,0.686c-0.016,0.083-0.022,0.169-0.022,0.257
	c0,0.336,0.123,0.614,0.371,0.837C216.34,223.888,216.551,223.979,216.787,223.994z M225.21,227.817c0,0.884,0.581,1.372,1.336,1.23
	c0.51-0.095,0.89-0.415,1.063-0.772l0.013-0.004c0.01,0.168,0.018,0.335,0.026,0.5c0.171-0.033,0.34-0.066,0.509-0.099
	c-0.018-0.194-0.025-0.487-0.025-0.746v-3.514c-0.189,0.036-0.379,0.073-0.567,0.11v1.735c-0.004,0.001-0.009,0.003-0.012,0.004
	c-0.142-0.209-0.465-0.356-0.941-0.267C225.849,226.14,225.203,226.853,225.21,227.817z M226.719,226.391
	c0.426-0.08,0.736,0.137,0.819,0.457c0.02,0.062,0.026,0.15,0.026,0.217c0,0.168,0,0.336-0.001,0.504
	c0,0.084-0.007,0.158-0.026,0.233c-0.103,0.417-0.451,0.718-0.831,0.789c-0.612,0.115-0.924-0.314-0.922-0.902
	C225.782,227.045,226.132,226.501,226.719,226.391z M220.282,221.623c0.226,0.342,0.512,0.63,0.853,0.87
	c0.044,0.032,0.085,0.068,0.132,0.098c0.184,0.118,0.377,0.217,0.577,0.296c0.2,0.08,0.41,0.14,0.629,0.182
	c0.435,0.081,0.89,0.086,1.363,0.011c0.44-0.069,0.866-0.198,1.275-0.387c0.407-0.189,0.785-0.429,1.129-0.721
	c0.041-0.721,0.082-1.443,0.123-2.164c-0.001,0.001-0.001,0.001-0.001,0.001v-0.001c-0.404,0.409-0.808,0.729-1.214,0.968
	c-0.066,0.038-0.134,0.072-0.2,0.106c-0.338,0.175-0.678,0.291-1.018,0.345c-0.518,0.081-0.961,0.021-1.331-0.181
	c-0.124-0.067-0.24-0.149-0.348-0.248c-0.43-0.393-0.645-0.961-0.645-1.699c0-0.739,0.217-1.377,0.651-1.913
	c0.229-0.284,0.495-0.503,0.794-0.667c0.267-0.146,0.558-0.247,0.879-0.298c0.392-0.061,0.768-0.035,1.124,0.081
	c0.357,0.118,0.71,0.327,1.058,0.63c0.068-0.701,0.137-1.4,0.205-2.1l0,0l0,0c-0.373-0.195-0.766-0.321-1.177-0.382
	c-0.41-0.058-0.842-0.054-1.294,0.017c-0.57,0.091-1.113,0.28-1.629,0.572c-0.515,0.29-0.97,0.665-1.362,1.124
	c-0.39,0.457-0.687,0.962-0.892,1.515c-0.204,0.552-0.306,1.127-0.306,1.725c0,0.694,0.139,1.316,0.414,1.865
	C220.136,221.393,220.207,221.51,220.282,221.623z M230.61,225.511c0.114-0.024,0.228-0.047,0.342-0.071
	c0.035-0.488,0.072-0.977,0.109-1.465c-0.187,0.039-0.373,0.077-0.56,0.116L230.61,225.511z M228.072,220.86
	c0.081,0.085,0.165,0.168,0.255,0.245c0.385,0.331,0.825,0.558,1.322,0.681c0.498,0.123,1.018,0.134,1.561,0.034
	c0.637-0.118,1.241-0.378,1.813-0.775c0.569-0.399,1.049-0.899,1.44-1.5c0.276-0.423,0.484-0.87,0.625-1.344
	c0.141-0.475,0.21-0.963,0.21-1.469c0-0.605-0.101-1.147-0.301-1.63c-0.202-0.482-0.498-0.883-0.889-1.204
	c-0.388-0.321-0.83-0.54-1.331-0.655c-0.5-0.116-1.023-0.124-1.568-0.023c-0.547,0.103-1.069,0.301-1.567,0.601
	c-0.499,0.299-0.938,0.678-1.314,1.137c-0.399,0.481-0.702,0.999-0.906,1.558c-0.206,0.557-0.309,1.134-0.309,1.73
	c-0.001,0.599,0.103,1.139,0.308,1.622C227.578,220.24,227.797,220.57,228.072,220.86z M229.7,216.021
	c0.408-0.546,0.911-0.873,1.51-0.985c0.451-0.082,0.847-0.023,1.188,0.178c0.036,0.022,0.069,0.057,0.104,0.081
	c0.074,0.052,0.149,0.102,0.218,0.168c0.405,0.396,0.607,0.948,0.607,1.656c0,0.706-0.202,1.333-0.608,1.883
	c-0.406,0.549-0.909,0.88-1.511,0.991c-0.599,0.11-1.102-0.035-1.509-0.436c-0.409-0.401-0.614-0.951-0.614-1.653
	C229.087,217.194,229.291,216.566,229.7,216.021z M238.383,216.389c0.768,1.183,1.535,2.361,2.304,3.538
	c0.041-0.01,0.083-0.019,0.127-0.028c0.713-1.486,1.427-2.974,2.141-4.465c0.225,1.177,0.451,2.353,0.677,3.528
	c0.603-0.14,1.206-0.283,1.808-0.428c-0.555-2.645-1.109-5.293-1.665-7.942l0,0c-0.048,0.012-0.095,0.022-0.143,0.034
	c-0.946,1.973-1.893,3.939-2.84,5.902c-1.005-1.53-2.009-3.064-3.015-4.606c-0.046,0.01-0.093,0.02-0.139,0.029
	c-0.553,2.896-1.107,5.788-1.661,8.681c0.569-0.116,1.138-0.233,1.705-0.353C237.916,218.982,238.149,217.687,238.383,216.389z
	 M229.646,225.706c0.116-0.023,0.232-0.047,0.348-0.069c0.036-0.488,0.073-0.977,0.109-1.465c-0.187,0.038-0.373,0.075-0.561,0.113
	C229.577,224.759,229.61,225.232,229.646,225.706z M176.753,219.703c-1.241-0.02-2.482-0.047-3.724-0.082v-2.146
	c1.388,0.041,2.776,0.071,4.165,0.09v-2.191c-2.246-0.03-4.491-0.087-6.736-0.174v10.767c0.857,0.033,1.714,0.062,2.571,0.086
	v-4.255c1.241,0.035,2.482,0.063,3.724,0.081V219.703z M195.598,232.87c0.503-0.029,0.848-0.149,1.051-0.246
	c-0.032-0.124-0.065-0.246-0.099-0.372c-0.215,0.098-0.463,0.18-0.873,0.205c-0.575,0.036-1.071-0.231-1.084-0.945
	c0.739-0.042,1.479-0.087,2.219-0.137c0.007-0.054,0.02-0.139,0.02-0.246c0-0.535-0.274-1.35-1.306-1.288
	c-0.92,0.057-1.48,0.776-1.48,1.653C194.045,232.37,194.625,232.929,195.598,232.87z M195.48,230.223
	c0.646-0.039,0.803,0.473,0.797,0.81c-0.559,0.035-1.118,0.069-1.679,0.101C194.645,230.764,194.899,230.257,195.48,230.223z
	 M178.891,215.392v10.766c2.27,0.018,4.542,0.007,6.811-0.031v-2.31c-1.407,0.023-2.815,0.037-4.224,0.039v-8.457
	C180.615,215.399,179.754,215.397,178.891,215.392z M197.167,224.866c0.493,0.357,1.031,0.616,1.616,0.776
	c0.586,0.16,1.196,0.217,1.834,0.172c0.591-0.041,1.163-0.166,1.712-0.372c0.55-0.206,1.055-0.485,1.518-0.835
	c0.056-0.958,0.11-1.915,0.165-2.872c-0.543,0.5-1.087,0.886-1.631,1.155c-0.545,0.271-1.09,0.425-1.638,0.465
	c-0.926,0.066-1.677-0.189-2.254-0.765c-0.579-0.575-0.868-1.355-0.868-2.342c0-0.984,0.291-1.809,0.874-2.474
	c0.582-0.667,1.332-1.03,2.247-1.095c0.526-0.038,1.03,0.04,1.511,0.235c0.48,0.196,0.955,0.514,1.422,0.955
	c0.092-0.925,0.185-1.852,0.277-2.776c-0.503-0.3-1.03-0.512-1.583-0.637c-0.553-0.127-1.132-0.166-1.738-0.123
	c-0.767,0.054-1.495,0.244-2.188,0.573c-0.691,0.33-1.302,0.774-1.829,1.339c-0.522,0.563-0.922,1.201-1.195,1.913
	s-0.41,1.468-0.41,2.264c0,0.926,0.186,1.771,0.557,2.537C195.937,223.726,196.471,224.362,197.167,224.866z M208.236,219.855
	c1.282,1.525,2.562,3.043,3.842,4.551c1.037-0.117,2.072-0.242,3.11-0.37c-1.463-1.699-2.926-3.41-4.39-5.13
	c1.357-1.854,2.714-3.72,4.069-5.597c-1.021,0.127-2.042,0.248-3.064,0.361c-1.189,1.696-2.377,3.384-3.567,5.063v-4.687
	c-0.849,0.084-1.699,0.165-2.548,0.242v10.767c0.849-0.078,1.699-0.156,2.548-0.242V219.855z M203.338,230.815
	c0,0.877,0.58,1.414,1.55,1.318c0.502-0.049,0.848-0.182,1.048-0.285c-0.032-0.123-0.064-0.245-0.098-0.369
	c-0.215,0.106-0.462,0.197-0.871,0.237c-0.574,0.058-1.069-0.19-1.082-0.904c0.739-0.07,1.477-0.143,2.214-0.218
	c0.007-0.054,0.02-0.141,0.02-0.249c0-0.534-0.273-1.339-1.302-1.238C203.898,229.196,203.338,229.938,203.338,230.815z
	 M204.771,229.49c0.645-0.063,0.802,0.441,0.795,0.78c-0.558,0.057-1.115,0.11-1.674,0.163
	C203.938,230.063,204.192,229.546,204.771,229.49z M184.802,231.823c0,0.877,0.582,1.457,1.555,1.435
	c0.504-0.012,0.85-0.118,1.054-0.207c-0.034-0.125-0.066-0.251-0.1-0.376c-0.215,0.089-0.463,0.163-0.875,0.173
	c-0.574,0.013-1.071-0.272-1.084-0.986c0.74-0.014,1.481-0.031,2.221-0.053c0.007-0.055,0.02-0.139,0.02-0.247
	c0-0.534-0.274-1.359-1.307-1.335C185.364,230.247,184.802,230.946,184.802,231.823z M186.239,230.604
	c0.646-0.014,0.804,0.504,0.797,0.84c-0.56,0.016-1.119,0.028-1.679,0.038C185.402,231.116,185.657,230.618,186.239,230.604z
	 M188.48,232.448c-0.229,0.007-0.392,0.168-0.392,0.391c0,0.216,0.156,0.373,0.385,0.366c0.241-0.009,0.392-0.175,0.392-0.391
	C188.865,232.592,188.709,232.44,188.48,232.448z M183.613,230.699c0.313-0.004,0.529,0.06,0.666,0.129
	c0.043-0.137,0.088-0.273,0.13-0.41c-0.156-0.069-0.457-0.144-0.797-0.14c-1.033,0.013-1.7,0.664-1.7,1.561
	c0,0.888,0.621,1.479,1.575,1.47c0.426-0.005,0.758-0.106,0.908-0.181c-0.033-0.132-0.065-0.264-0.097-0.395
	c-0.163,0.068-0.38,0.15-0.706,0.154c-0.628,0.007-1.099-0.405-1.099-1.077C182.496,231.202,182.888,230.709,183.613,230.699z
	 M193.307,229.196c-0.261-0.203-0.673-0.302-1.233-0.276c-0.457,0.021-0.816,0.073-1.091,0.127c0,1.333,0,2.666,0,4
	c0.188-0.008,0.379-0.016,0.567-0.024V231.4c0.13,0.023,0.287,0.023,0.457,0.015c0.555-0.025,1.045-0.199,1.345-0.51
	c0.222-0.223,0.339-0.516,0.339-0.883C193.691,229.663,193.549,229.376,193.307,229.196z M192.021,230.994
	c-0.189,0.01-0.347,0.005-0.471-0.021V229.4c0.099-0.028,0.288-0.055,0.536-0.066c0.627-0.029,1.037,0.207,1.037,0.742
	C193.123,230.635,192.705,230.963,192.021,230.994z M199.761,230.74c0-0.583-0.235-1.171-1.2-1.1
	c-0.397,0.03-0.775,0.157-1.036,0.332c0.043,0.112,0.087,0.226,0.13,0.338c0.222-0.146,0.528-0.253,0.822-0.274
	c0.645-0.047,0.717,0.381,0.717,0.621v0.06c-1.22,0.084-1.897,0.513-1.897,1.216c0,0.42,0.326,0.814,0.964,0.769
	c0.451-0.032,0.789-0.262,0.966-0.504c0.007,0,0.013-0.001,0.02-0.001c0.015,0.12,0.03,0.242,0.045,0.362
	c0.175-0.013,0.348-0.025,0.522-0.039c-0.039-0.195-0.052-0.44-0.052-0.692V230.74L199.761,230.74z M199.174,231.757
	c-0.092,0.254-0.353,0.514-0.764,0.543c-0.293,0.021-0.542-0.124-0.542-0.467c0-0.564,0.711-0.715,1.337-0.751
	c0,0.168,0,0.337,0.001,0.505C199.206,231.641,199.193,231.702,199.174,231.757z M173.784,230.837c-0.008,0-0.017-0.002-0.026-0.002
	c-0.007-0.188-0.013-0.38-0.02-0.569c-0.167-0.005-0.335-0.01-0.503-0.014c0.02,0.27,0.026,0.563,0.026,0.907v2
	c0.189,0.006,0.379,0.012,0.568,0.015v-1.549c0-0.089,0.013-0.173,0.026-0.244c0.078-0.396,0.366-0.67,0.771-0.66
	c0.079,0.002,0.137,0.009,0.196,0.022v-0.497c-0.052-0.015-0.098-0.021-0.164-0.023
	C174.273,230.213,173.928,230.451,173.784,230.837z M229.259,227.766c-0.226,0.045-0.386,0.232-0.386,0.455
	c0,0.216,0.154,0.347,0.38,0.303c0.237-0.048,0.386-0.239,0.386-0.455C229.639,227.846,229.483,227.721,229.259,227.766z
	 M180.09,230.291c-0.523,0-0.889,0.267-1.045,0.543h-0.013c-0.011-0.161-0.022-0.32-0.033-0.48c-0.17-0.002-0.339-0.003-0.509-0.004
	c0.02,0.24,0.026,0.486,0.026,0.787v2.119c0.192,0.001,0.383,0.004,0.575,0.005v-1.748c0-0.09,0.013-0.18,0.039-0.246
	c0.098-0.293,0.392-0.538,0.771-0.537c0.543,0.001,0.732,0.392,0.732,0.859v1.677c0.191,0,0.384,0,0.575-0.001v-1.736
	C181.208,230.531,180.527,230.292,180.09,230.291z M177.587,231.463c0-0.582-0.235-1.19-1.202-1.206
	c-0.398-0.006-0.778,0.089-1.039,0.238c0.043,0.117,0.086,0.234,0.13,0.353c0.221-0.128,0.529-0.206,0.823-0.2
	c0.647,0.011,0.719,0.443,0.719,0.684v0.06c-1.222-0.024-1.901,0.343-1.901,1.047c0,0.42,0.327,0.843,0.967,0.854
	c0.45,0.008,0.791-0.191,0.967-0.417c0.006,0,0.013,0.001,0.02,0.001c0.015,0.122,0.031,0.244,0.045,0.366
	c0.175,0.003,0.349,0.005,0.523,0.007c-0.039-0.198-0.053-0.445-0.053-0.697V231.463z M177,232.43
	c-0.092,0.244-0.354,0.481-0.765,0.475c-0.294-0.006-0.542-0.173-0.542-0.517c0-0.563,0.712-0.652,1.339-0.631
	c0,0.168,0,0.336,0,0.505C177.033,232.316,177.02,232.375,177,232.43z M220.621,225.967c-0.207,0.034-0.356,0.202-0.356,0.388
	c0,0.181,0.143,0.302,0.343,0.269c0.227-0.036,0.369-0.203,0.362-0.384C220.971,226.054,220.835,225.932,220.621,225.967z
	 M220.337,230.066c0.188-0.03,0.379-0.061,0.568-0.092v-2.907c-0.189,0.032-0.38,0.062-0.568,0.093V230.066z M202.153,229.78
	c0.313-0.027,0.527,0.02,0.664,0.079l0.13-0.42c-0.157-0.059-0.457-0.11-0.796-0.08c-1.03,0.089-1.695,0.79-1.694,1.685
	c0,0.889,0.619,1.435,1.57,1.354c0.423-0.036,0.756-0.163,0.906-0.249c-0.033-0.129-0.066-0.258-0.097-0.388
	c-0.163,0.08-0.379,0.178-0.704,0.206c-0.626,0.057-1.095-0.321-1.095-0.993C201.039,230.366,201.43,229.842,202.153,229.78z
	 M223.407,226.576c-0.517,0.091-0.879,0.423-1.034,0.726c-0.004,0.001-0.008,0.002-0.013,0.004
	c-0.011-0.158-0.021-0.316-0.032-0.476c-0.168,0.029-0.336,0.058-0.504,0.085c0.02,0.237,0.025,0.481,0.025,0.783v2.118
	c0.19-0.031,0.38-0.063,0.568-0.096v-1.747c0-0.09,0.014-0.183,0.039-0.253c0.097-0.312,0.388-0.606,0.763-0.672
	c0.536-0.094,0.724,0.263,0.724,0.73v1.678c0.188-0.035,0.379-0.068,0.567-0.104v-1.734
	C224.511,226.622,223.839,226.502,223.407,226.576z M212.965,226.816c-0.267,0.034-0.553,0.149-0.766,0.369
	c-0.268,0.268-0.364,0.653-0.364,1.063v0.138c-0.147,0.018-0.295,0.036-0.441,0.056v0.402c0.146-0.019,0.294-0.037,0.441-0.056
	v2.505c0.188-0.024,0.377-0.048,0.564-0.072v-2.505c0.254-0.034,0.507-0.065,0.76-0.1v-0.403c-0.253,0.035-0.506,0.066-0.76,0.1
	v-0.155c0-0.444,0.124-0.856,0.611-0.921c0.162-0.021,0.279-0.006,0.363,0.019c0.026-0.14,0.053-0.278,0.078-0.419
	C213.342,226.809,213.166,226.79,212.965,226.816z M209.541,228.6c-0.872,0.101-1.561,0.749-1.561,1.721
	c0,0.919,0.656,1.424,1.508,1.324c0.762-0.089,1.566-0.656,1.566-1.732C211.055,229.022,210.444,228.493,209.541,228.6z
	 M209.515,231.245c-0.56,0.065-0.956-0.371-0.956-1.007c0-0.554,0.293-1.162,0.97-1.24c0.676-0.079,0.942,0.512,0.942,1.006
	C210.471,230.657,210.062,231.182,209.515,231.245z"/>
</svg>
