<?xml version="1.0" encoding="utf-8"?>
<!-- Generator: Adobe Illustrator 16.0.3, SVG Export Plug-In . SVG Version: 6.00 Build 0)  -->
<!DOCTYPE svg PUBLIC "-//W3C//DTD SVG 1.1//EN" "http://www.w3.org/Graphics/SVG/1.1/DTD/svg11.dtd">
<svg version="1.1" id="Layer_1" xmlns="http://www.w3.org/2000/svg" xmlns:xlink="http://www.w3.org/1999/xlink" x="0px" y="0px"
	 width="22.001px" height="22.026px" viewBox="169.644 169.499 22.001 22.026"
	 enable-background="new 169.644 169.499 22.001 22.026" xml:space="preserve">
<g>
	<path fill="#FFFFFF" d="M173.778,187.402c-1.243,0-2.434,0-3.751,0c0.67-0.662,1.307-1.191,1.816-1.824
		c0.635-0.788,1.389-1.107,2.37-0.943c0.956,0.16,1.652-0.189,2.299-0.926c0.98-1.114,2.083-2.122,3.193-3.235
		c-0.624-0.606-1.246-1.196-1.852-1.802c-2.632-2.629-5.258-5.265-7.89-7.894c-0.25-0.25-0.416-0.516-0.257-0.867
		c0.146-0.324,0.424-0.418,0.771-0.412c3.179,0.054,6.319,0.354,9.346,1.412c2.201,0.769,4.21,1.872,5.928,3.428
		c1.147-1.145,2.289-2.283,3.486-3.476c-0.294,0-0.558,0.021-0.815-0.007c-0.213-0.022-0.446-0.058-0.621-0.167
		c-0.253-0.158-0.327-0.432-0.229-0.726c0.098-0.292,0.317-0.454,0.617-0.456c1.134-0.009,2.268-0.004,3.451-0.004
		c0,0.451,0,0.876,0,1.302c0,0.666,0.01,1.332-0.005,1.998c-0.007,0.34-0.105,0.654-0.485,0.763
		c-0.31,0.089-0.579,0.001-0.749-0.273c-0.077-0.124-0.107-0.291-0.116-0.44c-0.017-0.309-0.005-0.619-0.005-0.934
		c-1.165,1.173-2.306,2.322-3.459,3.484c0.313,0.402,0.691,0.85,1.031,1.325c1.716,2.398,2.725,5.086,3.239,7.974
		c0.313,1.76,0.503,3.531,0.509,5.32c0.001,0.221,0.034,0.441,0.038,0.662c0.007,0.353-0.111,0.652-0.456,0.793
		c-0.34,0.139-0.598-0.034-0.833-0.271c-2.155-2.165-4.313-4.327-6.469-6.491c-1.068-1.072-2.133-2.147-3.274-3.297
		c-0.218,0.243-0.406,0.472-0.613,0.681c-1.102,1.112-2.214,2.217-3.309,3.336c-0.112,0.114-0.186,0.314-0.19,0.477
		c-0.021,0.73-0.005,1.462-0.013,2.193c-0.001,0.121-0.019,0.28-0.095,0.358c-0.833,0.857-1.679,1.702-2.609,2.64
		C173.778,189.804,173.778,188.628,173.778,187.402z M172.115,170.959c2.894,2.884,5.725,5.704,8.541,8.509
		c0.927-0.923,1.877-1.869,2.861-2.849C180.282,173.647,176.614,171.559,172.115,170.959z M190.162,188.991
		c-0.58-4.438-2.669-8.121-5.6-11.319c-0.998,0.973-1.964,1.916-2.909,2.839C184.485,183.333,187.318,186.157,190.162,188.991z"/>
</g>
</svg>
