<?xml version="1.0" encoding="utf-8"?>
<!-- Generator: Adobe Illustrator 16.0.3, SVG Export Plug-In . SVG Version: 6.00 Build 0)  -->
<!DOCTYPE svg PUBLIC "-//W3C//DTD SVG 1.1//EN" "http://www.w3.org/Graphics/SVG/1.1/DTD/svg11.dtd">
<svg version="1.1" id="Layer_1" xmlns="http://www.w3.org/2000/svg" xmlns:xlink="http://www.w3.org/1999/xlink" x="0px" y="0px"
	 width="17.221px" height="20px" viewBox="171.39 170.693 17.221 20" enable-background="new 171.39 170.693 17.221 20"
	 xml:space="preserve">
<path fill="#FF8583" d="M177.074,170.815c-0.056-0.04-0.122-0.069-0.193-0.089c-0.607-0.17-1.684,0.327-1.729,1.083
	c0.046,0.142,0.194,0.453,0.421,0.88c0.808-0.232,1.502-0.521,2.02-0.767C177.381,171.521,177.205,171.149,177.074,170.815z
	 M188.61,190.382c0,0-0.659-4.646-3.808-8.477c-1.617-1.969-3.348-4.167-4.785-6.185c-0.545,0.325-1.155,0.81-1.746,1.351
	c0.896,1.292,1.893,2.578,2.857,3.544c2.743,2.747,5.062,6.913,5.411,9.402c0.034,0.009,0.505,0.486,1.06,0.642
	C188.153,190.814,188.61,190.382,188.61,190.382z"/>
<path fill="#FF8583" d="M180.465,174.522c0,0-0.392-1.023-0.651-1.409c-0.265-0.394-0.744-0.965-0.744-0.965
	s-3.625,2.348-7.68,1.789c0.318,1.785,1.514,4.604,3.351,5.996C175.246,178.666,178.5,175.154,180.465,174.522z M173.092,176.774
	c-0.347-0.674-0.637-1.399-0.836-2.088c0.125,0.005,0.25,0.007,0.375,0.007c0.667,0.001,1.358-0.061,2.058-0.187
	c0.044,0.067,0.132,0.241,0.212,0.648c0.24,1.212,0.148,3.024-0.038,3.308c-0.109,0.146-0.209,0.286-0.298,0.418
	C174.029,178.334,173.526,177.614,173.092,176.774z"/>
</svg>
