<?xml version="1.0" encoding="utf-8"?>
<!-- Generator: Adobe Illustrator 16.0.3, SVG Export Plug-In . SVG Version: 6.00 Build 0)  -->
<!DOCTYPE svg PUBLIC "-//W3C//DTD SVG 1.1//EN" "http://www.w3.org/Graphics/SVG/1.1/DTD/svg11.dtd">
<svg version="1.1" id="Capa_1" xmlns="http://www.w3.org/2000/svg" xmlns:xlink="http://www.w3.org/1999/xlink" x="0px" y="0px"
	 width="10.037px" height="25px" viewBox="175.224 167.862 10.037 25" enable-background="new 175.224 167.862 10.037 25"
	 xml:space="preserve">
<g>
	<path fill="#FFFFFF" d="M179.941,170.663c-0.149,0.015-0.307,0.023-0.462,0.048c-0.224,0.035-0.411,0.147-0.568,0.308
		c-0.114,0.116-0.229,0.231-0.342,0.349c-0.037,0.038-0.069,0.08-0.102,0.122c-0.062,0.08-0.117,0.098-0.204,0.061
		c-0.627-0.269-1.255-0.538-1.883-0.808c-0.07-0.03-0.111-0.131-0.079-0.198c0.264-0.555,0.585-1.071,1.023-1.508
		c0.146-0.146,0.306-0.271,0.482-0.378c0.312-0.19,0.623-0.383,0.937-0.568c0.33-0.194,0.686-0.256,1.066-0.216
		c0.615,0.065,1.186,0.251,1.703,0.59c0.395,0.259,0.771,0.542,1.126,0.856c0.309,0.274,0.532,0.61,0.725,0.97
		c0.066,0.126,0.13,0.254,0.188,0.384c0.044,0.098,0.037,0.12-0.053,0.175c-0.371,0.228-0.742,0.454-1.115,0.679
		c-0.149,0.091-0.302,0.179-0.453,0.267c-0.023,0.014-0.048,0.026-0.074,0.035c-0.153,0.052-0.187,0.039-0.273-0.096
		c-0.134-0.206-0.268-0.414-0.449-0.58C180.799,170.849,180.407,170.676,179.941,170.663z"/>
	<path fill="#FFFFFF" d="M180.251,192.862c-0.276-0.01-0.553-0.004-0.827-0.034c-0.222-0.023-0.441-0.082-0.658-0.14
		c-0.307-0.083-0.607-0.187-0.884-0.349c-0.042-0.024-0.085-0.051-0.123-0.082c-0.313-0.262-0.624-0.525-0.936-0.787
		c-0.116-0.098-0.204-0.213-0.25-0.358c-0.024-0.077-0.058-0.15-0.086-0.226c-0.039-0.101-0.022-0.155,0.078-0.19
		c0.165-0.057,0.334-0.103,0.5-0.158c0.428-0.142,0.855-0.285,1.283-0.429c0.151-0.051,0.289-0.02,0.417,0.065
		c0.024,0.017,0.042,0.044,0.059,0.07c0.039,0.062,0.075,0.126,0.112,0.188c0.037,0.064,0.088,0.114,0.159,0.137
		c0.147,0.048,0.293,0.11,0.445,0.133c0.312,0.046,0.626,0.063,0.932-0.045c0.087-0.031,0.167-0.072,0.235-0.137
		c0.035-0.035,0.071-0.068,0.107-0.103c0.129-0.119,0.298-0.128,0.42-0.001c0.103,0.107,0.227,0.175,0.351,0.247
		c0.39,0.229,0.779,0.455,1.17,0.682c0.018,0.01,0.035,0.021,0.051,0.032c0.093,0.067,0.097,0.128,0.021,0.212
		c-0.056,0.061-0.109,0.124-0.158,0.189c-0.105,0.141-0.227,0.263-0.375,0.357c-0.246,0.157-0.489,0.319-0.737,0.475
		c-0.229,0.144-0.478,0.222-0.752,0.22c-0.185-0.001-0.369,0.013-0.554,0.021C180.252,192.855,180.251,192.858,180.251,192.862z"/>
	<path fill="#FFFFFF" d="M184.854,180.959c-0.023,0.147-0.052,0.352-0.089,0.555c-0.046,0.25-0.098,0.498-0.149,0.747
		c-0.038,0.185-0.201,0.266-0.365,0.176c-0.553-0.299-1.104-0.602-1.656-0.901c-0.037-0.02-0.08-0.032-0.122-0.04
		c-0.098-0.02-0.14-0.078-0.122-0.177c0.047-0.264,0.121-0.52,0.207-0.771c0.02-0.057,0.032-0.112,0.019-0.172
		c-0.006-0.024-0.005-0.051-0.005-0.076c-0.002-0.091,0.03-0.122,0.12-0.104c0.348,0.071,0.694,0.143,1.04,0.219
		c0.211,0.046,0.416,0.107,0.613,0.201c0.108,0.051,0.232,0.073,0.352,0.099C184.816,180.739,184.855,180.778,184.854,180.959z"/>
	<path fill="#FFFFFF" d="M175.573,178.531c0.114-0.019,0.218-0.037,0.322-0.054c0.548-0.091,1.095-0.181,1.643-0.271
		c0.076-0.013,0.151-0.025,0.227-0.037c0.08-0.012,0.122,0.01,0.155,0.088c0.061,0.146,0.118,0.294,0.175,0.442
		c0.068,0.176,0.133,0.352,0.199,0.528c0.036,0.095,0.025,0.117-0.069,0.15c-0.694,0.244-1.387,0.488-2.081,0.732
		c-0.092,0.033-0.104,0.031-0.136-0.063c-0.068-0.202-0.132-0.406-0.194-0.61c-0.072-0.237-0.144-0.475-0.211-0.714
		C175.585,178.663,175.583,178.598,175.573,178.531z"/>
	<path fill="#FFFFFF" d="M176.384,180.98c0.731-0.334,1.458-0.667,2.188-1.001c0.009,0.015,0.018,0.028,0.024,0.042
		c0.166,0.344,0.332,0.687,0.497,1.031c0.014,0.028,0.025,0.063,0.022,0.094c-0.002,0.024-0.02,0.058-0.042,0.07
		c-0.668,0.394-1.338,0.785-2.008,1.178c-0.009,0.005-0.019,0.009-0.033,0.016C176.817,181.935,176.602,181.461,176.384,180.98z"/>
	<path fill="#FFFFFF" d="M177.529,176.182c0.013,0.211,0.026,0.414,0.039,0.616c0.011,0.18,0.037,0.356,0.102,0.525
		c0.005,0.014,0.01,0.028,0.013,0.042c0.018,0.069,0.001,0.106-0.069,0.124c-0.146,0.036-0.291,0.071-0.438,0.096
		c-0.297,0.05-0.594,0.103-0.893,0.136c-0.197,0.022-0.398,0.014-0.597,0.018c-0.109,0.002-0.219,0-0.338,0
		c-0.026-0.546-0.052-1.089-0.079-1.641C176.025,176.125,176.777,176.154,177.529,176.182z"/>
	<path fill="#FFFFFF" d="M181.677,187.026c0.031-0.343,0.063-0.67,0.093-0.997c0.003-0.037,0.001-0.073,0.005-0.109
		c0.01-0.081,0.055-0.118,0.132-0.097c0.254,0.068,0.517,0.071,0.774,0.104c0.379,0.048,0.759,0.087,1.138,0.13
		c0.033,0.004,0.066,0.004,0.098,0.012c0.083,0.021,0.121,0.071,0.113,0.155c-0.021,0.228-0.043,0.455-0.066,0.682
		c-0.019,0.179-0.039,0.356-0.061,0.534c-0.013,0.106-0.088,0.158-0.193,0.14c-0.616-0.108-1.233-0.216-1.851-0.324
		c-0.071-0.013-0.145-0.031-0.171-0.108C181.673,187.105,181.679,187.058,181.677,187.026z"/>
	<path fill="#FFFFFF" d="M176.814,175.466c-0.182-0.015-0.367-0.021-0.549-0.048c-0.142-0.021-0.278-0.075-0.42-0.101
		c-0.114-0.021-0.232-0.029-0.349-0.028c-0.096,0-0.174-0.035-0.231-0.103c-0.028-0.034-0.042-0.089-0.042-0.135
		c0.002-0.314,0.053-0.622,0.142-0.922c0.007-0.025,0.018-0.049,0.019-0.074c0.004-0.113,0.067-0.198,0.136-0.279
		c0.016-0.018,0.047-0.029,0.072-0.031c0.137-0.009,0.265,0.012,0.391,0.079c0.08,0.043,0.177,0.056,0.267,0.078
		c0.296,0.072,0.592,0.145,0.889,0.21c0.131,0.029,0.266,0.042,0.4,0.061c0.069,0.01,0.09,0.042,0.083,0.12
		c-0.02,0.24-0.038,0.481-0.056,0.721c-0.005,0.069-0.001,0.139-0.008,0.208c-0.015,0.128-0.064,0.188-0.19,0.203
		C177.185,175.445,177.001,175.453,176.814,175.466z"/>
	<path fill="#FFFFFF" d="M185.034,179.649c-0.137,0.033-0.266,0.049-0.4,0.02c-0.267-0.059-0.534-0.123-0.805-0.161
		c-0.203-0.028-0.411-0.023-0.617-0.028c-0.068-0.001-0.13-0.009-0.186-0.051c-0.036-0.027-0.079-0.046-0.112-0.076
		c-0.053-0.047-0.057-0.116-0.064-0.181c-0.03-0.263,0.007-0.525,0.012-0.788c0-0.041,0.019-0.082,0.032-0.121
		c0.015-0.045,0.054-0.058,0.096-0.061c0.129-0.007,0.259-0.015,0.389-0.019c0.237-0.006,0.475-0.013,0.712-0.014
		c0.152,0,0.304,0.01,0.455,0.018c0.021,0.001,0.044,0.009,0.061,0.021c0.061,0.044,0.122,0.04,0.185,0.008
		c0.139-0.07,0.273-0.071,0.403,0.018c0.068,0.046,0.072,0.117,0.064,0.187c-0.013,0.109-0.03,0.217-0.051,0.325
		c-0.033,0.175-0.07,0.35-0.107,0.525c-0.007,0.032-0.021,0.063-0.035,0.092C185.021,179.453,184.988,179.545,185.034,179.649z"/>
	<path fill="#FFFFFF" d="M176.162,171.451c0.111,0.002,0.245,0.047,0.377,0.103c0.45,0.188,0.901,0.371,1.352,0.559
		c0.055,0.023,0.108,0.054,0.156,0.089c0.053,0.038,0.061,0.077,0.028,0.133c-0.128,0.222-0.162,0.472-0.212,0.716
		c-0.005,0.025-0.006,0.051-0.004,0.076c0.014,0.157-0.111,0.262-0.263,0.219c-0.172-0.049-0.342-0.108-0.516-0.146
		c-0.225-0.049-0.453-0.08-0.68-0.12c-0.03-0.005-0.061-0.014-0.086-0.03c-0.1-0.062-0.205-0.1-0.325-0.099
		c-0.085,0.001-0.171-0.01-0.257-0.016c-0.063-0.004-0.088-0.026-0.083-0.089c0.006-0.091,0.014-0.183,0.036-0.271
		c0.079-0.304,0.164-0.606,0.247-0.909c0.005-0.018,0.009-0.036,0.012-0.053C175.959,171.483,176,171.447,176.162,171.451z"/>
	<path fill="#FFFFFF" d="M176.98,185.068c0.141,0.025,0.275,0.051,0.409,0.074c0.137,0.024,0.273,0.051,0.411,0.067
		c0.058,0.008,0.118-0.011,0.178-0.015c0.039-0.002,0.081-0.009,0.118,0.002c0.167,0.046,0.342,0.061,0.5,0.14
		c0.026,0.014,0.061,0.012,0.091,0.015c0.089,0.01,0.14,0.048,0.142,0.137c0.003,0.123-0.009,0.247-0.019,0.37
		c-0.012,0.147-0.026,0.295-0.044,0.441c-0.018,0.139-0.042,0.277-0.063,0.419c-0.1-0.004-0.193-0.008-0.286-0.013
		c-0.588-0.029-1.176-0.059-1.764-0.089c-0.102-0.005-0.126-0.028-0.123-0.132c0.002-0.049,0.009-0.102,0.031-0.144
		c0.098-0.178,0.134-0.372,0.176-0.567c0.017-0.079,0.055-0.158,0.099-0.229c0.071-0.116,0.115-0.239,0.13-0.374
		C176.968,185.144,176.973,185.114,176.98,185.068z"/>
	<path fill="#FFFFFF" d="M183.914,174.058c0.057,0.008,0.103,0.012,0.147,0.021c0.071,0.013,0.105-0.009,0.137-0.073
		c0.014-0.028,0.044-0.057,0.072-0.066c0.131-0.041,0.267-0.064,0.405-0.053c0.104,0.007,0.154,0.047,0.173,0.149
		c0.052,0.282,0.1,0.564,0.149,0.847c0.009,0.05,0.016,0.101,0.027,0.151c0.02,0.092-0.009,0.165-0.081,0.223
		c-0.06,0.048-0.127,0.073-0.203,0.086c-0.302,0.052-0.603,0.111-0.904,0.166c-0.077,0.014-0.155,0.022-0.233,0.031
		c-0.112,0.013-0.225,0.023-0.337,0.04c-0.02,0.003-0.041,0.027-0.054,0.046c-0.071,0.111-0.117,0.132-0.247,0.107
		c-0.071-0.013-0.11-0.046-0.117-0.118c-0.019-0.196-0.037-0.393-0.046-0.589c-0.006-0.118-0.01-0.232-0.066-0.34
		c-0.03-0.057-0.008-0.114,0.031-0.163c0.015-0.018,0.034-0.034,0.055-0.045c0.156-0.082,0.309-0.174,0.472-0.241
		c0.158-0.064,0.327-0.102,0.491-0.149C183.831,174.073,183.878,174.066,183.914,174.058z"/>
	<path fill="#FFFFFF" d="M184.402,172.852c-0.008,0.083-0.045,0.138-0.117,0.168c-0.392,0.166-0.782,0.333-1.174,0.498
		c-0.026,0.011-0.056,0.017-0.084,0.019c-0.064,0.003-0.119,0.024-0.167,0.07c-0.049,0.047-0.097,0.095-0.152,0.133
		c-0.104,0.071-0.184,0.042-0.225-0.078c-0.085-0.249-0.168-0.498-0.255-0.745c-0.021-0.06-0.051-0.113-0.101-0.159
		c-0.056-0.053-0.069-0.132-0.063-0.208c0.002-0.02,0.024-0.045,0.044-0.056c0.515-0.268,1.03-0.534,1.546-0.801
		c0.022-0.012,0.043-0.028,0.063-0.043c0.094-0.077,0.186-0.065,0.238,0.046c0.079,0.168,0.149,0.34,0.219,0.513
		c0.067,0.167,0.129,0.337,0.191,0.507C184.382,172.76,184.391,172.807,184.402,172.852z"/>
	<path fill="#FFFFFF" d="M184.303,177.489c-0.218,0.007-0.436,0.015-0.652,0.02c-0.027,0.001-0.058-0.008-0.082-0.02
		c-0.058-0.028-0.109-0.035-0.172-0.005c-0.103,0.049-0.213,0.048-0.32,0.012c-0.121-0.04-0.128-0.053-0.128-0.188
		c0-0.23,0-0.46,0-0.691c0-0.017,0.001-0.033-0.001-0.049c-0.009-0.12,0.001-0.136,0.118-0.169c0.178-0.049,0.354-0.099,0.533-0.144
		c0.15-0.037,0.302-0.07,0.453-0.1c0.107-0.021,0.216-0.019,0.326-0.002c0.058,0.009,0.122-0.015,0.18-0.033
		c0.088-0.028,0.176-0.061,0.261-0.098c0.146-0.063,0.335,0.084,0.345,0.242c0.019,0.301,0.046,0.601,0.063,0.902
		c0.005,0.095-0.036,0.183-0.103,0.252c-0.021,0.021-0.057,0.037-0.087,0.039c-0.244,0.014-0.489,0.024-0.733,0.036
		C184.303,177.491,184.303,177.49,184.303,177.489z"/>
	<path fill="#FFFFFF" d="M182.386,176.482c0.007,0.165,0.014,0.329,0.023,0.493c0.004,0.07-0.024,0.122-0.081,0.157
		c-0.058,0.036-0.117,0.02-0.17-0.015c-0.172-0.115-0.343-0.23-0.514-0.346c-0.329-0.221-0.657-0.444-0.987-0.663
		c-0.101-0.066-0.146-0.147-0.152-0.271c-0.012-0.229-0.044-0.458-0.07-0.687c-0.007-0.064,0.01-0.105,0.071-0.123
		c0.045-0.013,0.093-0.017,0.141-0.021c0.012-0.001,0.026,0.008,0.037,0.016c0.036,0.026,0.067,0.06,0.106,0.08
		c0.453,0.236,0.908,0.471,1.362,0.705c0.026,0.014,0.058,0.02,0.088,0.021c0.074,0.005,0.112,0.036,0.116,0.11
		C182.368,176.121,182.377,176.302,182.386,176.482C182.386,176.482,182.386,176.482,182.386,176.482z"/>
	<path fill="#FFFFFF" d="M183.354,189.155c-0.084-0.021-0.237-0.054-0.388-0.094c-0.343-0.09-0.685-0.184-1.026-0.273
		c-0.101-0.026-0.204-0.045-0.306-0.067c-0.082-0.018-0.123-0.064-0.14-0.151c-0.029-0.159-0.005-0.314,0.01-0.47
		c0.008-0.087,0.021-0.175,0.047-0.257c0.031-0.1,0.09-0.125,0.188-0.091c0.546,0.194,1.121,0.263,1.683,0.39
		c0.055,0.012,0.113,0.007,0.169,0.016c0.072,0.012,0.144,0.026,0.214,0.046c0.05,0.014,0.07,0.065,0.06,0.144
		c-0.014,0.096-0.028,0.191-0.046,0.286c-0.014,0.079-0.032,0.158-0.049,0.236c-0.003,0.013-0.006,0.024-0.01,0.037
		C183.706,189.093,183.619,189.157,183.354,189.155z"/>
	<path fill="#FFFFFF" d="M176.938,187.206c0.33,0.016,0.655,0.052,0.977,0.131c0.147,0.036,0.304,0.035,0.457,0.052
		c0.033,0.003,0.066,0.005,0.098,0.012c0.099,0.022,0.144,0.076,0.143,0.178c-0.001,0.124-0.005,0.249-0.011,0.373
		c-0.005,0.092-0.045,0.173-0.101,0.244c-0.017,0.021-0.046,0.036-0.072,0.047c-0.103,0.042-0.211,0.059-0.322,0.052
		c-0.573-0.037-1.147-0.054-1.721-0.047c-0.093,0.001-0.135-0.038-0.136-0.131c0-0.039,0.007-0.079,0.014-0.119
		c0.03-0.188,0.063-0.374,0.089-0.563c0.014-0.096,0.056-0.163,0.149-0.188c0.073-0.02,0.149-0.032,0.224-0.039
		C176.795,187.201,176.867,187.206,176.938,187.206z"/>
	<path fill="#FFFFFF" d="M182.434,178.335c-0.021,0.188-0.045,0.401-0.069,0.616c-0.008,0.061-0.045,0.086-0.12,0.083
		c-0.152-0.005-0.296-0.042-0.426-0.125c-0.357-0.231-0.716-0.461-1.072-0.695c-0.045-0.03-0.077-0.081-0.112-0.125
		c-0.01-0.012-0.014-0.031-0.014-0.046c0-0.265,0.005-0.53-0.001-0.794c-0.002-0.075,0.032-0.121,0.077-0.166
		c0.009-0.009,0.04-0.006,0.056,0.001c0.274,0.129,0.549,0.258,0.822,0.39c0.147,0.072,0.296,0.143,0.438,0.224
		c0.115,0.066,0.223,0.146,0.333,0.221c0.046,0.032,0.07,0.08,0.074,0.135C182.426,178.139,182.428,178.223,182.434,178.335z"/>
	<path fill="#FFFFFF" d="M178.182,174.902c0.006-0.188,0.012-0.376,0.021-0.565c0.001-0.027,0.016-0.06,0.036-0.078
		c0.44-0.396,0.881-0.792,1.323-1.187c0.034-0.031,0.126-0.035,0.161-0.005c0.007,0.006,0.011,0.019,0.012,0.029
		c0.028,0.32,0.059,0.641,0.084,0.961c0.008,0.107-0.033,0.193-0.121,0.267c-0.464,0.392-0.923,0.79-1.383,1.185
		c-0.01,0.008-0.02,0.02-0.031,0.022c-0.028,0.007-0.064,0.023-0.085,0.013c-0.02-0.01-0.035-0.05-0.034-0.077
		c0.003-0.188,0.012-0.376,0.018-0.565C178.183,174.902,178.183,174.902,178.182,174.902z"/>
	<path fill="#FFFFFF" d="M177.277,188.87c0.298,0,0.596,0,0.894,0c0.021,0,0.047,0,0.063-0.011c0.093-0.067,0.209,0.025,0.221,0.116
		c0.01,0.072,0.017,0.145,0.022,0.218c0.006,0.08,0.009,0.16,0.014,0.24c0.004,0.07-0.021,0.103-0.098,0.121
		c-0.288,0.072-0.578,0.143-0.866,0.216c-0.398,0.101-0.795,0.203-1.193,0.307c-0.051,0.014-0.073-0.004-0.083-0.049
		c-0.005-0.023-0.009-0.047-0.009-0.07c-0.005-0.26-0.015-0.52-0.012-0.778c0.001-0.086,0.031-0.172,0.052-0.257
		c0.011-0.048,0.046-0.062,0.095-0.062c0.3,0.001,0.6,0.001,0.899,0.001C177.277,188.865,177.277,188.867,177.277,188.87z"/>
	<path fill="#FFFFFF" d="M183.571,190.015c-0.001,0.006-0.001,0.022-0.007,0.038c-0.065,0.189-0.131,0.379-0.196,0.569
		c-0.044,0.127-0.146,0.213-0.224,0.315c-0.026,0.036-0.062,0.023-0.093,0.003c-0.219-0.139-0.438-0.277-0.655-0.418
		c-0.204-0.132-0.405-0.269-0.611-0.396c-0.06-0.036-0.132-0.052-0.198-0.075c-0.043-0.016-0.089-0.024-0.13-0.042
		c-0.161-0.068-0.209-0.165-0.178-0.336c0.015-0.08,0.024-0.162,0.031-0.243c0.006-0.063,0.03-0.106,0.093-0.128
		c0.083-0.027,0.163-0.035,0.251-0.01c0.587,0.173,1.175,0.341,1.762,0.511C183.509,189.83,183.573,189.913,183.571,190.015z"/>
	<path fill="#FFFFFF" d="M179.983,176.196c-0.005,0.071-0.032,0.153-0.108,0.213c-0.445,0.35-0.891,0.7-1.337,1.049
		c-0.03,0.023-0.065,0.042-0.1,0.054c-0.077,0.026-0.121,0-0.135-0.079c-0.038-0.214-0.073-0.428-0.11-0.643
		c-0.008-0.046-0.017-0.093-0.028-0.139c-0.01-0.044,0.012-0.076,0.041-0.101c0.368-0.321,0.736-0.641,1.104-0.961
		c0.13-0.112,0.259-0.226,0.389-0.338c0.011-0.009,0.021-0.02,0.033-0.028c0.039-0.029,0.082-0.053,0.132-0.034
		c0.051,0.02,0.057,0.068,0.061,0.114c0.016,0.235,0.031,0.47,0.046,0.706C179.976,176.064,179.979,176.119,179.983,176.196z"/>
	<path fill="#FFFFFF" d="M182.107,174.468c-0.006,0.053-0.011,0.105-0.017,0.158c-0.005,0.038,0.006,0.065,0.037,0.09
		c0.097,0.078,0.104,0.126,0.042,0.236c-0.022,0.04-0.066,0.053-0.12,0.029c-0.09-0.041-0.18-0.082-0.267-0.127
		c-0.421-0.221-0.84-0.444-1.26-0.666c-0.03-0.016-0.064-0.025-0.093-0.043c-0.018-0.011-0.039-0.031-0.042-0.05
		c-0.01-0.059-0.014-0.12-0.017-0.18c-0.013-0.239-0.023-0.479-0.037-0.717c-0.003-0.049-0.018-0.097-0.021-0.146
		c-0.005-0.065,0.01-0.078,0.073-0.081c0.058-0.002,0.108,0.008,0.16,0.037c0.271,0.147,0.544,0.292,0.819,0.432
		c0.089,0.045,0.187,0.065,0.289,0.057c0.022-0.002,0.056,0.015,0.067,0.033c0.066,0.103,0.133,0.205,0.188,0.313
		c0.058,0.112,0.109,0.228,0.15,0.346c0.031,0.088,0.042,0.183,0.062,0.275C182.117,174.466,182.112,174.467,182.107,174.468z"/>
	<path fill="#FFFFFF" d="M178.603,178.416c-0.007-0.086,0.035-0.138,0.097-0.191c0.392-0.338,0.78-0.68,1.169-1.021
		c0.09-0.079,0.185-0.058,0.223,0.055c0.019,0.054,0.029,0.114,0.032,0.171c0.013,0.219,0.022,0.438,0.032,0.657
		c0.003,0.08-0.042,0.135-0.095,0.184c-0.089,0.081-0.182,0.159-0.272,0.239c-0.245,0.217-0.489,0.436-0.733,0.653
		c-0.028,0.025-0.058,0.051-0.091,0.07c-0.083,0.049-0.151,0.023-0.178-0.069c-0.031-0.107-0.059-0.215-0.087-0.323
		c-0.023-0.086-0.047-0.173-0.067-0.26C178.62,178.527,178.613,178.471,178.603,178.416z"/>
	<path fill="#FFFFFF" d="M180.718,179.689c0-0.109-0.001-0.219,0.001-0.329c0.001-0.042,0.002-0.084,0.013-0.125
		c0.021-0.088,0.091-0.117,0.173-0.076c0.022,0.011,0.044,0.026,0.064,0.041c0.278,0.207,0.557,0.415,0.836,0.621
		c0.065,0.048,0.135,0.091,0.204,0.134c0.073,0.045,0.106,0.114,0.102,0.194c-0.008,0.105-0.028,0.209-0.046,0.314
		c-0.022,0.137-0.049,0.272-0.073,0.409c-0.019,0.108-0.083,0.15-0.184,0.105c-0.058-0.025-0.111-0.063-0.162-0.101
		c-0.246-0.189-0.491-0.38-0.736-0.571c-0.007-0.005-0.014-0.013-0.021-0.017c-0.137-0.063-0.175-0.172-0.159-0.315
		c0.01-0.094,0.001-0.19,0.001-0.285C180.726,179.689,180.722,179.689,180.718,179.689z"/>
	<path fill="#FFFFFF" d="M179.562,180.811c-0.11-0.213-0.217-0.42-0.324-0.628c-0.028-0.054-0.056-0.107-0.082-0.161
		c-0.05-0.102-0.026-0.161,0.069-0.221c0.237-0.149,0.47-0.303,0.704-0.455c0.03-0.02,0.065-0.036,0.09-0.062
		c0.052-0.053,0.107-0.029,0.162-0.011c0.01,0.003,0.02,0.024,0.021,0.037c0.023,0.253,0.04,0.506,0.069,0.758
		c0.011,0.09-0.016,0.142-0.083,0.198c-0.199,0.166-0.391,0.341-0.586,0.512C179.591,180.788,179.58,180.796,179.562,180.811z"/>
	<path fill="#FFFFFF" d="M178.51,172.916c0.001-0.018,0-0.037,0.004-0.054c0.093-0.386,0.223-0.756,0.451-1.085
		c0.107-0.155,0.258-0.259,0.417-0.347c0.048-0.026,0.12-0.011,0.181-0.007c0.016,0.001,0.038,0.028,0.045,0.048
		c0.035,0.104,0.073,0.207,0.095,0.313c0.027,0.128,0.016,0.254-0.098,0.342c-0.104,0.08-0.216,0.149-0.32,0.229
		c-0.067,0.052-0.132,0.11-0.187,0.175c-0.102,0.122-0.195,0.251-0.295,0.374c-0.034,0.042-0.074,0.084-0.121,0.109
		c-0.036,0.02-0.092,0.03-0.126,0.015c-0.029-0.013-0.04-0.068-0.059-0.104C178.501,172.921,178.505,172.918,178.51,172.916z"/>
	<path fill="#FFFFFF" d="M180.379,171.261c0.406,0.269,0.736,0.62,0.952,1.072c0.041,0.084,0.083,0.167,0.123,0.251
		c0.02,0.041,0.026,0.083-0.013,0.115c-0.04,0.033-0.083,0.02-0.122-0.007c-0.006-0.004-0.011-0.009-0.017-0.013
		c-0.181-0.139-0.364-0.275-0.542-0.418c-0.152-0.123-0.335-0.174-0.513-0.238c-0.032-0.011-0.043-0.022-0.043-0.055
		c0-0.194-0.002-0.388-0.004-0.582c-0.001-0.073,0.029-0.104,0.104-0.11C180.325,171.274,180.345,171.268,180.379,171.261z"/>
	<path fill="#FFFFFF" d="M179.913,186.742c-0.019,0.115-0.043,0.259-0.065,0.403c-0.005,0.033-0.004,0.068,0,0.102
		c0.008,0.06-0.019,0.097-0.079,0.087c-0.129-0.021-0.254-0.054-0.349-0.153c-0.012-0.014-0.026-0.026-0.042-0.035
		c-0.166-0.094-0.215-0.253-0.239-0.427c-0.02-0.148,0.012-0.291,0.047-0.434c0.023-0.094,0.099-0.149,0.185-0.18
		c0.03-0.011,0.084,0.004,0.108,0.026c0.132,0.126,0.257,0.26,0.387,0.389C179.919,186.576,179.908,186.645,179.913,186.742z"/>
	<path fill="#FFFFFF" d="M180.45,187.148c0.005-0.058,0.012-0.116,0.017-0.174c0.007-0.091,0.011-0.183,0.021-0.272
		c0.003-0.023,0.017-0.052,0.035-0.066c0.069-0.057,0.147-0.091,0.24-0.09c0.068,0.001,0.124-0.026,0.175-0.075
		c0.046-0.045,0.106-0.076,0.165-0.105c0.055-0.027,0.096-0.006,0.103,0.056c0.007,0.072,0.006,0.146,0.001,0.219
		c-0.01,0.135-0.026,0.269-0.036,0.404c-0.002,0.021,0.021,0.044,0.026,0.068c0.005,0.019,0.01,0.046,0,0.06
		c-0.015,0.019-0.041,0.03-0.063,0.042c-0.126,0.065-0.249,0.139-0.381,0.192c-0.133,0.053-0.291,0.019-0.295-0.164
		c-0.001-0.031,0-0.063,0-0.094C180.454,187.148,180.452,187.148,180.45,187.148z"/>
	<path fill="#FFFFFF" d="M179.685,188.387c-0.003,0.053-0.004,0.109-0.011,0.166c-0.009,0.078-0.046,0.104-0.124,0.09
		c-0.104-0.019-0.2-0.055-0.282-0.125c-0.027-0.023-0.059-0.044-0.091-0.061c-0.173-0.086-0.25-0.307-0.182-0.478
		c0.023-0.058,0.045-0.115,0.076-0.169c0.036-0.062,0.168-0.097,0.231-0.067c0.012,0.006,0.022,0.02,0.031,0.03
		c0.099,0.11,0.2,0.219,0.295,0.332c0.025,0.029,0.038,0.074,0.045,0.113C179.684,188.272,179.682,188.328,179.685,188.387z"/>
	<path fill="#FFFFFF" d="M179.502,189.817c-0.013,0.073-0.02,0.147-0.039,0.219c-0.026,0.098-0.125,0.121-0.197,0.047
		c-0.055-0.058-0.103-0.123-0.149-0.188c-0.094-0.133-0.155-0.28-0.196-0.438c-0.032-0.123-0.002-0.221,0.09-0.293
		c0.042-0.033,0.081-0.035,0.119-0.006c0.096,0.072,0.191,0.146,0.283,0.224c0.051,0.043,0.059,0.108,0.063,0.171
		c0.006,0.087,0.01,0.175,0.016,0.263C179.496,189.816,179.499,189.816,179.502,189.817z"/>
	<path fill="#FFFFFF" d="M180.153,190.069c0.01-0.107,0.02-0.215,0.031-0.322c0.01-0.096,0.059-0.17,0.132-0.229
		c0.083-0.067,0.167-0.136,0.254-0.198c0.033-0.023,0.074-0.039,0.114-0.046c0.066-0.013,0.105,0.028,0.098,0.095
		c-0.003,0.03-0.009,0.063-0.021,0.09c-0.064,0.127-0.09,0.266-0.12,0.402c-0.031,0.144-0.098,0.263-0.225,0.341
		c-0.045,0.028-0.097,0.051-0.148,0.065c-0.063,0.019-0.102-0.011-0.109-0.077c-0.004-0.04-0.001-0.08-0.001-0.12
		C180.156,190.069,180.155,190.069,180.153,190.069z"/>
	<path fill="#FFFFFF" d="M180.968,188.275c0,0.055,0.006,0.11-0.002,0.163c-0.006,0.038-0.021,0.088-0.049,0.108
		c-0.146,0.107-0.313,0.163-0.489,0.193c-0.081,0.014-0.124-0.013-0.14-0.093c-0.011-0.06-0.008-0.123-0.002-0.185
		c0.004-0.048,0.028-0.095,0.034-0.143c0.007-0.059,0.038-0.09,0.09-0.109c0.139-0.052,0.272-0.113,0.414-0.155
		c0.11-0.032,0.149,0.009,0.147,0.126c0,0.031,0,0.063,0,0.093C180.97,188.275,180.969,188.275,180.968,188.275z"/>
</g>
</svg>
