<?xml version="1.0" encoding="utf-8"?>
<!-- Generator: Adobe Illustrator 16.0.3, SVG Export Plug-In . SVG Version: 6.00 Build 0)  -->
<!DOCTYPE svg PUBLIC "-//W3C//DTD SVG 1.1//EN" "http://www.w3.org/Graphics/SVG/1.1/DTD/svg11.dtd">
<svg version="1.1" id="Capa_1" xmlns="http://www.w3.org/2000/svg" xmlns:xlink="http://www.w3.org/1999/xlink" x="0px" y="0px"
	 width="23.096px" height="25px" viewBox="169.161 167.8 23.096 25" enable-background="new 169.161 167.8 23.096 25"
	 xml:space="preserve">
<path fill="#FFFFFF" d="M189.711,174.479c0.845,0.146,1.69,0.292,2.546,0.439c-0.003-0.041-0.001-0.066-0.006-0.09
	c-0.078-0.355-0.208-0.691-0.396-1.002c-0.417-0.688-1.01-1.191-1.694-1.595c-0.021-0.012-0.064-0.017-0.079-0.005
	c-0.084,0.075-0.138,0.021-0.192-0.037c-0.063-0.066-0.11-0.163-0.187-0.195c-0.344-0.144-0.695-0.271-1.045-0.402
	c-0.115-0.043-0.232-0.078-0.38-0.127c0.193-0.038,0.347-0.07,0.501-0.096c0.585-0.1,1.159-0.239,1.706-0.473
	c0.164-0.07,0.314-0.173,0.5-0.277c-0.285-0.131-0.525-0.245-0.769-0.353c-0.689-0.305-1.399-0.547-2.144-0.684
	c-0.652-0.12-1.303-0.164-1.963-0.076c-0.737,0.099-1.419,0.342-2.044,0.743c-0.622,0.399-1.135,0.914-1.578,1.501
	c-0.081,0.107-0.159,0.217-0.239,0.326c0.057-0.384,0.134-0.755,0.214-1.125c0.081-0.372,0.165-0.743,0.249-1.123
	c-0.551,0.314-1.107,0.714-1.473,1.239c-0.288,0.414-0.727,1.303-0.656,1.823c0.067-0.005-0.037,0.26-0.073,0.261
	c-0.049,0.67,0.056,1.413,0.142,2.081c0.071,0.55,0.161,1.097,0.244,1.646c0.011,0.068-0.01,0.099-0.076,0.12
	c-0.15,0.046-0.297,0.104-0.445,0.153c-0.662,0.223-1.339,0.344-2.039,0.291c-0.452-0.034-0.874-0.169-1.252-0.425
	c-0.695-0.472-1.046-1.175-1.294-1.943c-0.123-0.38-0.213-0.771-0.332-1.152c-0.164-0.527-0.336-1.053-0.515-1.576
	c-0.257-0.753-0.571-1.481-1.014-2.146c-0.125-0.188-0.23-0.407-0.473-0.478c-0.199-0.058-0.4-0.124-0.604-0.148
	c-0.479-0.056-0.949-0.015-1.369,0.249c-0.097,0.061-0.215,0.17-0.227,0.268c-0.044,0.387-0.02,0.777,0.085,1.156
	c0.019,0.067,0.075,0.13,0.125,0.183c0.195,0.205,0.413,0.392,0.59,0.61c0.534,0.655,0.35,1.652-0.564,1.855
	c-0.093,0.136-0.151,0.249-0.235,0.337c-0.133,0.141-0.281,0.269-0.428,0.395c-0.973,0.839-1.495,1.907-1.626,3.176
	c-0.081,0.78-0.031,1.553,0.107,2.323c0.021,0.114,0.037,0.228,0.056,0.342c0.123-0.393,0.168-0.808,0.525-1.12
	c-0.088,0.903-0.065,1.755,0.395,2.538c0.448,0.763,1.114,1.285,1.883,1.728c-0.019-0.604-0.004-1.173,0.374-1.659
	c-0.113,0.146,0.168,1.056,0.211,1.246c0.086,0.384,0.199,0.762,0.364,1.119c0.155,0.336,0.353,0.648,0.582,0.939
	c0.083,0.104,0.619,0.835,0.736,0.812c0.012,0.218,0.333,0.411,0.315,0.438c0.28,0.33,0.777,0.601,1.143,0.824
	c0.421,0.257,0.875,0.455,1.353,0.582c0.469,0.125,0.941,0.235,1.417,0.329c0.232,0.047,0.482,0.091,0.709,0.051
	c0.417-0.073,0.831-0.188,1.232-0.323c0.792-0.268,1.666-0.609,2.297-1.173c0.397-0.354,1.362-1.897,1.329-1.99
	c0.434,0.024,0.596-0.643,0.679-0.929c0.069-0.242,0.374-0.811,0.259-1.064c0.117,0.259,0.221,0.518,0.318,0.779
	c0.052,0.136,0.118,0.161,0.22,0.064c0.138-0.131,0.276-0.262,0.403-0.401c0.188-0.207,0.366-0.421,0.537-0.619
	c-0.057,0.295-0.133,0.604-0.172,0.92c-0.031,0.248-0.022,0.502-0.019,0.753c0.001,0.085,0.043,0.169,0.071,0.274
	c0.866-0.81,1.444-1.73,1.554-2.907c0.183,0.366,0.357,0.725,0.506,1.093c0.149,0.373,0.271,0.757,0.407,1.139
	c-0.005,0.003,0.021-0.002,0.029-0.017c0.105-0.159,0.22-0.313,0.31-0.48c0.395-0.741,0.565-1.541,0.576-2.372
	c0.005-0.409-0.041-0.818-0.063-1.228c-0.002-0.038,0-0.075,0-0.134c0.149,0.214,0.275,0.411,0.418,0.594
	c0.298,0.385,0.604,0.764,0.91,1.143c0.045,0.055,0.107,0.097,0.167,0.149c0.216-0.5,0.524-1.686,0.381-2.979
	C191.541,176.985,190.904,175.603,189.711,174.479z M169.63,171.693c0.196-0.007,0.393-0.002,0.59-0.001
	c0.043,0,0.087,0.006,0.123,0.009c-0.155,0.178-0.315,0.336-0.446,0.517c-0.222,0.305-0.167,0.653,0.144,0.86
	c0.438,0.294,0.921,0.365,1.427,0.202c0.298-0.096,0.402-0.376,0.263-0.658c-0.144-0.291-0.372-0.51-0.611-0.72
	c-0.131-0.115-0.3-0.201-0.325-0.404c-0.007-0.059-0.03-0.116-0.037-0.175c-0.042-0.347-0.101-0.693-0.114-1.041
	c-0.007-0.175,0.03-0.378,0.12-0.525c0.26-0.429,0.705-0.594,1.167-0.699c0.525-0.119,1.051-0.102,1.566,0.07
	c0.473,0.158,0.858,0.419,1.07,0.892c0.02,0.044,0.069,0.088,0.115,0.105c0.087,0.033,0.18,0.056,0.272,0.066
	c0.161,0.017,0.323,0.021,0.487,0.03c-0.016-0.153-0.201-0.205-0.138-0.368c-0.212-0.242-0.433-0.496-0.66-0.754
	c0.075-0.015,0.149-0.027,0.223-0.045c0.105-0.026,0.167-0.095,0.19-0.2c0.024-0.104-0.038-0.15-0.118-0.199
	c-0.451-0.274-0.944-0.417-1.464-0.486c-0.307-0.04-0.613-0.039-0.917,0.031c-0.163,0.037-0.326,0.076-0.475,0.111
	c-0.038-0.172-0.075-0.339-0.112-0.511c-0.187,0.135-0.339,0.247-0.494,0.356c-0.135,0.095-0.273,0.186-0.407,0.282
	c-0.244,0.175-0.46,0.372-0.509,0.697c-0.193-0.115-0.254-0.299-0.337-0.497c-0.339,0.692-0.448,1.348,0.108,1.971
	c-0.049,0.024-0.082,0.042-0.116,0.057c-0.394,0.17-0.622,0.471-0.707,0.888C169.485,171.664,169.52,171.697,169.63,171.693z
	 M178.755,191.689c-0.224-0.116-0.233-0.115-0.123-0.339c0.346-0.702,0.697-1.402,1.049-2.102c0.077-0.153,0.163-0.303,0.264-0.487
	c-0.116,0.024-0.196,0.043-0.277,0.057c-0.141,0.024-0.284,0.067-0.424,0.062c-0.229-0.011-0.458-0.05-0.686-0.087
	c-0.081-0.014-0.105,0.015-0.122,0.084c-0.037,0.148-0.072,0.299-0.124,0.442c-0.252,0.712-0.508,1.424-0.77,2.133
	c-0.018,0.049-0.094,0.104-0.146,0.107c-0.641,0.045-1.272,0.137-1.876,0.363c-0.385,0.144-0.748,0.33-1.006,0.667
	c-0.047,0.061-0.085,0.128-0.14,0.21h6.476c0-0.007,0-0.014,0.001-0.021c-0.082-0.042-0.164-0.085-0.246-0.128
	C179.988,192.331,179.373,192.008,178.755,191.689z"/>
</svg>
