<?xml version="1.0" encoding="utf-8"?>
<!-- Generator: Adobe Illustrator 16.0.3, SVG Export Plug-In . SVG Version: 6.00 Build 0)  -->
<!DOCTYPE svg PUBLIC "-//W3C//DTD SVG 1.1//EN" "http://www.w3.org/Graphics/SVG/1.1/DTD/svg11.dtd">
<svg version="1.1" id="Layer_1" xmlns="http://www.w3.org/2000/svg" xmlns:xlink="http://www.w3.org/1999/xlink" x="0px" y="0px"
	 width="25px" height="23.62px" viewBox="166.652 166.977 25 23.62" enable-background="new 166.652 166.977 25 23.62"
	 xml:space="preserve">
<path fill="#FFFFFF" d="M173.061,175.466c0.131-0.016,0.426-0.09,0.836-0.214c-0.063-0.742-0.193-1.394-0.317-1.885
	c-0.385,0.115-0.738,0.204-1.051,0.26c-0.044,0.042-0.081,0.093-0.11,0.152C172.167,174.277,172.413,175.297,173.061,175.466z
	 M191.498,166.984c0,0-4.145-0.228-8.013,1.845c-1.987,1.065-4.192,2.188-6.192,3.088c0.188,0.529,0.504,1.142,0.872,1.749
	c1.276-0.556,2.563-1.199,3.568-1.87c2.857-1.907,6.872-3.202,9.092-3.077c0.015-0.028,0.51-0.354,0.739-0.809
	C191.795,167.455,191.498,166.984,191.498,166.984z M187.19,189.92c0-0.315-0.256-0.571-0.571-0.571h-2.28
	c-1.033-2.496-1.278-11.022-1.278-11.022c-0.018-0.125-0.159-0.218-0.317-0.218h-4.057c0.501-0.245,0.965-0.539,1.355-0.885
	c-1.013-0.657-3.5-4.086-3.71-5.9c0,0-0.956,0.163-1.335,0.322c-0.387,0.162-0.966,0.48-0.966,0.48s1.154,2.899,0.503,5.983h-3.366
	c-0.158,0-0.3,0.094-0.317,0.218c0,0-0.364,8.613-1.286,11.022h-2.34c-0.316,0-0.572,0.256-0.572,0.571v0.105
	c0,0.315,0.256,0.571,0.572,0.571h19.395c0.315,0,0.571-0.256,0.571-0.571l0,0V189.92z M175.139,178.108
	c0.11-0.565,0.173-1.161,0.184-1.774c0.065-0.026,0.232-0.073,0.599-0.073c1.094,0,2.65,0.392,2.865,0.603
	c0.107,0.12,0.211,0.23,0.312,0.331c-0.566,0.37-1.276,0.683-2.078,0.914H175.139z"/>
</svg>
