<?xml version="1.0" encoding="utf-8"?>
<!-- Generator: Adobe Illustrator 16.0.3, SVG Export Plug-In . SVG Version: 6.00 Build 0)  -->
<!DOCTYPE svg PUBLIC "-//W3C//DTD SVG 1.1//EN" "http://www.w3.org/Graphics/SVG/1.1/DTD/svg11.dtd">
<svg version="1.1" id="Layer_1" xmlns="http://www.w3.org/2000/svg" xmlns:xlink="http://www.w3.org/1999/xlink" x="0px" y="0px"
	 width="20px" height="20px" viewBox="170 170 20 20" enable-background="new 170 170 20 20" xml:space="preserve">
<path fill="#FFFFFF" d="M178.438,170h3.125c0.52,0,0.938,0.418,0.938,0.938v6.563h3.426c0.695,0,1.043,0.84,0.551,1.332
	l-5.941,5.945c-0.293,0.293-0.773,0.293-1.066,0l-5.949-5.945c-0.492-0.492-0.145-1.332,0.551-1.332h3.43v-6.563
	C177.5,170.418,177.918,170,178.438,170z M190,184.688v4.375c0,0.52-0.418,0.938-0.938,0.938h-18.125
	c-0.52,0-0.938-0.418-0.938-0.938v-4.375c0-0.52,0.418-0.938,0.938-0.938h5.73l1.914,1.914c0.785,0.785,2.051,0.785,2.836,0
	l1.914-1.914h5.73C189.582,183.75,190,184.168,190,184.688z M185.156,188.125c0-0.43-0.352-0.781-0.781-0.781
	s-0.781,0.352-0.781,0.781s0.352,0.781,0.781,0.781S185.156,188.555,185.156,188.125z M187.656,188.125
	c0-0.43-0.352-0.781-0.781-0.781s-0.781,0.352-0.781,0.781s0.352,0.781,0.781,0.781S187.656,188.555,187.656,188.125z"/>
</svg>
