<?xml version="1.0" encoding="utf-8"?>
<!-- Generator: Adobe Illustrator 16.0.3, SVG Export Plug-In . SVG Version: 6.00 Build 0)  -->
<!DOCTYPE svg PUBLIC "-//W3C//DTD SVG 1.1//EN" "http://www.w3.org/Graphics/SVG/1.1/DTD/svg11.dtd">
<svg version="1.1" id="Layer_1" xmlns="http://www.w3.org/2000/svg" xmlns:xlink="http://www.w3.org/1999/xlink" x="0px" y="0px"
	 width="20px" height="20px" viewBox="170.555 169.749 20 20" enable-background="new 170.555 169.749 20 20" xml:space="preserve">
<path fill="#FFFFFF" d="M186.805,169.75c1.032,0,1.917,0.366,2.649,1.101c0.734,0.733,1.101,1.616,1.101,2.649V186
	c0,1.032-0.366,1.915-1.101,2.648c-0.732,0.733-1.616,1.101-2.649,1.101h-2.448v-7.748h2.59l0.391-3.02h-2.98v-1.928
	c0-0.485,0.102-0.851,0.305-1.094c0.204-0.243,0.601-0.364,1.191-0.364l1.589-0.014v-2.695c-0.548-0.078-1.32-0.116-2.318-0.116
	c-1.181,0-2.123,0.347-2.831,1.041c-0.709,0.694-1.061,1.675-1.061,2.942v2.227h-2.604v3.021h2.604v7.747h-6.928
	c-1.032,0-1.917-0.366-2.649-1.101c-0.733-0.733-1.1-1.616-1.1-2.649v-12.5c0-1.034,0.366-1.917,1.1-2.649
	c0.733-0.733,1.617-1.1,2.649-1.1L186.805,169.75L186.805,169.75z"/>
</svg>
