<?xml version="1.0" encoding="utf-8"?>
<!-- Generator: Adobe Illustrator 16.0.3, SVG Export Plug-In . SVG Version: 6.00 Build 0)  -->
<!DOCTYPE svg PUBLIC "-//W3C//DTD SVG 1.1//EN" "http://www.w3.org/Graphics/SVG/1.1/DTD/svg11.dtd">
<svg version="1.1" id="Capa_1" xmlns="http://www.w3.org/2000/svg" xmlns:xlink="http://www.w3.org/1999/xlink" x="0px" y="0px"
	 width="25px" height="23.714px" viewBox="167.5 168.144 25 23.714" enable-background="new 167.5 168.144 25 23.714"
	 xml:space="preserve">
<g>
	<path fill="#FFFFFF" d="M173.382,183.519c-0.646,0-1.769,1.661-2.39,3.195c-0.05,0.123,0.007,0.264,0.111,0.345
		c0.104,0.082,0.247,0.093,0.361,0.027c0.312-0.177,0.708-0.35,1.115-0.437v1.865c0,0.959-0.779,1.738-1.738,1.738
		c-0.958,0-1.738-0.779-1.738-1.738v-19.569c0-0.443-0.359-0.802-0.803-0.802c-0.443,0-0.802,0.359-0.802,0.802v19.569
		c0,1.844,1.5,3.343,3.342,3.343c1.843,0,3.342-1.499,3.342-3.343v-4.194C174.185,183.877,173.826,183.519,173.382,183.519z"/>
	<path fill="#FFFFFF" d="M191.799,185.08c0-1.06,0.32-2.231,0.678-3.072c0.064-0.152-0.006-0.321-0.172-0.412
		c-0.167-0.091-0.388-0.08-0.54,0.025c-0.846,0.586-1.37,1.274-1.705,1.867c-1.314-0.705-3.269-1.29-5.048-1.664
		c-0.056-0.782,0.088-1.485,0.212-1.923c0.031-0.112,0.001-0.232-0.078-0.316c-0.081-0.084-0.199-0.12-0.313-0.094
		c-1.046,0.241-2.129,1.18-2.833,1.896c-0.14-0.009-0.279-0.016-0.396-0.016c-2.451,0-5.548,1.677-5.548,3.745
		c0,2.069,3.097,3.745,5.548,3.745c0.139,0,0.299-0.007,0.467-0.018c0.507,0.55,1.455,1.459,2.371,1.67
		c0.087,0.02,0.177-0.007,0.238-0.071c0.061-0.064,0.084-0.156,0.06-0.241c-0.106-0.379-0.229-1.02-0.13-1.714
		c1.88-0.367,4.035-0.982,5.451-1.743c0.334,0.593,0.857,1.281,1.704,1.867c0.152,0.105,0.373,0.116,0.54,0.025
		c0.165-0.091,0.236-0.26,0.172-0.412C192.118,187.384,191.799,186.14,191.799,185.08z M178.933,184.981
		c-0.409,0-0.742-0.333-0.742-0.742c0-0.41,0.333-0.743,0.742-0.743c0.412,0,0.743,0.333,0.743,0.743
		C179.676,184.648,179.345,184.981,178.933,184.981z"/>
	<path fill="#FFFFFF" d="M172.808,170.199c0.346,0,0.626-0.28,0.626-0.627c0-0.346-0.28-0.626-0.626-0.626s-0.626,0.28-0.626,0.626
		C172.181,169.919,172.461,170.199,172.808,170.199z"/>
	<path fill="#FFFFFF" d="M175.229,174.06c0.43,0,0.778-0.348,0.778-0.777c0-0.429-0.348-0.777-0.778-0.777
		c-0.429,0-0.776,0.348-0.776,0.777C174.452,173.712,174.799,174.06,175.229,174.06z"/>
	<path fill="#FFFFFF" d="M173.936,176.867c-0.623,0-1.128,0.505-1.128,1.128s0.505,1.128,1.128,1.128s1.127-0.505,1.127-1.128
		C175.063,177.372,174.558,176.867,173.936,176.867z"/>
	<path fill="#FFFFFF" d="M176.335,181.175c0-0.351-0.284-0.636-0.636-0.636c-0.351,0-0.636,0.285-0.636,0.636
		c0,0.352,0.285,0.636,0.636,0.636C176.051,181.811,176.335,181.526,176.335,181.175z"/>
</g>
</svg>
