<?xml version="1.0" encoding="utf-8"?>
<!-- Generator: Adobe Illustrator 16.0.3, SVG Export Plug-In . SVG Version: 6.00 Build 0)  -->
<!DOCTYPE svg PUBLIC "-//W3C//DTD SVG 1.1//EN" "http://www.w3.org/Graphics/SVG/1.1/DTD/svg11.dtd">
<svg version="1.1" id="Layer_1" xmlns="http://www.w3.org/2000/svg" xmlns:xlink="http://www.w3.org/1999/xlink" x="0px" y="0px"
	 width="20px" height="20px" viewBox="169.889 169.75 20 20" enable-background="new 169.889 169.75 20 20" xml:space="preserve">
<path fill="#FFFFFF" d="M172.975,186.495h3.008v-9.037h-3.008V186.495z M176.178,174.672c-0.009-0.451-0.165-0.825-0.469-1.12
	c-0.304-0.295-0.708-0.443-1.211-0.443s-0.914,0.147-1.23,0.443c-0.317,0.295-0.476,0.668-0.476,1.12
	c0,0.443,0.154,0.814,0.462,1.113s0.709,0.449,1.205,0.449h0.013c0.512,0,0.925-0.15,1.237-0.449S176.178,175.115,176.178,174.672z
	 M183.795,186.495h3.008v-5.183c0-1.337-0.316-2.348-0.95-3.034c-0.634-0.686-1.472-1.029-2.514-1.029
	c-1.181,0-2.087,0.508-2.721,1.523h0.025v-1.315h-3.007c0.026,0.573,0.026,3.584,0,9.037h3.007v-5.053
	c0-0.329,0.031-0.572,0.092-0.729c0.13-0.304,0.325-0.563,0.586-0.775c0.26-0.213,0.581-0.319,0.963-0.319
	c1.008,0,1.511,0.682,1.511,2.044V186.495L183.795,186.495z M189.889,173.5V186c0,1.033-0.367,1.916-1.101,2.649
	s-1.616,1.101-2.649,1.101h-12.5c-1.033,0-1.916-0.367-2.65-1.101c-0.733-0.733-1.1-1.616-1.1-2.649v-12.5
	c0-1.033,0.367-1.916,1.1-2.65c0.734-0.733,1.617-1.1,2.65-1.1h12.5c1.033,0,1.916,0.367,2.649,1.1
	C189.521,171.584,189.889,172.467,189.889,173.5z"/>
</svg>
