<?xml version="1.0" encoding="utf-8"?>
<!-- Generator: Adobe Illustrator 16.0.3, SVG Export Plug-In . SVG Version: 6.00 Build 0)  -->
<!DOCTYPE svg PUBLIC "-//W3C//DTD SVG 1.1//EN" "http://www.w3.org/Graphics/SVG/1.1/DTD/svg11.dtd">
<svg version="1.1" id="Layer_1" xmlns="http://www.w3.org/2000/svg" xmlns:xlink="http://www.w3.org/1999/xlink" x="0px" y="0px"
	 width="25px" height="11.553px" viewBox="167.5 0 25 11.553" enable-background="new 167.5 0 25 11.553" xml:space="preserve">
<g>
	<path fill="#FFFFFF" d="M167.5,11.553V0.015h2.969v1.216h-1.376v9.106h1.376v1.216H167.5L167.5,11.553z"/>
	<path fill="#FFFFFF" d="M174.424,5.212c0.999-0.029,1.101-0.551,1.101-0.985c0-0.362-0.043-0.738-0.087-1.13
		c-0.043-0.391-0.072-0.781-0.072-1.144c0-1.36,0.854-1.954,2.201-1.954h0.507v1.231h-0.261c-0.651,0-0.883,0.391-0.883,1.027
		c0,0.261,0.043,0.521,0.072,0.825c0.029,0.29,0.073,0.623,0.073,0.985c0.014,1.101-0.435,1.505-1.231,1.679v0.029
		c0.796,0.173,1.245,0.594,1.231,1.694c0,0.377-0.044,0.71-0.073,1.014c-0.029,0.289-0.072,0.564-0.072,0.81
		c0,0.637,0.217,1.043,0.883,1.043h0.261v1.216h-0.521c-1.289,0-2.187-0.521-2.187-1.97c0-0.362,0.029-0.752,0.072-1.143
		c0.043-0.391,0.087-0.768,0.087-1.13c0-0.405-0.102-0.956-1.101-0.984V5.212L174.424,5.212z"/>
	<path fill="#FFFFFF" d="M185.576,6.327c-0.984,0.029-1.101,0.579-1.101,0.984c0,0.362,0.044,0.739,0.087,1.129
		c0.044,0.391,0.087,0.781,0.087,1.143c0,1.448-0.897,1.97-2.201,1.97h-0.521v-1.216h0.26c0.667-0.015,0.884-0.406,0.884-1.043
		c0-0.246-0.029-0.521-0.072-0.81c-0.028-0.304-0.072-0.637-0.072-1.014c-0.015-1.1,0.435-1.521,1.245-1.694V5.747
		c-0.811-0.173-1.26-0.579-1.245-1.679c0-0.362,0.044-0.695,0.072-0.985c0.043-0.304,0.072-0.564,0.072-0.825
		c0-0.637-0.231-1.013-0.884-1.027h-0.26V0h0.507c1.361,0,2.215,0.594,2.215,1.954c0,0.362-0.043,0.753-0.087,1.144
		c-0.043,0.391-0.087,0.768-0.087,1.129c0,0.434,0.116,0.956,1.101,0.985V6.327z"/>
	<path fill="#FFFFFF" d="M192.5,0v11.553h-2.953v-1.216h1.375V1.216h-1.375V0H192.5z"/>
</g>
</svg>
