<?xml version="1.0" encoding="utf-8"?>
<!-- Generator: Adobe Illustrator 16.0.3, SVG Export Plug-In . SVG Version: 6.00 Build 0)  -->
<!DOCTYPE svg PUBLIC "-//W3C//DTD SVG 1.1//EN" "http://www.w3.org/Graphics/SVG/1.1/DTD/svg11.dtd">
<svg version="1.1" id="BackGround_and_Characters" xmlns="http://www.w3.org/2000/svg" xmlns:xlink="http://www.w3.org/1999/xlink"
	 x="0px" y="0px" width="200px" height="118.978px" viewBox="21.363 -97.003 200 118.978"
	 enable-background="new 21.363 -97.003 200 118.978" xml:space="preserve">
<g>
	<path fill="#FFFFFF" d="M71.015-1.46c1.668-0.454,3.074-1.33,4.41-2.313c1.335-0.981,2.624-2.025,3.958-3.061
		c0.004,0.095,0.028,0.167,0.006,0.218c-2.166,4.943-5.41,8.843-10.779,10.388C63.265,5.31,58.092,4.917,53.498,1.46
		c-3.705-2.788-5.74-6.646-6.467-11.163c-0.817-5.083-0.414-10.066,1.913-14.736c2.407-4.833,5.98-8.444,11.263-10.078
		c1.168-0.361,2.395-0.535,3.594-0.792c0.023,0.053,0.043,0.106,0.067,0.159c-0.139,0.11-0.279,0.218-0.418,0.33
		c-1.161,0.933-2.373,1.812-3.473,2.813c-3.013,2.741-4.854,6.142-5.507,10.171c-0.653,4.019-0.622,8.01,0.564,11.937
		c0.748,2.482,1.989,4.697,3.873,6.503c3.117,2.996,6.81,3.48,10.834,2.373c0.144-0.041,0.247-0.282,0.333-0.448
		c0.043-0.087,0.009-0.213,0.009-0.322c0-8.498-0.006-16.996,0.01-25.495c0.002-0.461-0.112-0.739-0.516-0.989
		c-1.15-0.714-1.915-1.79-2.544-2.957c-0.582,0.143-0.766,0.462-0.763,1.034c0.022,5.623,0.022,11.245,0.004,16.867
		c-0.004,0.99-0.066,1.991-0.22,2.969c-0.503,3.18-2.137,4.755-5.311,5.202C60.156-5.08,59.56-5.042,58.851-4.97
		c1.034-2.241,0.846-4.506,0.853-6.744c0.015-4.498,0.004-8.995,0.004-13.494c0-0.237,0-0.474,0-0.842
		c-0.752,0.502-1.423,0.947-2.133,1.422c-0.112-0.263-0.209-0.492-0.336-0.79c4.866-3.481,9.724-6.959,14.583-10.439
		c2.744,3.487,3.339,3.683,6.634,2.163c-0.488,1.769-1.221,3.316-2.569,4.52c-1.38,1.233-3.052,1.528-4.871,1.422
		C71.015-18.982,71.015-10.257,71.015-1.46z"/>
	<path fill="#FFFFFF" d="M123.031,4.17c-1.688-2.003-3.668-3.414-6.447-3.472c0.548-1.285,1.333-2.261,2.439-2.949
		c0.425-0.261,0.566-0.546,0.563-1.038c-0.021-3.674-0.01-7.35-0.014-11.026c0-0.432-0.019-0.865-0.053-1.297
		c-0.13-1.7-1.078-2.869-2.715-3.316c-0.168-0.045-0.423,0.018-0.566,0.127c-1.241,0.938-2.478,1.886-3.688,2.864
		c-0.179,0.145-0.31,0.461-0.31,0.699c-0.021,3.979-0.011,7.958-0.021,11.936c-0.001,0.354,0.097,0.531,0.441,0.667
		c1.099,0.433,2.069,1.065,2.838,2.096c-2.222,1.019-3.802,2.737-5.261,4.716c-1.699-2.029-3.724-3.423-6.505-3.481
		c0.573-1.313,1.387-2.297,2.516-2.997c0.356-0.22,0.491-0.457,0.49-0.879c-0.016-3.785-0.003-7.568-0.018-11.353
		c-0.001-0.622-0.069-1.249-0.155-1.869c-0.188-1.348-1.028-2.089-2.314-2.378c-0.292-0.066-0.587-0.121-1.046-0.214
		c0.144-0.307,0.196-0.655,0.397-0.803c0.898-0.671,1.876-1.238,2.752-1.935c0.878-0.695,1.667-1.502,2.53-2.29
		c2.616,1.61,3.436,4.121,3.33,7.224c3.143-2.489,6.164-4.883,9.19-7.279c3.049,1.452,3.684,4.136,3.679,7.26
		c3.247-2.468,6.386-4.854,9.527-7.238c1.923,2.72,2.662,3.002,5.638,2.159c-0.141,1.521-0.714,2.79-1.92,3.753
		c-0.208,0.167-0.444,0.463-0.445,0.701c-0.019,4.131-0.049,8.262,0.03,12.39c0.047,2.532,0.718,3.197,3.204,3.638
		c0.083,0.014,0.163,0.037,0.438,0.101c-0.206,0.326-0.31,0.651-0.536,0.814c-1.378,1-2.577,2.177-3.56,3.563
		c-0.279,0.394-0.533,0.44-0.957,0.317c-2.287-0.67-3.564-2.202-3.866-4.533c-0.138-1.068-0.215-2.153-0.222-3.229
		c-0.025-4.002-0.015-8.002-0.003-12.002c0-0.427-0.147-0.639-0.496-0.922c-0.755-0.615-1.387-1.379-2.122-2.134
		c-1.439,1.138-3.001,2.361-4.549,3.609c-0.118,0.095-0.166,0.339-0.167,0.515c-0.009,4.022,0,8.044-0.017,12.064
		c-0.003,0.396,0.19,0.51,0.492,0.634c1.093,0.448,2.06,1.074,2.792,2.084C126.084,0.477,124.506,2.209,123.031,4.17z"/>
	<path fill="#FFFFFF" d="M202.698-20.412c-0.508,1.085-1.21,1.813-2.033,2.417c-0.33,0.242-0.457,0.504-0.455,0.917
		c0.018,4.194,0.007,8.39,0.013,12.583c0,1.558,0.246,3.056,1.092,4.406c0.054,0.085,0.077,0.19,0.147,0.367
		c-5.104-0.738-9.722,0.049-13.306,3.746c-1.476-0.937-2.817-1.913-4.275-2.678c-1.508-0.792-3.198-0.786-4.946-0.563
		c0.611-1.375,1.411-2.479,2.569-3.292c0.321-0.224,0.441-0.458,0.439-0.846c-0.014-3.893-0.009-7.783-0.009-11.675
		c0-1.977-0.053-3.944-1.403-5.726c5.165,1.132,9.604-0.209,13.531-3.168c1.278,0.98,2.482,2.061,3.836,2.9
		C199.317-20.144,200.948-19.994,202.698-20.412z M187.442-3.213c1.723,0.25,3.255,0.859,4.281,2.187
		c0.74,0.956,1.399,1.131,2.447,0.622c0.437-0.211,0.616-0.355,0.614-0.854c-0.021-4.922-0.012-9.849-0.012-14.774
		c0-0.213,0-0.425,0-0.653c-0.251-0.07-0.457-0.125-0.665-0.183c-1.528-0.44-2.97-1.104-3.86-2.448
		c-0.62-0.939-1.218-1.058-2.192-0.69c-0.484,0.183-0.625,0.359-0.624,0.846c0.014,5.097,0.01,10.195,0.01,15.292
		C187.442-3.678,187.442-3.486,187.442-3.213z"/>
	<path fill="#FFFFFF" d="M86.488-13.23c-1.725-2.224-3.44-4.434-5.219-6.725c2.19-0.743,3.915-1.967,5.028-4.081
		c0.112,0.229,0.175,0.371,0.247,0.506c0.341,0.623,0.625,1.289,1.041,1.859c0.851,1.167,2.071,1.492,3.453,0.984
		c1.526-0.561,2.684-1.621,3.748-2.807c0.157-0.174,0.311-0.35,0.47-0.531c2.68,3.297,2.96,3.407,5.74,2.215
		c-0.397,1.512-0.994,2.836-2.215,3.818c-0.176,0.141-0.374,0.401-0.374,0.605c-0.006,3.891-0.07,7.786,0.057,11.674
		c0.113,3.464,1.466,4.243,3.812,4.792c-0.319,0.342-0.643,0.681-0.959,1.025c-1.028,1.111-2.041,2.235-3.089,3.323
		c-0.167,0.176-0.519,0.301-0.751,0.259c-1.756-0.313-2.846-1.447-3.529-3.02c-0.264-0.607-0.457-1.245-0.698-1.919
		C91.26,0.377,89.285,1.957,87.36,3.59c-0.554,0.468-1.03,0.581-1.736,0.372c-3.168-0.928-4.963-3.008-5.153-6.29
		c-0.077-1.346-0.02-2.727,0.199-4.055c0.346-2.106,1.636-3.684,3.27-4.982C84.746-12.002,85.603-12.582,86.488-13.23z
		 M87.211-12.335c-3.053,3.336-2.499,9.244,2.538,11.021c1.098,0.386,2.011,0.511,2.812-0.478c0.08-0.097,0.229-0.146,0.293-0.251
		c0.135-0.223,0.333-0.469,0.333-0.706c0.019-4.54,0.017-9.08,0.007-13.621c0-0.175-0.046-0.44-0.166-0.512
		c-1.04-0.637-1.787-1.537-2.369-2.646c-0.252,0.307-0.447,0.565-0.662,0.803c-0.986,1.092-2.188,1.638-3.654,1.247
		c-0.764-0.203-1.485-0.57-2.221-0.873c-0.205-0.085-0.399-0.199-0.6-0.3c-0.021,0.031-0.041,0.063-0.062,0.093
		c2.581,3.297,5.161,6.597,7.752,9.913c-0.174,0.209-0.317,0.383-0.495,0.598C89.534-9.494,88.39-10.893,87.211-12.335z"/>
	<path fill="#FFFFFF" d="M157.656-24.023c1.278,3.449,2.953,6.638,5.745,9.198c-0.223,0.154-0.408,0.287-0.599,0.411
		c-3.619,2.362-7.234,4.728-10.862,7.075c-0.387,0.251-0.562,0.51-0.546,0.984c0.038,1.077,0.012,2.158,0.012,3.201
		c1.02,0.322,2.018,0.55,2.938,0.954c1.181,0.518,2.32,1.149,3.433,1.801c0.41,0.237,0.649,0.23,1.008-0.048
		c0.918-0.715,1.87-1.383,2.833-2.09c0.166,0.333,0.313,0.619,0.474,0.938c-0.157,0.139-0.292,0.272-0.44,0.388
		c-2.139,1.688-4.284,3.364-6.411,5.066c-0.319,0.255-0.541,0.276-0.901,0.074c-2.444-1.401-4.98-2.617-7.769-3.144
		c-1.152-0.216-2.349-0.202-3.596-0.295c0.423-0.919,0.958-1.925,1.897-2.475c1.043-0.612,1.128-1.422,1.115-2.465
		c-0.049-3.414-0.011-6.831-0.024-10.247c-0.003-0.885-0.042-1.773-0.12-2.656c-0.107-1.201-0.475-2.322-1.334-3.37
		C149.494-19.646,153.847-20.653,157.656-24.023z M151.457-19.81c0,3.813,0,7.551,0,11.385c2.047-1.313,4.014-2.573,5.935-3.803
		c-1.365-2.732-2.689-5.387-4.028-8.066C152.758-20.136,152.112-19.974,151.457-19.81z"/>
	<path fill="#FFFFFF" d="M215.262-21.303c1.759-0.072,3.387-0.137,4.991-0.201c0,0.87,0,1.851,0,2.727c-1.604,0-3.226,0-4.938,0
		c-0.006,0.103-0.029,0.309-0.029,0.515c0,4.908,0.007,9.815-0.01,14.725c-0.004,0.433,0.168,0.609,0.516,0.837
		c0.981,0.648,1.909,1.379,2.958,2.154c0.461-0.251,1.082-0.587,1.753-0.955c0.147,0.293,0.275,0.555,0.377,0.756
		c-2.237,1.596-4.443,3.17-6.691,4.771c-1.684-2.14-3.744-3.574-6.824-2.063c0.253-1.646,0.859-2.893,2.089-3.813
		c0.195-0.146,0.408-0.426,0.408-0.645c0.019-5.363,0.014-10.726,0.013-16.088c0-0.082-0.027-0.168-0.061-0.384
		c-1.453,0.067-2.904,0.133-4.373,0.199c0-0.874,0-1.88,0-2.769c1.45,0.078,2.886,0.158,4.251,0.231
		c0.103-0.128,0.151-0.161,0.151-0.194c-0.009-2.139,0.085-4.285-0.076-6.411c-0.072-0.936-0.661-1.833-1.012-2.74
		c2.886,0.412,5.447-0.759,7.92-2.382C214.702-29.323,215.442-25.342,215.262-21.303z"/>
	<path fill="#FFFFFF" d="M171.617,4.139c-3.158-2.955-3.615-3.101-6.98-2.176c0.116-1.569,0.65-2.872,1.985-3.729
		c0.4-0.261,0.522-0.523,0.522-0.983c-0.014-8.499-0.018-16.997-0.001-25.495c0.001-1.79-0.013-3.557-1.365-5.135
		c1.587,0.161,3.018,0.117,4.351-0.397c1.319-0.509,2.577-1.183,3.809-1.759c0.002-0.006-0.026,0.125-0.09,0.239
		c-0.883,1.635-1.258,3.398-1.259,5.239c-0.013,8.954-0.011,17.904,0,26.856c0,0.201,0.103,0.529,0.238,0.579
		c1.208,0.45,2.11,1.247,2.793,2.381c0.714-0.424,1.396-0.83,2.12-1.262c0.155,0.31,0.294,0.592,0.458,0.92
		C175.829,0.796,173.493,2.152,171.617,4.139z"/>
	<path fill="#FFFFFF" d="M211.154,17.002c0.797,1.183,1.558,2.335,2.346,3.468c0.194,0.279,0.448,0.537,0.724,0.738
		c0.758,0.556,1.597,0.238,1.616-0.654c0.051-2.528,0.03-5.056,0.053-7.584c0.008-0.678-0.558-0.683-0.962-0.993
		c1.986,0,3.972,0,6.01,0c-0.05,0.629-0.104,1.333-0.159,2.04c-0.397-1.725-1.791-0.804-2.761-1.197c0,1.109,0,2.103,0,3.175
		c0.922-0.072,1.872,0.251,2.774-0.405c-0.042,0.834-0.081,1.626-0.121,2.417c-0.356-1.702-1.696-0.871-2.676-1.14
		c0,1.177-0.008,2.271,0.011,3.362c0,0.132,0.106,0.29,0.209,0.387c0.717,0.666,2.528,0.176,2.799-0.749
		c0.033-0.119,0.084-0.237,0.127-0.356c0.071,0.011,0.146,0.017,0.22,0.028c-0.106,0.711-0.198,1.425-0.336,2.133
		c-0.018,0.08-0.293,0.149-0.447,0.149c-2.527-0.041-5.057-0.084-7.585-0.142c-0.863-0.02-1.529-0.421-1.958-1.178
		c-0.447-0.79-0.902-1.574-1.309-2.383c-0.214-0.422-0.551-0.521-0.902-0.389c-0.161,0.061-0.269,0.421-0.286,0.655
		c-0.038,0.472,0.007,0.949,0.014,1.425c0.02,1.342,0.02,1.342,1.176,1.816c-2.627,0-5.251,0-7.766,0
		c-0.026-0.331,0.012-0.677-0.093-0.972c-0.594-1.687-0.607-1.691-2.373-1.673c-0.344,0.002-0.905,0-0.99,0.179
		c-0.284,0.59-0.45,1.257-0.521,1.911c-0.02,0.142,0.527,0.351,0.863,0.557c-1.141,0-2.26,0-3.382,0
		c1.151-0.154,1.306-1.13,1.629-1.947c0.96-2.43,1.905-4.864,2.862-7.295c0.107-0.269,0.259-0.521,0.46-0.921
		c0.204,0.375,0.355,0.602,0.454,0.846c1.067,2.69,2.119,5.386,3.192,8.072c0.371,0.927,0.771,1.142,1.682,1.072
		c0.473-0.036,0.727-0.245,0.746-0.712c0.032-0.863,0.073-1.728,0.077-2.591c0.01-1.492-0.011-2.984-0.014-4.475
		c-0.004-1.212-0.004-1.212-1.21-1.585c0.242-0.059,0.361-0.113,0.482-0.113c1.319-0.002,2.639,0.002,3.954,0.003
		c0.042,0,0.088-0.001,0.128,0c1.428,0.042,2.307,0.564,2.65,1.572c0.377,1.104,0.002,2.232-1.029,3.116
		C211.437,16.753,211.342,16.839,211.154,17.002z M210.766,15.082c-0.076-0.356-0.126-0.767-0.256-1.148
		c-0.231-0.674-0.722-1.074-1.439-1.124c-0.293-0.022-0.555,0.044-0.548,0.453c0.018,1.017-0.002,2.034,0.018,3.05
		c0.002,0.148,0.088,0.352,0.205,0.435c0.59,0.436,1.604,0.108,1.821-0.591C210.669,15.831,210.693,15.479,210.766,15.082z
		 M199.882,15.002c-0.374,1.062-0.69,1.968-1.021,2.904c0.722,0,1.355,0,2.074,0C200.585,16.949,200.26,16.053,199.882,15.002z"/>
	<path fill="#FFFFFF" d="M21.37-7.896c-0.126-2.926,1.409-5.323,3.82-6.071c3.614-1.12,7.158,1.302,7.347,5.096
		c0.05,1.035-0.067,2.135-0.383,3.118c-0.82,2.543-3.303,4.023-5.869,3.67c-2.809-0.388-4.622-2.277-4.863-5.065
		C21.397-7.429,21.382-7.708,21.37-7.896z M29.743-8.165c-0.179-0.749-0.27-1.509-0.549-2.192c-0.383-0.942-1.125-1.532-2.196-1.543
		c-1.069-0.01-1.817,0.558-2.237,1.488c-0.669,1.489-0.667,3.031-0.012,4.522c0.42,0.957,1.188,1.54,2.287,1.513
		c1.069-0.028,1.801-0.63,2.172-1.577C29.479-6.641,29.567-7.402,29.743-8.165z"/>
	<path fill="#FFFFFF" d="M60.288,13.992c-0.486-1.084-0.709-1.177-2.772-1.042c0,0.987,0,1.982,0,3.045
		c0.939-0.076,1.892,0.25,2.782-0.413c-0.042,0.84-0.083,1.632-0.129,2.535c-0.61-1.247-0.846-1.342-2.668-1.154
		c0,1.087-0.007,2.18,0.009,3.274c0.002,0.129,0.11,0.287,0.214,0.383c0.727,0.661,2.522,0.166,2.793-0.76
		c0.036-0.12,0.087-0.236,0.131-0.354c0.068,0.008,0.138,0.015,0.205,0.021c-0.091,0.701-0.167,1.401-0.297,2.093
		c-0.021,0.096-0.315,0.2-0.481,0.197c-2.525-0.035-5.051-0.081-7.578-0.137c-0.864-0.021-1.531-0.419-1.959-1.18
		c-0.446-0.79-0.904-1.572-1.31-2.381c-0.211-0.421-0.548-0.522-0.9-0.39c-0.159,0.059-0.272,0.418-0.289,0.651
		c-0.036,0.496,0.006,0.993,0.015,1.491c0.021,1.293,0.019,1.293,1.179,1.751c-1.376,0-2.752,0-4.131,0
		c1.038-0.135,0.942-0.933,0.949-1.628c0.016-2.051,0.005-4.104,0.005-6.156c0-1.292,0-1.292-1.07-1.73
		c0.02-0.033,0.038-0.096,0.057-0.096c1.597-0.003,3.197-0.045,4.791,0.016c1.033,0.037,1.908,0.473,2.231,1.559
		c0.325,1.083,0.053,2.047-0.761,2.844c-0.184,0.18-0.382,0.342-0.673,0.599c0.912,1.288,1.815,2.572,2.726,3.85
		c0.086,0.12,0.204,0.27,0.329,0.3c0.428,0.091,0.884,0.234,1.286,0.151c0.182-0.038,0.367-0.559,0.375-0.864
		c0.048-1.965,0.051-3.931,0.066-5.899c0.002-0.344-0.013-0.688-0.015-1.036c-0.003-1.077,0-1.077-0.975-1.534
		c1.991,0,3.984,0,6.016,0C60.395,12.605,60.341,13.299,60.288,13.992z M48.025,14.734c0,0.412,0.002,0.821-0.001,1.232
		c-0.005,0.395-0.047,0.782,0.496,0.898c0.689,0.146,1.25,0,1.456-0.511c0.393-0.972,0.398-1.972-0.212-2.847
		c-0.229-0.327-0.709-0.529-1.116-0.671c-0.383-0.133-0.66,0.047-0.628,0.538C48.048,13.823,48.025,14.279,48.025,14.734z"/>
	<path fill="#FFFFFF" d="M37.975-13.967c0.531,0,0.854,0,1.177,0c0.322,0,0.646,0,1.021,0c0,0.764,0,1.503,0,2.3
		c-0.663,0-1.324,0-2.074,0c0,3.129,0,6.204,0,9.319c-1.003,0-1.918,0-2.891,0c0-3.086,0-6.146,0-9.275c-0.54,0-1.024,0-1.551,0
		c0-0.792,0-1.518,0-2.313c0.468,0,0.952,0,1.485,0c0.045-0.7,0.063-1.341,0.132-1.975c0.175-1.642,0.928-2.422,2.551-2.685
		c0.883-0.145,2.246,0.022,3.107,0.397c-0.112,0.634-0.228,1.286-0.349,1.971c-0.772,0.068-1.714-0.49-2.234,0.316
		C38.035-15.425,38.1-14.691,37.975-13.967z"/>
	<path fill="#FFFFFF" d="M147.243,12.036c1.353,0,2.705,0,4.173,0c-1.028,0.502-1.03,0.502-1.038,1.636c-0.003,0.708,0,1.414,0,2.16
		c1.221,0,2.398,0,3.621,0c0-1.036,0.064-2.069-0.042-3.083c-0.027-0.263-0.585-0.473-0.902-0.708c1.308,0,2.656,0,3.998,0
		c-0.304,0.23-0.71,0.397-0.857,0.694c-0.16,0.318-0.096,0.757-0.097,1.147c-0.003,2.095-0.003,4.19,0.016,6.285
		c0.007,0.87,0.028,0.87,1.22,1.475c-1.465,0-2.83,0-4.198,0c1-0.18,0.869-0.959,0.885-1.624c0.022-1.007,0.007-2.016,0.007-3.098
		c-1.149,0-2.244-0.015-3.34,0.019c-0.115,0.004-0.315,0.27-0.317,0.417c-0.013,1.08,0.031,2.157,0.03,3.236
		c-0.003,0.781,0.617,0.799,1.12,1.04c-1.388,0-2.777,0-4.165,0c1.102-0.204,0.932-1.079,0.941-1.814
		c0.022-2.009,0.007-4.018,0.007-6.027C148.3,12.531,148.299,12.531,147.243,12.036z"/>
	<path fill="#FFFFFF" d="M78.209,12.029c1.355,0,2.707,0,4.063,0c-1.139,0.167-0.905,1.032-0.919,1.754
		c-0.012,0.666-0.002,1.331-0.002,2.045c1.208,0,2.385,0,3.607,0c0-1.038,0.057-2.088-0.042-3.122
		c-0.023-0.245-0.575-0.436-0.887-0.657c1.299,0,2.648,0,3.997,0c-0.004,0.04-0.006,0.109-0.016,0.11
		c-0.821,0.078-0.949,0.601-0.939,1.314c0.029,2.071,0.004,4.146,0.015,6.22c0.001,0.841-0.199,1.826,1.128,1.94
		c-1.366,0-2.732,0-4.098,0c1.018-0.219,0.866-1.027,0.881-1.726c0.021-0.967,0.003-1.934,0.003-2.948c-1.217,0-2.391,0-3.577,0
		c0,1.322-0.055,2.631,0.044,3.926c0.022,0.273,0.624,0.5,0.942,0.737c-1.303,0-2.693,0-4.082,0
		c1.227-0.261,0.916-1.261,0.932-2.049c0.037-1.965,0.012-3.932,0.012-5.896C79.272,12.489,79.271,12.489,78.209,12.029z"/>
	<path fill="#FFFFFF" d="M171.729,21.494c1.169,0.012,1.069-0.777,1.074-1.448c0.023-2.285,0.011-4.574,0.02-6.863
		c0.003-0.588-0.196-0.962-0.855-0.949c-0.088,0.001-0.176-0.06-0.277-0.098c0.049-0.07,0.071-0.126,0.092-0.126
		c1.854,0.026,3.716-0.029,5.56,0.113c2.165,0.168,3.48,1.505,3.841,3.65c0.197,1.179,0.069,2.326-0.444,3.412
		c-0.599,1.259-1.544,2.26-2.932,2.405c-1.962,0.2-3.952,0.135-5.932,0.184C171.827,21.681,171.779,21.587,171.729,21.494z
		 M174.9,16.511c0.003,0,0.005,0,0.007,0c0,1.1-0.02,2.201,0.007,3.3c0.016,0.804,0.389,1.162,1.194,1.23
		c1.207,0.105,2.279-0.502,2.646-1.643c0.572-1.776,0.512-3.541-0.484-5.174c-0.616-1.014-1.556-1.513-2.768-1.487
		c-0.42,0.008-0.623,0.135-0.609,0.604C174.92,14.395,174.9,15.453,174.9,16.511z"/>
	<path fill="#FFFFFF" d="M124.011,16.214c-0.137-0.563-0.336-1.077-0.376-1.601c-0.105-1.421,0.616-2.337,2.003-2.661
		c0.085-0.021,0.169-0.045,0.252-0.06c2.225-0.398,2.91,0.342,2.32,2.681c-0.075-0.228-0.108-0.349-0.153-0.465
		c-0.116-0.298-0.193-0.626-0.37-0.884c-0.38-0.564-1.143-0.788-1.65-0.541c-0.475,0.229-0.698,0.845-0.502,1.534
		c0.107,0.369,0.249,0.755,0.48,1.051c0.949,1.226,1.939,2.419,2.914,3.628c0.088-0.006,0.177-0.014,0.264-0.022
		c0.156-0.529,0.334-1.055,0.461-1.591c0.173-0.718-0.347-0.96-0.928-1.138c0.021-0.064,0.046-0.126,0.068-0.19
		c0.664,0.061,1.332,0.098,1.988,0.211c0.115,0.021,0.289,0.407,0.241,0.565c-0.226,0.731-0.509,1.45-0.8,2.163
		c-0.098,0.234-0.285,0.429-0.456,0.68c0.442,0.396,0.848,0.818,1.313,1.157c0.459,0.331,0.981,0.578,1.458,0.855
		c-0.956,0.402-3.358,0.075-4.463-0.639c-1.041,0.829-2.233,1.049-3.528,0.781c-1.221-0.254-2.01-0.967-2.248-2.206
		c-0.236-1.22,0.165-2.211,1.179-2.942C123.666,16.442,123.865,16.313,124.011,16.214z M127.457,20.33
		c-0.976-1.162-1.916-2.283-2.871-3.421c-0.535,1.075-0.324,2.477,0.449,3.217C125.684,20.747,126.514,20.827,127.457,20.33z"/>
	<path fill="#FFFFFF" d="M39.442,16.695c0.984-0.073,1.594-0.569,1.799-1.465c0.274-1.192,0.231-2.373-0.521-3.409
		c-0.178-0.248-0.48-0.446-0.767-0.564c-0.802-0.324-1.108-0.104-1.104,0.76c0.016,2.7,0.024,5.401,0.063,8.102
		c0.016,1.074,0.048,1.074,1.088,1.308c0.076,0.018,0.146,0.061,0.205,0.193c-1.617,0-3.233,0-4.85,0
		c1.138-0.136,1.081-0.999,1.086-1.769c0.022-2.722,0-5.446,0.029-8.166c0.009-0.848-0.441-1.142-1.32-1.165
		c0.177-0.128,0.233-0.205,0.292-0.204c1.834,0.021,3.675-0.027,5.502,0.106c1.585,0.117,2.423,0.92,2.709,2.258
		c0.298,1.385-0.304,2.835-1.516,3.585C41.317,16.775,40.433,17.006,39.442,16.695z"/>
	<path fill="#FFFFFF" d="M94.243,11.852c2.783,0.005,4.729,1.987,4.725,4.819c-0.001,3.067-1.973,5.157-4.856,5.155
		c-2.863-0.002-4.835-2.053-4.827-5.025C89.292,13.804,91.253,11.847,94.243,11.852z M91.508,16.224
		c0.108,1.46,0.267,2.877,1.293,4.01c1.138,1.257,2.874,0.938,3.486-0.63c0.434-1.113,0.461-2.281,0.317-3.449
		c-0.118-0.977-0.377-1.916-1.036-2.683c-1.155-1.348-3.108-1.007-3.664,0.665C91.683,14.803,91.634,15.527,91.508,16.224z"/>
	<path fill="#FFFFFF" d="M105.211,21.826c-2.815-0.01-4.773-2.076-4.768-5.021c0.007-3.022,1.976-4.965,5.02-4.954
		c2.75,0.01,4.682,2.03,4.666,4.881C110.11,19.776,108.122,21.834,105.211,21.826z M102.667,16.232
		c0.108,1.459,0.267,2.874,1.295,4.007c1.14,1.255,2.873,0.933,3.484-0.641c0.435-1.115,0.458-2.281,0.315-3.45
		c-0.119-0.977-0.379-1.915-1.04-2.68c-1.159-1.344-3.108-0.998-3.662,0.675C102.839,14.809,102.792,15.533,102.667,16.232z"/>
	<path fill="#FFFFFF" d="M145.827,18.677c-0.136,0.896-0.251,1.796-0.429,2.684c-0.026,0.139-0.319,0.283-0.511,0.328
		c-2.112,0.486-4.179,0.422-6.07-0.741c-2.167-1.328-3.065-4.044-2.333-6.801c0.661-2.478,2.591-4.036,5.259-4.083
		c1.304-0.021,2.613,0.184,3.872,0.282c0,1.193,0,2.265,0,3.338c-0.066,0.004-0.135,0.009-0.202,0.011
		c-0.028-0.175-0.031-0.359-0.093-0.521c-0.169-0.435-0.274-0.94-0.563-1.277c-1.337-1.553-4.446-1.162-5.242,0.71
		c-0.924,2.172-0.879,4.402,0.293,6.49c0.969,1.726,2.682,2.002,4.392,1.527c0.6-0.166,0.958-0.636,1.156-1.222
		c0.084-0.255,0.17-0.507,0.253-0.76C145.683,18.652,145.755,18.665,145.827,18.677z"/>
	<path fill="#FFFFFF" d="M195.309,10.347c0,1.228,0,2.284,0,3.341c-0.066,0.001-0.136,0.005-0.201,0.009
		c-0.028-0.174-0.064-0.347-0.086-0.524c-0.125-0.913-0.585-1.579-1.472-1.877c-2.492-0.843-4.286-0.055-4.767,2.593
		c-0.286,1.579-0.243,3.144,0.408,4.641c0.797,1.826,2.401,2.623,4.33,2.208c0.795-0.171,1.304-0.628,1.549-1.395
		c0.074-0.233,0.153-0.468,0.229-0.702c0.074,0.013,0.147,0.025,0.223,0.041c-0.137,0.894-0.251,1.794-0.429,2.682
		c-0.028,0.142-0.32,0.285-0.515,0.328c-2.131,0.489-4.219,0.424-6.123-0.773c-2.141-1.346-3.017-4.074-2.264-6.829
		c0.662-2.432,2.6-3.975,5.245-4.02C192.741,10.044,194.05,10.248,195.309,10.347z"/>
	<path fill="#FFFFFF" d="M76.939,12.096c-0.054,1.04-0.096,1.923-0.138,2.81c-0.047,0.005-0.094,0.012-0.141,0.016
		c-0.035-0.083-0.081-0.167-0.098-0.258c-0.231-1.227-0.758-1.741-1.995-1.936c-1.447-0.226-2.452,0.125-2.938,1.198
		c-0.827,1.816-0.8,3.669,0.175,5.421c0.736,1.326,2.286,1.873,3.705,1.326c0.413-0.161,0.725-0.617,1.035-0.981
		c0.137-0.163,0.157-0.428,0.23-0.647c0.074,0.01,0.146,0.022,0.217,0.031c-0.121,0.754-0.226,1.511-0.381,2.257
		c-0.024,0.116-0.257,0.238-0.41,0.27c-1.991,0.436-3.929,0.381-5.63-0.898c-1.605-1.214-2.19-3.373-1.579-5.512
		c0.548-1.916,1.999-3.139,4.188-3.285C74.411,11.825,75.66,12.021,76.939,12.096z"/>
	<path fill="#FFFFFF" d="M67.077,14.351c-0.044-0.179-0.082-0.358-0.135-0.536c-0.29-0.975-1.585-1.511-2.479-1.032
		c-0.634,0.341-0.794,1.203-0.288,1.853c0.26,0.333,0.629,0.585,0.958,0.86c0.528,0.442,1.102,0.838,1.59,1.322
		c0.86,0.857,1.054,1.927,0.708,3.055c-0.337,1.095-1.176,1.726-2.28,1.855c-0.776,0.09-1.581-0.014-2.365-0.097
		c-0.458-0.047-0.708-0.352-0.672-0.86c0.048-0.63,0.057-1.262,0.081-1.892c0.057,0,0.112,0,0.167-0.001
		c0.062,0.239,0.115,0.481,0.186,0.717c0.289,0.964,1.21,1.552,2.199,1.41c1.091-0.158,1.561-1.182,0.881-2.056
		c-0.351-0.451-0.869-0.768-1.298-1.156c-0.478-0.432-1.01-0.829-1.401-1.332c-0.743-0.96-0.886-2.066-0.346-3.168
		c0.522-1.068,1.493-1.434,2.627-1.44C67.355,11.837,67.55,12.081,67.077,14.351z"/>
	<path fill="#FFFFFF" d="M168.38,12.047c-1.001,0.41-1.001,0.41-1.003,1.575c-0.001,2.071-0.011,4.143,0.003,6.216
		c0.008,0.785,0.151,0.92,0.945,0.995c0.341,0.032,0.685,0.011,1.03,0.013c0.791,0.003,1.239-0.404,1.399-1.161
		c0.021-0.1,0.081-0.191,0.127-0.284c0.004-0.01,0.039-0.003,0.194-0.019c-0.107,0.733-0.192,1.444-0.333,2.142
		c-0.023,0.122-0.274,0.287-0.42,0.285c-1.985-0.026-3.968-0.077-5.954-0.126c-0.032-0.002-0.065-0.044-0.099-0.067
		c0.011-0.039,0.016-0.11,0.026-0.11c0.809-0.05,0.991-0.549,0.987-1.268c-0.012-2.353,0-4.706,0.018-7.058
		c0.005-0.705-0.371-1-1.115-0.968c0.032-0.057,0.065-0.111,0.1-0.163C165.649,12.047,167.015,12.047,168.38,12.047z"/>
	<path fill="#FFFFFF" d="M118.05,19.396c0.012,0.083,0.034,0.165,0.034,0.247c-0.013,2.14-0.058,2.194-2.157,2.178
		c-1.316-0.01-2.632-0.048-3.947-0.085c-0.221-0.004-0.443-0.051-0.742-0.162c1.358-0.073,1.102-1.056,1.112-1.818
		c0.03-2.071,0.012-4.142,0.01-6.216c0-1.075-0.021-1.099-1.001-1.477c1.362,0,2.729,0,4.159,0
		c-1.079,0.485-1.079,0.485-1.079,1.719c0,2.008-0.011,4.015,0.005,6.021c0.006,0.83,0.138,0.956,0.974,1.036
		c0.322,0.032,0.645,0.012,0.966,0.013c0.813,0.004,1.287-0.403,1.44-1.197c0.017-0.095,0.069-0.184,0.107-0.275
		C117.971,19.385,118.011,19.39,118.05,19.396z"/>
	<path fill="#FFFFFF" d="M162.7,12.036c-1.019,0.505-1.028,0.505-1.031,1.626c-0.008,2.094-0.025,4.189,0.003,6.281
		c0.023,1.442-0.041,1.257,1.146,1.675c-1.384,0-2.771,0-4.156,0c1.221-0.259,0.892-1.263,0.913-2.038
		c0.043-1.943,0.021-3.887,0.012-5.83c-0.002-0.711,0.186-1.542-0.905-1.714C159.983,12.036,161.287,12.036,162.7,12.036z"/>
</g>
<g>
	<path fill="#FFFFFF" d="M73.819-36.763c-0.233,0.047-0.468,0.07-0.706,0.07c-1.263,0-2.295-0.648-3.221-1.351
		c-1.188-0.9-2.075-2.14-2.716-3.118c-0.515-0.788-0.6-1.762-0.668-2.544l-0.008-0.104c-0.25-2.822-0.455-5.599-0.678-8.677
		c-0.126-1.741-0.778-3.683-1.704-5.07l-0.39-0.581L64-58.679c-1.021-1.907-0.737-3.863-0.309-5.545
		c0.122-0.476,0.403-0.86,0.68-1.17c-0.044-0.101-0.08-0.214-0.097-0.34c-0.081-0.532,0.185-0.932,0.42-1.287
		c0.005-0.008,0.012-0.019,0.02-0.027c-0.013-0.22-0.053-0.431-0.097-0.544l-0.156-0.386l0.126-0.398
		c0.36-1.14,0.35-2.129,0.22-3.358c-0.235-2.19-0.592-4.421-0.935-6.576c-0.226-1.422-0.46-2.89-0.661-4.347
		c-0.111-0.811-0.099-1.604-0.087-2.373c0.005-0.372,0.011-0.746,0.002-1.119c-0.016-0.577-0.039-1.155-0.063-1.732
		c-0.048-1.184-0.097-2.409-0.077-3.627c0.013-0.798,0.206-1.533,0.393-2.242c0.043-0.162,0.085-0.325,0.125-0.487
		c0.131-0.527,0.494-1.031,0.947-1.316c0.606-0.381,1.411-0.869,2.264-1.27c0.25-0.118,0.54-0.179,0.856-0.179
		c0.271,0,0.523,0.043,0.725,0.076c0.311,0.052,0.543,0.151,0.713,0.225c0.01,0.004,0.023,0.01,0.034,0.014
		c0.168-0.035,0.334-0.051,0.496-0.051c1.012,0,1.617,0.618,2.059,1.068c0.153,0.157,0.32,0.271,0.464,0.323
		c0.962,0.368,1.657,1.033,2.129,2.037l0,0c0.01,0,0.103,0.084,0.164,0.141c0.106,0.097,0.213,0.197,0.31,0.299
		c0.019,0.018,0.044,0.041,0.069,0.063c0.223,0.199,0.741,0.662,0.612,1.39l-0.043,0.225c0.248,0.192,0.417,0.479,0.458,0.815
		c0.037,0.297,0.111,0.662,0.183,1.015c0.098,0.477,0.19,0.928,0.208,1.301l0.01,0.229l-0.076,0.216
		c-0.067,0.188-0.139,0.333-0.208,0.464c-0.013,0.027-0.029,0.052-0.041,0.079c0.004,0.007,0.075,0.147,0.111,0.221
		c0.765,1.637,0.909,3.313,1.049,4.933c0.034,0.397,0.068,0.797,0.113,1.193c0.054,0.491-0.078,1.005-0.356,1.376
		c-0.015,0.022-0.029,0.041-0.041,0.057l0.483,0.513l-0.436,0.779c-0.019,0.031-0.033,0.056-0.041,0.075
		c0.034,0.046,0.09,0.111,0.131,0.158L77.2-77.36c0,0-0.037,0.911-0.049,1.184c-0.032,0.672-0.07,1.493-0.067,2.039
		c0.225,0.108,0.475,0.293,0.645,0.613c0.31,0.598,0.803,1.022,1.199,1.036c0.16,0.005,0.322,0.009,0.482,0.009
		c0.182,0,0.365-0.003,0.544-0.02c0.56-0.047,0.679-0.168,0.777-0.322c0.114-0.177,0.255-0.318,0.399-0.435
		c-0.057-0.474,0.19-0.811,0.302-0.933c0.229-0.257,0.643-1.014,0.786-1.708l0.154-0.75l0.379-0.081l0.461-0.725
		c0.782-1.229,0.792-2.58,0.724-4.356c-0.019-0.283-0.051-0.77,0.288-1.201c0.144-0.184,0.138-0.398,0.045-1.033
		c-0.021-0.145-0.042-0.287-0.056-0.427c-0.211-1.891-0.041-3.81,0.502-5.706c0.089-0.306,0.171-0.613,0.253-0.921
		c0.126-0.471,0.253-0.941,0.396-1.405c0.495-1.609,1.585-2.784,3.151-3.4c0.139-0.055,0.287-0.095,0.436-0.133
		c0.04-0.012,0.082-0.02,0.121-0.033c0.766-0.496,1.608-0.738,2.578-0.738c0.801,0,1.556,0.162,2.288,0.319l0.244,0.053
		c0.511,0.109,1.014,0.436,1.493,0.974c0.226,0.254,0.376,0.526,0.499,0.746c0.071,0.128,0.141,0.251,0.198,0.321l0.047,0.058
		c0.577,0.699,1.318,1.601,1.367,2.809c0.091,0.082,0.175,0.18,0.249,0.301c0.31,0.506,0.262,0.962-0.034,1.818
		c0.118,0.106,0.226,0.239,0.312,0.405c0.27,0.53,0.288,1.088,0.281,1.612c-0.003,0.445-0.023,0.891-0.042,1.336
		c-0.026,0.592-0.05,1.154-0.04,1.714c0.013,0.841,0.052,1.704,0.09,2.539c0.033,0.734,0.066,1.466,0.083,2.199
		c0.052,2.118-0.101,4.871-1.76,7.376c-0.061,0.092-0.126,0.254-0.196,0.427c-0.051,0.125-0.103,0.254-0.163,0.384l-0.737,1.624
		l-0.292-0.322c-0.36,0.735-0.836,1.369-1.279,1.957c-0.285,0.377-0.555,0.736-0.782,1.101c-0.207,0.334-0.499,0.498-0.656,0.584
		c-0.005,0.004-0.01,0.005-0.011,0.005c-0.002,0,0.003-0.004,0.011-0.012c-0.097,0.083-0.202,0.159-0.31,0.236
		c-0.039,0.028-0.087,0.063-0.129,0.095c-0.015,0.547-0.37,0.982-0.719,1.219c-0.123,0.083-0.266,0.238-0.419,0.401
		c-0.288,0.31-0.654,0.703-1.191,0.962l-0.041,0.172c-0.003,0.028-0.003,0.075-0.007,0.121c-0.01,0.215-0.025,0.541-0.18,0.879
		c-0.095,0.208-0.165,0.385-0.21,0.541l0.729,0.787c0.15,0.163,0.291,0.324,0.429,0.484c0.259,0.298,0.483,0.556,0.718,0.747
		c0.422,0.34,0.883,0.646,1.373,0.974c0.226,0.15,0.451,0.301,0.674,0.456c0.164,0.113,0.333,0.221,0.501,0.33
		c0.439,0.282,0.895,0.572,1.315,0.964c2.725,2.548,4.36,5.652,4.86,9.228c0.103,0.737,0.065,1.571-0.118,2.552l-0.058,0.295
		c-0.056,0.274-0.151,0.738-0.132,0.925l0.063,0.641l-0.34,0.267c0.05,0.242,0.068,0.37,0.051,0.537
		c-0.032,0.344-0.171,0.634-0.412,0.87c-0.066,0.208-0.13,0.382-0.188,0.541c-0.087,0.237-0.156,0.423-0.22,0.697
		c-0.17,0.725-0.912,1.286-1.531,1.406c-0.914,0.177-1.748,0.28-2.55,0.315l-0.122,0.001c-0.645,0-1.227-0.211-1.602-0.388
		c-2.992-1.416-5.07-3.066-6.539-5.198c-0.852-1.235-1.921-2.295-3.177-3.152c-0.607-0.414-0.997-1.048-1.28-1.51
		c-0.027-0.042-0.074-0.097-0.131-0.155c-0.078,0.014-0.144,0.015-0.187,0.015h-0.096l-0.1-0.015
		c-0.074-0.012-0.145-0.027-0.216-0.042c-0.005,0-0.009-0.001-0.014-0.001c-0.581,0.29-0.577,0.37-0.557,0.796
		c0.004,0.094,0.01,0.188,0.016,0.281c0.042,0.625,0.096,1.45-0.392,2.262c0.597,1.445-0.078,2.581-0.529,3.337l-0.125,0.213
		c-0.093,0.161-0.202,0.293-0.311,0.407l0.048,0.045l0.025,0.522c0.013,0.562-0.335,0.924-0.565,1.163
		c-0.021,0.022-0.043,0.044-0.062,0.063c-0.084,0.125-0.166,0.251-0.25,0.38c-0.287,0.445-0.611,0.947-1.05,1.379
		c-0.476,0.468-1,0.861-1.511,1.244c-0.214,0.162-0.434,0.325-0.655,0.501l-1.05,0.827L73.819-36.763z"/>
	<path fill="#FFFFFF" d="M171.476-42.795c-0.435,0-0.845-0.053-1.242-0.103c-0.188-0.024-0.378-0.047-0.564-0.064
		c-3.191-0.283-6.003-1.501-8.721-2.68c-0.813-0.352-1.628-0.977-2.425-1.862c-1.722-1.906-2.696-3.912-2.984-6.129
		c-0.094-0.719,0.077-1.37,0.484-1.831c0.353-0.401,0.849-0.625,1.397-0.625c0.348,0,0.701,0.091,1.053,0.266
		c1.267,0.634,2.503,1.348,3.699,2.037l0.857,0.491c0.427,0.242,0.698,0.622,0.858,0.846c0.7,0.978,1.748,1.507,3.116,1.582
		c0.104,0.005,0.208,0.008,0.313,0.008c1.237,0,2.485-0.405,3.613-1.173c0.56-0.382,1.086-0.836,1.645-1.317l0.219-0.188
		c0.078-0.068,0.129-0.118,0.163-0.155c-0.017-0.044-0.044-0.111-0.091-0.199c-0.123-0.247-0.26-0.484-0.396-0.724l-0.107-0.189
		c-0.433-0.764-1.028-1.092-1.989-1.104c-1.753-0.018-3.833-0.048-5.939-0.149l-0.146-0.006c-0.901-0.042-1.923-0.089-2.839-0.528
		c-0.894-0.427-1.779-1.173-2.486-2.099c-1.156-1.515-1.442-3.359-1.67-4.839c-0.25-1.628-0.61-3.241-0.929-4.605
		c-0.385-1.646-0.414-3.138-0.09-4.564c0.088-0.383,0.17-0.769,0.253-1.154c0.208-0.963,0.424-1.961,0.708-2.938
		c0.452-1.555,1.315-2.861,2.563-3.881c0.249-0.203,0.491-0.452,0.747-0.718c0.271-0.279,0.553-0.567,0.878-0.841l0.095-0.081
		c0.935-0.785,1.899-1.597,2.958-2.293c0.063-0.041,0.127-0.079,0.191-0.112l-0.088-0.108l1.094-0.712l0.03-0.027
		c0.157-0.129,0.484-0.397,0.968-0.397h0.075c0.031-0.034,0.067-0.073,0.095-0.105c0.119-0.131,0.238-0.261,0.372-0.378
		c0.866-0.762,1.812-1.417,2.542-1.901c0.49-0.325,0.994-0.607,1.483-0.879c0.282-0.158,0.565-0.316,0.843-0.483
		c0.279-0.167,0.614-0.248,1.021-0.248c0.686,0,1.93,0.28,2.548,0.901c0.867,0.872,1.104,1.937,1.299,2.791
		c0.045,0.205,0.092,0.409,0.147,0.611c0.197,0.722,0.445,1.446,0.74,2.15l0.09,0.208c0.208,0.475,0.496,1.126,0.384,1.971
		c-0.014,0.103,0.027,0.324,0.066,0.52c0.043,0.24,0.097,0.513,0.107,0.811c0.021,0.564-0.016,1.277-0.491,1.792l-0.192,0.209
		c-1.075,1.173-2.293,2.503-4.372,2.716c-0.265,0.029-0.487,0.045-0.68,0.045c-1.212,0-1.772-0.699-2.2-1.353l-0.105-0.163
		c-0.099-0.151-0.197-0.303-0.302-0.451c-0.371-0.524-0.724-0.79-1.05-0.79c-0.237,0-0.542,0.128-0.879,0.367
		c-0.383,0.27-0.729,0.725-1.096,1.208c-0.137,0.179-0.271,0.359-0.411,0.531c-0.09,0.111-0.184,0.289-0.28,0.478
		c-0.218,0.42-0.498,0.967-1.056,1.375c0.082,1.232-0.416,2.266-0.822,3.115c-0.062,0.129-0.124,0.258-0.183,0.387
		c-0.287,0.623-0.393,1.287-0.33,2.085c0,0.001,0.002,0.002,0.005,0.003c0.737,0.25,1.596,0.497,2.418,0.497
		c0.569,0,1.084-0.116,1.582-0.353c0.461-0.223,0.929-0.314,1.344-0.397c0.161-0.033,0.325-0.064,0.481-0.104
		c0.124-0.033,0.254-0.059,0.386-0.087c0.123-0.024,0.31-0.063,0.367-0.092c0.132-0.092,0.27-0.181,0.405-0.267
		c0.138-0.087,0.27-0.172,0.406-0.27l0.4-0.292l0.488,0.086c0.267,0.046,0.775,0.065,1.079,0.074l0.163,0.005
		c0.196,0.007,0.391,0.014,0.587,0.014c0.22,0,0.396-0.008,0.555-0.028c0.265-0.035,0.528-0.05,0.786-0.05
		c1.419,0,2.758,0.507,3.983,1.507c0.239,0.194,0.522,0.426,0.74,0.756c1.517,2.308,2.51,5.018,3.128,8.526
		c0.08,0.455-0.025,0.85-0.104,1.141c-0.017,0.058-0.033,0.115-0.045,0.172c-0.031,0.141-0.076,0.259-0.115,0.351
		c-0.014,1.266-0.505,2.32-0.943,3.256c-0.212,0.455-0.411,0.886-0.548,1.313c-1.336,4.185-4.506,6.752-7.913,9.227
		C173.052-43.012,172.335-42.795,171.476-42.795z"/>
	<path fill="#FFFFFF" d="M110.042-40.905c-0.711,0-1.409-0.258-1.963-0.729l-0.093-0.081c-0.591-0.497-1.14-0.998-1.37-1.621
		l-0.213-0.572l0.33-0.49c-0.142-1.589-0.34-3.202-0.532-4.766c-0.111-0.906-0.223-1.813-0.322-2.717
		c-0.042-0.37-0.024-0.719-0.01-1.027c0.007-0.151,0.016-0.301,0.015-0.449v-0.101c-0.008-0.82-0.023-2.342-0.209-3.124
		c-0.181-0.76,0.065-1.212,0.299-1.492c0,0,0.032-0.192,0.042-0.247c-0.307-0.393-0.319-0.833-0.324-1.079l-0.002-0.063
		c-0.027-0.599-0.049-1.198-0.071-1.797c-0.044-1.208-0.088-2.454-0.19-3.66c-0.096-1.145-0.243-2.315-0.384-3.447
		c-0.102-0.811-0.202-1.622-0.288-2.434c-0.088-0.834-0.153-1.67-0.218-2.506c-0.045-0.588-0.091-1.174-0.145-1.76
		c-0.058-0.633-0.157-1.274-0.26-1.95c-0.175-1.141-0.355-2.318-0.333-3.476c-0.007-0.021-0.024-0.048-0.073-0.118
		c-0.11-0.162-0.295-0.431-0.348-0.816c-0.1-0.719,0.01-1.313,0.108-1.835c0.047-0.257,0.093-0.501,0.112-0.751
		c0.127-1.603,0.961-2.867,2.411-3.658c0.878-0.479,1.46-0.77,2.125-0.77c0.997,0,1.627,0.655,2.421,1.484
		c0.371,0.386,0.731,0.783,1.085,1.186c0.525,0.598,1.149,1.438,1.286,2.624c0.023,0.203,0.093,0.417,0.188,0.575
		c0.715,1.202,0.808,2.48,0.89,3.606l0.183,2.385v0.046c0,0.451-0.045,0.817-0.084,1.143c-0.036,0.306-0.069,0.569-0.065,0.891
		c0.003,0.25,0.042,0.602,0.079,0.942c0.048,0.443,0.098,0.901,0.094,1.31c-0.005,0.574-0.021,1.149-0.049,1.721
		c0.003,0.018,0.01,0.061,0.017,0.103c0.021,0.147,0.039,0.292,0.04,0.432c0,0.1-0.01,0.19-0.026,0.274
		c0.045,0.114,0.08,0.246,0.091,0.396c0.068,0.962,0.165,2.028,0.301,3.348c0.09,0.874,0.138,1.797,0.145,2.823
		c0.005,0.809-0.005,1.618-0.018,2.427c-0.01,0.643-0.02,1.285-0.02,1.927c0,0.157,0.023,0.346,0.048,0.546
		c0.021,0.175,0.043,0.352,0.054,0.526c0.316,1.049,0.177,1.883-0.019,2.571c-0.168,1.132-0.043,2.284,0.09,3.503
		c0.047,0.434,0.094,0.869,0.13,1.306c0.107,1.338,0.084,2.635,0.048,4.069c-0.02,0.738-0.428,1.369-0.67,1.678
		c-0.796,1.025-1.612,1.986-2.304,2.793C111.576-41.233,110.837-40.905,110.042-40.905z"/>
	<path fill="#FFFFFF" d="M124.212-40.698c-0.946,0-1.721-0.54-2.072-1.439c-0.524-1.34-0.942-2.722-1.344-4.061l-0.114-0.379
		c-0.153-0.509,0-0.964,0.09-1.235c0.016-0.044,0.03-0.088,0.041-0.13c0.172-0.704,0.346-1.408,0.52-2.11
		c0.448-1.81,0.912-3.681,1.317-5.523c0.072-0.317,0.003-0.788-0.063-1.245l-0.037-0.258c-0.108-0.79-0.243-1.573-0.384-2.4
		c-0.016-0.082-0.028-0.162-0.043-0.244c-0.349-0.198-0.681-0.594-0.816-1.35l-0.015-0.083c-0.329-1.676-0.601-3.073-0.853-4.529
		c-0.073-0.429-0.037-0.833-0.006-1.159l0.018-0.208c0.022-0.295,0.052-0.591,0.083-0.886c0.023-0.22,0.045-0.439,0.063-0.661
		c0.097-1.124,0.188-2.248,0.285-3.414l0.111-1.335l0.33-0.021c0.051-0.379-0.014-0.782-0.114-1.33
		c-0.053-0.293-0.106-0.584-0.135-0.875c-0.078-0.75-0.342-1.125-1.011-1.429c-1.485-0.677-2.354-1.995-3.116-3.287
		c-0.332-0.562-0.231-1.301,0.015-1.786l0.177-0.346c0.679-1.339,1.383-2.724,2.155-4.057c0.469-0.814,1.451-1.161,1.741-1.247
		c1.023-0.304,2.063-0.459,3.092-0.459c0.987,0,1.989,0.143,2.978,0.422c0.502,0.143,1.051,0.208,1.724,0.208
		c0.583,0,1.176-0.048,1.804-0.102c0.304-0.024,0.608-0.05,0.911-0.07l0.467-0.031c1.309-0.087,2.664-0.175,4.013-0.175
		c1.682,0,3.088,0.135,4.428,0.427c0.509,0.111,1.266,0.3,1.952,0.667c1.854,0.996,3.669,1.981,5.466,3.081
		c0.688,0.421,1.23,1.006,1.708,1.523l0.266,0.285c0.285,0.301,0.525,0.615,0.757,0.917c0.163,0.21,0.324,0.421,0.498,0.619
		c2.093,2.374,2.54,5.272,2.711,8.051c0.017,0.281-0.049,0.521-0.128,0.708c0.05,0.202,0.094,0.446,0.076,0.721
		c-0.026,0.418-0.081,0.824-0.134,1.218c-0.089,0.647-0.17,1.258-0.108,1.795c0.207,1.793-0.152,3.429-0.497,5.011
		c-0.099,0.446-0.195,0.888-0.278,1.334c-0.338,1.812-1.142,3.606-2.458,5.483c-1.457,2.08-2.97,3.588-4.758,4.749
		c-0.271,0.176-0.541,0.386-0.825,0.608c-0.629,0.492-1.34,1.045-2.266,1.354c-0.892,0.792-1.881,1.332-2.838,1.848
		c-0.34,0.186-0.679,0.37-1.015,0.566c-3.975,2.333-8.151,4.031-12.088,5.571l-0.255,0.102c-0.289,0.111-0.577,0.223-0.862,0.342
		C124.979-40.782,124.586-40.698,124.212-40.698z M131.273-56.712c0.279,0.015,0.542,0.047,0.797,0.081
		c0.281,0.037,0.544,0.069,0.78,0.069c0.232,0,0.407-0.032,0.569-0.102l0.357-0.156c0.845-0.372,1.803-0.795,2.828-0.921
		c0.685-0.087,1.122-0.456,1.779-1.05c0.382-0.346,0.778-0.665,1.16-0.972c0.158-0.126,0.316-0.253,0.472-0.379
		c0.11-0.091,0.227-0.181,0.343-0.262c0.151-0.112,0.305-0.226,0.377-0.313c1.24-1.479,1.932-3.369,2.541-5.035
		c0.532-1.457,0.858-2.697,0.717-4.015l-0.018-0.127c-0.038-0.259-0.09-0.612-0.016-0.978c0.036-0.179,0.105-0.335,0.208-0.468
		c-0.026-0.121-0.059-0.248-0.092-0.38c-0.045-0.186-0.092-0.373-0.13-0.56c-0.264-1.32-0.859-2.306-1.822-3.013
		c-1.465-1.076-2.954-1.752-4.432-2.014c-1.94-0.343-3.981-0.475-5.954-0.603c-0.121-0.009-0.211-0.011-0.301-0.011
		c-0.853,0-1.585,0.27-2.183,0.799c-0.053,0.048-0.125,0.113-0.18,0.164c0,0.105,0.006,0.247,0.011,0.343
		c0.012,0.278,0.025,0.565-0.011,0.837c-0.045,0.334-0.148,0.573-0.211,0.715l-0.006,0.014c0.05,0.709,0.194,1.351,0.417,1.861
		c1.421,3.247,1.228,6.571,0.935,9.433c-0.077,0.751-0.081,1.516-0.083,2.326c-0.001,0.261-0.002,0.521-0.005,0.779
		c-0.002,0.152,0.014,0.307,0.027,0.458c0.022,0.253,0.046,0.537,0.028,0.845c-0.018,0.33-0.063,0.641-0.111,0.941l0.32,0.112
		l0.001-0.013C130.387-57.946,130.929-56.995,131.273-56.712z"/>
	<path fill="#BE2026" d="M74.682-37.597c-0.177-0.301-0.272-0.464-0.341-0.579c-1.486,0.773-2.716-0.021-3.744-0.796
		c-0.975-0.738-1.764-1.79-2.442-2.829c-0.373-0.568-0.428-1.39-0.491-2.111c-0.254-2.883-0.466-5.77-0.676-8.659
		c-0.136-1.881-0.833-4.036-1.897-5.63c-0.078-0.118,0.378,0.037,0.361-0.135c-0.019-0.18-0.119-0.396-0.212-0.537
		c-1.046-1.615-0.854-3.35-0.417-5.063c0.132-0.518,0.794-1.012,0.989-1.293c0.022-0.289-0.355-0.481-0.383-0.677
		c-0.024-0.163,0.442-0.697,0.45-0.856c0.022-0.422-0.045-0.923-0.181-1.261c0.406-1.285,0.421-2.394,0.266-3.834
		c-0.393-3.668-1.099-7.302-1.601-10.957c-0.152-1.104-0.045-2.241-0.075-3.362c-0.047-1.771-0.17-3.542-0.14-5.31
		c0.014-0.825,0.285-1.653,0.485-2.469c0.056-0.227,0.234-0.481,0.433-0.606c0.692-0.435,1.401-0.855,2.14-1.202
		c0.255-0.122,0.625-0.051,0.93,0c0.336,0.057,0.706,0.346,0.98,0.262c0.791-0.236,1.204,0.207,1.67,0.682
		c0.235,0.24,0.541,0.449,0.854,0.568c0.715,0.27,1.167,0.756,1.487,1.438c0.136,0.287,0.447,0.493,0.676,0.741
		c0.14,0.15,0.409,0.331,0.388,0.457c-0.067,0.378-0.217,0.905-0.09,1.36c0.039,0.14,0.477-0.129,0.496,0.021
		c0.09,0.745,0.357,1.7,0.383,2.231c-0.135,0.382-0.314,0.485-0.314,0.969c-0.001,0.31,0.097,0.413,0.221,0.677
		c0.856,1.832,0.842,3.818,1.059,5.762c0.021,0.179-0.026,0.409-0.131,0.55c-0.359,0.481-0.536,0.943-0.06,1.446
		c-0.509,0.852-0.008,1.34,0.262,1.655c-0.028,0.777-0.115,2.227-0.099,3.003c0.006,0.276,0.035,0.386,0.211,0.646
		c0.125,0.183,0.463,0.123,0.564,0.314c0.442,0.85,1.252,1.63,2.194,1.663c0.388,0.012,0.78,0.019,1.167-0.017
		c0.66-0.056,1.253-0.224,1.659-0.849c0.173-0.271,0.683-0.446,0.881-0.707c0.04-0.118-0.376-0.425-0.293-0.518
		c0.383-0.428,0.879-1.374,1.059-2.253c0.428-0.091,1.014-0.536,1.831-0.691c-0.487-0.231-0.727-0.347-0.995-0.474
		c0.999-1.57,0.972-3.294,0.904-5.027c-0.007-0.146-0.036-0.338,0.041-0.436c0.567-0.727,0.316-1.533,0.23-2.311
		c-0.199-1.786-0.03-3.532,0.464-5.254c0.22-0.767,0.41-1.542,0.645-2.305c0.392-1.275,1.215-2.167,2.462-2.657
		c0.24-0.094,0.524-0.112,0.732-0.248c1.381-0.916,2.833-0.53,4.264-0.225c0.32,0.068,0.632,0.349,0.862,0.609
		c0.27,0.301,0.408,0.717,0.667,1.029c0.695,0.846,1.408,1.673,1.059,2.88c0.727,0.076,0.727,0.076,0.001,1.967
		c0.257,0.106,0.646,0.146,0.743,0.333c0.155,0.306,0.158,0.709,0.154,1.07c-0.012,1.026-0.1,2.054-0.083,3.081
		c0.026,1.583,0.136,3.166,0.174,4.748c0.059,2.365-0.213,4.66-1.566,6.702c-0.185,0.281-0.288,0.618-0.45,0.974
		c-0.149-0.166-0.271-0.303-0.436-0.485c-0.062,0.136-0.129,0.219-0.139,0.312c-0.212,1.798-1.555,2.974-2.442,4.397
		c-0.081,0.132-0.276,0.186-0.404,0.293c-0.384,0.321-0.924,0.529-0.866,1.187c0.008,0.093-0.109,0.233-0.205,0.296
		c-0.629,0.426-0.967,1.214-1.813,1.401c-0.161,0.034-0.242,0.523-0.316,0.813c-0.065,0.262-0.008,0.568-0.116,0.805
		c-0.303,0.666-0.502,1.316-0.294,2.063c0.136,0.485,0.16,1.001,0.263,1.708c0.298-0.457,0.489-0.75,0.76-1.165
		c0.446,0.481,0.809,0.972,1.269,1.342c0.668,0.542,1.406,0.991,2.115,1.482c0.565,0.391,1.187,0.726,1.684,1.189
		c2.481,2.319,4.03,5.162,4.502,8.536c0.099,0.708,0.023,1.468-0.109,2.178c-0.081,0.433-0.248,1.101-0.203,1.551
		c-0.204,0.157-0.351,0.178-0.383,0.404c-0.008,0.064,0.163,0.752,0.158,0.812c-0.021,0.226-0.236,0.178-0.293,0.383
		c-0.175,0.648-0.355,0.929-0.503,1.572c-0.049,0.217-0.376,0.478-0.614,0.523c-0.784,0.153-1.58,0.263-2.375,0.294
		c-0.39,0.017-0.817-0.106-1.176-0.274c-2.392-1.132-4.535-2.569-6.076-4.804c-0.936-1.357-2.102-2.513-3.481-3.453
		c-0.395-0.268-0.683-0.734-0.943-1.158C82.87-50,82.383-50.474,81.92-50.613c-0.084-0.027-0.097,0.238-0.179,0.225
		c-0.251-0.042-0.527-0.136-0.72-0.045c-0.964,0.461-1.477,0.839-1.423,2.003c0.034,0.731,0.174,1.45-0.36,2.101
		c-0.126,0.155-0.063,0.563,0.045,0.793c0.471,1.008-0.11,1.788-0.558,2.561c-0.294,0.508-1.264,0.742-0.407,1.552
		c0.096,0.091-0.282,0.392-0.385,0.543c-0.378,0.551-0.709,1.155-1.177,1.619C76.145-38.664,75.424-38.183,74.682-37.597z"/>
	<path fill="#2E368F" d="M166.782-83.978c-0.177-0.216-0.313-0.38-0.478-0.584c0.142-0.092,0.272-0.251,0.378-0.233
		c0.67,0.11,0.897-0.427,1.295-0.776c0.751-0.664,1.579-1.249,2.416-1.805c0.731-0.486,1.523-0.88,2.28-1.332
		c0.409-0.246,1.761,0.09,2.142,0.474c0.805,0.808,0.872,1.875,1.146,2.883c0.214,0.78,0.479,1.551,0.79,2.296
		c0.215,0.512,0.475,0.962,0.395,1.578c-0.065,0.493,0.146,1.014,0.165,1.526c0.011,0.322,0.005,0.752-0.184,0.959
		c-1.063,1.152-2.081,2.376-3.826,2.556c-0.971,0.1-1.234,0.048-1.781-0.787c-0.144-0.218-0.28-0.438-0.429-0.649
		c-0.984-1.391-2.163-1.69-3.559-0.702c-0.696,0.493-1.191,1.278-1.742,1.959c-0.473,0.585-0.592,1.434-1.381,1.802
		c-0.143,0.067-0.275,0.384-0.247,0.559c0.21,1.217-0.398,2.232-0.864,3.239c-0.43,0.935-0.516,1.873-0.417,2.835
		c0.03,0.304,0.403,0.723,0.706,0.826c1.626,0.554,3.27,0.92,4.952,0.113c0.493-0.237,1.076-0.283,1.616-0.425
		c0.375-0.099,0.801-0.13,1.103-0.336c0.308-0.21,0.573-0.361,0.853-0.564c0.337,0.059,0.851,0.078,1.243,0.089
		c0.496,0.018,1,0.045,1.49-0.018c1.485-0.187,2.752,0.28,3.882,1.204c0.183,0.147,0.378,0.301,0.502,0.493
		c1.617,2.463,2.449,5.22,2.954,8.087c0.049,0.272-0.077,0.58-0.139,0.866c-0.031,0.144-0.148,0.284-0.143,0.424
		c0.047,1.639-0.968,2.92-1.435,4.385c-1.263,3.955-4.328,6.343-7.487,8.636c-0.973,0.708-2.113,0.376-3.209,0.279
		c-2.976-0.264-5.674-1.424-8.36-2.588c-0.763-0.33-1.457-0.944-2.024-1.572c-1.41-1.563-2.416-3.36-2.692-5.497
		c-0.117-0.893,0.443-1.401,1.251-0.995c1.534,0.765,3.012,1.644,4.5,2.494c0.197,0.113,0.352,0.323,0.487,0.514
		c0.984,1.371,2.431,1.984,4.004,2.068c1.657,0.088,3.252-0.418,4.645-1.367c0.694-0.472,1.328-1.036,1.966-1.585
		c0.678-0.583,0.747-0.983,0.356-1.762c-0.164-0.329-0.351-0.646-0.531-0.965c-0.66-1.162-1.664-1.683-2.993-1.696
		c-1.967-0.02-3.934-0.054-5.898-0.148c-0.856-0.041-1.792-0.064-2.536-0.421c-0.793-0.379-1.521-1.048-2.063-1.756
		c-0.951-1.245-1.208-2.776-1.443-4.308c-0.244-1.576-0.585-3.14-0.947-4.693c-0.316-1.349-0.397-2.687-0.089-4.039
		c0.305-1.343,0.56-2.703,0.944-4.024c0.38-1.306,1.103-2.423,2.182-3.304c0.583-0.478,1.058-1.083,1.636-1.569
		c0.953-0.8,1.909-1.611,2.945-2.292C165.536-83.91,166.172-83.864,166.782-83.978z"/>
	<path fill="#08A650" d="M113.017-76.535c0,0.778-0.158,1.265-0.149,2.045c0.006,0.646,0.18,1.584,0.172,2.228
		c-0.005,0.559-0.02,1.116-0.047,1.673c-0.01,0.194,0.054,0.41,0.056,0.604c0.001,0.135-0.143,0.248-0.135,0.382
		c0.004,0.129,0.193,0.233,0.202,0.361c0.081,1.13,0.188,2.261,0.304,3.386c0.093,0.899,0.132,1.809,0.139,2.71
		c0.011,1.449-0.037,2.898-0.037,4.347c0,0.427,0.098,0.855,0.113,1.284c0.271,0.798,0.203,1.405-0.002,2.106
		c-0.278,1.741,0.061,3.438,0.198,5.155c0.105,1.308,0.08,2.631,0.045,3.944c-0.007,0.337-0.205,0.712-0.422,0.99
		c-0.73,0.939-1.496,1.85-2.269,2.75c-0.545,0.636-1.61,0.669-2.345,0.042c-0.34-0.291-0.97-0.791-1.127-1.218
		c-0.026-0.072,0.291,0.054,0.271-0.028c-0.023-0.103-0.042-0.215-0.051-0.333c-0.22-2.642-0.597-5.27-0.892-7.907
		c-0.051-0.446,0.017-0.904,0.013-1.357c-0.009-0.882-0.018-2.536-0.242-3.483c-0.139-0.583,0.208-0.372,0.303-0.96
		c0.07-0.44,0.184-0.829-0.167-1.211c-0.095-0.105-0.085-0.322-0.092-0.492c-0.087-1.833-0.111-3.673-0.264-5.502
		c-0.166-1.973-0.467-3.936-0.674-5.906c-0.149-1.414-0.23-2.833-0.361-4.251c-0.165-1.802-0.637-3.665-0.586-5.388
		c-0.052-0.574-0.396-0.744-0.435-1.025c-0.117-0.839,0.16-1.482,0.227-2.335c0.1-1.269,0.75-2.15,1.805-2.725
		c1.698-0.926,1.822-0.88,3.145,0.497c0.359,0.374,0.709,0.759,1.051,1.148c0.506,0.574,0.912,1.192,1.004,1.988
		c0.041,0.355,0.161,0.73,0.342,1.037c0.649,1.088,0.663,2.302,0.76,3.503C112.92-77.829,112.967-77.182,113.017-76.535z"/>
	<path fill="#FCEE23" d="M122.156-73.248c0.055,0.266,0.09,0.438,0.147,0.716c0.45-1.143,0.037-2.149-0.068-3.158
		c-0.113-1.09-0.58-1.865-1.688-2.37c-1.195-0.546-1.933-1.694-2.596-2.818c-0.094-0.161-0.043-0.477,0.051-0.665
		c0.743-1.462,1.48-2.929,2.299-4.346c0.195-0.336,0.669-0.594,1.065-0.713c1.794-0.534,3.598-0.547,5.42-0.031
		c1.592,0.45,3.218,0.183,4.832,0.078c2.869-0.186,5.739-0.422,8.585,0.196c0.564,0.123,1.143,0.287,1.646,0.556
		c1.824,0.981,3.646,1.968,5.411,3.047c0.662,0.404,1.193,1.039,1.736,1.613c0.444,0.471,0.8,1.021,1.229,1.507
		c1.858,2.106,2.257,4.69,2.421,7.349c0.011,0.168-0.141,0.348-0.208,0.508c0.052,0.243,0.173,0.513,0.157,0.774
		c-0.068,1.077-0.359,2.173-0.238,3.223c0.241,2.083-0.397,4.029-0.765,5.998c-0.335,1.808-1.17,3.466-2.264,5.027
		c-1.237,1.765-2.622,3.261-4.438,4.438c-0.95,0.616-1.736,1.483-2.857,1.847c-0.12,0.039-0.242,0.105-0.336,0.191
		c-1.1,0.994-2.446,1.571-3.705,2.31c-3.799,2.232-7.84,3.895-11.921,5.492c-0.382,0.149-0.764,0.295-1.141,0.453
		c-0.748,0.311-1.419,0.188-1.702-0.534c-0.556-1.42-0.985-2.89-1.427-4.352c-0.065-0.215,0.087-0.499,0.147-0.75
		c0.622-2.552,1.278-5.097,1.843-7.661c0.133-0.603,0.002-1.28-0.083-1.912c-0.157-1.15-0.371-2.295-0.57-3.498
		c-0.609,0.179-0.626-0.279-0.698-0.644c-0.294-1.5-0.587-2.998-0.848-4.504c-0.061-0.348-0.001-0.721,0.026-1.081
		c0.037-0.513,0.103-1.022,0.146-1.535C121.893-70.045,122.018-71.593,122.156-73.248z M129.22-58.391
		c-0.076,0.907,1.13,2.827,1.851,2.84c0.929,0.015,1.866,0.369,2.813-0.041c0.928-0.404,1.883-0.87,2.864-0.992
		c1.056-0.131,1.716-0.706,2.42-1.342c0.509-0.46,1.057-0.879,1.589-1.317c0.292-0.241,0.634-0.44,0.872-0.722
		c1.328-1.584,2.041-3.469,2.745-5.388c0.544-1.492,0.95-2.948,0.781-4.538c-0.023-0.212-0.096-0.529-0.051-0.747
		c0.008-0.032,0.311-0.079,0.316-0.113c0.035-0.205-0.023-0.305-0.05-0.5c-0.059-0.426-0.194-0.837-0.278-1.26
		c-0.304-1.521-1.015-2.798-2.277-3.724c-1.48-1.088-3.129-1.908-4.918-2.224c-2.013-0.355-4.069-0.487-6.113-0.621
		c-1.21-0.077-2.364,0.248-3.304,1.084c-0.221,0.196-0.493,0.435-0.545,0.696c-0.07,0.361,0.033,0.998-0.017,1.366
		c-0.052,0.387-0.253,0.506-0.229,0.888c0.048,0.786,0.203,1.607,0.517,2.323c1.256,2.87,1.15,5.837,0.842,8.847
		c-0.111,1.062-0.08,2.139-0.094,3.208c-0.004,0.418,0.082,0.84,0.059,1.259c-0.024,0.467-0.125,0.931-0.193,1.397
		c0.047,0.003,0.093,0.011,0.14,0.016C129.025-58.099,129.093-58.202,129.22-58.391z"/>
</g>
</svg>
