<?xml version="1.0" encoding="utf-8"?>
<!-- Generator: Adobe Illustrator 16.0.3, SVG Export Plug-In . SVG Version: 6.00 Build 0)  -->
<!DOCTYPE svg PUBLIC "-//W3C//DTD SVG 1.1//EN" "http://www.w3.org/Graphics/SVG/1.1/DTD/svg11.dtd">
<svg version="1.1" id="Layer_1" xmlns="http://www.w3.org/2000/svg" xmlns:xlink="http://www.w3.org/1999/xlink" x="0px" y="0px"
	 width="48.856px" height="20px" viewBox="1.332 2.076 48.856 20" enable-background="new 1.332 2.076 48.856 20"
	 xml:space="preserve">
<g enable-background="new    ">
	<path fill="#FFFFFF" d="M4.828,10.102v1.197c0,0.125-0.063,0.188-0.188,0.188H2.825H2.798H2.784H1.588
		c-0.126,0-0.188-0.063-0.188-0.188V2.264c0-0.125,0.063-0.188,0.188-0.188h1.196c0.126,0,0.188,0.063,0.188,0.188v7.65H4.64
		C4.765,9.914,4.828,9.977,4.828,10.102z"/>
	<path fill="#FFFFFF" d="M9.534,3.608v6.278c0,0.233-0.045,0.453-0.134,0.659c-0.09,0.207-0.211,0.385-0.364,0.538
		c-0.152,0.153-0.331,0.273-0.538,0.362c-0.207,0.09-0.426,0.135-0.659,0.135h-0.51c-0.233,0-0.453-0.044-0.659-0.135
		c-0.207-0.089-0.386-0.209-0.538-0.362c-0.153-0.153-0.273-0.331-0.363-0.538c-0.09-0.206-0.134-0.425-0.134-0.659V3.608
		c0-0.125,0.063-0.188,0.188-0.188h1.197c0.125,0,0.188,0.063,0.188,0.188v6.211c0,0.09,0.031,0.166,0.094,0.229
		c0.063,0.063,0.139,0.094,0.229,0.094h0.107c0.089,0,0.166-0.031,0.229-0.094C7.929,9.985,7.96,9.91,7.96,9.819V3.608
		c0-0.125,0.063-0.188,0.188-0.188h1.197C9.47,3.42,9.534,3.483,9.534,3.608z"/>
	<path fill="#FFFFFF" d="M15.853,3.608v7.69c0,0.125-0.063,0.188-0.188,0.188h-1.291c-0.126,0-0.188-0.063-0.188-0.188V7.722
		l-0.887,3.2c-0.018,0.044-0.041,0.067-0.067,0.067s-0.05-0.023-0.067-0.067l-0.888-3.2v3.577c0,0.125-0.063,0.188-0.188,0.188
		h-1.291c-0.125,0-0.188-0.063-0.188-0.188v-7.69c0-0.125,0.063-0.188,0.188-0.188h1.143c0.054,0,0.101,0.02,0.142,0.06
		c0.04,0.041,0.069,0.083,0.087,0.128l1.062,4.14l1.062-4.14C14.31,3.563,14.34,3.521,14.38,3.48c0.041-0.04,0.087-0.06,0.141-0.06
		h1.143C15.789,3.42,15.853,3.483,15.853,3.608z"/>
	<path fill="#FFFFFF" d="M20.585,7.682c0.125,0.125,0.219,0.273,0.282,0.443c0.063,0.171,0.094,0.359,0.094,0.564v1.103
		c0,0.233-0.045,0.453-0.134,0.659c-0.09,0.206-0.211,0.385-0.364,0.538s-0.332,0.273-0.538,0.362
		c-0.207,0.09-0.426,0.135-0.659,0.135h-1.976c-0.054,0-0.106-0.007-0.155-0.02c-0.049-0.013-0.074-0.069-0.074-0.168v-7.69
		c0-0.125,0.063-0.188,0.188-0.188h2.017c0.233,0,0.453,0.044,0.659,0.134c0.206,0.09,0.385,0.21,0.538,0.363
		c0.152,0.152,0.273,0.332,0.364,0.537c0.089,0.207,0.134,0.426,0.134,0.66v0.887c0,0.412-0.125,0.757-0.376,1.036
		c-0.135,0.143-0.296,0.26-0.484,0.349C20.297,7.458,20.458,7.556,20.585,7.682z M19.388,5.182c0-0.09-0.032-0.166-0.094-0.229
		c-0.063-0.063-0.139-0.095-0.229-0.095h-0.431v1.829h0.431c0.089,0,0.166-0.031,0.229-0.094c0.063-0.063,0.094-0.139,0.094-0.229
		V5.182z M19.388,8.476c0-0.09-0.032-0.166-0.094-0.229c-0.063-0.063-0.139-0.095-0.229-0.095h-0.431v1.896h0.431
		c0.089,0,0.166-0.031,0.229-0.094c0.063-0.063,0.094-0.139,0.094-0.229V8.476z"/>
	<path fill="#FFFFFF" d="M25.264,10.102v1.197c0,0.125-0.063,0.188-0.188,0.188h-2.918c-0.125,0-0.188-0.063-0.188-0.188v-7.69
		c0-0.125,0.063-0.188,0.188-0.188h2.918c0.125,0,0.188,0.063,0.188,0.188v1.197c0,0.125-0.063,0.188-0.188,0.188h-1.533v1.533
		h1.332c0.125,0,0.188,0.063,0.188,0.189V7.91c0,0.126-0.063,0.189-0.188,0.189h-1.332v1.814h1.533
		C25.2,9.914,25.264,9.977,25.264,10.102z"/>
	<path fill="#FFFFFF" d="M27.979,11.299c0,0.125-0.067,0.188-0.201,0.188h-1.196c-0.117,0-0.175-0.063-0.175-0.188v-7.69
		c0-0.125,0.063-0.188,0.188-0.188h2.017c0.233,0,0.453,0.044,0.66,0.134c0.204,0.09,0.385,0.21,0.537,0.363
		c0.151,0.152,0.272,0.332,0.363,0.537c0.089,0.207,0.134,0.426,0.134,0.66v1.653c0,0.332-0.099,0.63-0.295,0.894
		c-0.198,0.265-0.436,0.469-0.713,0.612l1.277,3.025c0.026,0.125-0.02,0.188-0.135,0.188h-1.224c-0.054,0-0.105-0.018-0.154-0.054
		c-0.05-0.035-0.084-0.081-0.101-0.134l-0.982-2.487V11.299z M27.979,7.023h0.431c0.09,0,0.165-0.031,0.229-0.094
		c0.063-0.063,0.095-0.139,0.095-0.229V5.182c0-0.09-0.031-0.166-0.095-0.229s-0.139-0.095-0.229-0.095h-0.431V7.023z"/>
	<path fill="#FFFFFF" d="M34.902,2.076c0.126,0,0.188,0.063,0.188,0.188v7.623c0,0.233-0.045,0.453-0.135,0.659
		c-0.089,0.207-0.21,0.385-0.362,0.538s-0.332,0.273-0.538,0.362c-0.206,0.09-0.426,0.135-0.658,0.135h-0.512
		c-0.233,0-0.453-0.044-0.658-0.135c-0.206-0.089-0.386-0.209-0.537-0.362c-0.153-0.153-0.274-0.331-0.364-0.538
		c-0.09-0.206-0.135-0.425-0.135-0.659V8.18c0-0.125,0.059-0.206,0.175-0.242l1.224-0.323c0.116-0.036,0.176,0.009,0.176,0.134
		v2.071c0,0.09,0.031,0.166,0.094,0.229c0.063,0.063,0.139,0.094,0.229,0.094h0.107c0.089,0,0.166-0.031,0.229-0.094
		c0.063-0.063,0.094-0.139,0.094-0.229V2.264c0-0.125,0.063-0.188,0.188-0.188H34.902z"/>
	<path fill="#FFFFFF" d="M40.132,11.299c0.02,0.125-0.035,0.188-0.161,0.188h-1.223c-0.117,0-0.184-0.063-0.201-0.188l-0.107-1.318
		h-0.834l-0.107,1.318c-0.019,0.125-0.086,0.188-0.202,0.188h-1.224c-0.125,0-0.179-0.063-0.161-0.188l1.008-7.69
		c0.019-0.125,0.09-0.188,0.216-0.188h1.774c0.126,0,0.197,0.063,0.215,0.188L40.132,11.299z M38.331,8.476l-0.255-2.971h-0.107
		l-0.257,2.971H38.331z"/>
	<path fill="#FFFFFF" d="M43.749,3.46c0.206,0.09,0.385,0.21,0.538,0.363c0.151,0.152,0.273,0.331,0.362,0.537
		c0.09,0.207,0.135,0.426,0.135,0.66v0.807c0,0.125-0.059,0.206-0.175,0.242l-1.223,0.188c-0.117,0.036-0.176-0.008-0.176-0.135
		V5.087c0-0.089-0.031-0.165-0.093-0.229c-0.063-0.062-0.14-0.094-0.23-0.094h-0.106c-0.09,0-0.166,0.032-0.229,0.094
		c-0.063,0.064-0.094,0.14-0.094,0.229v4.732c0,0.09,0.031,0.166,0.094,0.229c0.063,0.063,0.14,0.094,0.229,0.094h0.106
		c0.091,0,0.167-0.031,0.23-0.094c0.062-0.063,0.093-0.139,0.093-0.229V8.206c0-0.125,0.059-0.17,0.176-0.135l1.223,0.163
		c0.116,0.035,0.175,0.116,0.175,0.242v1.411c0,0.233-0.045,0.453-0.135,0.659c-0.089,0.207-0.211,0.385-0.362,0.538
		c-0.153,0.153-0.332,0.273-0.538,0.362c-0.206,0.09-0.426,0.135-0.659,0.135h-0.51c-0.233,0-0.453-0.044-0.66-0.135
		c-0.206-0.089-0.385-0.209-0.537-0.362s-0.273-0.331-0.363-0.538c-0.089-0.206-0.134-0.425-0.134-0.659V5.021
		c0-0.233,0.045-0.453,0.134-0.66c0.09-0.206,0.211-0.385,0.363-0.537c0.152-0.153,0.331-0.273,0.537-0.363
		c0.207-0.089,0.427-0.135,0.66-0.135h0.51C43.323,3.326,43.543,3.371,43.749,3.46z"/>
	<path fill="#FFFFFF" d="M50.176,3.48c0.018,0.041,0.018,0.083,0,0.128l-1.829,3.429l1.802,4.262
		c0.019,0.045,0.014,0.087-0.013,0.127c-0.027,0.041-0.067,0.061-0.122,0.061h-1.33c-0.054,0-0.104-0.015-0.148-0.047
		c-0.044-0.031-0.076-0.069-0.094-0.114L47.46,9.093L47.23,9.524v1.774c0,0.125-0.063,0.188-0.188,0.188h-1.197
		c-0.125,0-0.188-0.063-0.188-0.188v-7.69c0-0.125,0.063-0.188,0.188-0.188h1.197c0.125,0,0.188,0.063,0.188,0.188v2.353
		l1.237-2.379c0.045-0.108,0.131-0.161,0.256-0.161h1.345C50.121,3.42,50.157,3.44,50.176,3.48z"/>
</g>
<g enable-background="new    ">
	<path fill="#FFFFFF" d="M3.537,12.571c0.233,0,0.453,0.044,0.659,0.135c0.206,0.089,0.385,0.211,0.538,0.362
		c0.152,0.152,0.273,0.332,0.363,0.538c0.09,0.206,0.135,0.425,0.135,0.658v6.023c0,0.233-0.045,0.453-0.135,0.659
		c-0.089,0.205-0.211,0.385-0.363,0.538c-0.153,0.152-0.332,0.272-0.538,0.362s-0.426,0.135-0.659,0.135H1.521
		c-0.125,0-0.188-0.063-0.188-0.188v-9.035c0-0.125,0.063-0.188,0.188-0.188H3.537z M3.658,14.332c0-0.09-0.032-0.166-0.094-0.229
		c-0.063-0.063-0.139-0.094-0.229-0.094h-0.43v6.534h0.43c0.09,0,0.166-0.031,0.229-0.095c0.063-0.063,0.094-0.138,0.094-0.229
		V14.332z"/>
	<path fill="#FFFFFF" d="M9.601,20.597v1.196c0,0.126-0.063,0.188-0.188,0.188H6.495c-0.125,0-0.188-0.063-0.188-0.188v-7.69
		c0-0.125,0.063-0.188,0.188-0.188h2.918c0.125,0,0.188,0.063,0.188,0.188V15.3c0,0.125-0.063,0.188-0.188,0.188H7.88v1.532h1.331
		c0.125,0,0.188,0.063,0.188,0.189v1.195c0,0.126-0.063,0.189-0.188,0.189H7.88v1.814h1.533C9.538,20.409,9.601,20.472,9.601,20.597
		z"/>
	<path fill="#FFFFFF" d="M13.271,13.956c0.206,0.09,0.385,0.21,0.538,0.363c0.152,0.151,0.273,0.331,0.363,0.537
		c0.089,0.207,0.135,0.426,0.135,0.659v0.511c0,0.125-0.059,0.206-0.175,0.242l-1.224,0.322c-0.117,0.036-0.175-0.009-0.175-0.135
		v-0.874c0-0.089-0.031-0.165-0.094-0.229c-0.063-0.062-0.139-0.094-0.229-0.094h-0.107c-0.09,0-0.166,0.032-0.229,0.094
		c-0.063,0.063-0.094,0.14-0.094,0.229v0.821c0.008,0.099,0.026,0.183,0.054,0.255c0.027,0.071,0.076,0.144,0.147,0.215l1.761,1.318
		c0.144,0.125,0.235,0.253,0.276,0.383c0.04,0.13,0.069,0.275,0.087,0.437v1.371c0,0.233-0.045,0.453-0.135,0.659
		c-0.09,0.207-0.211,0.385-0.363,0.538c-0.152,0.152-0.332,0.273-0.538,0.362c-0.207,0.09-0.426,0.135-0.659,0.135h-0.511
		c-0.232,0-0.453-0.045-0.659-0.135c-0.206-0.089-0.385-0.21-0.538-0.362c-0.152-0.153-0.274-0.331-0.363-0.538
		c-0.09-0.206-0.135-0.426-0.135-0.659v-0.752c0-0.125,0.058-0.206,0.175-0.242l1.224-0.322c0.116-0.036,0.175,0.008,0.175,0.134
		v1.115c0,0.091,0.031,0.166,0.094,0.229c0.063,0.063,0.139,0.094,0.229,0.094h0.107c0.09,0,0.166-0.031,0.229-0.094
		c0.063-0.063,0.094-0.139,0.094-0.229v-0.833c-0.008-0.116-0.026-0.219-0.054-0.31c-0.027-0.089-0.081-0.17-0.161-0.241
		l-1.734-1.332c-0.135-0.125-0.23-0.25-0.29-0.376c-0.058-0.125-0.087-0.291-0.087-0.497v-1.21c0-0.233,0.045-0.452,0.135-0.659
		c0.089-0.206,0.21-0.386,0.363-0.537c0.152-0.153,0.332-0.273,0.538-0.363s0.426-0.135,0.659-0.135h0.511
		C12.845,13.821,13.064,13.866,13.271,13.956z"/>
	<path fill="#FFFFFF" d="M16.888,21.793c0,0.126-0.063,0.188-0.188,0.188h-1.197c-0.125,0-0.188-0.063-0.188-0.188v-7.69
		c0-0.125,0.063-0.188,0.188-0.188h1.197c0.126,0,0.188,0.063,0.188,0.188V21.793z"/>
	<path fill="#FFFFFF" d="M20.827,13.956c0.206,0.09,0.385,0.21,0.538,0.363c0.152,0.151,0.273,0.331,0.363,0.537
		c0.089,0.207,0.135,0.426,0.135,0.659v0.295c0,0.127-0.059,0.207-0.175,0.242l-1.224,0.444c-0.116,0.036-0.174-0.01-0.174-0.135
		v-0.78c0-0.089-0.032-0.165-0.094-0.229c-0.063-0.062-0.14-0.094-0.229-0.094h-0.107c-0.09,0-0.166,0.032-0.229,0.094
		c-0.063,0.063-0.094,0.14-0.094,0.229v4.732c0,0.091,0.031,0.166,0.094,0.229c0.063,0.063,0.139,0.094,0.229,0.094h0.107
		c0.089,0,0.166-0.031,0.229-0.094c0.063-0.063,0.094-0.139,0.094-0.229v-1.451h-0.377V17.33h1.761c0.126,0,0.189,0.063,0.189,0.188
		v2.863c0,0.233-0.045,0.453-0.135,0.659c-0.09,0.207-0.21,0.385-0.363,0.538c-0.152,0.152-0.332,0.273-0.538,0.362
		c-0.207,0.09-0.426,0.135-0.659,0.135h-0.511c-0.233,0-0.453-0.045-0.659-0.135c-0.206-0.089-0.385-0.21-0.538-0.362
		c-0.152-0.153-0.273-0.331-0.362-0.538c-0.09-0.206-0.135-0.426-0.135-0.659v-4.866c0-0.233,0.044-0.452,0.135-0.659
		c0.089-0.206,0.21-0.386,0.362-0.537c0.153-0.153,0.332-0.273,0.538-0.363s0.426-0.135,0.659-0.135h0.511
		C20.401,13.821,20.62,13.866,20.827,13.956z"/>
	<path fill="#FFFFFF" d="M27.239,14.103v7.69c0,0.126-0.063,0.188-0.188,0.188H26.19c-0.054,0-0.105-0.019-0.154-0.055
		c-0.049-0.035-0.083-0.075-0.101-0.12l-1.426-3.51v3.496c0,0.126-0.063,0.188-0.188,0.188h-1.197c-0.125,0-0.188-0.063-0.188-0.188
		v-7.69c0-0.125,0.063-0.188,0.188-0.188h0.887c0.054,0,0.105,0.018,0.155,0.053c0.049,0.036,0.083,0.077,0.101,0.122l1.399,3.911
		v-3.898c0-0.125,0.063-0.188,0.188-0.188h1.197C27.177,13.916,27.239,13.978,27.239,14.103z"/>
</g>
</svg>
