<?xml version="1.0" encoding="utf-8"?>
<!-- Generator: Adobe Illustrator 16.0.3, SVG Export Plug-In . SVG Version: 6.00 Build 0)  -->
<!DOCTYPE svg PUBLIC "-//W3C//DTD SVG 1.1//EN" "http://www.w3.org/Graphics/SVG/1.1/DTD/svg11.dtd">
<svg version="1.1" id="Layer_1" xmlns="http://www.w3.org/2000/svg" xmlns:xlink="http://www.w3.org/1999/xlink" x="0px" y="0px"
	 width="159.034px" height="20px" viewBox="92.066 -98.031 159.034 20" enable-background="new 92.066 -98.031 159.034 20"
	 xml:space="preserve">
<g enable-background="new    ">
	<path fill="#FFFFFF" d="M99.279-81.142v2.518c0,0.264-0.131,0.395-0.395,0.395h-3.82h-0.056h-0.029h-2.517
		c-0.266,0-0.397-0.131-0.397-0.395v-19.011c0-0.264,0.131-0.396,0.397-0.396h2.517c0.265,0,0.396,0.132,0.396,0.396v16.095h3.508
		C99.148-81.54,99.279-81.406,99.279-81.142z"/>
	<path fill="#FFFFFF" d="M109.18-94.805v13.21c0,0.492-0.095,0.953-0.283,1.386c-0.189,0.435-0.443,0.811-0.765,1.132
		c-0.321,0.322-0.697,0.575-1.131,0.763c-0.434,0.189-0.896,0.283-1.387,0.283h-1.074c-0.491,0-0.953-0.094-1.386-0.283
		c-0.435-0.188-0.812-0.441-1.132-0.763c-0.322-0.322-0.575-0.697-0.764-1.132c-0.188-0.434-0.283-0.895-0.283-1.386v-13.21
		c0-0.264,0.132-0.396,0.396-0.396h2.518c0.264,0,0.396,0.131,0.396,0.396v13.069c0,0.189,0.065,0.349,0.197,0.481
		c0.132,0.131,0.292,0.197,0.481,0.197h0.227c0.188,0,0.349-0.066,0.481-0.197c0.131-0.132,0.198-0.292,0.198-0.481v-13.069
		c0-0.264,0.131-0.396,0.396-0.396h2.518C109.047-95.201,109.18-95.07,109.18-94.805z"/>
	<path fill="#FFFFFF" d="M122.475-94.805v16.182c0,0.264-0.133,0.395-0.396,0.395h-2.715c-0.265,0-0.396-0.131-0.396-0.395v-7.526
		l-1.867,6.733c-0.038,0.094-0.085,0.142-0.142,0.142c-0.056,0-0.104-0.047-0.142-0.142l-1.867-6.733v7.526
		c0,0.264-0.131,0.395-0.395,0.395h-2.716c-0.264,0-0.396-0.131-0.396-0.395v-16.182c0-0.264,0.132-0.396,0.396-0.396h2.404
		c0.113,0,0.211,0.042,0.297,0.126c0.084,0.086,0.146,0.176,0.184,0.27l2.234,8.712l2.235-8.712c0.037-0.094,0.099-0.184,0.184-0.27
		c0.084-0.084,0.184-0.126,0.296-0.126h2.405C122.343-95.201,122.475-95.07,122.475-94.805z"/>
	<path fill="#FFFFFF" d="M132.433-86.234c0.263,0.264,0.461,0.575,0.593,0.933c0.132,0.359,0.197,0.754,0.197,1.188v2.32
		c0,0.491-0.093,0.952-0.281,1.386c-0.189,0.433-0.444,0.811-0.765,1.132c-0.321,0.322-0.698,0.576-1.131,0.763
		c-0.434,0.19-0.896,0.283-1.387,0.283h-4.157c-0.114,0-0.223-0.014-0.326-0.042c-0.104-0.028-0.156-0.146-0.156-0.354v-16.182
		c0-0.264,0.132-0.396,0.396-0.396h4.243c0.491,0,0.953,0.094,1.387,0.281c0.433,0.19,0.811,0.443,1.131,0.765
		c0.321,0.319,0.575,0.697,0.765,1.13c0.188,0.436,0.281,0.896,0.281,1.388v1.867c0,0.867-0.264,1.593-0.791,2.179
		c-0.284,0.301-0.624,0.547-1.02,0.735C131.828-86.705,132.168-86.499,132.433-86.234z M129.916-91.495
		c0-0.189-0.066-0.349-0.199-0.481c-0.133-0.132-0.292-0.199-0.48-0.199h-0.906v3.848h0.906c0.188,0,0.348-0.066,0.48-0.198
		c0.132-0.132,0.199-0.292,0.199-0.481V-91.495z M129.916-84.564c0-0.189-0.066-0.35-0.199-0.481c-0.133-0.132-0.292-0.2-0.48-0.2
		h-0.906v3.99h0.906c0.188,0,0.348-0.066,0.48-0.198c0.132-0.131,0.199-0.292,0.199-0.481V-84.564z"/>
	<path fill="#FFFFFF" d="M142.277-81.142v2.518c0,0.264-0.133,0.395-0.396,0.395h-6.139c-0.264,0-0.396-0.131-0.396-0.395v-16.182
		c0-0.264,0.132-0.396,0.396-0.396h6.139c0.264,0,0.396,0.131,0.396,0.396v2.518c0,0.264-0.133,0.396-0.396,0.396h-3.226v3.225
		h2.801c0.264,0,0.396,0.131,0.396,0.397v2.515c0,0.266-0.132,0.397-0.396,0.397h-2.801v3.817h3.226
		C142.145-81.54,142.277-81.406,142.277-81.142z"/>
	<path fill="#FFFFFF" d="M147.99-78.624c0,0.264-0.141,0.396-0.423,0.396h-2.518c-0.246,0-0.368-0.132-0.368-0.396v-16.182
		c0-0.264,0.132-0.396,0.396-0.396h4.243c0.491,0,0.952,0.094,1.387,0.281c0.433,0.19,0.811,0.443,1.131,0.765
		c0.32,0.319,0.575,0.697,0.765,1.13c0.188,0.435,0.281,0.896,0.281,1.388v3.479c0,0.699-0.208,1.326-0.621,1.88
		c-0.415,0.557-0.915,0.986-1.5,1.288l2.688,6.366c0.056,0.264-0.039,0.396-0.284,0.396h-2.573c-0.114,0-0.222-0.038-0.326-0.114
		c-0.104-0.074-0.175-0.169-0.213-0.281l-2.065-5.234L147.99-78.624L147.99-78.624z M147.99-87.621h0.906
		c0.188,0,0.348-0.066,0.48-0.198c0.132-0.132,0.199-0.292,0.199-0.481v-3.195c0-0.189-0.066-0.349-0.199-0.481
		c-0.133-0.132-0.292-0.199-0.48-0.199h-0.906V-87.621z"/>
	<path fill="#FFFFFF" d="M162.558-98.031c0.265,0,0.397,0.132,0.397,0.396v16.04c0,0.492-0.096,0.953-0.284,1.386
		c-0.188,0.435-0.443,0.811-0.764,1.132s-0.698,0.575-1.131,0.763c-0.435,0.189-0.897,0.283-1.386,0.283h-1.076
		c-0.49,0-0.952-0.094-1.386-0.283c-0.434-0.188-0.811-0.441-1.131-0.763s-0.576-0.697-0.764-1.132
		c-0.19-0.434-0.284-0.895-0.284-1.386v-3.592c0-0.264,0.123-0.433,0.368-0.509l2.574-0.679c0.245-0.076,0.369,0.018,0.369,0.281
		v4.357c0,0.189,0.066,0.349,0.198,0.481c0.131,0.131,0.292,0.197,0.481,0.197h0.226c0.188,0,0.349-0.066,0.481-0.197
		c0.132-0.132,0.198-0.292,0.198-0.481v-15.898c0-0.264,0.132-0.396,0.396-0.396H162.558z"/>
	<path fill="#FFFFFF" d="M173.563-78.624c0.038,0.264-0.074,0.396-0.339,0.396h-2.575c-0.244,0-0.385-0.132-0.423-0.396
		l-0.227-2.773h-1.754l-0.226,2.773c-0.038,0.264-0.18,0.396-0.425,0.396h-2.574c-0.264,0-0.377-0.132-0.339-0.396l2.121-16.182
		c0.038-0.264,0.189-0.396,0.453-0.396h3.734c0.265,0,0.415,0.132,0.453,0.396L173.563-78.624z M169.772-84.564l-0.537-6.252h-0.227
		l-0.537,6.252H169.772z"/>
	<path fill="#FFFFFF" d="M181.172-95.117c0.434,0.19,0.811,0.444,1.132,0.765c0.321,0.32,0.575,0.697,0.764,1.13
		c0.189,0.435,0.283,0.896,0.283,1.388v1.697c0,0.264-0.123,0.434-0.367,0.509l-2.575,0.396c-0.245,0.076-0.367-0.018-0.367-0.284
		v-2.178c0-0.188-0.067-0.348-0.198-0.481c-0.132-0.13-0.292-0.198-0.481-0.198h-0.227c-0.188,0-0.349,0.067-0.481,0.198
		c-0.131,0.134-0.197,0.294-0.197,0.481v9.958c0,0.189,0.066,0.349,0.197,0.481c0.132,0.131,0.293,0.197,0.481,0.197h0.227
		c0.188,0,0.349-0.066,0.481-0.197c0.131-0.132,0.198-0.292,0.198-0.481v-3.395c0-0.264,0.122-0.357,0.367-0.283l2.575,0.341
		c0.244,0.074,0.367,0.244,0.367,0.509v2.969c0,0.491-0.094,0.952-0.283,1.386c-0.188,0.435-0.442,0.811-0.764,1.132
		s-0.698,0.575-1.132,0.763c-0.434,0.189-0.896,0.283-1.387,0.283h-1.074c-0.491,0-0.952-0.094-1.387-0.283
		c-0.434-0.188-0.812-0.441-1.131-0.763c-0.322-0.322-0.577-0.697-0.765-1.132c-0.188-0.434-0.283-0.895-0.283-1.386v-10.239
		c0-0.491,0.095-0.953,0.283-1.388c0.189-0.434,0.443-0.811,0.765-1.13c0.319-0.321,0.696-0.575,1.131-0.765
		c0.434-0.188,0.896-0.284,1.387-0.284h1.074C180.276-95.401,180.738-95.304,181.172-95.117z"/>
	<path fill="#FFFFFF" d="M194.692-95.075c0.038,0.086,0.038,0.176,0,0.27l-3.845,7.214l3.79,8.967
		c0.038,0.094,0.027,0.184-0.028,0.267c-0.056,0.086-0.142,0.128-0.256,0.128h-2.799c-0.114,0-0.218-0.031-0.312-0.1
		c-0.096-0.066-0.159-0.146-0.197-0.239l-2.067-4.696l-0.479,0.906v3.734c0,0.264-0.132,0.395-0.396,0.395h-2.519
		c-0.263,0-0.396-0.131-0.396-0.395v-16.182c0-0.264,0.133-0.396,0.396-0.396h2.519c0.266,0,0.396,0.131,0.396,0.396v4.95
		l2.603-5.006c0.094-0.228,0.273-0.339,0.537-0.339h2.829C194.581-95.201,194.655-95.159,194.692-95.075z"/>
	<path fill="#FFFFFF" d="M201.229-98.031c0.489,0,0.952,0.094,1.386,0.284c0.433,0.188,0.811,0.443,1.132,0.763
		c0.32,0.322,0.575,0.699,0.764,1.133c0.189,0.433,0.284,0.894,0.284,1.386v12.673c0,0.491-0.095,0.952-0.284,1.386
		c-0.188,0.433-0.443,0.811-0.764,1.132c-0.321,0.322-0.699,0.576-1.132,0.763c-0.434,0.19-0.896,0.283-1.386,0.283h-4.243
		c-0.264,0-0.396-0.131-0.396-0.395v-19.011c0-0.264,0.132-0.395,0.396-0.395h4.243V-98.031z M201.482-94.324
		c0-0.189-0.065-0.349-0.198-0.481c-0.132-0.131-0.291-0.197-0.481-0.197h-0.903v13.748h0.903c0.19,0,0.35-0.066,0.481-0.198
		c0.133-0.131,0.198-0.292,0.198-0.481V-94.324z"/>
	<path fill="#FFFFFF" d="M213.985-81.142v2.518c0,0.264-0.131,0.395-0.396,0.395h-6.138c-0.266,0-0.397-0.131-0.397-0.395v-16.182
		c0-0.264,0.133-0.396,0.397-0.396h6.139c0.264,0,0.396,0.131,0.396,0.396v2.518c0,0.264-0.132,0.396-0.396,0.396h-3.225v3.225
		h2.801c0.264,0,0.396,0.131,0.396,0.397v2.515c0,0.266-0.132,0.397-0.396,0.397h-2.801v3.817h3.225
		C213.854-81.54,213.985-81.406,213.985-81.142z"/>
	<path fill="#FFFFFF" d="M221.709-95.117c0.434,0.19,0.812,0.444,1.131,0.765c0.321,0.32,0.574,0.697,0.764,1.13
		c0.19,0.435,0.284,0.896,0.284,1.388v1.074c0,0.264-0.124,0.434-0.367,0.509l-2.573,0.679c-0.248,0.076-0.37-0.018-0.37-0.283
		v-1.839c0-0.188-0.065-0.348-0.197-0.481c-0.132-0.13-0.292-0.198-0.481-0.198h-0.226c-0.189,0-0.35,0.067-0.481,0.198
		c-0.132,0.134-0.197,0.293-0.197,0.481v1.727c0.018,0.208,0.056,0.385,0.111,0.538c0.058,0.15,0.162,0.302,0.312,0.451l3.706,2.773
		c0.302,0.264,0.495,0.533,0.581,0.807c0.084,0.273,0.146,0.579,0.184,0.918v2.885c0,0.491-0.094,0.953-0.284,1.386
		c-0.189,0.435-0.442,0.811-0.764,1.132c-0.319,0.322-0.697,0.575-1.131,0.763c-0.435,0.189-0.896,0.283-1.386,0.283h-1.076
		c-0.489,0-0.952-0.093-1.386-0.283c-0.434-0.188-0.811-0.441-1.133-0.763c-0.318-0.321-0.575-0.697-0.763-1.132
		c-0.188-0.433-0.283-0.895-0.283-1.386v-1.583c0-0.264,0.123-0.433,0.367-0.508l2.575-0.679c0.244-0.076,0.368,0.018,0.368,0.282
		v2.348c0,0.189,0.065,0.349,0.197,0.481c0.132,0.131,0.292,0.198,0.481,0.198h0.226c0.189,0,0.35-0.066,0.481-0.198
		c0.132-0.132,0.197-0.292,0.197-0.481v-1.754c-0.018-0.245-0.056-0.461-0.114-0.651c-0.056-0.188-0.167-0.357-0.339-0.509
		l-3.648-2.801c-0.284-0.264-0.485-0.527-0.608-0.791c-0.122-0.264-0.185-0.613-0.185-1.046v-2.546c0-0.491,0.096-0.953,0.284-1.388
		c0.188-0.434,0.443-0.811,0.763-1.13c0.322-0.321,0.698-0.575,1.132-0.764c0.434-0.188,0.896-0.284,1.387-0.284h1.076
		C220.813-95.401,221.273-95.304,221.709-95.117z"/>
	<path fill="#FFFFFF" d="M229.318-78.624c0,0.264-0.132,0.396-0.396,0.396h-2.517c-0.266,0-0.396-0.132-0.396-0.396v-16.182
		c0-0.264,0.131-0.396,0.396-0.396h2.517c0.266,0,0.396,0.132,0.396,0.396V-78.624z"/>
	<path fill="#FFFFFF" d="M237.606-95.117c0.434,0.19,0.812,0.444,1.131,0.765c0.321,0.32,0.575,0.697,0.765,1.13
		c0.188,0.435,0.284,0.896,0.284,1.388v0.621c0,0.266-0.124,0.435-0.37,0.509l-2.573,0.935c-0.246,0.076-0.367-0.02-0.367-0.284
		v-1.641c0-0.188-0.066-0.348-0.198-0.481c-0.132-0.13-0.293-0.198-0.481-0.198h-0.226c-0.189,0-0.35,0.067-0.481,0.198
		c-0.132,0.134-0.197,0.293-0.197,0.481v9.958c0,0.189,0.065,0.349,0.197,0.481c0.132,0.131,0.292,0.198,0.481,0.198h0.226
		c0.188,0,0.35-0.066,0.481-0.198c0.132-0.132,0.198-0.292,0.198-0.481v-3.055h-0.793v-3.226h3.706c0.264,0,0.397,0.132,0.397,0.396
		v6.026c0,0.491-0.097,0.953-0.284,1.386c-0.189,0.435-0.443,0.811-0.765,1.132c-0.319,0.322-0.697,0.575-1.131,0.763
		c-0.435,0.189-0.896,0.283-1.386,0.283h-1.076c-0.489,0-0.952-0.093-1.386-0.283c-0.433-0.188-0.811-0.441-1.133-0.763
		c-0.319-0.321-0.575-0.697-0.763-1.132c-0.189-0.433-0.283-0.895-0.283-1.386v-10.239c0-0.491,0.094-0.953,0.283-1.388
		c0.188-0.434,0.443-0.811,0.763-1.13c0.322-0.321,0.699-0.575,1.133-0.764c0.434-0.188,0.896-0.284,1.386-0.284h1.076
		C236.711-95.401,237.172-95.304,237.606-95.117z"/>
	<path fill="#FFFFFF" d="M251.1-94.805v16.182c0,0.264-0.133,0.395-0.396,0.395h-1.812c-0.111,0-0.222-0.038-0.325-0.114
		c-0.104-0.074-0.174-0.16-0.211-0.253l-2.999-7.384v7.356c0,0.264-0.132,0.396-0.396,0.396h-2.519
		c-0.263,0-0.396-0.132-0.396-0.396v-16.182c0-0.264,0.133-0.396,0.396-0.396h1.868c0.114,0,0.222,0.038,0.325,0.112
		c0.104,0.076,0.174,0.162,0.212,0.256l2.942,8.23v-8.202c0-0.264,0.132-0.396,0.396-0.396h2.518
		C250.967-95.201,251.1-95.07,251.1-94.805z"/>
</g>
</svg>
