<?xml version="1.0" encoding="utf-8"?>
<!-- Generator: Adobe Illustrator 16.0.3, SVG Export Plug-In . SVG Version: 6.00 Build 0)  -->
<!DOCTYPE svg PUBLIC "-//W3C//DTD SVG 1.1//EN" "http://www.w3.org/Graphics/SVG/1.1/DTD/svg11.dtd">
<svg version="1.1" id="Capa_1" xmlns="http://www.w3.org/2000/svg" xmlns:xlink="http://www.w3.org/1999/xlink" x="0px" y="0px"
	 width="25px" height="15.098px" viewBox="167.741 71.765 25 15.098" enable-background="new 167.741 71.765 25 15.098"
	 xml:space="preserve">
<path fill="#FFFFFF" d="M192.666,82.022c-0.12-0.69-0.333-1.245-0.65-1.696c-0.947-1.345-2.199-2.027-3.721-2.027
	c-0.075,0-0.15,0.002-0.228,0.005c-0.351,0.015-0.702,0.107-1.073,0.281l-0.013,0.006c-0.076,0.036-0.132,0.062-0.16,0.062
	c-0.027,0-0.06-0.046-0.131-0.149l-0.011-0.016c-0.006-0.008-0.012-0.017-0.018-0.026c-0.014-0.023-0.017-0.032-0.017-0.032
	s0,0-0.001,0c0.001,0,0.005-0.008,0.03-0.024c0.637-0.385,1.35-0.619,2.117-0.695c0.245-0.024,0.497-0.026,0.74-0.028
	c0.133-0.001,0.267-0.002,0.399-0.006c0.189-0.007,0.354-0.033,0.503-0.08l0.013-0.004c0.038-0.011,0.109-0.032,0.113-0.121
	c0.004-0.086-0.064-0.125-0.101-0.145c-0.124-0.07-0.266-0.126-0.433-0.172c-0.452-0.124-1.052-0.275-1.669-0.357
	c-0.49-0.065-0.98-0.047-1.456,0.055c-0.391,0.083-0.722,0.206-1.012,0.375c-0.023,0.014-0.036,0.017-0.043,0.017
	c-0.012,0-0.027-0.014-0.047-0.042c-0.205-0.285-0.427-0.585-0.719-0.972c-0.112-0.148-0.228-0.294-0.348-0.446
	c-0.023-0.029-0.047-0.059-0.07-0.089c0.254,0.05,0.476,0.082,0.689,0.098c0.104,0.008,0.198,0.011,0.285,0.011
	c0.312,0,0.563-0.048,0.793-0.152c0.558-0.252,0.687-0.752,0.736-1.211c0.073-0.134,0.054-0.27,0.035-0.402l-0.002-0.22
	c0.037-0.189-0.003-0.367-0.041-0.539c-0.015-0.062-0.028-0.123-0.038-0.185c-0.006-0.034-0.033-0.052-0.05-0.063
	c-0.001,0-0.002-0.001-0.003-0.002c-0.105-0.188-0.265-0.328-0.485-0.429c-0.434-0.197-0.928-0.282-1.447-0.253
	c-0.745,0.04-1.316,0.359-1.698,0.948c-0.213-0.162-0.432-0.285-0.653-0.366c-0.009-0.003-0.012-0.006-0.012-0.006
	c-0.002-0.004-0.003-0.019-0.003-0.028l-0.001-0.024c-0.014-0.191-0.102-0.335-0.254-0.416c-0.08-0.042-0.159-0.085-0.237-0.128
	c-0.357-0.193-0.727-0.394-1.122-0.529c-0.196-0.067-0.378-0.03-0.538,0.109c-0.139,0.121-0.2,0.282-0.242,0.423
	c-0.008,0.028-0.017,0.055-0.025,0.083c-0.06,0.191-0.122,0.389-0.057,0.607c0.134,0.452,0.604,0.812,1.069,0.818l0.054,0
	c0.105,0,0.21-0.004,0.315-0.008c0.07-0.003,0.141-0.005,0.211-0.007l0.034,0c0.212,0,0.397,0.041,0.566,0.124
	c0.052,0.026,0.083,0.056,0.085,0.08c0.002,0.023-0.024,0.055-0.068,0.085c-0.186,0.125-0.394,0.183-0.614,0.169l-0.243-0.016
	c-0.435-0.027-0.883-0.056-1.326-0.056c-0.324,0-0.615,0.015-0.89,0.046c-0.494,0.056-0.903,0.174-1.251,0.36
	c-0.714,0.383-1.134,1.021-1.283,1.949c-0.021,0.128-0.039,0.257-0.06,0.396l-0.002,0.014c-0.082-0.165-0.172-0.293-0.283-0.401
	c-0.333-0.326-0.762-0.415-1.137-0.46c-0.516-0.062-1.042-0.071-1.55-0.08l-0.23-0.004c-0.228-0.004-0.456-0.009-0.684-0.009
	c-0.725,0-1.579,0.036-2.416,0.304c-0.289,0.093-0.649,0.242-0.878,0.585c-0.025,0.038-0.047,0.038-0.084,0.035l-0.069-0.007
	c-0.115-0.012-0.234-0.024-0.353-0.024h-0.024c-0.362,0.005-0.544,0.134-0.67,0.475c-0.017,0.045-0.035,0.09-0.053,0.135
	c-0.028,0.07-0.056,0.14-0.08,0.211c-0.041,0.123-0.093,0.246-0.143,0.364c-0.074,0.175-0.151,0.356-0.196,0.548
	c-0.056,0.238-0.014,0.465,0.125,0.673c0.135,0.202,0.332,0.288,0.504,0.336c-0.299,0.384-0.525,0.844-0.689,1.403
	c-0.208,0.706-0.281,1.422-0.219,2.129c0.056,0.634,0.273,1.228,0.647,1.765c0.431,0.621,1.021,1.112,1.753,1.462
	c0.298,0.142,0.537,0.229,0.769,0.278c0.028,0.041,0.064,0.048,0.086,0.048c0.015,0,0.031-0.004,0.046-0.01l0.043,0.007
	c0.122,0.047,0.253,0.071,0.406,0.074c0.063,0.013,0.136,0.012,0.208,0.004c0.065,0.047,0.127,0.04,0.184,0.037
	c0.013,0,0.026-0.001,0.039-0.001l0.136,0.002c0.043,0.004,0.087,0.008,0.13,0.008c0.072,0,0.131-0.011,0.186-0.036l0.113-0.012
	c0.018,0.007,0.041,0.014,0.065,0.014c0.023,0,0.063-0.007,0.094-0.047c0.58-0.092,1.123-0.325,1.659-0.711
	c0.558-0.403,0.997-0.931,1.303-1.571c0.106-0.222,0.234-0.519,0.285-0.849c0.044-0.117,0.083-0.244,0.076-0.375
	c0.001-0.012,0.002-0.024,0.003-0.037c0.003-0.03,0.006-0.062,0.003-0.096c-0.003-0.036,0.001-0.048,0.001-0.048
	c0.003-0.001,0.026-0.002,0.057,0.004c0.551,0.125,1.125,0.226,1.708,0.3c0.669,0.085,1.329,0.12,1.829,0.141
	c0.588,0.024,1.176-0.019,1.781-0.069c0.485-0.04,1-0.123,1.619-0.263c0.076-0.017,0.138-0.062,0.178-0.13
	c0.088-0.149,0.183-0.31,0.271-0.473c0.072-0.131,0.144-0.264,0.218-0.404l0.02-0.037c0.01,0.075,0.021,0.15,0.03,0.224
	c0.049,0.349,0.095,0.679,0.122,1.021c0.019,0.102,0.062,0.156,0.107,0.184c-0.065,0.044-0.048,0.117-0.039,0.154
	c0.003,0.012,0.006,0.026,0.006,0.034c-0.002,0.035-0.004,0.079,0.012,0.119l0.008,0.019c0.018,0.048,0.047,0.129,0.142,0.129l0,0
	c0.015,0,0.03-0.002,0.047-0.006l0.022-0.006l0.013-0.02c0.055-0.093,0.064-0.196,0.028-0.32l-0.017-0.048h-0.023
	c-0.006-0.005-0.013-0.012-0.019-0.019c-0.005-0.004-0.01-0.01-0.015-0.015c0.015-0.003,0.029-0.007,0.044-0.012l0.04-0.013v-0.042
	c0.001-0.098,0-0.195-0.001-0.293c-0.001-0.224-0.002-0.455,0.01-0.681c0.011-0.225,0.041-0.456,0.091-0.686
	c0.091-0.429,0.217-0.815,0.384-1.182c0.308-0.675,0.746-1.267,1.304-1.761c0.034,0.046,0.068,0.098,0.096,0.152
	c-0.003,0.005-0.021,0.015-0.03,0.021c-0.012,0.006-0.022,0.013-0.032,0.02c-0.261,0.187-0.489,0.429-0.679,0.721
	c-0.41,0.63-0.652,1.362-0.763,2.31v0.048c0.002,0.111,0.003,0.217-0.032,0.317l-0.003,0.009l0.001,0.335l-0.01,0.01l0.005,0.029
	c0.001,0.007,0.002,0.012,0.004,0.018l-0.004,0.089l0.001,0.006c0.018,0.104,0.072,0.18,0.13,0.25l-0.095-0.052l0.013,0.11
	c0.001,0.011-0.002,0.025-0.004,0.042c-0.007,0.04-0.018,0.107,0.043,0.158l0.018,0.013c-0.03,0.056-0.04,0.125-0.028,0.202
	l0.016,0.103l0.017,0.014c0.015,0.012,0.016,0.025,0.014,0.068l-0.001,0.032l0.002,0.007c0.146,0.554,0.381,1.008,0.719,1.388
	c0.769,0.867,1.792,1.327,3.131,1.409c0.48,0.029,0.954-0.028,1.471-0.173c0.031,0.005,0.067,0.003,0.102-0.037l0.006,0
	c0.069,0.029,0.136-0.013,0.174-0.043c0.01-0.008,0.019-0.016,0.028-0.021c0.034-0.018,0.075-0.027,0.118-0.037
	c0.07-0.016,0.15-0.034,0.214-0.097c0.031-0.005,0.053-0.022,0.067-0.035c0.005-0.004,0.012-0.01,0.013-0.01l0.012-0.002
	c0.091-0.029,0.162-0.072,0.217-0.129c0.171-0.071,0.308-0.187,0.44-0.299l0.073-0.062c0.014-0.01,0.027-0.02,0.042-0.03
	c0.042-0.029,0.089-0.061,0.123-0.111c0.114-0.106,0.217-0.219,0.302-0.329c0.056-0.056,0.102-0.117,0.137-0.183
	c0.006-0.008,0.011-0.017,0.014-0.026c0.023-0.037,0.051-0.071,0.079-0.107c0.063-0.08,0.128-0.163,0.153-0.263
	c0.017-0.036,0.035-0.072,0.054-0.108c0.039-0.078,0.08-0.159,0.112-0.243C192.741,83.677,192.814,82.867,192.666,82.022z
	 M186.044,82.918l-0.008-0.012c-0.031-0.045-0.029-0.1-0.026-0.164l0.002-0.041c0.001-0.085-0.013-0.157-0.044-0.22l0.076-0.021
	l-0.004-0.048c-0.002-0.022,0.003-0.048,0.008-0.075c0.01-0.045,0.021-0.101-0.001-0.159l0.006-0.036
	c0.047-0.05,0.041-0.112,0.035-0.144c0.05-0.318,0.194-0.603,0.343-0.863c0.128-0.225,0.279-0.447,0.462-0.678
	c0,0,0-0.001,0.001-0.001c0.232,0.36,0.545,0.83,0.897,1.277c0.011,0.015,0.021,0.033-0.005,0.076
	c-0.344,0.592-0.058,1.505,0.417,1.838c0.153,0.107,0.324,0.164,0.496,0.164c0.283,0,0.532-0.155,0.684-0.426
	c0.328-0.59,0.126-1.502-0.416-1.875c-0.104-0.072-0.229-0.149-0.385-0.149h-0.022c-0.05,0-0.082-0.021-0.115-0.076l-0.057-0.092
	c-0.253-0.415-0.516-0.843-0.779-1.262c-0.003-0.004-0.005-0.008-0.007-0.011c0.003-0.001,0.007-0.002,0.012-0.003
	c0.516-0.135,0.963-0.144,1.383-0.029c0.894,0.243,1.536,0.816,1.965,1.75c0.258,0.563,0.332,1.137,0.222,1.707
	c-0.113,0.583-0.418,1.049-0.906,1.385c-0.639,0.439-1.302,0.629-1.97,0.562c-0.74-0.073-1.351-0.452-1.813-1.125
	c-0.161-0.234-0.285-0.504-0.38-0.825c-0.017-0.054-0.025-0.109-0.028-0.175l-0.001-0.024l-0.019-0.016
	c-0.012-0.01-0.021-0.023-0.011-0.063l0.002-0.019L186.044,82.918z M184.782,77.732c0.014-0.246,0.027-0.48,0.016-0.717
	c0.054,0.087,0.104,0.175,0.156,0.264c0.069,0.119,0.141,0.242,0.216,0.361c0.018,0.026,0.016,0.029,0.016,0.029
	s-0.003,0.006-0.018,0.021c-0.115,0.112-0.229,0.226-0.353,0.35l-0.05,0.049C184.77,77.968,184.776,77.849,184.782,77.732z
	 M186.761,73.537c0.005,0.015,0.017,0.033,0.041,0.047l0.009,0.837c-0.006,0.229-0.062,0.446-0.165,0.643
	c-0.052,0.098-0.097,0.136-0.16,0.136c-0.058,0-0.104-0.038-0.155-0.129c-0.177-0.31-0.201-0.654-0.203-0.951
	c-0.001-0.331,0.022-0.68,0.201-0.992c0.062-0.108,0.109-0.123,0.151-0.123c0.027,0,0.059,0.007,0.098,0.021l0.076,0.098l0.063,0.13
	c0.001,0.005,0.002,0.011,0.002,0.017c0.002,0.034,0.006,0.086,0.047,0.124c-0.003,0.024-0.002,0.048,0.003,0.073
	C186.754,73.498,186.756,73.521,186.761,73.537z M183.392,79.363c-0.033,0.34-0.112,0.675-0.193,0.987
	c-0.12,0.462-0.269,0.924-0.413,1.371c-0.042,0.13-0.084,0.26-0.126,0.391c-0.068,0.217-0.257,0.276-0.479,0.327
	c-0.264,0.06-0.535,0.093-0.766,0.093c-0.054,0-0.106-0.001-0.16-0.005c-0.294-0.001-0.549-0.002-0.795-0.036
	c-0.038-0.005-0.064-0.015-0.072-0.027c-0.006-0.008-0.01-0.029,0.002-0.079c0.16-0.681,0.319-1.362,0.478-2.043l0.059-0.253
	c0.068-0.29,0.139-0.589,0.2-0.885c0.025-0.12,0.093-0.149,0.226-0.166c0.148-0.019,0.304-0.027,0.475-0.027
	c0.282,0,0.569,0.025,0.847,0.049l0.016,0.001c0.051,0.004,0.102,0.007,0.153,0.01c0.123,0.007,0.25,0.015,0.372,0.043
	C183.396,79.157,183.41,79.175,183.392,79.363z M174.361,82.362c-0.123-0.01-0.246-0.019-0.369-0.028
	c-0.414-0.032-0.842-0.064-1.259-0.122c-0.054-0.007-0.107-0.012-0.162-0.018c-0.082-0.007-0.166-0.015-0.25-0.032
	c0.388-0.395,0.727-0.823,1.034-1.304c0.019-0.028,0.029-0.039,0.034-0.043c0.005,0.003,0.019,0.013,0.043,0.04
	c0.388,0.427,0.697,0.911,0.946,1.479c0.006,0.013,0.009,0.023,0.011,0.03C174.382,82.363,174.372,82.363,174.361,82.362z
	 M172.917,80.512c-0.007,0.007-0.013,0.014-0.018,0.021c-0.148,0.194-0.3,0.387-0.452,0.579c-0.075,0.095-0.15,0.19-0.225,0.286
	c-0.104,0.134-0.188,0.245-0.263,0.349c-0.001,0.002-0.004,0.006-0.008,0.011c-0.001-0.001-0.002-0.003-0.004-0.004
	c-0.227-0.233-0.508-0.305-0.783-0.201c-0.268,0.101-0.437,0.334-0.487,0.675c-0.066,0.446,0.046,0.833,0.334,1.151
	c0.219,0.241,0.492,0.329,0.773,0.247c0.25-0.072,0.417-0.265,0.496-0.571c0.007-0.03,0.01-0.062,0.012-0.092
	c0.004-0.054,0.008-0.091,0.029-0.105c0.01-0.007,0.051-0.002,0.095,0.012c0.029,0.009,0.06,0.019,0.091,0.021
	c0.331,0.034,0.661,0.069,0.992,0.105c0.317,0.034,0.633,0.068,0.95,0.101c0.022,0.002,0.031,0.007,0.031,0.006
	c0.003,0.008,0,0.034-0.001,0.05c-0.048,0.472-0.241,0.897-0.589,1.3c-0.055,0.063-0.116,0.125-0.175,0.185
	c-0.026,0.026-0.052,0.053-0.078,0.08l-0.019,0.01c-0.04,0.02-0.089,0.045-0.121,0.095c-0.056,0.022-0.115,0.052-0.161,0.105
	c-0.051,0.009-0.095,0.037-0.135,0.085c-0.099,0.024-0.19,0.067-0.278,0.109c-0.062,0.029-0.121,0.057-0.183,0.079
	c-0.266,0.094-0.535,0.143-0.797,0.143c-0.475,0-0.938-0.148-1.415-0.454c-0.582-0.372-0.992-0.902-1.219-1.575
	c-0.271-0.802-0.221-1.547,0.149-2.212c0.255-0.46,0.622-0.778,1.082-0.942c0.014-0.002,0.028-0.004,0.042-0.006
	c0.057-0.006,0.126-0.014,0.178-0.074c0.377-0.08,0.654-0.093,0.926-0.048c0.421,0.07,0.825,0.218,1.233,0.451
	c0.009,0.005,0.014,0.009,0.017,0.01C172.931,80.497,172.923,80.506,172.917,80.512z"/>
</svg>
