<?xml version="1.0" encoding="utf-8"?>
<!-- Generator: Adobe Illustrator 16.0.3, SVG Export Plug-In . SVG Version: 6.00 Build 0)  -->
<!DOCTYPE svg PUBLIC "-//W3C//DTD SVG 1.1//EN" "http://www.w3.org/Graphics/SVG/1.1/DTD/svg11.dtd">
<svg version="1.1" id="Capa_1" xmlns="http://www.w3.org/2000/svg" xmlns:xlink="http://www.w3.org/1999/xlink" x="0px" y="0px"
	 width="25px" height="15.607px" viewBox="167.764 66.891 25 15.607" enable-background="new 167.764 66.891 25 15.607"
	 xml:space="preserve">
<path fill="#FFFFFF" d="M183.639,72.984c0.001-0.01,0.004-0.013,0.014-0.015c0.011-0.002,0.021-0.011,0.023-0.022
	c0.006-0.023,0.018-0.036,0.037-0.042c0.007-0.001,0.012-0.004,0.017-0.009c0.006-0.005,0.009-0.013,0.009-0.021
	c0.002-0.008,0.01-0.015,0.03-0.029l0.018-0.017l0.022-0.023c0.011-0.018,0.018-0.024,0.025-0.025c0.007,0,0.015-0.004,0.02-0.009
	c0.006-0.005,0.009-0.011,0.01-0.018c0.007-0.019,0.02-0.03,0.04-0.036c0.006-0.001,0.011-0.004,0.015-0.008
	c0.004-0.004,0.007-0.009,0.008-0.014c0.008-0.018,0.021-0.03,0.044-0.038c0.006-0.001,0.01-0.005,0.014-0.009
	c0.024-0.028,0.059-0.063,0.104-0.083c0.008-0.003,0.014-0.01,0.017-0.019c0.006-0.017,0.01-0.018,0.016-0.018
	c0.001,0,0.005,0,0.007,0c0.01,0,0.019-0.004,0.024-0.012l0.007-0.009c0.02-0.025,0.031-0.04,0.053-0.041
	c0.013-0.001,0.023-0.01,0.027-0.022c0.003-0.007,0.005-0.009,0.008-0.009c0.001,0,0.005,0,0.007,0c0.013,0,0.023-0.007,0.028-0.019
	c0.007-0.014,0.02-0.02,0.041-0.029c0.008-0.003,0.015-0.006,0.022-0.01c0.007-0.003,0.012-0.009,0.015-0.017
	c0.006-0.014,0.009-0.015,0.013-0.015c0.001,0,0.006,0,0.008,0c0.005,0,0.007-0.001,0.012-0.006c0.002,0,0.003,0,0.005,0
	c0.01,0,0.019-0.004,0.024-0.012c0.022-0.029,0.057-0.046,0.092-0.063c0.026-0.013,0.054-0.027,0.081-0.045
	c0.02,0.043,0.043,0.085,0.066,0.126c0.037,0.066,0.072,0.128,0.091,0.199c0.003,0.011,0.008,0.02,0.02,0.022
	c0,0.011,0.006,0.021,0.016,0.027c0.012,0.007,0.017,0.015,0.016,0.028c0,0.005,0.001,0.01,0.003,0.015
	c0.015,0.029,0.026,0.059,0.039,0.088c0.032,0.076,0.065,0.153,0.121,0.221c0.002,0.003,0.006,0.006,0.009,0.008
	c0.019,0.01,0.018,0.014,0.017,0.02c-0.002,0.008,0,0.014,0.005,0.021c-0.002,0.014,0.006,0.028,0.02,0.033
	c0.006,0.002,0.008,0.005,0.012,0.027l0.003,0.016c0.02,0.071,0.061,0.129,0.101,0.184c0.03,0.042,0.06,0.082,0.078,0.127
	c0.004,0.007,0.01,0.014,0.018,0.017c0.016,0.006,0.015,0.01,0.015,0.016c-0.001,0.008,0,0.014,0.005,0.02
	c-0.001,0.015,0.008,0.028,0.021,0.032c0.007,0.002,0.009,0.002,0.012,0.027l0.002,0.011c0.001,0.004,0.002,0.008,0.004,0.012
	l0.112,0.184c0.004,0.005,0.008,0.01,0.014,0.012c0.016,0.007,0.022,0.018,0.021,0.037c0,0.005,0.001,0.01,0.003,0.015
	c0.02,0.039,0.044,0.074,0.068,0.108c0.031,0.045,0.062,0.087,0.078,0.137c0.003,0.008,0.009,0.015,0.018,0.019
	c0.013,0.006,0.021,0.014,0.021,0.036c0,0.005,0.002,0.011,0.005,0.016l1.24,2.079c0.185,0.31,0.369,0.619,0.556,0.927
	c0.026,0.044,0.032,0.06-0.006,0.101c-0.261,0.279-0.36,0.663-0.265,1.027c0.095,0.362,0.36,0.637,0.729,0.753
	c0.11,0.035,0.223,0.052,0.334,0.052c0.478,0,0.883-0.312,1.033-0.795c0.016-0.052,0.024-0.105,0.032-0.157
	c0.003-0.023,0.007-0.047,0.012-0.078c-0.012-0.292-0.084-0.52-0.228-0.715c-0.188-0.256-0.539-0.429-0.873-0.429
	c-0.079,0-0.154,0.01-0.226,0.029c-0.016,0.005-0.029,0.007-0.039,0.007c-0.017,0-0.031-0.004-0.054-0.055
	c-0.122-0.276-0.247-0.55-0.371-0.825c-0.075-0.163-0.149-0.327-0.223-0.49c-0.011-0.023-0.022-0.047-0.035-0.07
	c-0.028-0.056-0.056-0.108-0.063-0.168c-0.001-0.004-0.002-0.009-0.005-0.012c-0.065-0.107-0.122-0.229-0.176-0.375l-0.566-1.238
	c-0.042-0.091-0.084-0.184-0.125-0.275c-0.152-0.335-0.31-0.683-0.484-1.016c-0.115-0.22-0.229-0.441-0.344-0.662
	c-0.079-0.154-0.159-0.308-0.239-0.461c-0.133-0.255-0.72-1.377-0.72-1.377l-0.194-0.375c-0.14-0.267-0.278-0.534-0.419-0.8
	c-0.013-0.026-0.012-0.032-0.012-0.033c0,0,0.002-0.006,0.026-0.019c0.177-0.089,0.347-0.183,0.505-0.271
	c0.029-0.016,0.054-0.023,0.08-0.023c0.014,0,0.028,0.002,0.044,0.006c0.055,0.016,0.111,0.023,0.167,0.023
	c0.094,0,0.188-0.021,0.279-0.064c0.311-0.146,0.458-0.397,0.439-0.746c-0.018-0.33-0.331-0.646-0.657-0.663
	c-0.019-0.001-0.037-0.001-0.056-0.001c-0.334,0-0.574,0.164-0.714,0.486l-0.003,0.008c-0.014,0.033-0.023,0.052-0.047,0.065
	c-0.123,0.064-0.246,0.129-0.368,0.194c-0.201,0.106-0.402,0.213-0.605,0.317c-0.141,0.071-0.249,0.203-0.29,0.353
	c-0.034,0.122-0.02,0.242,0.039,0.336c0.023,0.038,0.042,0.079,0.062,0.123c0.014,0.029,0.027,0.059,0.042,0.087
	c0.085,0.163,0.171,0.325,0.256,0.487c0.109,0.208,0.22,0.417,0.328,0.625c0.009,0.017,0.013,0.028,0.011,0.034
	c-0.002,0.004-0.009,0.015-0.039,0.03l-0.021,0.01c-0.208,0.104-0.423,0.213-0.614,0.356c-0.022,0.002-0.048,0.013-0.067,0.043
	l-0.017,0.014c-0.027,0-0.05,0.014-0.066,0.04c-0.021,0.004-0.036,0.018-0.045,0.029c-0.029,0.007-0.049,0.026-0.061,0.043
	l-0.017,0.015c-0.028,0-0.05,0.016-0.06,0.041l-0.001,0c-0.022,0.01-0.048,0.022-0.068,0.051c-0.022,0.004-0.04,0.017-0.051,0.038
	c-0.03,0.009-0.054,0.028-0.069,0.057c-0.041,0.007-0.063,0.037-0.08,0.061l-0.005,0.006c-0.032,0.011-0.055,0.034-0.074,0.054
	c-0.006,0.005-0.011,0.011-0.017,0.016c-0.03,0.013-0.054,0.033-0.067,0.059c-0.031,0.012-0.055,0.035-0.068,0.066
	c-0.082,0.059-0.15,0.132-0.216,0.204c-0.018,0.018-0.034,0.036-0.051,0.054c-0.016,0.01-0.035,0.026-0.045,0.053
	c-0.027,0.014-0.047,0.036-0.059,0.065c-0.027,0.015-0.042,0.039-0.055,0.061c-0.007,0.007-0.014,0.014-0.021,0.021
	c-0.021,0.02-0.044,0.043-0.057,0.076c-0.051,0.037-0.087,0.087-0.116,0.137c-0.006,0.006-0.013,0.011-0.02,0.017
	c-0.017,0.014-0.038,0.032-0.048,0.063c-0.024,0.014-0.037,0.032-0.041,0.05c-0.04,0.033-0.076,0.076-0.106,0.129
	c-0.045,0.035-0.085,0.072-0.106,0.128c-0.055,0.032-0.091,0.081-0.118,0.128c-0.005,0.004-0.011,0.007-0.016,0.011
	c-0.015,0.01-0.029,0.021-0.042,0.035c-0.225,0.246-0.51,0.434-0.871,0.575c-0.367,0.143-0.78,0.227-1.264,0.255l-0.153-0.003
	c-0.127-0.003-0.255-0.006-0.389-0.006c-0.048,0-0.072-0.015-0.104-0.063c-0.087-0.132-0.172-0.268-0.254-0.4
	c-0.142-0.228-0.289-0.463-0.451-0.684c-0.025-0.079-0.071-0.142-0.109-0.189c0,0,0-0.001,0-0.002
	c-0.014-0.029-0.03-0.061-0.06-0.085l-0.087-0.14c-0.029-0.065-0.061-0.114-0.098-0.154l-0.077-0.124
	c-0.066-0.108-0.136-0.22-0.208-0.328c-0.019-0.028-0.018-0.028,0.01-0.058c0.184-0.193,0.374-0.393,0.617-0.52
	c0.004,0,0.009-0.002,0.013-0.004c0.001,0,0.003,0,0.004,0c0.032,0,0.063-0.011,0.093-0.033c0.002,0,0.003,0.001,0.006,0.001
	c0.006,0,0.015-0.002,0.023-0.008c0.003,0,0.007,0.001,0.01,0.001c0.024,0,0.046-0.007,0.066-0.014
	c0.015-0.005,0.029-0.01,0.042-0.01l0.771-0.001c0.089,0,0.182-0.021,0.283-0.063c0.075-0.031,0.149-0.122,0.177-0.215
	c0.021-0.073,0.013-0.141-0.024-0.194c-0.096-0.138-0.226-0.231-0.386-0.279c-0.114-0.034-0.235-0.051-0.359-0.051
	c-0.128,0-0.26,0.017-0.406,0.053c-0.104,0.009-0.211,0.038-0.336,0.092c-0.003,0-0.006-0.001-0.009-0.001
	c-0.012,0-0.022,0.003-0.033,0.01c-0.002,0-0.004-0.001-0.005-0.001c-0.02,0-0.034,0.01-0.046,0.021c-0.002,0-0.006,0-0.007,0
	c-0.016,0.001-0.034,0.001-0.052,0.008c-0.31,0.119-0.632,0.22-0.943,0.317c-0.107,0.034-0.215,0.067-0.322,0.102
	c-0.081,0.026-0.164,0.049-0.246,0.073c-0.133,0.038-0.271,0.077-0.403,0.128c-0.005,0-0.014,0.001-0.018,0.001
	c-0.018,0.001-0.038,0.001-0.057,0.007c-0.382,0.117-0.794,0.233-1.336,0.375c-0.136,0.036-0.226,0.11-0.252,0.21
	c-0.027,0.1,0.013,0.21,0.114,0.31c0.268,0.267,0.606,0.411,1.034,0.442c0.062,0.004,0.125,0.007,0.187,0.007
	c0.247,0,0.502-0.036,0.76-0.105l0,0l0.033-0.007c0.1-0.023,0.204-0.047,0.298-0.097c0.014-0.007,0.023-0.01,0.029-0.01
	c0.005,0,0.012,0.007,0.021,0.021c0.189,0.301,0.374,0.596,0.565,0.892c0.038,0.059,0.075,0.118,0.111,0.177
	c0.081,0.131,0.165,0.267,0.261,0.392c0.001,0.005,0.002,0.01,0.005,0.014c0.001,0.021,0.012,0.045,0.042,0.062
	c0.038,0.061,0.074,0.122,0.111,0.183c0.094,0.155,0.19,0.314,0.294,0.466c0.052,0.076,0.047,0.132,0.017,0.221
	c-0.168,0.503-0.245,1.044-0.229,1.609c0.006,0.217,0.012,0.441,0.061,0.684l-0.262-0.23l-0.198-0.18
	c-0.154-0.141-0.308-0.281-0.464-0.419c-0.036-0.032-0.07-0.065-0.105-0.098c-0.084-0.08-0.172-0.162-0.273-0.228
	c-0.008-0.017-0.022-0.028-0.041-0.033c-0.085-0.058-0.174-0.088-0.266-0.088c-0.102,0-0.207,0.038-0.303,0.109
	c-0.136,0.101-0.268,0.213-0.395,0.321l-0.096,0.081c-0.138,0.117-0.275,0.235-0.413,0.353l-0.175,0.15
	c-0.019,0.009-0.042,0.022-0.056,0.048c-0.001,0.001-0.003,0.002-0.005,0.003c-0.008,0.002-0.019,0.006-0.028,0.014l-1.228,1.041
	c-0.025,0.021-0.043,0.03-0.064,0.03c-0.015,0-0.034-0.005-0.056-0.016c-0.191-0.094-0.367-0.139-0.537-0.139
	c-0.085,0-0.171,0.012-0.254,0.035c-0.595,0.166-0.937,0.751-0.778,1.332c0.115,0.418,0.406,0.688,0.844,0.78
	c0.064,0.013,0.131,0.02,0.198,0.02c0.438,0,0.861-0.282,1.005-0.671c0.017-0.045,0.03-0.05,0.058-0.05c0.004,0,0.009,0,0.013,0
	c0.132,0.009,0.265,0.016,0.397,0.021c0.123,0.005,0.246,0.013,0.368,0.02c0.207,0.012,0.42,0.025,0.63,0.025
	c0.04,0,0.079,0,0.118-0.001c0.038,0.001,0.076,0.006,0.114,0.01c0.05,0.005,0.101,0.011,0.153,0.011
	c0.022,0,0.044-0.001,0.066-0.004c0.028,0.008,0.054,0.012,0.078,0.012c0.018,0,0.034-0.003,0.051-0.007
	c0.153,0.021,0.31,0.028,0.46,0.035l0.123,0.006h0.037c0.024,0,0.12-0.001,0.144-0.001c0.079,0,0.163,0.003,0.247,0.027
	c0.003,0.001,0.006,0.001,0.009,0.001c0.001,0,0.003,0,0.004,0c0.026-0.004,0.052-0.005,0.082-0.005
	c0.056,0,0.111,0.006,0.163,0.014c0.001,0,0.002,0,0.004,0c0.001,0,0.08-0.009,0.102-0.011l0.064,0.019c0,0,0.17,0.005,0.232,0.007
	c0.005,0.004,0.011,0.007,0.018,0.008c0,0.001,0,0.002,0,0.004c0.053,0.112,0.125,0.21,0.189,0.291
	c0.004,0.006,0.011,0.01,0.018,0.011c0.017,0.004,0.017,0.009,0.017,0.018c0,0.008,0.003,0.016,0.009,0.021l0.019,0.02
	c0.006,0.006,0.013,0.009,0.021,0.01c0.011,0,0.013,0.002,0.014,0.014c0,0.008,0.004,0.015,0.009,0.02l0.02,0.019
	c0.006,0.006,0.015,0.009,0.023,0.009c0.007,0,0.013,0,0.019,0.02c0.002,0.008,0.007,0.015,0.015,0.019l0.017,0.009
	c0.022,0.011,0.037,0.019,0.042,0.034c0.005,0.012,0.017,0.019,0.029,0.019c0.002,0,0.005,0,0.008-0.001
	c0,0,0.002,0.002,0.007,0.011c0.003,0.006,0.008,0.011,0.014,0.015c0.004,0.002,0.008,0.003,0.013,0.003
	c0.021,0.001,0.025,0.008,0.029,0.016c0.003,0.007,0.008,0.013,0.015,0.016l0.067,0.032l0.047,0.028
	c0.018,0.023,0.043,0.026,0.061,0.029c0.007,0.001,0.014,0.002,0.018,0.004c0.003,0.002,0.006,0.003,0.009,0.003
	c0.045,0.009,0.085,0.019,0.115,0.048c0.005,0.005,0.012,0.008,0.019,0.008l0.063,0.007c0.004,0,0.008,0,0.012,0
	c0.029,0,0.058,0.009,0.087,0.026c0.004,0.002,0.008,0.004,0.013,0.004c0,0,0.052,0.006,0.053,0.006
	c0.006,0,0.012-0.001,0.017-0.005l0.01-0.006l0,0c0.05,0.009,0.103,0.015,0.159,0.015c0.113,0,0.226-0.019,0.342-0.038l0.07-0.009
	c0.004,0,0.009-0.002,0.013-0.005c0.055-0.036,0.097-0.052,0.142-0.053c0.003,0,0.007-0.001,0.011-0.003c0,0,0.001,0,0.001,0
	c0.009,0,0.019-0.004,0.024-0.012c0.018-0.022,0.043-0.036,0.07-0.05c0.011-0.006,0.023-0.012,0.038-0.019
	c0.01,0,0.019-0.005,0.025-0.013c0.01-0.014,0.024-0.021,0.044-0.025c0.004,0,0.007-0.002,0.011-0.004l0.052-0.03
	c0.007-0.004,0.012-0.011,0.014-0.019c0.004-0.015,0.009-0.016,0.016-0.016c0.001,0,0.005,0,0.006,0
	c0.008,0,0.015-0.002,0.021-0.008l0.021-0.019c0.005-0.005,0.009-0.011,0.01-0.019c0.002-0.012,0.004-0.012,0.012-0.012h0
	c0.003,0,0.007,0,0.01-0.001c0.032-0.011,0.048-0.036,0.061-0.055c0.006-0.009,0.011-0.018,0.017-0.023
	c0.146-0.142,0.254-0.323,0.342-0.57c0.001-0.003,0.001-0.007,0.001-0.01v-0.011c0-0.006-0.001-0.017,0.004-0.021
	c0.01-0.004,0.017-0.012,0.019-0.023l0.013-0.064c0-0.004,0-0.009,0-0.013c-0.006-0.026,0.001-0.034,0.009-0.041
	c0.006-0.006,0.011-0.014,0.011-0.022l0.006-0.075c0-0.003,0-0.006-0.001-0.01c0-0.001,0-0.002-0.001-0.003c0.003,0,0.007,0,0.007,0
	c0.004,0,0.01-0.001,0.015-0.003h0c0.014,0,0.026-0.009,0.03-0.022c0.002-0.007,0.003-0.009,0.009-0.009
	c0.001,0,0.009,0.001,0.011,0.001c0.006,0,0.013-0.002,0.019-0.006c0.003-0.002,0.006-0.005,0.008-0.008
	c0.005-0.003,0.011-0.007,0.014-0.013c0,0,0,0,0,0c0.005,0,0.01-0.001,0.015-0.004l0.051-0.027c0.003-0.002,0.006-0.004,0.009-0.007
	c0.013-0.016,0.02-0.021,0.029-0.021h0.001c0.005,0,0.01-0.001,0.014-0.003l0.057-0.029c0.007-0.003,0.012-0.009,0.015-0.016
	c0.005-0.013,0.009-0.015,0.015-0.015c0,0,0.004,0,0.005,0c0.006,0,0.012-0.001,0.017-0.005c0,0,0.001,0,0.002,0
	c0.011,0,0.021-0.005,0.026-0.015l0.015-0.023c0.017-0.003,0.03-0.012,0.04-0.019c0.004-0.003,0.011-0.008,0.014-0.008
	c0.004,0.001,0.007,0.002,0.011,0.002c0.007,0,0.014-0.002,0.02-0.007l0.023-0.02c0.005-0.004,0.008-0.012,0.01-0.02l0.046-0.017
	l0.05-0.027c0.006-0.003,0.011-0.009,0.014-0.015c0.007-0.016,0.011-0.018,0.016-0.018c0.001,0,0.007,0,0.009,0
	c0.007,0,0.015-0.002,0.021-0.008l0.026-0.023c0.002-0.002,0.007-0.007,0.008-0.009c0.013-0.019,0.02-0.022,0.028-0.022l0,0
	c0.007,0,0.014-0.002,0.019-0.006l0.06-0.043c0.004-0.003,0.008-0.008,0.01-0.014c0.004-0.001,0.009-0.002,0.012-0.004l0.039-0.024
	c0.006-0.004,0.011-0.011,0.013-0.019c0.004-0.012,0.007-0.014,0.011-0.014c0.001,0,0.004,0,0.005,0
	c0.008,0,0.016-0.003,0.021-0.009l0.035-0.034c0.014-0.016,0.02-0.022,0.028-0.022c0.014,0,0.027-0.018,0.031-0.032l0.001-0.005
	l0.11-0.074c0.004-0.003,0.008-0.008,0.011-0.014c0.003-0.001,0.007-0.002,0.01-0.005l0.036-0.025
	c0.008-0.005,0.012-0.013,0.014-0.021c0.002-0.013,0.004-0.014,0.011-0.014c0.001,0,0.004,0,0.004,0c0.009,0,0.018-0.004,0.023-0.01
	l0.021-0.02c0.006-0.005,0.009-0.012,0.01-0.019c0.001-0.01,0.002-0.01,0.011-0.01c0.01,0,0.019-0.005,0.024-0.013l0.02-0.027
	c0.002-0.002,0.004-0.006,0.005-0.009c0,0,0-0.001,0-0.001c0.002-0.005,0.008-0.009,0.021-0.017
	c0.017-0.009,0.038-0.024,0.047-0.052l0.008-0.007c0.043-0.023,0.073-0.058,0.104-0.09c0.021-0.024,0.041-0.047,0.065-0.064
	c0.005-0.004,0.01-0.01,0.012-0.018l0.004-0.017l0.01-0.002c0.007-0.001,0.013-0.005,0.018-0.01l0.02-0.021
	c0.006-0.007,0.009-0.016,0.007-0.025c-0.001-0.008-0.001-0.011,0.016-0.016c0.009-0.002,0.016-0.008,0.02-0.015
	c0.004-0.006,0.007-0.013,0.011-0.02c0.011-0.022,0.018-0.035,0.032-0.041s0.021-0.022,0.018-0.037c0,0,0.003-0.002,0.012-0.006
	c0.011-0.004,0.019-0.015,0.02-0.026c0.002-0.024,0.02-0.039,0.049-0.062c0.009-0.007,0.013-0.018,0.012-0.029
	c-0.001-0.008-0.002-0.016,0.019-0.026c0.013-0.006,0.018-0.019,0.017-0.032c0.038-0.021,0.051-0.06,0.06-0.091
	c0.006-0.021,0.011-0.04,0.022-0.05c0.037-0.018,0.045-0.051,0.047-0.074l0.015-0.01c0.011-0.007,0.017-0.021,0.013-0.034v-0.002
	l0.025-0.023c0.007-0.006,0.011-0.017,0.01-0.027c0.012-0.006,0.018-0.018,0.015-0.031c0-0.001,0-0.002,0-0.003
	c0.001,0,0.001-0.001,0.002-0.001l0.005-0.017c0.003-0.003,0.005-0.007,0.007-0.01c0.006-0.012,0.009-0.015,0.012-0.016
	c0.012-0.003,0.021-0.013,0.023-0.024c0.002-0.012,0.01-0.025,0.019-0.039c0.013-0.021,0.028-0.048,0.028-0.078
	c0.018-0.015,0.03-0.033,0.038-0.058c0.001,0,0.001,0,0.001,0l0.041-0.068l0.025-0.045c0.01-0.037,0.02-0.06,0.043-0.073
	c0.005-0.003,0.01-0.008,0.012-0.014l0.067-0.138c0.002-0.004,0.003-0.008,0.003-0.013c0.001-0.036,0.016-0.063,0.047-0.084
	c0.008-0.006,0.013-0.016,0.013-0.027c0.003-0.007,0.004-0.017,0.003-0.023c0-0.001,0-0.002,0-0.004
	c0.009-0.003,0.016-0.01,0.019-0.019c0.02-0.054,0.036-0.099,0.065-0.137c0.002-0.003,0.004-0.007,0.005-0.01
	c0.006-0.019,0.008-0.022,0.013-0.023c0.015-0.004,0.023-0.018,0.022-0.032c0.002-0.004,0.004-0.009,0.004-0.013
	c0.004-0.033,0.02-0.061,0.048-0.086c0.009-0.007,0.011-0.012,0.009-0.023c0.003-0.004,0.005-0.009,0.006-0.015
	c0.004-0.034,0.02-0.063,0.048-0.087c0.008-0.007,0.011-0.013,0.009-0.024c0.006-0.007,0.008-0.016,0.006-0.024
	c-0.001-0.006-0.002-0.01,0.016-0.019c0.012-0.006,0.019-0.02,0.017-0.033c-0.001-0.005,0.002-0.009,0.011-0.021
	c0.007-0.01,0.016-0.022,0.02-0.037c0.001-0.004,0.002-0.009,0.001-0.014c-0.001-0.006-0.002-0.01,0.017-0.02
	c0.011-0.006,0.017-0.018,0.016-0.03c0-0.008,0.004-0.014,0.018-0.027c0.006-0.006,0.009-0.014,0.01-0.022
	c0-0.031,0.015-0.057,0.049-0.089c0.005-0.005,0.009-0.012,0.01-0.019c0.003-0.005,0.005-0.011,0.005-0.017
	c0.001-0.034,0.022-0.059,0.055-0.093c0.021-0.035,0.037-0.072,0.053-0.107c0.021-0.05,0.041-0.097,0.073-0.136
	c0.004-0.003,0.006-0.007,0.007-0.012c0.01-0.035,0.02-0.058,0.043-0.071c0.011-0.006,0.017-0.017,0.016-0.029
	c-0.002-0.035,0.02-0.061,0.043-0.091c0.008-0.009,0.016-0.019,0.022-0.029c0.004-0.006,0.006-0.014,0.005-0.021
	c0-0.005-0.001-0.009,0.018-0.018c0.005-0.003,0.01-0.007,0.013-0.012l0.151-0.264c0.004-0.006,0.005-0.015,0.003-0.022
	c-0.001-0.006-0.002-0.009,0.017-0.017c0.006-0.003,0.011-0.008,0.015-0.014l0.028-0.052c0.003-0.005,0.005-0.011,0.005-0.017
	c-0.001-0.008,0.002-0.014,0.021-0.026c0.005-0.004,0.009-0.009,0.011-0.015c0.016-0.045,0.047-0.08,0.08-0.118
	c0.026-0.029,0.053-0.059,0.073-0.096c0.003-0.005,0.005-0.011,0.004-0.017c0-0.008,0-0.01,0.012-0.012
	c0.007-0.001,0.014-0.005,0.018-0.01l0.019-0.021c0.006-0.006,0.009-0.015,0.008-0.023c-0.001-0.008-0.002-0.013,0.017-0.018
	c0.009-0.003,0.017-0.009,0.021-0.018c0.022-0.052,0.063-0.09,0.104-0.123C183.634,73,183.638,72.992,183.639,72.984z
	 M177.008,77.375c-0.039,0.04-0.046,0.087-0.021,0.135c-0.029,0.059-0.078,0.065-0.152,0.069c-0.028,0.001-0.057,0.003-0.084,0.009
	c-0.009,0.002-0.015,0.006-0.021,0.011l-0.456,0.013c-0.036-0.001-0.071-0.002-0.107-0.002c-0.073,0-0.169,0.003-0.265,0.028
	c-0.021-0.002-0.042-0.004-0.063-0.004c-0.038,0-0.08,0.003-0.13,0.011c-0.041-0.004-0.082-0.007-0.123-0.007
	c-0.069,0-0.126,0.009-0.181,0.026l-0.094,0.004l0,0c-0.008,0-0.187,0.003-0.187,0.003c-0.001,0-0.029,0-0.029,0
	c-0.026,0-0.052,0-0.078-0.001c-0.026,0-0.053-0.001-0.079-0.001c-0.062,0-0.135,0.004-0.21,0.028
	c-0.018-0.003-0.037-0.005-0.056-0.005c-0.029,0-0.06,0.003-0.095,0.011c-0.034-0.002-0.068-0.004-0.103-0.004
	c-0.088,0-0.178,0.007-0.264,0.014c-0.058,0.004-0.115,0.009-0.173,0.012c-0.084,0.004-0.168,0.007-0.252,0.01
	c-0.114,0.004-0.228,0.009-0.341,0.014c-0.006,0-0.013,0.001-0.019,0.001c-0.025,0-0.031-0.001-0.033-0.031
	c-0.002-0.029-0.013-0.056-0.022-0.082c-0.003-0.008-0.006-0.017-0.009-0.025c-0.056-0.162-0.056-0.162,0.105-0.256
	c0.211-0.124,0.423-0.254,0.628-0.381c0.078-0.048,0.155-0.096,0.233-0.144c0.009-0.005,0.014-0.014,0.017-0.021l0.038-0.021
	c0.027-0.002,0.049-0.016,0.066-0.04l0.975-0.598c0.011-0.007,0.022-0.014,0.033-0.021c0.08-0.054,0.124-0.083,0.156-0.083
	c0.033,0,0.071,0.031,0.147,0.093c0,0,0.001,0,0.001,0c0,0,0,0,0,0.001l0.028,0.02c0.091,0.105,0.196,0.196,0.298,0.283
	c0.046,0.04,0.092,0.08,0.137,0.12c0.042,0.039,0.084,0.078,0.126,0.117c0.119,0.111,0.241,0.227,0.372,0.326
	c0.006,0.019,0.021,0.031,0.041,0.035c0.052,0.07,0.118,0.124,0.191,0.181C177.025,77.279,177.038,77.316,177.008,77.375z
	 M182.85,72.335c-0.021,0.009-0.055,0.027-0.053,0.07l-0.002,0.001c-0.021,0.002-0.034,0.01-0.041,0.018
	c-0.01,0.011-0.013,0.025-0.014,0.042c-0.003,0.004-0.007,0.008-0.011,0.012c-0.014,0.013-0.031,0.03-0.035,0.053
	c-0.021,0.004-0.044,0.016-0.051,0.045c-0.022,0.013-0.03,0.034-0.032,0.049c-0.005,0.004-0.01,0.009-0.017,0.014
	c-0.019,0.013-0.045,0.036-0.046,0.076l-0.004,0.005c-0.021,0.003-0.044,0.018-0.051,0.058c-0.002,0.002-0.004,0.005-0.005,0.007
	c-0.025,0.014-0.033,0.034-0.035,0.051c-0.021,0.017-0.032,0.04-0.04,0.059c-0.002,0.004-0.004,0.009-0.006,0.014
	c-0.032,0.017-0.042,0.042-0.042,0.061c-0.001,0.002-0.003,0.004-0.003,0.006c-0.024,0.015-0.034,0.04-0.041,0.058l-0.003,0.006
	c-0.019,0.015-0.023,0.036-0.023,0.052l-0.015,0.017c-0.013,0.009-0.036,0.03-0.04,0.066c-0.003,0.004-0.005,0.009-0.006,0.013
	c-0.023,0.024-0.049,0.052-0.056,0.094c-0.002,0.003-0.005,0.006-0.006,0.01c-0.013,0.009-0.029,0.024-0.03,0.048
	c-0.02,0.017-0.027,0.04-0.034,0.058c-0.004,0.013-0.008,0.024-0.015,0.03c-0.001,0.001-0.001,0.002-0.002,0.003
	c0,0.001-0.001,0.001-0.002,0.002l-0.032,0.051c0,0,0,0.001,0,0.001c-0.001,0-0.001,0-0.001,0.001l-0.031,0.063
	c-0.027,0.021-0.036,0.045-0.038,0.066c-0.002,0.004-0.004,0.008-0.005,0.012c-0.024,0.025-0.05,0.054-0.056,0.098v0l0,0
	l-0.003,0.029c-0.002,0.001-0.003,0.002-0.005,0.004c-0.022,0.016-0.054,0.041-0.056,0.086c-0.002,0.004-0.004,0.008-0.005,0.013
	c-0.034,0.032-0.055,0.069-0.06,0.112c-0.001,0.003-0.003,0.007-0.004,0.01c-0.033,0.029-0.054,0.066-0.06,0.112
	c-0.001,0.002-0.004,0.004-0.006,0.007c-0.01,0.009-0.024,0.024-0.026,0.047c-0.021,0.018-0.033,0.042-0.033,0.071
	c-0.016,0.017-0.031,0.039-0.037,0.068c-0.013,0.008-0.021,0.022-0.021,0.043c0,0,0,0,0,0.001c-0.001,0.002-0.006,0.008-0.009,0.012
	c-0.008,0.01-0.02,0.024-0.022,0.045c-0.014,0.012-0.028,0.033-0.031,0.062l-0.063,0.12c-0.089,0.164-0.18,0.333-0.253,0.509
	c-0.026,0.025-0.053,0.058-0.059,0.104l0,0l-0.007,0.02c-0.026,0.025-0.052,0.057-0.057,0.1c-0.011,0.011-0.022,0.026-0.026,0.047
	c-0.017,0.012-0.035,0.032-0.035,0.064c-0.001,0.002-0.005,0.006-0.008,0.009c-0.008,0.009-0.021,0.024-0.022,0.045
	c-0.017,0.014-0.036,0.035-0.035,0.068c-0.034,0.039-0.059,0.082-0.074,0.131c-0.035,0.025-0.049,0.06-0.056,0.089
	c-0.012,0.009-0.021,0.021-0.024,0.035c-0.021,0.011-0.032,0.031-0.033,0.056c-0.025,0.027-0.056,0.065-0.074,0.114
	c-0.003,0.002-0.005,0.005-0.008,0.007c-0.017,0.012-0.041,0.032-0.044,0.067l-0.025,0.03l0,0l-0.088,0.105
	c-0.004,0.003-0.007,0.006-0.011,0.01l-0.033,0.028c-0.052,0.044-0.105,0.091-0.149,0.149l-0.462,0.368
	c-0.036,0.008-0.062,0.029-0.084,0.048c-0.01,0.009-0.021,0.018-0.032,0.025l-0.075,0.044c-0.062,0.036-0.126,0.074-0.188,0.114
	c-0.015,0.01-0.021,0.011-0.024,0.011c-0.003,0-0.01-0.006-0.018-0.016c-0.286-0.354-0.657-0.537-1.11-0.544l-0.024-0.116
	c-0.041-0.218-0.081-0.451-0.103-0.683c-0.033-0.349-0.004-0.713,0.09-1.146c0.017-0.076,0.036-0.151,0.054-0.227l0.023-0.095
	c0.014-0.015,0.032-0.021,0.064-0.021c0.486-0.002,0.917-0.053,1.316-0.157c0.515-0.133,0.941-0.326,1.303-0.589
	c0.007-0.005,0.011-0.01,0.013-0.016l0.051-0.034l0.014-0.007c0.017-0.01,0.039-0.023,0.053-0.048
	c0.049-0.029,0.097-0.063,0.129-0.116c0.034-0.007,0.058-0.028,0.067-0.06c0.002-0.001,0.003-0.003,0.005-0.005
	c0.03-0.004,0.051-0.024,0.061-0.059l0.002-0.002c0.031-0.006,0.052-0.026,0.057-0.057l0.012-0.012
	c0.048-0.025,0.077-0.067,0.104-0.109c0.042-0.032,0.075-0.07,0.1-0.113c0.03-0.016,0.051-0.041,0.063-0.074
	c0.046-0.037,0.084-0.082,0.113-0.134c0.027-0.01,0.045-0.029,0.049-0.055c0.026-0.016,0.042-0.039,0.057-0.061
	c0.007-0.01,0.013-0.02,0.021-0.029c0.018-0.012,0.035-0.029,0.043-0.055c0.028-0.017,0.044-0.042,0.053-0.061
	c0.008-0.008,0.015-0.015,0.022-0.023c0.025-0.026,0.051-0.054,0.068-0.089c0.029-0.012,0.047-0.034,0.053-0.063l0.004-0.003
	c0.03-0.01,0.049-0.03,0.054-0.06l0.262-0.265c0.054-0.031,0.099-0.07,0.135-0.117c0.035-0.012,0.061-0.037,0.082-0.059l0.01-0.01
	c0.034-0.012,0.059-0.033,0.073-0.063l0.125-0.083c0.097-0.065,0.194-0.13,0.293-0.193c0.189-0.121,0.366-0.22,0.543-0.302
	c0.006-0.003,0.022-0.01,0.031-0.01c0.005,0,0.011,0.007,0.018,0.021c0.052,0.103,0.108,0.21,0.174,0.33
	c0.011,0.019,0.01,0.026,0.009,0.028c0,0.002-0.004,0.008-0.024,0.018c-0.034,0.017-0.068,0.037-0.102,0.057l-0.044,0.025l0,0
	c-0.087,0.047-0.173,0.103-0.254,0.166l0,0C183.341,71.815,183.065,72.064,182.85,72.335z M192.629,76.829
	c0.004-0.019,0.003-0.044-0.022-0.068l-0.004-0.018c0.007-0.015,0.011-0.029,0.006-0.042c-0.006-0.018-0.021-0.026-0.033-0.031
	c-0.029-0.152-0.069-0.274-0.126-0.381c-0.048-0.156-0.125-0.3-0.2-0.439c-0.024-0.047-0.05-0.093-0.074-0.141
	c-0.189-0.372-0.463-0.729-0.813-1.061l-0.048-0.045c-0.135-0.129-0.274-0.262-0.447-0.351c-0.001,0-0.002,0-0.003-0.001
	c-0.001,0-0.002-0.001-0.002-0.001c-0.02-0.006-0.033-0.021-0.05-0.041c-0.013-0.016-0.027-0.033-0.047-0.046
	c-0.449-0.306-0.949-0.528-1.485-0.66c-0.278-0.068-0.534-0.105-0.784-0.112c-0.028-0.01-0.058-0.015-0.087-0.015
	c-0.021,0-0.041,0.003-0.062,0.008c-0.031-0.008-0.063-0.012-0.096-0.012c-0.031,0-0.063,0.003-0.095,0.01
	c-0.04-0.002-0.079-0.003-0.118-0.003c-0.296,0-0.584,0.054-0.863,0.106c-0.038,0.007-0.084,0.021-0.104,0.058
	c-0.019,0.038-0.003,0.083,0.017,0.125c0.08,0.169,0.156,0.343,0.229,0.511c0.03,0.068,0.06,0.135,0.089,0.203
	c0.025,0.057,0.065,0.084,0.121,0.084c0.024,0,0.05-0.004,0.08-0.012l0.029-0.007c0.073-0.017,0.148-0.035,0.224-0.035
	c0.015,0,0.029,0.001,0.047,0.002l0.562-0.007c0.27,0.019,0.523,0.065,0.757,0.139c0.394,0.125,0.739,0.298,1.025,0.514
	c0.128,0.096,0.256,0.198,0.379,0.296l0.03,0.025c0.019,0.014,0.031,0.035,0.046,0.057c0.023,0.037,0.05,0.078,0.103,0.097
	l0.014,0.012c0,0,0,0,0.001,0v0c0.001,0,0,0,0.001,0.001c0.028,0.038,0.057,0.076,0.086,0.114c0.062,0.081,0.123,0.163,0.182,0.246
	c0.249,0.349,0.429,0.738,0.532,1.156c0.1,0.397,0.129,0.808,0.087,1.219c-0.094,0.905-0.491,1.682-1.185,2.307
	c-0.007,0.007-0.01,0.014-0.013,0.022c-0.062,0.042-0.122,0.087-0.183,0.132c-0.097,0.073-0.198,0.147-0.304,0.211
	c-0.405,0.245-0.854,0.406-1.332,0.477l0,0c-0.008,0-0.015,0-0.022-0.001c-0.009,0-0.018-0.001-0.025-0.001
	c-0.023,0-0.052,0.004-0.078,0.024c-0.014-0.001-0.027-0.003-0.04-0.003c-0.044,0-0.086,0.007-0.123,0.015
	c-0.064-0.005-0.132-0.008-0.2-0.008c-0.069,0-0.141,0.002-0.216,0.008c-0.012-0.001-0.083-0.007-0.084-0.007c0,0-0.038,0-0.041,0
	c-0.004,0-0.022-0.002-0.035-0.003c-0.027-0.021-0.058-0.026-0.081-0.026c-0.009,0-0.017,0-0.024,0.001c-0.007,0-0.021,0-0.025,0
	c-0.007-0.001-0.055-0.005-0.083-0.009c-0.017-0.026-0.038-0.034-0.054-0.034c-0.013,0-0.024,0.005-0.038,0.012l-0.037-0.006
	c-0.004-0.008-0.012-0.015-0.021-0.017l-0.201-0.032c-0.004-0.003-0.009-0.006-0.015-0.008l-0.004-0.001l-0.011-0.003l-0.016-0.005
	c-0.027-0.012-0.059-0.026-0.094-0.026c-0.004,0-0.007,0.001-0.01,0.001c-0.004-0.011-0.015-0.02-0.026-0.021
	c-0.02-0.001-0.039-0.009-0.06-0.018c-0.026-0.01-0.056-0.022-0.09-0.022c-0.002,0-0.005,0-0.008,0.001l-0.008-0.009
	c-0.004-0.004-0.009-0.007-0.014-0.008c-0.008-0.002-0.016-0.003-0.024-0.005c-0.016-0.002-0.021-0.004-0.024-0.008l0,0
	c-0.022-0.031-0.057-0.039-0.084-0.045c-0.033-0.008-0.047-0.013-0.054-0.033c-0.004-0.013-0.016-0.021-0.029-0.021l-0.044,0.001
	c-0.029-0.047-0.076-0.058-0.115-0.067c-0.018-0.004-0.033-0.008-0.047-0.014l-0.017-0.019c-0.002-0.002-0.005-0.003-0.008-0.005
	c0,0,0-0.001-0.001-0.001c-0.481-0.268-0.893-0.651-1.223-1.139c-0.223-0.33-0.384-0.707-0.492-1.151
	c-0.097-0.399-0.087-0.812-0.068-1.174c0.054-0.063,0.052-0.135,0.05-0.199c-0.001-0.036-0.002-0.07,0.006-0.101
	c0,0,0-0.001,0-0.001s0.001-0.001,0.001-0.001c0.042-0.265,0.133-0.541,0.277-0.844c0.161-0.336,0.373-0.641,0.629-0.904
	c0.057-0.058,0.067-0.116,0.034-0.188c-0.003-0.006-0.008-0.011-0.014-0.015c-0.021-0.011-0.034-0.03-0.046-0.073l-0.023-0.044
	c-0.002-0.005-0.007-0.009-0.012-0.012c-0.019-0.011-0.022-0.023-0.022-0.034c0-0.006-0.002-0.012-0.006-0.017
	c0-0.008-0.003-0.016-0.009-0.021l-0.012-0.012c-0.021-0.021-0.034-0.035-0.035-0.055c-0.001-0.006-0.002-0.01-0.006-0.015
	c0.001-0.011-0.005-0.022-0.014-0.028c-0.029-0.019-0.045-0.046-0.049-0.083c-0.001-0.006-0.003-0.011-0.006-0.016l-0.024-0.032
	c-0.002-0.002-0.004-0.004-0.007-0.006c-0.017-0.013-0.021-0.019-0.02-0.026c0-0.005-0.001-0.01-0.004-0.014l-0.028-0.057
	c-0.003-0.007-0.009-0.012-0.016-0.015c-0.016-0.007-0.016-0.011-0.015-0.017c0-0.007-0.002-0.014-0.006-0.02
	c0-0.007-0.007-0.021-0.012-0.027l-0.01-0.013l-0.066-0.105c-0.006-0.009-0.016-0.015-0.026-0.015c-0.001,0-0.043,0.002-0.043,0.002
	c-0.01,0.001-0.02,0.006-0.024,0.015l-0.014,0.022c-0.01,0.017-0.017,0.022-0.023,0.023c-0.007,0-0.015,0.003-0.02,0.008l-0.001,0
	c-0.006,0.005-0.01,0.013-0.01,0.021c-0.002,0.006-0.006,0.011-0.02,0.015c-0.006,0.002-0.012,0.005-0.016,0.01
	c-0.042,0.052-0.085,0.102-0.14,0.139c-0.007,0.004-0.011,0.011-0.013,0.019c-0.006,0.022-0.019,0.036-0.041,0.043
	c-0.012,0.004-0.021,0.014-0.021,0.026c-0.002,0.014-0.012,0.022-0.03,0.036c-0.01,0.008-0.021,0.017-0.031,0.028
	c-0.004,0.005-0.015,0.021-0.015,0.028c-0.007,0-0.014,0.003-0.02,0.007l-0.065,0.058c-0.005,0.004-0.008,0.009-0.01,0.014
	c-0.006,0.012-0.01,0.024-0.013,0.035c-0.008,0.024-0.011,0.033-0.023,0.037c-0.01,0.003-0.017,0.011-0.02,0.021
	c-0.009,0.031-0.025,0.057-0.057,0.081l-0.027,0.033c-0.006,0.007-0.008,0.015-0.007,0.024c0,0.006,0.001,0.009-0.015,0.014
	c-0.008,0.002-0.014,0.007-0.018,0.013c-0.006,0.009-0.01,0.02-0.015,0.031c-0.009,0.02-0.013,0.028-0.023,0.032
	c-0.014,0.005-0.021,0.026-0.019,0.041c0,0-0.002,0.002-0.011,0.005c-0.014,0.004-0.021,0.014-0.021,0.028
	c-0.006,0.007-0.008,0.015-0.007,0.023c0,0.004,0.001,0.006-0.003,0.008c-0.011,0-0.021,0.005-0.026,0.014l-0.021,0.031
	c-0.001,0.002-0.005,0.012-0.006,0.015L184.3,75.56c-0.001,0.003-0.002,0.006-0.002,0.009c0,0.009-0.005,0.015-0.025,0.033
	l-0.025,0.032c-0.004,0.004-0.006,0.01-0.007,0.016c-0.003,0.039-0.018,0.065-0.047,0.084c-0.005,0.003-0.01,0.009-0.012,0.015
	c-0.007,0.017-0.017,0.033-0.027,0.05c-0.018,0.028-0.038,0.061-0.043,0.099c-0.007,0.038-0.018,0.067-0.044,0.085
	c-0.01,0.007-0.015,0.017-0.014,0.029c-0.002,0.003-0.003,0.007-0.004,0.011c-0.01,0.051-0.019,0.085-0.06,0.1
	c-0.012,0.004-0.021,0.015-0.021,0.028c0,0.007,0,0.015,0.001,0.023c0.001,0.02,0,0.021-0.005,0.025
	c-0.01,0.007-0.015,0.02-0.013,0.032c0.001,0.003,0.002,0.006,0.004,0.012c-0.004,0.004-0.008,0.008-0.01,0.014l-0.02,0.055
	c-0.001,0.004-0.002,0.015-0.001,0.02c0,0.006,0.001,0.017-0.005,0.022c-0.01,0.004-0.017,0.012-0.02,0.022
	c-0.01,0.045-0.027,0.089-0.045,0.135c-0.025,0.065-0.052,0.132-0.058,0.206c-0.007,0.067-0.017,0.118-0.049,0.161
	c-0.004,0.004-0.006,0.01-0.006,0.016l-0.008,0.077c0,0.007,0,0.014,0,0.021c0.002,0.031,0.001,0.044-0.014,0.055
	c-0.007,0.005-0.011,0.012-0.012,0.02l-0.01,0.066c-0.001,0.005-0.001,0.011,0.001,0.016c0.009,0.023,0.002,0.03-0.008,0.037
	c-0.007,0.005-0.012,0.014-0.013,0.023l-0.003,0.029c0,0.003,0,0.006,0.001,0.01c0,0,0,0.001,0,0.002
	c-0.001,0.004-0.003,0.008-0.003,0.012l-0.004,0.085c-0.001,0.014,0,0.027,0,0.041c0.002,0.04,0.003,0.075-0.02,0.104
	c-0.005,0.007-0.007,0.015-0.006,0.022c0.006,0.048,0.011,0.093-0.012,0.132c-0.004,0.007-0.005,0.019-0.003,0.027
	c-0.001,0.005,0.001,0.018,0.002,0.023l0.002,0.009c-0.003,0.082,0.021,0.151,0.056,0.215c-0.004,0-0.007-0.002-0.011-0.002
	c-0.011,0-0.021,0.002-0.033,0.005c-0.014,0.003-0.023,0.016-0.023,0.03l0.001,0.092l0.032,0.116l-0.02,0.023
	c-0.007,0.008-0.009,0.019-0.006,0.029l0.017,0.062l0.002,0.03l-0.018,0.058c-0.003,0.008-0.002,0.018,0.003,0.025
	c0.004,0.007,0.011,0.013,0.02,0.015l0,0l-0.001,0.006c-0.002,0.011,0.003,0.032,0.012,0.04c-0.001,0.004-0.001,0.009,0,0.014
	l0.004,0.016c0.009,0.027,0.008,0.03-0.002,0.038c-0.013,0.01-0.016,0.029-0.006,0.042c0.021,0.033,0.021,0.072,0.02,0.112
	c-0.001,0.011,0.004,0.021,0.013,0.027c0.012,0.009,0.017,0.017,0.009,0.039c-0.002,0.005-0.003,0.011-0.002,0.016l0.007,0.045
	c0.001,0.008,0.005,0.015,0.011,0.02c0.017,0.014,0.018,0.033,0.017,0.064v0.015l0.009,0.092c0.001,0.009,0.007,0.018,0.015,0.023
	c0.012,0.008,0.011,0.01,0.008,0.017c-0.002,0.006-0.003,0.012-0.002,0.018l0.009,0.044c0.002,0.009,0.008,0.017,0.016,0.021
	c0.01,0.005,0.011,0.01,0.01,0.036c0,0.006,0,0.012,0,0.02l0.003,0.041c0.001,0.007,0.005,0.015,0.01,0.02
	c0.03,0.028,0.037,0.066,0.045,0.111l0.004,0.019l0.008,0.053c0.001,0.006,0.004,0.012,0.008,0.016
	c0.029,0.033,0.045,0.071,0.048,0.121l0.006,0.034c0.002,0.01,0.008,0.019,0.017,0.023c0.004,0.002,0.007,0.003,0.009,0.004
	c-0.005,0.008-0.006,0.018-0.003,0.026l0.04,0.122c0.001,0.003,0.002,0.006,0.004,0.008l0.017,0.023
	c0.002,0.003,0.004,0.005,0.007,0.007c0.003,0.005,0.007,0.008,0.012,0.011c0.016,0.009,0.017,0.018,0.016,0.025
	c0,0.004,0.001,0.009,0.003,0.014l0.023,0.058c0.002,0.005,0.006,0.01,0.01,0.013c0.021,0.015,0.029,0.036,0.031,0.07
	c0.001,0.002,0.002,0.007,0.003,0.01l0.024,0.044c0.002,0.003,0.006,0.006,0.01,0.009c0.014,0.008,0.021,0.019,0.021,0.036
	c0.001,0.004,0.002,0.009,0.004,0.013l0.025,0.052c0.001,0.006,0.004,0.01,0.009,0.014c0.026,0.024,0.039,0.058,0.052,0.094
	l0.006,0.014c0.002,0.007,0.008,0.013,0.015,0.017c0.02,0.011,0.02,0.015,0.019,0.021c-0.002,0.008,0,0.016,0.004,0.022
	c0.001,0.007,0.003,0.014,0.008,0.019l0.026,0.029c0.021,0.015,0.03,0.038,0.042,0.065c0.004,0.008,0.007,0.016,0.011,0.024
	c0.004,0.007,0.01,0.013,0.018,0.016c0.017,0.006,0.016,0.009,0.016,0.015c-0.001,0.009-0.001,0.011,0.005,0.018
	c-0.001,0.008,0.002,0.017,0.009,0.023l0.015,0.016l0.013,0.013c0.019,0.012,0.029,0.033,0.04,0.057l0.007,0.013
	c0.003,0.006,0.008,0.011,0.014,0.014c0.027,0.015,0.029,0.024,0.028,0.035c0,0.008,0.002,0.015,0.007,0.021l0.063,0.081
	c0.003,0.005,0.009,0.009,0.014,0.011c0.022,0.007,0.034,0.021,0.039,0.044c0.001,0.004,0.007,0.013,0.009,0.016l0.146,0.168
	c0.005,0.005,0.013,0.007,0.021,0.007c0.004,0,0.009,0,0.014-0.001c0.001,0.002,0.003,0.009,0.004,0.014
	c0.002,0.011,0.005,0.024,0.013,0.036c0.003,0.003,0.005,0.006,0.009,0.008c0.004,0.01,0.013,0.017,0.022,0.019
	c0.016,0.003,0.019,0.008,0.02,0.019c0.001,0.007,0.004,0.014,0.01,0.019l0.017,0.018c0.005,0.005,0.012,0.008,0.019,0.009
	c0.013,0.001,0.017,0.006,0.019,0.019c0.001,0.007,0.004,0.013,0.009,0.018l0.018,0.017c0.005,0.005,0.012,0.008,0.019,0.009
	c0.012,0.001,0.018,0.004,0.021,0.02c0.001,0.008,0.006,0.015,0.012,0.019l0.034,0.025c0.002,0.001,0.006,0.003,0.009,0.004
	c0.002,0.005,0.005,0.009,0.009,0.013l0.063,0.056c0,0,0.021,0.024,0.022,0.026c0.003,0.002,0.005,0.004,0.008,0.006l0.024,0.017
	c0.004,0.002,0.007,0.004,0.011,0.005s0.008,0.001,0.008,0.001c0.003,0.015,0.015,0.025,0.03,0.026c0.006,0,0.01,0,0.015,0.016
	c0.003,0.008,0.009,0.016,0.017,0.02l0.017,0.008l0.029,0.028l0.029,0.025c0.006,0.005,0.016,0.007,0.023,0.007
	c0.002,0,0.003,0,0.004,0c0.003,0,0.007,0,0.013,0.017c0.003,0.009,0.011,0.017,0.021,0.02c0.002,0.002,0.004,0.005,0.007,0.007
	l0.124,0.083l0.009,0.01c0.005,0.005,0.012,0.009,0.019,0.01c0.01,0.001,0.016,0.007,0.026,0.024
	c0.006,0.009,0.022,0.014,0.033,0.014c0.007,0,0.014,0,0.019,0.017c0.004,0.012,0.015,0.021,0.027,0.022
	c0.08,0.026,0.15,0.072,0.224,0.12c0.065,0.043,0.134,0.087,0.21,0.117c0.011,0.004,0.021,0.01,0.03,0.016
	c0.019,0.011,0.04,0.022,0.065,0.026c0.02,0.029,0.052,0.038,0.076,0.044c0.034,0.008,0.041,0.012,0.044,0.028
	c0.002,0.015,0.016,0.026,0.03,0.026c0.008,0,0.018,0.004,0.028,0.009c0.016,0.007,0.033,0.016,0.055,0.016
	c0.007,0,0.014-0.003,0.02-0.005c0.001,0,0.002,0.001,0.003,0.001c0.005,0.003,0.011,0.005,0.017,0.006
	c0.049,0.002,0.084,0.018,0.11,0.047c0.005,0.005,0.012,0.009,0.019,0.01l0.053,0.007c0.011,0.003,0.023,0.005,0.035,0.008
	c0.043,0.008,0.068,0.015,0.081,0.047c0.005,0.011,0.016,0.018,0.027,0.019c0.001,0,0.002,0,0.003,0
	c0.011,0,0.021-0.006,0.027-0.014c0.005,0,0.012,0.002,0.018,0.003c0.059,0.008,0.105,0.016,0.144,0.047
	c0.003,0.002,0.007,0.004,0.011,0.005c0.144,0.041,0.271,0.064,0.394,0.072l0.009,0l0.047-0.001c0.027,0,0.048,0.003,0.065,0.02
	c0.006,0.005,0.014,0.008,0.021,0.008c0.001,0,0.003,0,0.005,0c0.007-0.001,0.014-0.002,0.021-0.002
	c0.009,0,0.016,0.002,0.021,0.006c0.006,0.003,0.012,0.006,0.019,0.006c0.002,0,0.005,0,0.007-0.001l0.058-0.013
	c0.006,0,0.016,0,0.026,0.001l0.005,0.014c0.005,0.013,0.016,0.021,0.029,0.021l0.314,0.004c0.002,0,0.009-0.001,0.011-0.001
	l0.033-0.006h0.139l0.017,0.006c0.003,0.001,0.006,0.001,0.01,0.001h0.001c0.019,0,0.038,0,0.058-0.001c0.045,0,0.093,0,0.139-0.008
	c0.004,0,0.008-0.001,0.012-0.001c0.012,0,0.022,0.002,0.034,0.003c0.015,0.002,0.028,0.004,0.043,0.004
	c0.031,0,0.057-0.01,0.078-0.031c0.043-0.001,0.183-0.006,0.183-0.006c0.009,0,0.017-0.004,0.022-0.011
	c0.008-0.009,0.017-0.013,0.033-0.013c0.006,0,0.013,0,0.019,0.001c0.006,0,0.012,0,0.022,0c0.002,0,0.004,0,0.006,0l0.063-0.003
	c0.003,0,0.007-0.001,0.01-0.002l0.013-0.005c0.016-0.007,0.03-0.014,0.043-0.014c0.004,0,0.007,0,0.01,0.001
	c0.002,0,0.004,0.001,0.007,0.001c0.006,0,0.012-0.002,0.017-0.005c0.014-0.009,0.029-0.013,0.045-0.013
	c0.007,0,0.013,0,0.019,0.001c0.002,0,0.004,0,0.006,0c0.011,0,0.02-0.005,0.026-0.013c0.005-0.008,0.011-0.012,0.029-0.012
	c0.006,0,0.013,0,0.019,0.001c0.001,0,0.005,0,0.008,0c0.001,0,0.06-0.006,0.06-0.006c0.007-0.001,0.015-0.005,0.02-0.009
	c0.009-0.008,0.018-0.016,0.028-0.016c0.001,0,0.002,0,0.004,0c0.004,0.002,0.008,0.003,0.013,0.003c0.003,0,0.005,0,0.008-0.001
	l0.045-0.011c0.009-0.002,0.017-0.009,0.021-0.017c0.002-0.004,0.003-0.006,0.017-0.006l0.018,0l0.049-0.006l0.018-0.006
	c0.004-0.001,0.008-0.004,0.011-0.007c0.019-0.018,0.044-0.021,0.073-0.024c0.03-0.004,0.063-0.008,0.089-0.026l0.021-0.01
	c0.004-0.002,0.007-0.005,0.01-0.008c0.003-0.004,0.007-0.006,0.02-0.006c0.001,0,0.007,0,0.008,0c0.011,0,0.021-0.005,0.026-0.015
	c0.008-0.013,0.016-0.016,0.024-0.016c0.001,0,0.008,0,0.01,0l0.039-0.006c0.007-0.001,0.013-0.004,0.018-0.008
	c0.031-0.03,0.066-0.046,0.117-0.052l0.072-0.028c0.007-0.002,0.012-0.007,0.016-0.013c0.01-0.016,0.014-0.018,0.02-0.018
	c0,0,0.005,0,0.006,0c0.005,0,0.009-0.001,0.012-0.002l0.074-0.03c0.006-0.002,0.011-0.006,0.015-0.012
	c0.01-0.016,0.015-0.019,0.021-0.019c0,0,0.003,0,0.005,0c0.004,0,0.008-0.001,0.012-0.002l0.072-0.031
	c0.006-0.002,0.011-0.006,0.014-0.012c0.011-0.016,0.015-0.02,0.021-0.02c0,0,0.004,0,0.006,0c0.006,0,0.012-0.001,0.018-0.005
	h0.001c0.013,0,0.024-0.008,0.029-0.02l0.009-0.02l0.016-0.005c0.002-0.001,0.003-0.003,0.005-0.004
	c0.001-0.001,0.003,0,0.005-0.001l0.021-0.017l0.037-0.02c0.004-0.002,0.011-0.006,0.014-0.009c0.004,0,0.009,0,0.013,0.001
	c0.002,0,0.003,0,0.005,0c0.014,0,0.025-0.008,0.029-0.021c0.002-0.004,0.002-0.005,0.009-0.005s0.014-0.002,0.019-0.006
	c0.009,0,0.018-0.004,0.023-0.012c0.023-0.027,0.038-0.045,0.063-0.046c0.008,0,0.007,0,0.013-0.006c0.001,0,0.001,0,0.002,0
	c0.015,0,0.027-0.01,0.031-0.023c0.003-0.012,0.007-0.013,0.015-0.013c0.001,0,0.002,0,0.002,0c0.009,0,0.019-0.005,0.024-0.011
	c0.005-0.005,0.004-0.007,0.005-0.014c0.002,0,0.007-0.001,0.01-0.001c0.006,0,0.011-0.001,0.016-0.004
	c0.002-0.001,0.005-0.003,0.007-0.005c0,0,0.02-0.016,0.021-0.016c0.008-0.003,0.016-0.009,0.019-0.019
	c0.007-0.016,0.011-0.018,0.017-0.018c0.001,0,0.006,0.001,0.007,0.001c0.008,0,0.016-0.003,0.021-0.008l0.03-0.026
	c0.002-0.003,0.005-0.006,0.007-0.009c0.008-0.016,0.017-0.021,0.026-0.021c0.006,0,0.012-0.001,0.017-0.005
	c0.007-0.005,0.012-0.012,0.013-0.02c0.004-0.009,0.006-0.009,0.011-0.009h0.003c0.009,0,0.017-0.003,0.022-0.009l0.022-0.022
	c0.004-0.001,0.007-0.003,0.011-0.006l0.046-0.04c0.004-0.003,0.007-0.008,0.009-0.013c0.002-0.001,0.004-0.001,0.006-0.002
	c0.003-0.001,0.006-0.003,0.009-0.005l0.024-0.019c0.004-0.002,0.008-0.009,0.01-0.014c0.012-0.023,0.015-0.025,0.024-0.025h0.002
	c0.009,0,0.017-0.003,0.022-0.009l0.02-0.019c0.006-0.005,0.009-0.012,0.01-0.02c0.002-0.011,0.003-0.012,0.011-0.012h0.001
	c0.008,0,0.016-0.003,0.021-0.009l0.023-0.023c0.006-0.005,0.009-0.012,0.01-0.02c0-0.007,0.001-0.008,0.01-0.009
	c0.008-0.001,0.015-0.004,0.021-0.009l0.025-0.025c0.003-0.003,0.005-0.006,0.006-0.011c0.004-0.001,0.008-0.004,0.011-0.007
	l0.066-0.065c0.002-0.003,0.005-0.006,0.006-0.01c0.004-0.002,0.008-0.004,0.011-0.007l0.024-0.025
	c0.006-0.006,0.009-0.013,0.009-0.021c0.001-0.007,0.001-0.008,0.012-0.01c0.007-0.001,0.014-0.004,0.019-0.009l0.022-0.023
	c0.005-0.005,0.009-0.013,0.009-0.021c0-0.013,0.002-0.013,0.012-0.013c0.008,0,0.021-0.01,0.027-0.017l0.012-0.013
	c0.005-0.006,0.008-0.014,0.008-0.021c0-0.007,0.001-0.011,0.007-0.013c0.01,0,0.02-0.005,0.026-0.013l0.026-0.036
	c0.002-0.002,0.004-0.006,0.005-0.01c0,0,0-0.001,0-0.002c0.005-0.002,0.009-0.004,0.012-0.008c0.013-0.012,0.021-0.026,0.028-0.038
	c0.011-0.019,0.019-0.03,0.031-0.035c0.014-0.005,0.021-0.019,0.02-0.033c-0.001-0.007,0.001-0.013,0.015-0.027
	c0.001-0.001,0.002-0.003,0.004-0.005c0.007-0.008,0.011-0.017,0.015-0.025c0.002-0.004,0.005-0.011,0.009-0.012
	c0.001,0,0.002,0,0.004,0c0.009,0,0.018-0.004,0.023-0.011l0.021-0.024c0.006-0.006,0.008-0.015,0.007-0.023
	c-0.001-0.007-0.001-0.012,0.019-0.02c0.008-0.003,0.014-0.009,0.018-0.017c0-0.001,0.001-0.003,0.001-0.004
	c0.001,0,0.02-0.026,0.02-0.026c0.001-0.001,0.005-0.01,0.006-0.012l0.011-0.024c0.01-0.023,0.015-0.033,0.027-0.037
	c0.014-0.003,0.022-0.015,0.023-0.027c0.004-0.007,0.006-0.015,0.005-0.022c-0.001-0.006-0.002-0.009,0.018-0.018
	c0.006-0.003,0.012-0.009,0.015-0.015l0.028-0.052c0.003-0.005,0.004-0.01,0.004-0.016c0-0.007,0.001-0.012,0.011-0.016
	c0.006-0.002,0.011-0.006,0.014-0.011l0.027-0.039c0.003-0.004,0.005-0.01,0.006-0.015c0.003-0.037,0.019-0.064,0.048-0.084
	c0.01-0.006,0.014-0.013,0.013-0.024c0.005-0.007,0.007-0.016,0.006-0.025c-0.001-0.006-0.002-0.01,0.017-0.02
	c0.013-0.006,0.02-0.02,0.017-0.033c-0.001-0.006,0.002-0.01,0.011-0.024c0.007-0.009,0.014-0.019,0.019-0.031
	c0.002-0.005,0.002-0.01,0.001-0.016c0-0.005-0.001-0.01,0.019-0.021c0.011-0.007,0.017-0.019,0.015-0.031
	c-0.001-0.007,0.003-0.013,0.012-0.027c0.006-0.009,0.012-0.019,0.018-0.035c0.008-0.041,0.019-0.07,0.045-0.089
	c0.009-0.007,0.014-0.017,0.013-0.028c0.003-0.005,0.004-0.012,0.003-0.018c-0.002-0.027,0.014-0.05,0.033-0.076
	c0.001-0.001,0.005-0.007,0.006-0.008l0.008-0.014l0.011-0.021c0.004-0.015,0.008-0.029,0.012-0.044
	c0.007-0.031,0.014-0.06,0.024-0.088c0.158-0.409,0.249-0.858,0.276-1.375C192.779,77.74,192.738,77.33,192.629,76.829z
	 M176.69,79.048l-0.146-0.003h-0.017c-0.027,0-0.054,0-0.081,0.001c-0.026,0-0.053,0.001-0.079,0.001
	c-0.069,0-0.15-0.003-0.23-0.026c-0.003-0.001-0.006-0.001-0.009-0.001c-0.001,0-0.002,0-0.003,0
	c-0.022,0.002-0.045,0.003-0.067,0.003c-0.046,0-0.096-0.004-0.158-0.012c-0.001,0-0.003,0-0.004,0
	c-0.004,0-0.008,0.001-0.011,0.002c-0.012,0.005-0.025,0.007-0.044,0.007c-0.009,0-0.018,0-0.027-0.001
	c-0.01,0-0.02-0.001-0.03-0.001c-0.035,0-0.079,0.005-0.116,0.045c-0.004,0.004-0.006,0.009-0.008,0.014
	c-0.055,0.227-0.157,0.451-0.32,0.708c-0.335,0.526-0.764,0.939-1.276,1.229c-0.023,0.013-0.049,0.024-0.074,0.035
	c-0.059,0.026-0.12,0.054-0.166,0.109c-0.011,0.001-0.022,0.003-0.022,0.003c0,0-0.001,0-0.001,0.001c-0.001,0-0.003,0-0.005,0.001
	l-0.056,0.021c-0.002,0-0.003,0-0.005,0c-0.038,0-0.06,0.015-0.074,0.033c-0.025,0-0.045,0.01-0.061,0.027
	c-0.002,0-0.004,0.001-0.006,0.002c-0.004,0-0.008-0.001-0.012-0.001c-0.043,0-0.08,0.02-0.112,0.036l-0.011,0.006
	c-0.154,0.079-0.317,0.103-0.491,0.127c-0.042,0.006-0.083,0.012-0.125,0.019c-0.007,0-0.015,0.001-0.022,0.001l-0.043-0.001
	c-0.034,0-0.071,0.006-0.104,0.033l-0.011-0.003c-0.01-0.011-0.021-0.019-0.034-0.019s-0.023,0.007-0.033,0.018
	c-0.008,0-0.013,0-0.013,0l-0.021,0.001c-0.025-0.006-0.052-0.009-0.082-0.009c-0.038,0-0.076,0.005-0.112,0.01
	c-0.036,0.004-0.07,0.009-0.104,0.009h0c-0.012,0-0.025-0.001-0.038-0.002c0,0-0.001,0-0.002,0c0,0,0,0,0,0
	c0,0-0.023-0.001-0.036-0.001c-0.016-0.011-0.033-0.018-0.052-0.018c-0.018,0-0.035,0.005-0.051,0.011
	c-0.013-0.001-0.046-0.003-0.063-0.004c-0.033-0.024-0.067-0.028-0.091-0.028c-0.014,0-0.028,0.001-0.042,0.002
	c-0.008,0-0.017,0.001-0.025,0.001c-0.22-0.018-0.429-0.074-0.675-0.153c-0.228-0.073-0.444-0.185-0.653-0.293l-0.018-0.009
	c-0.014-0.024-0.036-0.039-0.064-0.042v0l-0.009-0.002c-0.015-0.025-0.041-0.034-0.057-0.039c-0.004-0.001-0.008-0.002-0.013-0.004
	l-0.117-0.08l-0.008-0.009c-0.008-0.01-0.017-0.021-0.03-0.031c-0.455-0.333-0.817-0.767-1.077-1.291
	c-0.197-0.397-0.312-0.829-0.341-1.285c-0.049-0.759,0.12-1.463,0.503-2.094c0.232-0.381,0.523-0.705,0.864-0.961
	c0.067-0.05,0.135-0.101,0.202-0.15l0.091-0.068c0.043-0.022,0.085-0.044,0.128-0.066c0.157-0.081,0.319-0.165,0.488-0.227
	c0.357-0.13,0.69-0.201,1.019-0.216c0.08-0.003,0.159-0.004,0.238-0.004l0.257,0c0.273,0.033,0.583,0.071,0.867,0.19
	c0.004,0.001,0.008,0.002,0.012,0.002c0.007,0,0.014-0.002,0.02-0.007c0.019-0.015,0.036-0.023,0.049-0.023
	c0.022,0,0.044,0.021,0.067,0.044c0.016,0.015,0.032,0.03,0.05,0.042c0.025,0.037,0.063,0.048,0.094,0.056
	c0.018,0.004,0.033,0.01,0.044,0.018c0,0,0,0.001,0.001,0.002c0.004,0.008,0.011,0.014,0.02,0.016
	c0.141,0.034,0.262,0.116,0.379,0.194l0.02,0.014c0.046,0.031,0.083,0.044,0.118,0.044c0.043,0,0.083-0.02,0.13-0.063
	c0.141-0.129,0.292-0.252,0.438-0.371l0.055-0.045c0.094-0.077,0.137-0.111,0.136-0.16c-0.001-0.048-0.045-0.081-0.142-0.153
	l-0.012-0.009c-0.016-0.012-0.032-0.024-0.048-0.035c-0.465-0.308-0.968-0.531-1.497-0.663c-0.187-0.046-0.398-0.099-0.613-0.099
	c-0.023,0-0.046,0-0.066,0.002c-0.035-0.019-0.073-0.029-0.12-0.029c-0.027,0-0.054,0.003-0.081,0.006l-0.027,0.003
	c-0.044-0.008-0.088-0.012-0.131-0.012c-0.04,0-0.08,0.003-0.119,0.01c-0.018-0.001-0.036-0.002-0.054-0.003
	c-0.033-0.002-0.066-0.004-0.1-0.004c-0.067,0-0.122,0.01-0.17,0.031l-0.032,0.001l0,0c-0.009,0-0.082,0.004-0.083,0.004
	c0,0,0,0,0,0c-0.016,0.001-0.032,0.001-0.048,0.002c-0.036,0.001-0.074,0.002-0.11,0.009c-0.248,0.043-0.51,0.093-0.759,0.184
	c-0.037,0.014-0.075,0.026-0.112,0.039c-0.144,0.049-0.292,0.1-0.42,0.194c-0.001,0-0.002,0-0.003,0l-0.031,0.009
	c-0.002,0-0.004,0-0.004,0c-0.028,0-0.043,0.012-0.053,0.024c-0.023,0.004-0.044,0.018-0.062,0.038
	c-0.003,0.001-0.006,0.002-0.009,0.002c-0.015,0.003-0.032,0.008-0.047,0.016c-0.356,0.197-0.656,0.414-0.917,0.662
	c-0.779,0.74-1.253,1.646-1.409,2.692c-0.1,0.667-0.049,1.321,0.153,2c0.118,0.396,0.302,0.784,0.546,1.154
	c0.415,0.629,0.955,1.129,1.603,1.486l0,0c0,0,0,0,0,0l0,0c0.187,0.105,0.385,0.19,0.561,0.266c0.133,0.057,0.273,0.092,0.409,0.126
	c0.073,0.019,0.146,0.037,0.219,0.059c0.069,0.051,0.145,0.057,0.217,0.057l0.053,0c0.018,0,0.036,0,0.054,0.002c0,0,0,0,0.001,0
	c0.018,0.031,0.04,0.039,0.057,0.039c0.013,0,0.026-0.006,0.04-0.015c0.024,0.003,0.086,0.009,0.109,0.012
	c0.041,0.023,0.081,0.027,0.112,0.027c0.017,0,0.035-0.001,0.052-0.002c0.016-0.001,0.032-0.002,0.048-0.002
	c0.008,0,0.017,0,0.024,0.001c0,0,0.001,0,0.001,0l0,0h0c0,0,0,0,0.001,0h0c0.081,0.004,0.163,0.006,0.244,0.006
	c0.378,0,0.754-0.046,1.117-0.137l0.061-0.015c0.153-0.038,0.311-0.077,0.453-0.161h0.001c0.041,0,0.075-0.015,0.107-0.028
	l0.015-0.006c0.176-0.072,0.346-0.162,0.51-0.25l0.106-0.057c0.006-0.003,0.011-0.008,0.014-0.014
	c0.006-0.013,0.016-0.025,0.045-0.025c0.007,0,0.014-0.002,0.019-0.007l0.012-0.011l0.028-0.011
	c0.009-0.003,0.016-0.011,0.019-0.021c0.003-0.011,0.008-0.014,0.034-0.022c0.006-0.002,0.013-0.004,0.019-0.006
	c0.01-0.003,0.021-0.015,0.023-0.025c0.009-0.001,0.016-0.005,0.021-0.012c0.001-0.001,0.002-0.003,0.003-0.005
	c0.002-0.001,0.003-0.001,0.005-0.002l0.08-0.052c0.004-0.002,0.006-0.006,0.008-0.01l0.019-0.009l0.02-0.014
	c0.002-0.001,0.004-0.003,0.006-0.005c0.009-0.003,0.017-0.011,0.021-0.021c0.004-0.014,0.008-0.016,0.014-0.016
	c0.001,0,0.004,0,0.006,0c0.007,0,0.014-0.002,0.02-0.007c0.009-0.007,0.015-0.015,0.02-0.022c0.008-0.011,0.01-0.013,0.013-0.013
	c0.01-0.001,0.018-0.006,0.023-0.014c0.001-0.001,0.002-0.003,0.003-0.005l0.015-0.006c0.008-0.004,0.015-0.011,0.018-0.021
	c0.003-0.014,0.008-0.015,0.016-0.015s0.016-0.004,0.021-0.01c0.036-0.039,0.076-0.079,0.126-0.105
	c0.008-0.004,0.013-0.012,0.016-0.021c0.003-0.014,0.01-0.021,0.024-0.023c0.006-0.001,0.018-0.009,0.022-0.013l0.011-0.011
	c0.004-0.004,0.006-0.008,0.008-0.013c0.006-0.021,0.016-0.033,0.032-0.039c0.008-0.003,0.014-0.009,0.018-0.017
	c0.007-0.017,0.019-0.026,0.037-0.029c0.01-0.002,0.019-0.009,0.022-0.018c0.008-0.004,0.013-0.012,0.015-0.021
	c0.004-0.019,0.013-0.025,0.025-0.027c0.007-0.001,0.013-0.005,0.018-0.011l0.026-0.033c0.002-0.003,0.004-0.006,0.005-0.01
	c0.005-0.002,0.01-0.005,0.014-0.01l0.133-0.148l0.015-0.013l0.021-0.028c0.004-0.005,0.006-0.011,0.007-0.018
	c0-0.004,0-0.01,0.01-0.016c0.006-0.001,0.011-0.003,0.016-0.008l0.023-0.022c0.006-0.005,0.01-0.013,0.01-0.021
	c0.001-0.019,0.013-0.028,0.035-0.046c0.005-0.004,0.011-0.008,0.016-0.013c0.008-0.007,0.012-0.017,0.011-0.028
	c-0.001-0.007-0.001-0.013,0.019-0.021c0.006-0.002,0.011-0.007,0.015-0.013l0.031-0.051c0-0.001,0.001-0.003,0.002-0.005
	c0.005-0.002,0.009-0.005,0.013-0.008c0.006-0.006,0.009-0.015,0.009-0.024c0-0.008,0-0.012,0.013-0.016
	c0.015-0.004,0.021-0.01,0.02-0.025c0.006-0.007,0.009-0.016,0.008-0.025c-0.001-0.005-0.001-0.008,0.019-0.018
	c0.01-0.005,0.016-0.015,0.017-0.026c0.001-0.02,0.011-0.034,0.037-0.049c0.011-0.007,0.016-0.019,0.015-0.031
	c-0.001-0.008-0.001-0.011,0.011-0.015c0.013-0.003,0.022-0.016,0.022-0.029c0.002-0.004,0.004-0.009,0.004-0.015
	c0.001-0.024,0.016-0.042,0.04-0.067l0.015-0.016c0.002-0.003,0.004-0.007,0.006-0.011c0.001-0.004,0.002-0.008,0.002-0.012
	c0-0.019,0.007-0.023,0.015-0.027c0.007-0.003,0.013-0.009,0.016-0.016l0.032-0.069c0.002-0.004,0.003-0.009,0.003-0.014
	c0-0.007,0.001-0.015,0.019-0.027c0.005-0.003,0.008-0.008,0.011-0.013l0.031-0.071c0.002-0.004,0.003-0.008,0.003-0.012
	c0-0.008,0.002-0.017,0.019-0.03c0.004-0.003,0.008-0.008,0.01-0.013l0.03-0.071c0.002-0.004,0.003-0.009,0.002-0.014
	c0-0.011,0.002-0.024,0.024-0.042c0.004-0.003,0.008-0.008,0.01-0.014l0.029-0.083c0.009-0.043,0.017-0.072,0.043-0.092
	c0.006-0.004,0.011-0.012,0.012-0.02l0.002-0.016l0.003-0.029c-0.002-0.02,0.005-0.034,0.022-0.047
	c0.01-0.007,0.014-0.021,0.011-0.033c-0.004-0.016,0.002-0.03,0.014-0.053c0.007-0.014,0.013-0.028,0.018-0.047
	c0.007-0.056,0.021-0.093,0.045-0.122c0.004-0.004,0.007-0.01,0.007-0.016l0.005-0.034l0.005-0.044l-0.005-0.063
	C176.72,79.061,176.707,79.048,176.69,79.048z"/>
</svg>
