<?xml version="1.0" encoding="utf-8"?>
<!-- Generator: Adobe Illustrator 16.0.3, SVG Export Plug-In . SVG Version: 6.00 Build 0)  -->
<!DOCTYPE svg PUBLIC "-//W3C//DTD SVG 1.1//EN" "http://www.w3.org/Graphics/SVG/1.1/DTD/svg11.dtd">
<svg version="1.1" id="Layer_1" xmlns="http://www.w3.org/2000/svg" xmlns:xlink="http://www.w3.org/1999/xlink" x="0px" y="0px"
	 width="20px" height="20px" viewBox="885.555 715.75 20 20" enable-background="new 885.555 715.75 20 20" xml:space="preserve">
<path fill="#FFFFFF" d="M904.454,716.851c-0.733-0.733-1.617-1.101-2.649-1.101h-12.5c-1.033,0-1.917,0.367-2.65,1.101
	s-1.1,1.616-1.1,2.649V732c0,1.033,0.366,1.916,1.1,2.649s1.617,1.101,2.65,1.101h1.662c-0.102-2.389,0.445-4.43,0.979-6.421
	c0.217-0.811,0.432-1.614,0.597-2.413c-0.372-0.673-0.47-1.552-0.343-2.383c0.09-0.588,0.293-1.156,0.592-1.612
	c0.309-0.471,0.72-0.826,1.217-0.972c0.385-0.112,0.814-0.098,1.28,0.087v0.001c1.544,0.611,1.005,2.303,0.467,3.992
	c-0.17,0.531-0.339,1.063-0.438,1.557c-0.198,0.992-0.085,1.803,1.034,2.025v0.001c0.625,0.127,1.184,0.009,1.665-0.281
	c0.662-0.4,1.187-1.128,1.549-2c0.367-0.887,0.565-1.919,0.571-2.912c0.006-1.31-0.321-2.544-1.038-3.271
	c-0.807-0.817-1.798-1.227-2.819-1.306c-0.984-0.077-1.996,0.151-2.895,0.614c-0.9,0.463-1.687,1.16-2.217,2.021
	c-0.573,0.928-0.85,2.048-0.651,3.271c0.06,0.369,0.236,0.662,0.407,0.942c0.377,0.622,0.725,1.195,0.06,2.373l-0.076,0.135
	l-0.149-0.033c-1.047-0.231-1.757-0.738-2.211-1.454c-0.446-0.703-0.639-1.603-0.654-2.633v-0.005
	c0.022-1.946,0.722-3.668,1.898-4.96c1.183-1.298,2.846-2.159,4.784-2.376c0.189-0.021,0.381-0.038,0.573-0.049
	c0.188-0.011,0.378-0.017,0.572-0.017c1.899-0.004,3.683,0.521,5.03,1.518l0,0c1.261,0.934,2.14,2.278,2.374,3.99l0,0
	c0.096,0.688,0.115,1.384,0.063,2.066c-0.124,1.633-0.655,3.198-1.536,4.409c-0.89,1.224-2.134,2.087-3.674,2.3
	c-0.381,0.053-0.778,0.065-1.191,0.034h-0.001c-0.927-0.074-1.442-0.432-2.046-0.85c-0.117-0.081-0.237-0.165-0.363-0.248
	c-0.239,1.226-0.512,2.42-0.928,3.478c-0.194,0.494-0.42,0.959-0.688,1.382h9.044c1.033,0,1.917-0.367,2.65-1.101
	s1.101-1.616,1.101-2.649v-12.5C905.555,718.467,905.188,717.584,904.454,716.851z"/>
</svg>
