<?xml version="1.0" encoding="utf-8"?>
<!-- Generator: Adobe Illustrator 16.0.3, SVG Export Plug-In . SVG Version: 6.00 Build 0)  -->
<!DOCTYPE svg PUBLIC "-//W3C//DTD SVG 1.1//EN" "http://www.w3.org/Graphics/SVG/1.1/DTD/svg11.dtd">
<svg version="1.1" id="Layer_1" xmlns="http://www.w3.org/2000/svg" xmlns:xlink="http://www.w3.org/1999/xlink" x="0px" y="0px"
	 width="25px" height="24.096px" viewBox="167.676 6.893 25 24.096" enable-background="new 167.676 6.893 25 24.096"
	 xml:space="preserve">
<path fill="#FFFFFF" d="M170.845,17.932h4.131V17.03h-1.942v-0.265c0-0.329-0.267-0.596-0.596-0.596h-4.168
	c-0.329,0-0.595,0.267-0.595,0.596v13.245l1.545-10.667C169.335,18.552,170.049,17.932,170.845,17.932z M191.021,12.99h-2.188
	v-1.055l1.39,0.006v-0.365c0-0.933-0.722-1.787-1.654-1.787h-2.188v-0.75l1.389,0.005V8.679c0-0.932-0.722-1.786-1.653-1.786h-8.418
	c-0.949,0-1.77,0.829-1.77,1.786v9.252h0.728V8.679c0-0.556,0.463-1.009,0.993-1.009v-0.05h0.239
	c0.458,0.132,0.753,0.555,0.753,1.025v0.298h0.649l6.364,0.092v0.753h-5.503c-0.948,0-1.77,0.829-1.77,1.787v6.356h0.728v-6.356
	c0-0.557,0.463-1.009,0.993-1.009v-0.049h0.239c0.459,0.132,0.753,0.554,0.753,1.025v0.298h0.648l6.364,0.092v1.058h-5.503
	c-0.948,0-1.77,0.829-1.77,1.786v3.155h0.728v-3.155c0-0.556,0.463-1.009,0.992-1.009v-0.05h0.239
	c0.459,0.132,0.753,0.555,0.753,1.025v0.298h0.648l6.364,0.092v12.543h-1.004l-0.105,0.728h1.837V15.136l1.39,0.005v-0.365
	C192.676,13.844,191.954,12.99,191.021,12.99z M189.271,18.884h-18.425c-0.329,0-0.634,0.267-0.682,0.595l-1.581,10.915
	c-0.048,0.329,0.18,0.595,0.509,0.595h18.425c0.328,0,0.634-0.267,0.682-0.595l1.58-10.915
	C189.827,19.151,189.6,18.884,189.271,18.884z"/>
</svg>
