<?xml version="1.0" encoding="utf-8"?>
<!-- Generator: Adobe Illustrator 16.0.3, SVG Export Plug-In . SVG Version: 6.00 Build 0)  -->
<!DOCTYPE svg PUBLIC "-//W3C//DTD SVG 1.1//EN" "http://www.w3.org/Graphics/SVG/1.1/DTD/svg11.dtd">
<svg version="1.1" id="Layer_1" xmlns="http://www.w3.org/2000/svg" xmlns:xlink="http://www.w3.org/1999/xlink" x="0px" y="0px"
	 width="168.574px" height="104.121px" viewBox="89.896 -4.312 168.574 104.121"
	 enable-background="new 89.896 -4.312 168.574 104.121" xml:space="preserve">
<path fill="#FF8583" d="M256.079,16.813l-0.057-0.007c-1.507-0.203-2.892,0.855-3.094,2.363l-2.161,16.114l-31.355-4.208
	c-0.096-0.133-0.175-0.269-0.225-0.41c-0.23-0.643,0.094-1.641-0.214-2.271c-0.308-0.63-1.764-0.69-2.104-1.287
	c-0.346-0.605-1.403-0.742-1.781-1.319c-0.383-0.583,0.922-2.341,0.514-2.897c-0.409-0.561-2-0.247-2.432-0.79
	c-0.432-0.544-1.173-0.815-1.621-1.345c-0.407-0.482-1.33-0.5-1.838-0.892l-10.139,8.548l-5.525-0.741l11.715-13.84
	c-0.157-0.064-0.293-0.143-0.383-0.26c-0.374-0.492-0.944-0.704-1.344-1.162c-0.408-0.467-0.383-1.163-0.833-1.573
	c-0.454-0.413,0.194-2.238-0.317-2.576c-0.51-0.337-1.657,0.335-2.2,0.046c-0.54-0.285-0.595-1.633-1.157-1.882
	c-0.559-0.247-1.531,0.444-2.106,0.228c-0.572-0.218-0.708-1.717-1.292-1.915c-0.578-0.196-1.418,0.333-2,0.147
	c-0.584-0.186-1.742,1.443-2.322,1.26c-0.588-0.185-0.738-1.743-1.313-1.933c-0.575-0.191-1.488,0.558-2.07,0.352
	c-0.576-0.203-0.546-2.135-1.126-2.34c-0.578-0.202-1.233-0.227-1.816-0.42c-0.583-0.191-1.42,0.396-2.007,0.225
	c-0.591-0.171-1.251-0.015-1.845-0.154c-0.6-0.14-1.025-1.175-1.628-1.271c-0.607-0.095-1.325,0.808-1.934,0.771
	c-0.609-0.037-1.153,0.242-1.766,0.273c-0.607,0.034-1.128,0.277-1.74,0.364c-0.602,0.084-1.52-1.652-2.125-1.531
	c-0.598,0.12-1.268,0.093-1.867,0.235c-0.595,0.139-1.263,0.046-1.857,0.195c-0.596,0.147-0.723,2.203-1.316,2.344
	c-0.6,0.14-1.198,0.371-1.795,0.491c-0.586,0.119-0.946,0.845-1.521,1.006c-0.574,0.16-1.801-1.788-2.366-1.59
	c-0.562,0.197-0.838,1.222-1.393,1.45c-0.55,0.222-1.06,0.551-1.608,0.796c-0.542,0.244-1.286,0.074-1.828,0.332
	c-0.537,0.256-1.338-0.01-1.878,0.255c-0.537,0.263-0.604,1.491-1.144,1.755c-0.628,0.307-0.67,1.725-1.281,2.043
	c-0.62,0.323-2.313-1.354-2.913-1.017c-0.606,0.344-0.438,2.007-1.025,2.369c-0.592,0.367-0.873,1.139-1.443,1.528
	c-0.573,0.392-2.315-0.838-2.866-0.416c-0.55,0.419,0.237,2.482-0.29,2.937c-0.462,0.397-2.107-0.641-2.601-0.267
	c-0.488,0.366-0.361,1.573-0.865,1.93c-0.501,0.355-0.779,1.026-1.279,1.382c-0.503,0.356-1.045,0.62-1.532,0.989
	c-0.494,0.376-1.394,0.214-1.854,0.614c-0.008,0.007-0.014,0.016-0.021,0.023L99.1,14.931l2.162-16.115
	c0.203-1.507-0.855-2.894-2.363-3.095l-0.056-0.008c-1.507-0.202-2.894,0.855-3.096,2.363L93.584,14.19l-1.839-0.247l-1.85,13.787
	l1.838,0.247l-0.991,7.381c-0.202,1.507,0.856,2.895,2.363,3.096l0.057,0.008c1.507,0.201,2.894-0.856,3.096-2.364h-0.001
	l0.991-7.381l4.029,0.541c0.2,1.431,0.572,1.578,0.863,2.366c0.818-0.638,1.547-0.639,2.446-1.922l0.606,0.082
	c0.316,1.446,0.725,2.207,1.105,3.216c0.96-0.764,1.905-1.436,2.857-2.204c0.437,1.149,0.872,2.346,1.316,3.494
	c0.954-0.772,1.901-1.522,2.847-2.3c0.446,1.146,0.895,2.302,1.35,3.447c0.945-0.781,1.887-1.558,2.826-2.343
	c0.455,1.141,0.914,2.283,1.378,3.424c0.939-0.789,1.874-1.579,2.806-2.373c0.465,1.137,0.936,2.274,1.409,3.41
	c0.933-0.798,1.862-1.595,2.786-2.399c0.475,1.133,0.955,2.265,1.438,3.397c0.926-0.805,1.847-1.614,2.765-2.425
	c0.003,0.007,0.006,0.014,0.01,0.021c0.077,0.362,0.148,0.722,0.052,1.033c-0.204,0.662-1.739,0.924-1.912,1.588
	c-0.173,0.669-0.809,1.249-0.952,1.922c-0.144,0.673-0.793,1.298-0.907,1.979c-0.112,0.677,1.419,1.613,1.336,2.301
	c-0.083,0.682-1.773,1.225-1.829,1.918c-0.046,0.597,0.455,1.212,0.38,1.814c-0.075,0.596,0.609,1.29,0.523,1.891
	c-0.084,0.597,0.731,1.315,0.652,1.913c-0.079,0.601-2.489,0.946-2.546,1.547c-0.057,0.605,0.805,1.322,0.789,1.925
	c-0.018,0.604,0.606,1.213,0.647,1.816c0.04,0.601-0.837,1.364-0.723,1.96c0.113,0.593,1.875,0.821,2.025,1.412
	c0.148,0.583-1.814,1.784-1.633,2.365c0.18,0.578,0.92,1.019,1.126,1.593c0.204,0.568,2.031,0.521,2.258,1.087
	c0.225,0.562,0.137,1.232,0.38,1.79c0.243,0.555-1.345,1.95-1.088,2.5c0.256,0.55,0.585,1.096,0.852,1.64
	c0.266,0.545,1.276,0.751,1.564,1.277c0.291,0.534,1.21,0.713,1.521,1.229c0.312,0.518,0.999,0.783,1.33,1.286
	c0.332,0.506-0.24,1.629,0.111,2.119c0.351,0.494,1.341,0.519,1.706,0.994c0.37,0.48,0.667,1.007,1.049,1.47
	c0.385,0.467,0.661,1.024,1.057,1.475c0.398,0.453,0.512,1.197,0.941,1.611c0.433,0.417,0.354,1.489,0.811,1.874
	c0.458,0.385,1.583,0.003,2.063,0.364c0.479,0.36,1.68-0.3,2.173,0.042c0.493,0.342,0.067,2.033,0.566,2.364
	c0.501,0.33,1.75-0.484,2.252-0.159c0.503,0.327,0.636,1.222,1.134,1.551c0.583,0.384,1.49,0.234,2.078,0.598
	c0.592,0.366,1.406,0.295,2.007,0.638c0.604,0.344,0.75,1.473,1.366,1.791c0.616,0.319,0.627,1.94,1.258,2.229
	c0.63,0.289,1.639-0.193,2.285,0.063c0.642,0.254,1.687-0.609,2.35-0.389c0.57,0.189,0.629,1.859,1.2,2.068
	c0.566,0.207,1.185,0.266,1.755,0.479c0.567,0.213,1.168,0.362,1.74,0.57c0.571,0.205,1.309-0.043,1.885,0.142
	c0.581,0.185,1.341-0.314,1.928-0.164c0.589,0.151,0.837,2.036,1.433,2.137c0.597,0.101,1.423-1.337,2.029-1.299
	c0.605,0.038,1.211,0.738,1.818,0.71c0.604-0.027,1.082-1.327,1.685-1.404c0.598-0.077,1.115-0.353,1.714-0.464
	c0.595-0.109,1.251,0.218,1.845,0.085c0.079-0.016,0.15-0.063,0.225-0.098c1.355-3.274,4.523-12.875,2.029-26.634
	c4.625,14.675,5.035,22.887,4.889,26.401c0.066,0.003,0.135,0.003,0.198-0.009c0.596-0.096,0.999-1.442,1.604-1.534
	c0.6-0.09,1.406,1.105,2.008,1.006c0.6-0.098,1.219-0.228,1.814-0.349c0.596-0.122,1.432,0.497,2.02,0.339
	c0.586-0.156,0.641-2.156,1.213-2.363c0.568-0.206,1.022-0.546,1.571-0.815c0.552-0.27,0.77-0.849,1.267-1.198
	c0.498-0.35,2.021,0.615,2.478,0.207c0.452-0.405-0.374-2.114,0.049-2.557c0.421-0.439,1.151-0.554,1.558-1.009
	c0.405-0.456,0.604-1.098,1.007-1.55c0.409-0.458,1.011-0.775,1.43-1.207c0.431-0.442,2.224,0.619,2.681,0.227
	c0.522-0.452-0.102-2.196,0.389-2.659c0.5-0.476,1.426-0.509,1.895-0.997c0.475-0.495,1.336-0.664,1.783-1.174
	c0.449-0.515,1.075-0.934,1.5-1.47c0.425-0.53,0.287-1.526,0.694-2.079c0.401-0.546,0.698-1.181,1.087-1.751
	c0.34-0.498,0.893-0.814,1.272-1.29c0.378-0.47,0.079-1.512,0.476-1.969c0.397-0.458,1.568-0.244,1.967-0.702
	c0.398-0.46,1.289-0.54,1.671-1.007c0.384-0.474,0.206-1.44,0.551-1.933c0.351-0.5,0.511-1.154,0.798-1.684
	c0.287-0.532-0.566-1.507-0.363-2.082c0.202-0.572,0.037-1.109,0.168-1.697c0.131-0.59,0.074-1.086,0.152-1.688
	c0.075-0.598,1.742-1.008,1.781-1.615c0.039-0.602,0.906-1.19,0.924-1.796c0.018-0.604-1.057-1.241-1.047-1.845
	c0.01-0.605-0.383-1.225-0.361-1.828c0.021-0.607,0.184-1.22,0.231-1.821c0.054-0.692,0.538-1.354,0.534-2.032
	c-0.006-0.689,1.226-1.491,1.168-2.173c-0.008-0.11-0.064-0.216-0.146-0.319c0.208-0.271,0.418-0.541,0.627-0.812
	c0.689,1.012,1.383,2.022,2.078,3.03c0.749-0.978,1.494-1.956,2.234-2.937c0.695,1.004,1.399,2.009,2.104,3.011
	c0.741-0.984,1.477-1.97,2.208-2.957c0.708,0.999,1.419,1.998,2.134,2.993c0.732-0.991,1.459-1.982,2.182-2.976
	c0.715,0.992,1.461,1.795,2.186,2.785c0.633-0.873,1.227-1.497,1.911-2.808l0.607,0.082c0.527,1.475,1.228,1.666,1.847,2.497
	c0.487-0.684,0.883-0.727,1.453-2.054l4.012,0.539l-0.989,7.379c-0.202,1.508,0.855,2.894,2.363,3.096l0.054,0.008
	c1.51,0.202,2.896-0.856,3.098-2.364l0.99-7.378l0.918,0.123l1.852-13.789l-0.918-0.124l2.162-16.113
	C258.646,18.401,257.588,17.016,256.079,16.813z M202.026,36.68c0.446,0.979,1.251,1.76,1.702,2.614
	c0.937,1.77,0.766,3.833,1.029,5.433c0.216,1.306,0.711,2.936,0.322,4.72c-0.264,1.211-1.643,2.312-1.772,3.648
	c-0.048,0.509-0.064,1.004-0.07,1.498c-0.071-0.654-0.153-1.317-0.206-1.987c-0.064-0.761,0.434-1.564,0.404-2.351
	c-0.07-1.977-0.664-4.134-1.277-6.182c-0.188-0.615-0.427-0.543-0.612-1.159c-0.861-2.868-2.272-4.76-3.396-6.601
	c-0.52-0.854-0.391-2.056-0.83-2.97c-0.211-0.435-0.459-0.838-0.724-1.222l1.146-0.967l-0.097,0.082
	C199.314,33.16,201.111,34.657,202.026,36.68z M188.957,39.431c0.376,0.47,0.775,0.914,1.162,1.339
	c0.738,0.813,1.436,1.581,1.78,2.365c0.272,0.618,0.304,1.511,0.34,2.507c0.025,0.708,0.053,1.439,0.171,2.206
	c0.264,1.681,0.311,3.086,0.156,4.56c-0.081,0.779-0.061,1.523-0.037,2.284c0.032,0.947,0.063,1.84-0.182,2.487
	c-0.332,0.885-1.005,1.741-1.719,2.653c-0.326,0.412-0.661,0.84-0.977,1.283c-0.282,0.399-0.556,0.81-0.826,1.22
	c-0.662,1.007-1.291,1.959-2.027,2.574c-0.737,0.613-1.767,1.043-2.863,1.5c-0.458,0.191-0.934,0.389-1.393,0.604
	c-0.713,0.331-1.494,0.604-2.365,0.838l-1.236-2.838l0.196,0.45c0.084-0.024,0.171-0.048,0.252-0.071
	c1.184-0.323,2.202-0.775,3.403-1.467c0.425-0.248,0.861-0.557,1.353-0.767c0.735-0.317,1.675-0.311,2.214-0.851
	c0.615-0.613,0.985-1.493,1.385-2.29c0.178-0.358,0.399-0.702,0.605-1.063c0.568-0.985,0.463-2.17,0.758-3.296
	c0.049-0.189,0.361-0.109,0.41-0.299c0.075-0.292,0.349-0.523,0.447-0.859c0.267-0.891,0.509-1.867,0.5-2.839
	c-0.011-1.253-0.398-2.407-0.777-3.75c-0.133-0.482-0.133-1.009-0.213-1.487c-0.143-0.854-0.398-1.63-0.801-2.29
	c-0.526-0.877-1.333-1.674-2.08-2.371c-0.279-0.263-0.207-0.338-0.483-0.602c-0.036-0.035-0.067-0.078-0.103-0.115l-0.459,0.387
	l4.135-3.487l-1.175,0.994C188.662,39.1,188.818,39.259,188.957,39.431z M187.854,55.329c-0.278,1.062-0.55,1.969-1.008,2.757
	c-0.225,0.392-0.52,0.744-0.712,1.129c-0.355,0.708-0.712,1.306-1.134,1.729c-0.316,0.316-0.644,1-1.305,1.287
	c-0.492,0.209-1.325-0.215-1.834,0.078c-1.072,0.617-1.75,1.627-2.789,1.911c-0.574,0.154-1.105,0.237-1.638,0.461
	c-0.593,0.253-1.267-0.017-1.733-0.011c-0.672,0.005-1.429,0.197-2.272-0.063c-0.364-0.109-0.682-0.431-1.059-0.528
	c-0.355-0.088-0.805,0.211-1.163,0.135c-0.854-0.186-1.692-0.432-2.282-0.761c-0.581-0.323-0.838-1.248-1.493-1.927
	c-0.244-0.255-0.499-0.528-0.756-0.774c-0.711-0.687-1.794-1.182-2.482-2.327c-0.142-0.236,0.345-0.532,0.201-0.768
	c-0.533-0.872-1.15-1.572-1.388-2.416c-0.336-1.189-0.626-2.282-0.634-3.337c-0.008-1.007,0.009-2.297,0.305-3.422
	c0.154-0.581,0.624-1.144,1.093-1.848c0.228-0.343,0.529-0.669,0.743-1.039c0.57-0.981,0.823-2.196,1.628-3
	c0.448-0.447,0.966-0.77,1.294-1.204c0.409-0.542,1.009-0.788,1.378-1c0.429-0.246,0.966-0.753,1.791-0.892
	c0.486-0.083,0.976-0.124,1.471-0.258c0.945-0.254,2.022-0.339,3.407-0.351c0.321-0.002,0.335-0.142,0.665-0.115
	c0.987-0.009,1.958,0.079,2.78,0.289c0.398,0.099,0.8,0.165,1.189,0.245c0.836,0.173,1.729,0.257,2.282,0.565
	c0.024,0.015,0.048,0.042,0.071,0.059l-1.734,2.05c-0.434-0.349-0.879-0.714-1.361-0.884c-0.61-0.211-1.412,0.166-2.086,0.145
	c-0.25-0.008-0.491-0.359-0.752-0.379c-0.743-0.054-1.564,0.18-2.291,0.313c-0.217,0.04-0.185,0.217-0.403,0.256
	c-1.057,0.191-1.719,0.699-2.44,1.034c-0.301,0.141-0.676,0.155-0.979,0.261c-0.57,0.199-1.005,0.48-1.447,0.85
	c-0.438,0.364-0.949,0.626-1.221,1.163c-0.165,0.319-0.311,0.624-0.504,0.895c-0.522,0.742-1.134,1.438-1.444,2.28
	c-0.097,0.262-0.003,0.592-0.115,0.844c-0.252,0.574-0.284,1.189-0.339,1.819c-0.083,0.962-0.395,1.984-0.255,2.75
	c0.15,0.83,0.455,1.759,0.875,2.641c0.34,0.712,0.836,1.417,1.342,1.993c0.122,0.139,0.545-0.231,0.667-0.089
	c0.682,0.788,1.166,1.464,1.834,1.918c0.194,0.13,0.309,0.379,0.528,0.541c0.533,0.391,1.115,0.758,1.736,0.974
	c0.63,0.219,1.345-0.079,2.024-0.052c0.236,0.009,0.48,0.106,0.712,0.123c0.257,0.02,0.505,0.194,0.756,0.225
	c0.647,0.082,1.276,0.096,1.931-0.022c0.575-0.104,0.927-0.553,1.415-0.867c0.277-0.18,0.767-0.037,1.068-0.177
	c0.781-0.363,1.446-0.847,2.197-1.474c0.266-0.221,0.493-0.484,0.787-0.674c0.476-0.311,1.211-0.42,1.541-0.885
	c0.363-0.514,0.238-1.311,0.432-1.949c0.076-0.247,0.076-0.539,0.172-0.793c0.275-0.753,0.592-1.443,0.661-2.267
	c0.011-0.138-0.063-0.144-0.052-0.282c0.016-0.212,0.052-0.425,0.081-0.663c0.076-0.646,0.495-1.371,0.373-2.052
	c-0.161-0.872-0.653-1.653-1.075-2.53c-0.145-0.308-0.396-0.556-0.508-0.88c-0.194-0.558-0.4-1.137-0.774-1.566
	c-0.27-0.309-0.584-0.591-0.918-0.854l1.694-1.428c0.092,0.072,0.184,0.142,0.266,0.22c0.293,0.28,0.264,0.312,0.559,0.589
	c0.69,0.641,1.736,1.078,2.145,1.758c0.234,0.39,0.075,1.213,0.191,1.93c0.085,0.492-0.014,1.104,0.147,1.678
	c0.343,1.214,0.605,2.195,0.615,3.265c0.005,0.721-0.088,1.481-0.345,2.339c-0.09,0.306-0.266,0.59-0.347,0.899
	C187.779,55.107,187.902,55.139,187.854,55.329z M182.603,45.577c0.181,0.208,0.395,0.599,0.546,1.031
	c0.123,0.356,0.242,0.728,0.416,1.091c0.369,0.771,0.301,1.493,0.43,2.197c0.081,0.453,0.186,0.874,0.116,1.468
	c-0.03,0.237,0.097,0.491,0.081,0.718c-0.014,0.144-0.012,0.143-0.024,0.288c-0.066,0.766-0.163,1.35-0.369,1.904
	c-0.104,0.28-0.299,0.537-0.396,0.856c-0.151,0.506-0.273,0.932-0.493,1.241c-0.157,0.222-0.556,0.258-0.946,0.513
	c-0.314,0.206-0.406,0.763-0.733,1.033c-0.644,0.538-1.38,0.612-2.036,0.916c-0.399,0.185-0.721,0.521-1.027,0.719
	c-0.375,0.242-0.637,0.622-0.909,0.672c-0.422,0.078-0.988,0.311-1.542,0.24c-0.272-0.032-0.532-0.179-0.815-0.202
	c-0.255-0.018-0.512,0.109-0.765,0.101c-0.587-0.023-1.123-0.406-1.536-0.552c-0.404-0.14-0.839-0.45-1.333-0.813
	c-0.203-0.148-0.29-0.485-0.5-0.625c-0.549-0.372-1.202-0.682-1.79-1.361c-0.126-0.146-0.301,0.009-0.428-0.136
	c-0.457-0.518-0.5-1.263-0.75-1.782c-0.361-0.756-0.584-1.435-0.709-2.128c-0.122-0.67-0.166-1.468-0.098-2.247
	c0.032-0.375-0.308-0.951-0.095-1.433c0.122-0.274,0.402-0.487,0.512-0.781c0.263-0.715,0.723-1.309,1.164-1.936
	c0.257-0.36,0.415-0.772,0.597-1.127c0.195-0.38,0.18-1.022,0.376-1.185c0.23-0.192,0.789-0.319,1.249-0.481
	c0.348-0.121,0.747-0.113,1.092-0.274c0.596-0.277,1.28-0.553,2.203-0.722c0.217-0.038,0.221-0.253,0.461-0.254
	c0.654-0.119,1.286,0.165,1.845,0.205c0.283,0.021,0.569-0.014,0.856-0.004c0.573,0.019,1.144-0.059,1.527,0.075
	c0.267,0.095,0.501,0.344,0.745,0.609l0.578-0.683l-1.882,2.224l0.827-0.979c-0.119-0.013-0.241-0.016-0.338-0.078
	c-0.394-0.243-0.798-0.679-1.274-0.8c-0.43-0.11-0.913,0.411-1.339,0.471c-0.208,0.031-0.438,0.161-0.662,0.161
	c-0.612,0.009-1.228-0.332-1.886-0.153c-0.218,0.058-0.347,0.529-0.579,0.563c-0.404,0.061-0.786-0.009-1.167,0.208
	c-0.399,0.233-0.614,0.592-0.918,0.934c-0.117,0.135-0.288,0.241-0.425,0.379c-0.413,0.417-1.09,0.609-1.366,1.101
	c-0.046,0.084,0.324,0.293,0.276,0.377c-0.071,0.126-0.279,0.167-0.362,0.302c-0.239,0.395-0.623,0.789-0.748,1.283
	c-0.156,0.614-0.239,1.25-0.227,1.934c0.002,0.218,0.16,0.417,0.138,0.678c-0.037,0.415-0.043,0.863,0.079,1.272
	c0.15,0.513,0.403,1.032,0.673,1.459c0.195,0.318,0.388,0.202,0.58,0.522c0.246,0.425,0.329,1.063,0.704,1.422
	c0.344,0.333,0.747,0.713,1.188,0.93c0.147,0.074,0.376-0.016,0.524,0.064c0.472,0.261,1.041,0.366,1.542,0.493
	c0.146,0.037,0.219-0.25,0.365-0.21c0.73,0.185,1.243,0.181,1.812,0.179c0.217-0.003,0.463-0.015,0.673,0.004
	c0.432,0.04,0.86,0.484,1.284,0.369c0.419-0.113,0.911-0.228,1.249-0.494c0.171-0.136,0.182-0.493,0.382-0.607
	c0.548-0.32,0.961-0.766,1.413-1.22c0.13-0.13,0.294-0.23,0.448-0.365c0.326-0.293,0.753-0.52,0.982-0.926
	c0.337-0.595,0.848-1.21,0.982-1.741c0.146-0.576-0.188-1.306-0.199-1.995c-0.012-0.571-0.262-1.061-0.434-1.64
	c-0.027-0.089,0.135-0.138,0.107-0.226c-0.203-0.699-0.365-1.299-0.664-1.792c-0.081-0.129-0.118-0.279-0.203-0.432
	c-0.192-0.35-0.563-0.629-0.893-0.93l-0.508,0.427l2.248-1.896l-0.735,0.622C182.095,44.938,182.364,45.303,182.603,45.577z
	 M180.547,47.636c0.225,0.37,0.388,0.84,0.553,1.411c0.037,0.124-0.072,0.156-0.035,0.282c0.129,0.434-0.068,0.84-0.061,1.198
	c0.008,0.55,0.369,1.063,0.257,1.508c-0.111,0.436-0.19,1.056-0.438,1.492c-0.105,0.184-0.482,0.304-0.741,0.535
	c-0.157,0.14-0.384,0.225-0.538,0.381c-0.352,0.356-0.732,0.599-1.163,0.849c-0.264,0.155-0.37,0.542-0.599,0.724
	c-0.19,0.149-0.529,0.111-0.648,0.143c-0.155,0.043-0.406-0.154-0.69-0.181c-0.258-0.023-0.554,0.117-0.82,0.12
	c-0.427,0.003-0.804-0.227-1.4-0.378c-0.145-0.037-0.11,0.322-0.332,0.381c-0.405-0.104-0.985-0.149-1.299-0.322
	c-0.166-0.092-0.135-0.554-0.323-0.649c-0.332-0.164-0.912,0.037-1.087-0.133c-0.22-0.208-0.375-0.686-0.582-1.044
	c-0.206-0.345-0.263-0.308-0.473-0.649c-0.223-0.352-0.422-0.788-0.511-1.093c-0.039-0.13,0.482-0.438,0.51-0.744
	c0.023-0.26-0.38-0.556-0.384-0.831c-0.01-0.563,0.162-1.014,0.276-1.459c0.069-0.269,0.341-0.462,0.543-0.792
	c0.086-0.141,0.219-0.262,0.294-0.396c0.048-0.083-0.107-0.171-0.06-0.255c0.238-0.424,0.41-0.796,0.67-1.06
	c0.158-0.157,0.351-0.28,0.498-0.445c0.224-0.255,0.296-0.669,0.476-0.774c0.122-0.069,0.477,0.126,0.751,0.083
	c0.269-0.039,0.598,0.065,0.879-0.01c0.529-0.143,0.903-0.382,1.372-0.387c0.292,0,0.583-0.094,0.875-0.134
	c0.25-0.036,0.586-0.365,0.72-0.332c0.245,0.062,0.643,0.207,0.948,0.396c0.032,0.02,0.066,0.033,0.098,0.051l-0.705,0.832
	l-0.675,0.94c0.002-0.086-0.008-0.166-0.071-0.199c-0.29-0.155-0.656-0.183-0.973-0.253c-0.315-0.07-0.635,0.053-0.903,0.078
	c-0.086,0.009-0.19-0.163-0.289-0.157c-0.334,0.016-0.667,0.18-0.964,0.273c-0.081,0.025-0.03,0.184-0.111,0.208
	c-0.429,0.133-0.76,0.212-1.058,0.396c-0.091,0.06-0.325-0.168-0.432-0.116c-0.228,0.114-0.568,0.298-0.771,0.518
	c-0.213,0.225-0.225,0.643-0.321,0.898c-0.036,0.095,0.231,0.339,0.179,0.435c-0.184,0.345-0.279,0.643-0.362,1.007
	c-0.023,0.092-0.424,0.088-0.457,0.192c-0.075,0.249,0.275,0.565,0.287,0.884c0.016,0.42-0.199,0.853-0.101,1.164
	c0.108,0.35,0.266,0.72,0.483,1.062c0.196,0.308,0.331,0.679,0.588,0.909c0.044,0.039-0.011,0.098,0.032,0.137
	c0.326,0.295,0.797,0.339,1.108,0.499c0.113,0.061,0.094,0.092,0.207,0.155c0.238,0.133,0.588,0.087,0.899,0.153
	c0.323,0.073,0.631,0.447,0.935,0.422c0.246-0.014,0.228-0.334,0.473-0.34c0.271,0,0.512-0.193,0.822-0.289
	c0.3-0.094,0.406-0.288,0.614-0.459c0.078-0.064,0.357,0.124,0.443,0.07c0.312-0.194,0.342-0.669,0.617-0.963
	c0.075-0.081,0.211-0.148,0.286-0.212c0.182-0.151,0.515-0.17,0.665-0.449c0.153-0.283,0.443-0.522,0.479-0.75
	c0.028-0.15-0.211-0.196-0.179-0.344c0.088-0.375,0.357-0.716,0.339-1.109c-0.004-0.122,0.128-0.117,0.128-0.24
	c0-0.27-0.542-0.512-0.643-0.835c-0.114-0.368-0.077-0.745-0.295-1.087c-0.061-0.095-0.236-0.126-0.3-0.255
	c-0.063-0.126-0.041-0.338-0.047-0.536l-1.188,0.935l1.843-1.45l0.781-0.659c0.004,0.003,0.008,0.01,0.012,0.014
	c0.19,0.184,0.559,0.31,0.743,0.644C180.287,47.388,180.459,47.492,180.547,47.636z M176.647,49.016
	c0.069,0.145,0.36,0.179,0.451,0.327c0.159,0.25,0.005,0.547,0.069,0.753c0.031,0.1-0.107,0.208-0.107,0.399
	c0.002,0.187,0.553,0.177,0.558,0.364c0.012,0.269-0.204,0.459-0.24,0.615c-0.022,0.089,0.106,0.207,0.089,0.296
	c-0.01,0.053-0.394-0.015-0.401,0.04c-0.02,0.113,0.433,0.489,0.412,0.534c-0.03,0.037-0.496-0.169-0.561-0.117
	c-0.126,0.106-0.167,0.332-0.287,0.457c-0.188,0.202-0.292,0.411-0.494,0.538c-0.146,0.092-0.39,0.059-0.528,0.174
	c-0.063,0.053-0.091,0.173-0.136,0.197c-0.087,0.022-0.228,0.185-0.392,0.185c-0.108,0-0.217-0.063-0.331-0.058
	c-0.095,0.006-0.216-0.292-0.333-0.282c-0.16,0.012-0.275,0.032-0.373,0.01c-0.087-0.019-0.242,0.058-0.451-0.06
	c-0.074-0.042-0.308,0.21-0.379,0.174c-0.187-0.096-0.433-0.253-0.653-0.451c-0.057-0.052,0.202-0.339,0.144-0.389
	c-0.175-0.156-0.672-0.022-0.754-0.152c-0.146-0.228,0.028-0.62-0.04-0.837c-0.068-0.219-0.128-0.489-0.137-0.727
	c-0.003-0.063,0.222-0.155,0.26-0.281c0.036-0.118,0.156-0.237,0.188-0.371c0.053-0.236-0.101-0.49,0.015-0.708
	c0.086-0.16,0.189-0.326,0.257-0.507c0.03-0.079-0.111-0.307-0.114-0.313c0.037-0.033,0.377,0.241,0.472,0.194
	c0.141-0.069,0.144-0.431,0.277-0.515c0.174-0.108,0.327-0.395,0.626-0.486c0.082-0.025,0.04,0.25,0.179,0.296
	c0.211-0.065,0.473,0.052,0.622,0.046c0.117-0.006,0.194-0.614,0.308-0.624c0.146-0.014,0.361,0.291,0.441,0.31
	c0.124,0.026,0.472-0.158,0.628-0.086l-2.362,3.291l3.105-2.445C176.648,48.885,176.624,48.969,176.647,49.016z M183.169,39.105
	c-0.091-0.046-0.184-0.088-0.271-0.137c-0.775-0.429-1.444-1.289-2.408-1.487c-0.365-0.076-0.895,0.493-1.269,0.399
	c-1.011-0.252-2.012-0.39-3.11-0.38c-0.321,0.002-0.325-0.542-0.647-0.539c-1.533,0.014-2.687,0.573-3.774,0.866
	c-0.443,0.119-0.928-0.016-1.457,0.074c-0.839,0.14-1.57,0.645-2.255,1.042c-0.663,0.38-1.154,0.965-1.647,1.616
	c-0.309,0.412-0.969,0.523-1.335,0.891c-0.909,0.906-1.718,1.948-2.361,3.061c-0.197,0.341,0.065,0.96-0.172,1.322
	c-0.494,0.736-1.521,1.281-1.746,2.13c-0.348,1.318-0.237,2.845-0.228,3.955c0.011,1.204,0.33,2.503,0.705,3.834
	c0.302,1.064,0.902,2.034,1.521,3.045c0.117,0.19,0.052,0.228,0.167,0.419c0.763,1.27,1.469,2.304,2.292,3.098
	c0.242,0.231,0.863,0.095,1.16,0.404c0.678,0.702,1.124,1.496,1.921,1.938c0.804,0.448,1.664,0.987,2.602,1.19
	c0.34,0.073,0.777-0.264,1.112-0.18c0.351,0.087,0.695,0.238,1.078,0.355c0.881,0.27,1.744,0.581,2.671,0.574
	c0.8-0.006,1.479-0.428,2.24-0.754c0.325-0.137,0.683-0.241,1.033-0.337l0.258,2.58c-0.37,0.082-0.75,0.159-1.159,0.231l-0.731,0.13
	c-1.381,0.251-2.686,0.488-3.909,0.372c-1.691-0.159-3.237-0.5-4.597-1.014c-1.291-0.486-2.938-1.166-4.244-2.112
	c-0.7-0.508-1.292-1.351-1.92-2.241c-0.332-0.469-0.673-0.952-1.048-1.417c-0.979-1.22-1.761-2.508-2.392-3.938
	c-0.334-0.757-0.767-1.453-1.158-2.082c-0.5-0.805-0.972-1.564-1.069-2.198c-0.111-0.71,0.082-1.652,0.286-2.65l0.023-0.112
	c0.131-0.645,0.267-1.311,0.339-2.011c0.141-1.335,0.503-2.725,1.175-4.504l0.305-0.809c0.477-1.266,0.961-2.481,1.645-3.447
	c0.317-0.45,0.619-0.915,0.906-1.36c0.638-0.991,1.241-1.925,1.94-2.508c0.825-0.689,2.018-1.218,3.203-1.742
	c0.358-0.157,0.715-0.315,1.059-0.477l0.984-0.464c1.165-0.565,2.37-1.149,3.464-1.34c0.675-0.119,1.591,0.071,2.568,0.273
	c0.62,0.129,1.39,0.292,2.17,0.364c1.727,0.165,3.158,0.381,4.541,0.902c0.965,0.364,1.832,1.038,2.771,1.767
	c0.334,0.258,0.666,0.513,1.006,0.761L183.169,39.105z M178.525,94.194c-2.549,0.594-4.966,1.088-7.21,0.952
	c-2.546-0.155-5.161-1.139-7.929-2.177c-1.078-0.406-2.191-0.824-3.318-1.198c-3.229-1.073-6.484-2.727-10.245-5.204
	c-0.487-0.32-0.978-0.638-1.468-0.957c-2.907-1.886-5.651-3.666-7.739-6.042c-2.767-3.146-4.975-6.389-6.565-9.641
	c-1.488-3.043-3.293-7.043-4.05-11.012c-0.442-2.314-0.077-4.884,0.309-7.605c0.185-1.307,0.377-2.66,0.485-4.034
	c0.304-3.869,1.079-7.52,2.37-11.162c0.611-1.724,0.966-3.489,1.312-5.197c0.486-2.409,0.943-4.683,2.018-6.252
	c1.156-1.688,3.166-3.101,5.294-4.597c1.303-0.916,2.649-1.862,3.913-2.948c2.535-2.185,5.54-4.076,9.746-6.132l1.85-0.908
	c3-1.468,5.938-2.834,8.89-3.428c1.253-0.252,2.496-0.56,3.7-0.859c2.858-0.708,5.559-1.378,7.984-1.23
	c2.833,0.173,5.903,1.257,8.874,2.307c0.864,0.306,1.723,0.608,2.571,0.89c0.794,0.264,1.608,0.52,2.427,0.778
	c3.057,0.96,6.219,1.954,8.625,3.54c1.104,0.728,2.083,1.843,3.041,3.118l-3.572,4.222c-0.105-0.06-0.213-0.116-0.308-0.188
	c-0.619-0.48-0.396-2.049-1.046-2.573c-2.194-1.765-4.789-3.334-7.185-4.341c-2.087-0.879-4.729-0.657-7.372-0.907
	c-1.063-0.101-2.08-1.069-3.174-1.221c-2.717-0.38-5.638,1.234-8.616,1.584c-0.899,0.106-0.895,0.137-1.796,0.244
	c-4.162,0.488-7.173,0.995-9.983,2.095c-1.334,0.522-2.798,0.773-4.15,1.154c-2.266,0.642-4.465,0.977-6.024,2.121
	c-1.477,1.083-2.23,3.076-3.382,5.013c-0.771,1.293-1.976,2.379-2.951,3.59c-2.181,2.706-4.285,5.43-5.693,8.615
	c-0.477,1.076-0.366,2.431-0.908,3.479c-1.146,2.206-2.372,4.176-2.699,6.358c-0.542,3.608-0.306,7.513,0.049,10.525
	c0.38,3.233,1.886,6.397,3.292,9.884c1.084,2.685,2.736,4.895,4.673,7.403c0.45,0.583-0.302,1.16,0.145,1.746
	c2.446,3.215,5.054,5.302,7.478,7.175c0.813,0.627,1.119,1.868,1.902,2.526c2.042,1.71,4.647,2.24,6.825,3.157
	c2.169,0.914,4.452,1.902,7.151,2.188c0.999,0.104,2.11-0.63,3.094-0.493c1.108,0.157,2.233,0.484,3.235,0.675
	c2.533,0.48,4.797,1.313,7.11,1.054c0.051-0.255,0.098-0.519,0.146-0.785c-0.063,0.015-0.125,0.045-0.188,0.052
	c-2.091,0.246-4.581-0.166-7.028-0.63c-1-0.189-2.076-0.575-3.224-0.737c-1.004-0.138-1.987-0.402-3.015-0.509
	c-2.568-0.272-4.979-0.804-6.938-1.63c-1.964-0.828-4.058-2.094-6.029-3.745c-0.778-0.652-1.274-1.697-2.104-2.338
	c-2.313-1.787-4.173-4.286-6.536-7.391c-0.469-0.615-1.044-0.175-1.515-0.788c-1.831-2.372-3.437-4.741-4.44-7.229
	c-1.354-3.358-2.132-6.669-2.498-9.766c-0.343-2.916-1.311-6.799-0.794-10.224c0.288-1.925,1.438-4.069,2.541-6.195
	c0.535-1.033,1.94-1.684,2.436-2.805c1.354-3.06,2.634-6.009,4.727-8.608c1.043-1.295,2.511-2.287,3.314-3.636
	c1.064-1.788,1.123-4.32,2.346-5.217c1.334-0.979,3.749-0.905,5.897-1.512c1.366-0.387,2.485-1.581,3.891-2.129
	c2.683-1.049,5.858-1.66,9.883-2.133c0.901-0.107,0.947,0.283,1.848,0.176c2.871-0.339,5.76-1,8.292-0.646
	c1.129,0.158,2.207,0.783,3.286,0.884c2.521,0.238,4.726,0.93,6.595,1.717c2.195,0.924,5.005,1.708,7.143,3.423
	c0.633,0.51,0.766,1.636,1.394,2.123c0.081,0.064,0.177,0.111,0.268,0.165l-4.536,5.359l0.314-0.371
	c-0.814-0.996-1.674-1.918-2.722-2.653c-2.348-1.646-4.731-3.17-7.8-4.274c-1.183-0.425-2.357-0.694-3.441-1.227
	c-1.775-0.868-3.557-1.638-5.188-1.766c-2.261-0.177-4.699,0.838-7.116,1.326c-0.068,0.014,0.002,0.357-0.066,0.37
	c-0.582,0.117-1.375-0.885-1.944-0.779c-0.657,0.123-1.173,1.087-1.865,1.201c-2.378,0.397-5.208-0.239-7.228,0.72
	c-1.765,0.84-2.619,3.379-4.279,4.92c-0.673,0.625-1.641,0.993-2.364,1.607c-1.793,1.521-3.233,3.481-4.701,5.576
	c-0.444,0.632-0.847,0.349-1.291,0.981c-2.056,2.931-2.79,5.615-3.688,8.033c-0.42,1.132-1.387,2.05-1.91,3.124
	c-0.887,1.815-1.021,3.633-1.18,5.297c-0.15,1.576-0.602,3.37-0.022,5.212c0.385,1.22,1.113,2.369,1.328,3.668
	c0.485,2.931,1.495,5.611,2.726,8.322c0.413,0.912,0.245,2.059,0.604,3.002c0.754,1.984,2.058,3.55,3.267,5.006
	c1.995,2.403,4.662,4.342,6.782,5.828c2.278,1.598,4.832,3.117,7.856,4.205c2.333,0.84,4.761,1.708,7.41,1.897
	c0.654,0.048,0.746-1.175,1.399-1.124c3.44,0.268,6.081,0.155,8.659-0.324c0.68-0.128,1.412-0.046,2.154-0.083
	c0.026-0.525,0.047-1.054,0.057-1.604c-0.797,0.147-1.575,0.575-2.39,0.729c-2.439,0.453-5.114,0.732-8.416,0.473
	c-0.662-0.051-0.62-0.613-1.281-0.661c-2.536-0.18-5.043,0.308-7.175-0.458c-2.896-1.042-5.541-2.336-7.707-3.854
	c-2.041-1.432-4.524-3.545-6.4-5.806c-1.045-1.261-1.075-3.288-1.796-5.183c-0.354-0.931-1.852-1.42-2.286-2.375
	c-1.173-2.586-2.039-5.352-2.502-8.148c-0.233-1.405-0.341-2.725-0.743-4.004c-0.529-1.679-0.615-3.353-0.495-4.617
	c0.131-1.385,1.201-2.796,2.031-4.501c0.532-1.087,0.998-2.289,1.444-3.493c0.851-2.29,2.228-4.385,4.205-7.205
	c0.443-0.632,0.106-0.869,0.548-1.502c1.409-2.008,2.631-4.093,4.285-5.498c0.743-0.629,1.34-1.404,2.03-2.045
	c1.571-1.457,2.978-3.206,4.528-3.944c1.822-0.867,4.361-1.233,6.647-1.614c0.688-0.114,1.431,0.193,2.096,0.069
	c0.578-0.106,1.052-0.756,1.64-0.873c0.075-0.016,0.201,0.607,0.272,0.593c2.303-0.466,4.71-1.076,6.755-0.916
	c1.338,0.104,2.592,1.621,4.241,2.427c1.059,0.519,2.547,0.51,3.811,0.964c2.952,1.063,5.312,2.184,7.516,3.73
	c0.997,0.699,1.701,1.696,2.421,2.771l-2.126,2.51l0.84-0.992c-0.548-0.308-1.131-0.591-1.764-0.832
	c-0.992-0.376-1.83-1.043-2.781-1.567c-2.174-1.199-4.707-1.453-7.129-2.049c-0.816-0.203-1.613-0.498-2.39-0.741
	c-1.7-0.534-3.285-1.481-4.885-1.442c-2.617,0.067-5.477,0.625-7.549,1.248c-2.23,0.668-4.206,2.495-6.488,3.918
	c-1.769,1.104-3.101,2.614-4.593,4.253c-0.368,0.403-0.909-0.093-1.279,0.308c-1.959,2.118-3.311,4.149-4.334,6.094
	c-0.337,0.646-0.878,1.167-1.239,1.79c-0.95,1.65-0.982,3.562-1.359,5.226c-0.382,1.667-0.524,3.383-0.39,5.314
	c0.05,0.708-0.647,1.451-0.621,2.15c0.026,0.744,1.24,1.479,1.23,2.288c-0.025,1.86-0.182,3.461,0.306,5.087
	c0.405,1.349,1.283,2.329,2.319,3.598c0.638,0.784,0.523,2.151,1.063,3.038c1.231,2.021,2.733,3.823,4.683,5.689
	c0.748,0.715,1.31,1.517,1.986,2.339c1.014,1.235,2.639,1.546,3.841,2.209c1.382,0.761,2.682,1.903,4.448,2.227
	c0.875,0.159,1.591,0.542,2.383,0.737c2.073,0.512,4.215-0.682,6.613-0.75c0.389-0.01,0.409,0.764,0.796,0.754
	c0.646-0.016,1.283,0.299,1.928,0.303c1.118,0.009,2.151-0.298,3.17-0.656c-0.019-0.525-0.039-1.051-0.076-1.594
	c-0.973,0.366-1.983,0.705-3.083,0.697c-0.661-0.006-1.31-0.123-1.975-0.107c-0.409,0.011-0.438-1.045-0.848-1.033
	c-2.244,0.061-4.265,1.263-6.136,0.803c-0.834-0.206-1.448-1.309-2.356-1.475c-1.629-0.302-3.22-0.141-4.383-0.78
	c-0.941-0.519-2.162-1.24-3.127-2.413c-0.658-0.799-0.784-2.136-1.597-2.916c-1.849-1.769-3.371-3.19-4.53-5.093
	c-0.595-0.978-0.861-2.19-1.557-3.042c-0.915-1.12-1.673-1.957-1.989-3.007c-0.42-1.4-0.621-2.858-0.596-4.682
	c0.01-0.75-0.552-1.521-0.58-2.292c-0.027-0.719,0.565-1.483,0.515-2.208c-0.126-1.811-0.744-3.506-0.414-4.952
	c0.328-1.437,1.416-2.775,2.312-4.328c0.365-0.632,1.039-1.141,1.387-1.805c0.958-1.821,1.68-3.958,3.544-5.975
	c0.374-0.405,0.404-0.376,0.775-0.783c1.42-1.559,3.017-2.669,4.606-3.659c2.163-1.35,4.294-2.138,6.393-2.768
	c1.98-0.594,4.405-2.095,6.837-2.157c1.345-0.034,2.934,0.428,4.509,0.924c0.796,0.25,1.427,1.217,2.29,1.432
	c2.289,0.564,4.352,1.252,6.406,2.386c1.046,0.577,2.09,1.196,3.151,1.6c0.382,0.146,0.797,0.224,1.213,0.279l-1.464,1.729
	c-0.925-0.927-1.886-1.805-2.946-2.377c-1.031-0.557-2.377-0.896-3.765-1.036c-0.797-0.083-1.61,0.075-2.405-0.118
	c-1.892-0.462-3.782-0.475-5.981-0.428c-0.833,0.016-1.726,0.713-2.574,0.628c-1.311-0.128-2.451-0.842-3.55-0.524
	c-1.266,0.365-2.236,1.45-3.387,2.244c-0.545,0.375-1.008,0.98-1.6,1.337c-1.509,0.909-2.492,2.031-3.829,3.444
	c-0.22,0.232-1.181-0.68-1.401-0.448c-0.328,0.349,0.045,1.379-0.293,1.714c-0.046,0.044,0.042,0.138-0.002,0.183
	c-1.049,1.029-3.025,1.438-3.739,2.758c-0.935,1.733-0.56,3.907-1.066,6.077c-0.187,0.806-1.428,1.294-1.702,2.07
	c-0.453,1.285,0.4,2.679,0.446,3.833c0.058,1.571-0.174,3.279,0.348,4.876c0.135,0.413-0.317,0.999-0.194,1.402
	c0.133,0.428,1.006,0.638,1.144,1.122c0.456,1.575,1.008,3.129,1.826,4.432c0.722,1.152,1.846,2.013,3.031,3.024
	c0.469,0.399,0.534,1.283,1,1.719c1.189,1.109,3.182,1.193,4.721,2.024c0.46,0.25,0.261,0.62,0.722,0.868
	c2.152,1.163,3.831,1.941,5.55,2.36c0.765,0.186,1.696-0.05,2.483,0.225c1.314,0.46,2.354,0.717,3.534,0.691
	c1.121-0.021,2.341,0.33,3.563-0.219c0.117-0.052,0.237-0.102,0.354-0.154c-0.101-0.727-0.206-1.457-0.34-2.209
	c-0.373,0.003-0.723,0.034-1.017,0.166c-1.059,0.475-1.775,1.208-2.582,1.224c-0.903,0.018-1.841-0.49-3.081-0.924
	c-0.762-0.266-1.548-0.756-2.386-0.96c-1.587-0.387-3.198-0.673-5.23-1.771c-0.46-0.248-0.474-0.224-0.935-0.472
	c-1.446-0.782-2.643-1.641-3.697-2.625c-0.485-0.454-1.16-0.716-1.647-1.129c-1.09-0.931-2.221-1.653-2.817-2.604
	c-0.703-1.122-1.884-2.407-2.321-3.911c-0.129-0.455,0.304-1.067,0.168-1.507c-0.127-0.41-0.583-0.718-0.721-1.139
	c-0.49-1.498-1.258-3.158-1.308-4.517c-0.035-0.86,0.35-2.203,0.76-3.364c0.28-0.797,1.836-1.246,2.041-2.133
	c0.479-2.048,0.04-4.062,0.894-5.643c0.603-1.114,1.539-2.238,2.552-3.232c0.046-0.045,0.83,0.75,0.876,0.706
	c0.354-0.348,0.004-1.391,0.343-1.75c0.223-0.236,0.957,0.461,1.181,0.226c1.253-1.322,1.527-3.488,2.857-4.29
	c0.62-0.372,1.616-0.109,2.187-0.501c1.098-0.758,2.279-0.874,3.305-1.167c0.815-0.236,1.724-0.876,2.934-0.758
	c0.843,0.083,1.704,0.064,2.628,0.046c2.063-0.042,3.828,0.068,5.58,0.496c0.898,0.22,1.677,0.93,2.604,1.028
	c1.157,0.118,2.544-0.624,3.305-0.214c0.907,0.491,1.609,1.594,2.442,2.547l-2.055,2.428l-0.05-0.036
	c-0.342-0.248-0.676-0.505-1.031-0.779c-0.968-0.752-1.969-1.529-3.154-1.976c-1.54-0.583-3.088-0.818-4.938-0.996
	c-0.695-0.064-1.388-0.21-2.011-0.341c-1.119-0.231-2.176-0.449-3.141-0.278c-1.305,0.226-2.611,0.858-3.867,1.468l-0.966,0.457
	c-0.336,0.158-0.678,0.311-1.065,0.479c-1.25,0.555-2.542,1.126-3.535,1.952c-0.881,0.736-1.546,1.767-2.25,2.861
	c-0.275,0.428-0.564,0.87-0.87,1.303c-0.787,1.115-1.314,2.43-1.829,3.794l-0.304,0.81c-0.72,1.908-1.11,3.415-1.264,4.888
	c-0.066,0.626-0.193,1.256-0.318,1.864l0.758,0.154l-0.78-0.045c-0.233,1.139-0.454,2.214-0.299,3.199
	c0.146,0.943,0.698,1.833,1.292,2.791c0.371,0.598,0.757,1.218,1.048,1.876c0.684,1.554,1.535,2.956,2.601,4.281
	c0.354,0.439,0.676,0.897,0.988,1.339c0.704,1,1.369,1.942,2.278,2.602c1.453,1.055,3.223,1.787,4.604,2.308
	c1.489,0.562,3.169,0.933,4.998,1.106c1.433,0.136,2.84-0.121,4.328-0.389l0.723-0.128c0.367-0.065,0.707-0.137,1.046-0.209
	l0.123,1.235C181.456,81.525,179.902,89.679,178.525,94.194z M181.92,72.443c0.012-0.003,0.02-0.007,0.029-0.01
	c1.959-0.564,4.07-0.91,5.816-1.96c0.584-0.355,0.656-1.59,1.244-1.896c1.295-0.674,2.581-1.083,3.496-2.041
	c1.481-1.554,3.268-3.154,4.107-4.712c0.906-1.676,0.792-3.965,1.295-6.11c0.387-1.667,0.373-3.298,0.289-5.177
	c-0.02-0.41,0.801-0.442,0.785-0.854c-0.089-2.354-1.094-4.188-1.627-5.911c-0.176-0.567,0.492-1.364,0.338-1.95
	c-0.402-1.498-1.161-2.924-1.91-4.113c-0.615-0.987-1.48-1.955-2.435-2.85l-1.128,0.95c0.984,0.834,2.008,1.667,2.553,2.533
	c0.623,0.993,0.213,2.722,0.591,4.13c0.153,0.576,0.32,1.177,0.501,1.76c0.492,1.59,0.221,3.343,0.303,5.556
	c0.018,0.451,1.084,0.406,1.102,0.857c0.078,1.702-0.076,3.362-0.416,4.821c-0.469,2.01-1.802,3.503-2.641,5.06
	c-0.795,1.473-1.135,3.841-2.488,5.261c-0.738,0.774-1.967,1.349-3.15,1.967c-0.609,0.315-1.65-0.064-2.266,0.306
	c-1.627,0.979-2.965,2.344-4.792,2.87c-0.018,0.005-0.036,0.007-0.054,0.012c-0.053-0.171-0.107-0.344-0.162-0.518l-0.496-1.141
	c0.867-0.246,1.66-0.532,2.393-0.871c0.441-0.208,0.894-0.397,1.34-0.581c1.203-0.503,2.336-0.978,3.25-1.738
	c0.913-0.762,1.602-1.806,2.331-2.911c0.261-0.398,0.524-0.795,0.794-1.177c0.299-0.419,0.619-0.829,0.936-1.229
	c0.787-1.002,1.529-1.948,1.945-3.054c0.354-0.938,0.318-2.03,0.279-3.12c-0.02-0.67-0.04-1.362,0.029-2.038
	c0.17-1.612,0.118-3.142-0.165-4.958c-0.104-0.678-0.13-1.362-0.155-2.074c-0.039-1.099-0.076-2.137-0.468-3.025
	c-0.448-1.012-1.228-1.871-2.05-2.781c-0.367-0.401-0.746-0.82-1.102-1.265c-0.148-0.185-0.313-0.35-0.473-0.521l6.471-5.458
	l-0.896,0.756c0.135,0.313,0.273,0.628,0.423,0.937c0.44,0.909,0.249,2.225,0.81,3.141c1.051,1.725,2.997,3.226,3.82,5.964
	c0.186,0.616,0.081,0.646,0.265,1.263c0.586,1.946,1.154,3.973,1.218,5.767c0.029,0.813-0.863,1.672-0.799,2.454
	c0.145,1.77,0.309,3.32-0.005,4.692c-0.369,1.621-1.345,3.212-2.271,4.896c-0.281,0.507,0.416,1.532,0.154,2.031
	c-0.24,0.458-1.291,0.497-1.566,1.037c-0.875,1.729-1.914,3.287-3.055,4.52c-0.738,0.799-1.357,2.338-2.756,3.01
	c-0.93,0.448-2.239,0.218-3.174,0.805c-1.868,1.162-3.563,1.859-5.329,2.435C182.673,74.999,182.313,73.748,181.92,72.443z
	 M183.396,77.682c1.91-0.661,3.655-1.527,5.651-2.769c0.864-0.542,2.272-0.05,3.211-0.5c1.489-0.717,2.26-2.343,3.197-3.358
	c1.29-1.393,3.04-2.74,3.998-4.634c0.233-0.462,0.069-1.118,0.309-1.566c0.257-0.489,0.095-1.218,0.38-1.734
	c0.971-1.766,2.67-3.319,3.086-5.148c0.041-0.175,0.041-0.365,0.063-0.546c0.029,1.413-0.018,2.755-0.493,4.033
	c-0.472,1.276-1.111,2.395-1.398,3.681c-0.379,1.71-0.782,3.395-1.555,4.498c-1.023,1.46-2.942,2.32-4.611,3.599
	c-0.69,0.53-1.061,1.641-1.81,2.275c-0.658,0.559-1.61,0.79-2.255,1.374c-1.625,1.476-2.824,3.495-4.454,4.27
	c-0.685,0.326-1.499,0.391-2.376,0.388C184.063,80.328,183.752,79.041,183.396,77.682z M218.432,52.942
	c-0.109,1.386-0.135,2.762-0.159,4.091c-0.05,2.759-0.099,5.364-0.878,7.562c-0.656,1.851-2.182,3.591-3.797,5.433
	c-1.085,1.238-2.208,2.518-3.201,3.968c-2.371,3.466-4.672,6.083-7.465,8.489c-1.34,1.152-2.486,2.452-3.596,3.709
	c-1.615,1.832-3.143,3.563-4.936,4.44c-2.273,1.112-4.967,1.519-7.82,1.948c-0.151,0.022-0.307,0.048-0.457,0.07
	c-0.117-1.485-0.316-3.236-0.645-5.277c1.162-0.536,2.504-0.822,3.727-1.3c3.092-1.212,6.104-2.334,9.14-4.56
	c1.186-0.871,1.829-2.571,3.131-3.31c1.942-1.094,4.187-1.451,5.366-2.912c1.37-1.702,1.856-4.053,2.725-6.391
	c0.403-1.082,0.952-2.164,1.441-3.271c1.203-2.725,1.979-5.46,2.463-8.756c0.08-0.541-0.264-0.591-0.182-1.133
	c0.135-0.895,0.962-1.665,1.129-2.583c0.475-2.581,0.709-5.154,0.417-7.637c-0.392-3.328-1.22-6.537-2.646-10.078
	c-0.555-1.367-0.857-2.731-1.24-4.089c-0.621-2.226-2.201-3.864-3.353-5.376c-0.476-0.625-1.011-1.225-1.573-1.81l-0.699,0.59
	c0.577,0.578,1.109,1.165,1.563,1.762c0.973,1.278,1.193,3.397,1.773,5.477c0.393,1.397,1.123,2.735,1.709,4.181
	c1.381,3.423,1.713,6.466,2.086,9.623c0.264,2.253,0.06,4.462-0.4,6.956c-0.164,0.904-0.568,1.784-0.706,2.696
	c-0.083,0.549-0.151,0.539-0.231,1.09c-0.467,3.169,0.193,6.194-0.928,8.729c-0.505,1.15-1.137,2.184-1.549,3.289
	c-0.822,2.214-1.347,4.616-2.56,6.12c-0.993,1.231-3.554,1.16-5.451,2.229c-1.259,0.712-2.399,1.808-3.661,2.732
	c-2.922,2.144-5.291,4.028-8.251,5.191c-1.121,0.438-2.394,0.538-3.525,0.881c-0.166-0.925-0.36-1.903-0.58-2.933
	c0.9-0.126,1.762-0.316,2.548-0.691c1.834-0.872,3.699-2.107,5.412-3.66c0.631-0.575,1.184-1.218,1.828-1.765
	c0.709-0.6,1.552-1.007,2.268-1.556c1.768-1.354,3.209-2.982,4.367-4.636c0.951-1.356,1.116-3.21,1.541-5.119
	c0.264-1.188,0.39-2.494,0.828-3.672c0.984-2.651,1.191-5.225,1.498-8.434c0.12-1.248,0.475-2.514,0.742-3.751
	c0.41-1.865,1.209-3.477,0.945-5.074c-0.305-1.849-1.711-3.327-2.709-5.218c-0.461-0.869-0.374-2.068-0.799-3.005
	c-1-2.206-2.543-3.925-4.256-5.961l9.758-8.229c2.481,2.874,4.465,5.494,5.959,8.549c1.19,2.434,1.619,5.15,2.071,8.027
	c0.163,1.033,0.327,2.066,0.522,3.094l0.236,1.221C218.079,46.541,218.688,49.685,218.432,52.942z"/>
</svg>
