<?xml version="1.0" encoding="utf-8"?>
<!-- Generator: Adobe Illustrator 16.0.3, SVG Export Plug-In . SVG Version: 6.00 Build 0)  -->
<!DOCTYPE svg PUBLIC "-//W3C//DTD SVG 1.1//EN" "http://www.w3.org/Graphics/SVG/1.1/DTD/svg11.dtd">
<svg version="1.1" id="Capa_1" xmlns="http://www.w3.org/2000/svg" xmlns:xlink="http://www.w3.org/1999/xlink" x="0px" y="0px"
	 width="20px" height="20px" viewBox="170.181 0.18 20 20" enable-background="new 170.181 0.18 20 20" xml:space="preserve">
<g>
	<path fill="#FFFFFF" d="M179.861,0.18c0.213,0,0.427,0,0.64,0c0.02,0.002,0.039,0.007,0.059,0.007
		c0.4,0.014,0.798,0.053,1.193,0.115c0.568,0.09,1.125,0.228,1.669,0.416c1.378,0.477,2.598,1.218,3.652,2.225
		c1.128,1.075,1.962,2.345,2.5,3.808c0.338,0.917,0.533,1.864,0.589,2.84c0.005,0.093,0.012,0.186,0.018,0.278
		c0,0.207,0,0.414,0,0.62c-0.003,0.028-0.007,0.056-0.008,0.083c-0.017,0.455-0.065,0.907-0.146,1.355
		c-0.195,1.096-0.563,2.131-1.105,3.103c-0.504,0.903-1.132,1.709-1.884,2.419c-0.71,0.67-1.501,1.225-2.372,1.664
		c-0.674,0.34-1.378,0.601-2.111,0.78c-0.585,0.143-1.179,0.233-1.78,0.267c-0.095,0.005-0.188,0.012-0.284,0.018
		c-0.207,0-0.413,0-0.62,0c-0.023-0.003-0.046-0.006-0.069-0.008c-0.304-0.024-0.608-0.04-0.911-0.076
		c-0.53-0.063-1.05-0.177-1.561-0.33c-0.981-0.294-1.897-0.728-2.745-1.303c-0.826-0.561-1.554-1.229-2.182-2.005
		c-0.877-1.088-1.503-2.305-1.873-3.653c-0.183-0.667-0.293-1.346-0.332-2.037c-0.005-0.089-0.012-0.179-0.018-0.269
		c0-0.213,0-0.426,0-0.64c0.002-0.023,0.007-0.045,0.008-0.068c0.015-0.405,0.056-0.808,0.12-1.208
		c0.141-0.876,0.393-1.719,0.762-2.525c0.728-1.59,1.797-2.904,3.204-3.943c0.757-0.56,1.58-1,2.463-1.325
		c0.925-0.341,1.88-0.539,2.864-0.593C179.688,0.193,179.774,0.186,179.861,0.18z M171.434,10.506
		c0.006,0.465,0.09,1.155,0.267,1.832c0.503,1.924,1.542,3.5,3.1,4.731c0.793,0.627,1.675,1.095,2.635,1.415
		c0.036,0.012,0.058,0.01,0.086-0.019c0.249-0.251,0.5-0.5,0.749-0.75c0.024-0.024,0.047-0.035,0.083-0.035
		c1.218,0.001,2.436,0.001,3.655,0c0.034,0,0.059,0.01,0.083,0.034c0.25,0.252,0.501,0.502,0.751,0.754
		c0.024,0.024,0.045,0.029,0.078,0.018c0.601-0.2,1.173-0.46,1.717-0.784c1.041-0.62,1.92-1.417,2.629-2.398
		c0.972-1.342,1.518-2.842,1.643-4.495c0.053-0.688,0.013-1.372-0.103-2.051c-0.008-0.05-0.026-0.068-0.074-0.078
		c-0.542-0.119-1.082-0.241-1.623-0.361c-0.04-0.009-0.062-0.028-0.079-0.064c-0.397-0.798-0.797-1.596-1.197-2.393
		c-0.021-0.041-0.021-0.075-0.007-0.118c0.187-0.554,0.37-1.107,0.556-1.661c0.014-0.039,0.007-0.062-0.022-0.09
		c-0.616-0.612-1.306-1.125-2.072-1.535c-0.986-0.527-2.036-0.851-3.146-0.975c-0.592-0.065-1.184-0.068-1.777-0.014
		c-0.549,0.051-1.088,0.152-1.616,0.307c-1.434,0.421-2.678,1.162-3.74,2.212c-0.033,0.033-0.039,0.06-0.024,0.104
		c0.187,0.555,0.372,1.11,0.558,1.665c0.011,0.034,0.01,0.062-0.007,0.095c-0.198,0.394-0.395,0.788-0.592,1.183
		c-0.205,0.41-0.409,0.819-0.615,1.228c-0.01,0.02-0.03,0.043-0.049,0.048c-0.162,0.039-0.324,0.075-0.487,0.111
		c-0.395,0.088-0.789,0.177-1.184,0.265c-0.027,0.006-0.042,0.015-0.047,0.046C171.475,9.241,171.425,9.755,171.434,10.506z"/>
	<path fill="#FFFFFF" d="M177.057,4.554c0.106-0.063,0.208-0.125,0.311-0.186c0.926-0.554,1.852-1.107,2.777-1.662
		c0.026-0.016,0.045-0.016,0.072,0c1.013,0.606,2.025,1.212,3.039,1.818c0.015,0.009,0.03,0.02,0.048,0.031
		c-0.006,0.016-0.01,0.03-0.015,0.043c-0.405,1.012-0.81,2.023-1.214,3.035c-0.014,0.034-0.028,0.048-0.067,0.048
		c-1.218-0.001-2.436-0.001-3.654,0c-0.03,0-0.05-0.003-0.063-0.038c-0.406-1.019-0.813-2.036-1.22-3.054
		C177.066,4.58,177.063,4.57,177.057,4.554z"/>
	<path fill="#FFFFFF" d="M178.931,13.307c-0.219,0.218-0.437,0.435-0.653,0.651c-0.6,0.6-1.2,1.199-1.798,1.8
		c-0.038,0.038-0.062,0.041-0.107,0.013c-1.008-0.607-2.018-1.212-3.028-1.817c-0.029-0.018-0.038-0.034-0.031-0.067
		c0.203-1.013,0.406-2.027,0.608-3.041c0.006-0.029,0.017-0.044,0.049-0.05c0.598-0.118,1.195-0.238,1.792-0.357
		c0.405-0.081,0.81-0.162,1.214-0.243c0.079-0.016,0.079-0.017,0.12,0.051c0.597,0.995,1.194,1.99,1.791,2.985
		C178.901,13.255,178.914,13.278,178.931,13.307z"/>
	<path fill="#FFFFFF" d="M183.938,15.8c-0.835-0.834-1.666-1.667-2.502-2.502c0.081-0.136,0.167-0.279,0.252-0.421
		c0.528-0.879,1.056-1.758,1.582-2.639c0.026-0.043,0.049-0.058,0.101-0.047c0.399,0.083,0.8,0.162,1.199,0.242
		c0.596,0.119,1.191,0.239,1.787,0.356c0.055,0.011,0.079,0.029,0.09,0.087c0.174,0.878,0.35,1.756,0.525,2.634
		c0.025,0.125,0.05,0.251,0.076,0.376c0.007,0.03,0.003,0.048-0.026,0.065c-1.021,0.611-2.042,1.224-3.063,1.836
		C183.95,15.793,183.941,15.797,183.938,15.8z"/>
</g>
</svg>
