<?xml version="1.0" encoding="utf-8"?>
<!-- Generator: Adobe Illustrator 16.0.3, SVG Export Plug-In . SVG Version: 6.00 Build 0)  -->
<!DOCTYPE svg PUBLIC "-//W3C//DTD SVG 1.1//EN" "http://www.w3.org/Graphics/SVG/1.1/DTD/svg11.dtd">
<svg version="1.1" id="Layer_1" xmlns="http://www.w3.org/2000/svg" xmlns:xlink="http://www.w3.org/1999/xlink" x="0px" y="0px"
	 width="360px" height="360px" viewBox="0 0 360 360" enable-background="new 0 0 360 360" xml:space="preserve">
<g id="NavBar_Icon_3_">
	<linearGradient id="SVGID_1_" gradientUnits="userSpaceOnUse" x1="12.7437" y1="129.2964" x2="357.0665" y2="234.3785">
		<stop  offset="0" style="stop-color:#707171"/>
		<stop  offset="0.3763" style="stop-color:#171617"/>
		<stop  offset="0.6075" style="stop-color:#171617"/>
		<stop  offset="1" style="stop-color:#707171"/>
	</linearGradient>
	<path fill="url(#SVGID_1_)" d="M179.293,360.124c-6.325,0-21.412-0.611-24.891-6.256c-1.688-2.751-10.196-39.302-13.197-52.52
		c-6.992-2.309-13.804-5.274-20.301-8.822c-11.634,7.328-43.702,27.293-46.862,28.051c-0.469,0.116-0.973,0.172-1.481,0.172
		c-6.682,0-17.416-10.217-20.546-13.347c-4.474-4.474-14.712-15.574-13.175-22.028c0.724-3.014,19.483-33.295,29.089-48.493
		c-2.854-5.826-5.274-11.884-7.216-18.071c-17.67-3.982-52.502-12.159-55.159-13.795c-5.645-3.475-6.256-18.565-6.256-24.895
		c0-6.321,0.611-21.412,6.256-24.886c2.64-1.623,37.291-9.765,54.901-13.735c1.938-6.338,4.375-12.525,7.259-18.467
		c-9.541-15.1-28.159-45.166-28.874-48.158c-1.537-6.458,8.702-17.558,13.175-22.027c3.13-3.135,13.864-13.348,20.546-13.348
		c0.508,0,1.012,0.061,1.481,0.172c3.35,0.796,37.623,22.247,46.199,27.638c6.755-3.75,13.855-6.85,21.158-9.249
		c2.205-9.645,11.216-48.774,13.003-51.676c3.479-5.649,18.566-6.26,24.891-6.26s21.417,0.611,24.891,6.26
		c1.791,2.902,10.807,42.031,13.003,51.676c7.302,2.398,14.402,5.499,21.157,9.249c8.581-5.391,42.85-26.841,46.204-27.638
		c0.469-0.112,0.964-0.172,1.485-0.172c6.682,0,17.411,10.213,20.542,13.348c4.469,4.469,14.703,15.569,13.175,22.023
		c-0.71,2.993-19.332,33.063-28.869,48.163c2.881,5.942,5.309,12.129,7.255,18.467c17.602,3.97,52.253,12.107,54.905,13.735
		c5.645,3.475,6.256,18.565,6.256,24.886c0,6.33-0.611,21.42-6.256,24.895c-2.661,1.636-37.498,9.809-55.159,13.795
		c-1.946,6.188-4.37,12.245-7.216,18.071c9.601,15.198,28.365,45.479,29.084,48.493c1.537,6.454-8.706,17.555-13.175,22.028
		c-3.131,3.13-13.86,13.347-20.542,13.347l0,0c-0.521,0-1.017-0.056-1.485-0.172c-3.165-0.758-35.233-20.723-46.858-28.051
		c-6.506,3.556-13.317,6.514-20.306,8.822c-3.005,13.218-11.509,49.769-13.2,52.52C200.71,359.513,185.618,360.124,179.293,360.124z
		"/>
	<linearGradient id="SVGID_2_" gradientUnits="userSpaceOnUse" x1="22.0771" y1="246.8242" x2="331.8231" y2="115.4099">
		<stop  offset="0.0376" style="stop-color:#707171"/>
		<stop  offset="0.4946" style="stop-color:#171617"/>
		<stop  offset="0.6183" style="stop-color:#171617"/>
		<stop  offset="0.9086" style="stop-color:#707171"/>
	</linearGradient>
	<path fill="url(#SVGID_2_)" d="M351.04,158.476c-1.412-0.866-27.242-7.324-55.922-13.748c-2.195-7.643-5.089-14.979-8.606-21.924
		c15.616-24.65,29.145-47.211,29.527-48.817c0.715-2.997-4.572-10.858-12.158-18.449c-7.591-7.586-15.453-12.874-18.454-12.159
		c-1.555,0.371-23.057,13.244-46.979,28.37c-7.677-4.452-15.884-8.06-24.49-10.716c-6.174-27.345-12.185-51.289-13.016-52.649
		c-1.619-2.631-10.915-4.443-21.649-4.443s-20.025,1.813-21.64,4.443c-0.84,1.36-6.846,25.304-13.021,52.649
		c-8.607,2.656-16.813,6.265-24.495,10.716C96.221,56.622,74.724,43.749,73.161,43.382c-3.001-0.719-10.863,4.568-18.45,12.155
		C47.12,63.128,41.837,70.99,42.552,73.986c0.379,1.606,13.907,24.167,29.528,48.817c-3.518,6.945-6.415,14.281-8.607,21.924
		c-28.679,6.424-54.504,12.882-55.921,13.752c-2.622,1.619-4.443,10.906-4.443,21.64c0,10.743,1.821,20.034,4.443,21.649
		c1.417,0.869,27.379,7.371,56.158,13.813c2.213,7.491,5.103,14.69,8.59,21.515c-15.711,24.783-29.364,47.556-29.748,49.161
		c-0.714,2.997,4.568,10.859,12.159,18.45c7.586,7.586,15.449,12.873,18.45,12.158c1.576-0.37,23.444-13.477,47.62-28.77
		c7.444,4.241,15.367,7.711,23.668,10.286c6.234,27.689,12.361,52.11,13.206,53.484c1.614,2.626,10.906,4.438,21.64,4.438
		s20.03-1.813,21.649-4.438c0.844-1.374,6.966-25.795,13.201-53.484c8.297-2.575,16.223-6.045,23.663-10.286
		c24.181,15.293,46.049,28.399,47.62,28.77c3.001,0.715,10.863-4.572,18.454-12.158c7.586-7.591,12.873-15.453,12.158-18.45
		c-0.383-1.605-14.036-24.378-29.747-49.161c3.487-6.824,6.377-14.023,8.59-21.52c28.774-6.437,54.746-12.938,56.158-13.808
		c2.626-1.615,4.447-10.906,4.447-21.649C355.487,169.386,353.666,160.099,351.04,158.476z"/>
	<linearGradient id="SVGID_3_" gradientUnits="userSpaceOnUse" x1="162.0186" y1="73.9834" x2="196.9673" y2="287.9109">
		<stop  offset="0.043" style="stop-color:#1E1E1E"/>
		<stop  offset="0.3387" style="stop-color:#707171"/>
		<stop  offset="0.5591" style="stop-color:#B0B1B1"/>
		<stop  offset="1" style="stop-color:#434343"/>
	</linearGradient>
	<path fill="url(#SVGID_3_)" d="M169.524,290.507c-59.34-5.235-103.231-59.185-97.841-120.269
		c5.391-61.083,58.053-106.516,117.384-101.281c59.34,5.236,103.227,59.189,97.841,120.273
		C281.518,250.31,228.855,295.742,169.524,290.507z"/>
	<radialGradient id="SVGID_4_" cx="179.2979" cy="179.7344" r="100.7346" gradientUnits="userSpaceOnUse">
		<stop  offset="0" style="stop-color:#171617"/>
		<stop  offset="1" style="stop-color:#2E2E2E"/>
	</radialGradient>
	<path fill="url(#SVGID_4_)" d="M278.435,179.732c0,56.507-44.387,102.31-99.141,102.31c-54.746,0-99.132-45.803-99.132-102.31
		c0-56.502,44.387-102.306,99.132-102.306C234.048,77.427,278.435,123.23,278.435,179.732z"/>
	<radialGradient id="SVGID_5_" cx="181.5186" cy="174.4863" r="100.6635" gradientUnits="userSpaceOnUse">
		<stop  offset="0.1129" style="stop-color:#FFFFFF"/>
		<stop  offset="0.5269" style="stop-color:#39A6B7"/>
		<stop  offset="0.8441" style="stop-color:#076677"/>
	</radialGradient>
	<path fill-rule="evenodd" clip-rule="evenodd" fill="url(#SVGID_5_)" d="M211.529,266.387c0,0,5.542-5.998,7.393-14.079
		c5.998-3.238,12.702-3.932,19.63-6.234c6.923-2.316,15.707-4.857,17.777-6.933c2.08-2.075,2.773-3.461,2.308-9.924
		c-0.46-6.472-2.535-5.778-3.461-6.7c-0.917-0.926-0.465-2.769,0.693-5.545c1.149-2.765,1.382-4.155-2.08-7.617
		c1.848-2.084,4.994-4.387,4.994-4.387s-1.067-6.468-1.765-8.314c-0.689-1.847,0.284-3.001,1.765-3.233
		c1.473-0.232,10.016-2.773,9.326-7.625c-0.688-4.844-7.621-10.157-11.78-14.777c-4.159-4.616-8.546-8.775-6.238-13.162
		c2.312-4.388,2.54-5.77-0.229-11.078c-2.772-5.313-2.772-10.166-4.15-15.247c-1.396-5.081-17.094-42.259-68.36-42.259
		c-51.262,0-74.818,42.953-74.818,68.588c0,25.635,9.468,37.868,20.322,56.576c10.854,18.703,13.395,23.091,13.627,33.94
		c0.224,10.859,7.389,18.011,7.389,18.011s14.777,9.24,32.094,9.24C193.287,275.627,211.529,266.387,211.529,266.387z"/>
	<g>
		<g>
			<path fill="#020202" d="M116.992,187.443c-0.564,0-0.848-0.293-0.848-0.878v-2.084c0-0.586,0.284-0.878,0.848-0.878h18.269
				l-15.336-7.2c-0.827-0.387-1.499-0.801-2.02-1.223c-0.521-0.417-0.93-0.865-1.223-1.334c-0.297-0.47-0.487-0.96-0.59-1.486
				c-0.095-0.517-0.146-1.068-0.146-1.658c0-0.714,0.133-1.403,0.392-2.066c0.263-0.663,0.659-1.249,1.193-1.761
				c0.525-0.512,1.188-0.904,1.98-1.201c0.801-0.292,1.714-0.443,2.755-0.443h23.974c0.586,0,0.878,0.284,0.878,0.848v2.088
				c0,0.585-0.292,0.878-0.878,0.878h-17.653l15.302,7.194c0.853,0.392,1.528,0.801,2.041,1.223c0.508,0.427,0.913,0.87,1.201,1.339
				c0.297,0.465,0.491,0.96,0.59,1.494c0.095,0.534,0.142,1.093,0.142,1.679c0,0.714-0.125,1.403-0.388,2.066
				s-0.659,1.249-1.188,1.761c-0.529,0.508-1.192,0.908-1.972,1.201c-0.779,0.297-1.692,0.439-2.734,0.439H116.992z"/>
			<path fill="#020202" d="M161.154,187.443c-0.414,0-0.62-0.143-0.62-0.422v-17.976h-9.511c-0.413,0-0.616-0.125-0.616-0.357
				v-3.031c0-0.284,0.203-0.426,0.616-0.426h31.948c0.418,0,0.615,0.142,0.615,0.426v3.031c0,0.232-0.197,0.357-0.615,0.357h-9.537
				v17.976c0,0.279-0.198,0.422-0.59,0.422H161.154z"/>
			<path fill="#020202" d="M217.334,187.443c-0.582,0-0.883-0.293-0.883-0.878v-8.241l-9.18,8.241
				c-0.332,0.302-0.663,0.529-1.012,0.671c-0.349,0.139-0.685,0.207-1.008,0.207h-1.895c-0.322,0-0.68-0.068-1.059-0.207
				c-0.375-0.142-0.75-0.369-1.124-0.671l-10.29-8.241v8.241c0,0.585-0.293,0.878-0.879,0.878h-3.022
				c-0.59,0-0.883-0.293-0.883-0.878v-20.486c0-0.564,0.293-0.848,0.883-0.848h2.794c0.72,0,1.408,0.284,2.089,0.848l15.276,13.813
				l16.313-13.813c0.349-0.301,0.715-0.521,1.103-0.65c0.392-0.133,0.796-0.198,1.21-0.198h2.342c0.59,0,0.883,0.284,0.883,0.848
				v20.486c0,0.585-0.293,0.878-0.883,0.878H217.334z"/>
			<path fill="#020202" d="M234.108,187.443c-0.568,0-0.844-0.293-0.844-0.878v-20.486c0-0.564,0.275-0.848,0.844-0.848h11.237
				c0.564,0,0.844,0.284,0.844,0.848v20.486c0,0.585-0.279,0.878-0.844,0.878H234.108z"/>
		</g>
	</g>
	<polyline fill="none" stroke="#020202" stroke-width="1.0167" stroke-miterlimit="10" points="147.333,183.951 164.65,268.927 
		188.899,268.927 212.916,180.253 	"/>
	<g>
		<defs>
			<path id="SVGID_6_" d="M179.703,267.554c-15.052,0-36.159-1.516-36.159-1.516s0.233,1.175,1.748,2.02
				c0.422,2.527,0.336,8.435,0.086,9.7c-0.672,0.59-0.93,2.867-0.336,3.457c0.585,0.59,1.714,1.18,2.291,1.77
				c0.069,0.763,0.741,2.786,0.323,4.561c-0.844,0.331-2.868,1.089-2.868,2.101s1.042,1.52,2.458,1.774
				c0.155,0.671,0.831,3.457,0.491,5.48c-1.348,0.254-2.613,0.84-2.613,1.774c0,0.926,1.296,2.105,2.208,2.359
				c0.241,0.671,0.439,3.621,0,4.383c-0.689,0.422-2.544,1.348-2.544,2.359s1.382,1.688,2.544,1.778
				c0.151,0.754,0.577,3.199,0.405,4.211c-0.164,1.016,11.556,10.962,11.556,10.962s6.239,4.642,7.509,7.845
				c1.851,0.254,17.958,0.676,22.005,0c1.012-1.516,6.071-7.423,7.841-8.512c1.774-1.103,13.412-11.221,13.412-12.064
				s-0.844-2.109-1.77-2.109c-0.422-0.509-0.422-1.856-0.254-2.523c0.59-0.513,2.867-2.7,2.867-3.634
				c0-0.922-1.855-2.527-3.035-2.609c-0.086-0.767-0.082-2.958,0.168-3.712c0.59-0.508,2.953-1.773,2.867-2.531
				c-0.082-0.762-2.023-2.867-2.949-3.122c0-0.925,0-2.522,0.168-2.867c0.168-0.331,2.781-2.277,2.781-2.695
				c0-0.422-1.266-2.282-2.613-2.781c-0.168-1.017-0.254-2.45,0-3.13c0.249-0.668,2.536-2.364,2.536-3.707
				c0-1.344-2.2-2.868-2.2-3.458s-1.176-5.003,2.277-6.428C205.506,267.472,194.751,267.554,179.703,267.554z"/>
		</defs>
		<clipPath id="SVGID_7_">
			<use xlink:href="#SVGID_6_"  overflow="visible"/>
		</clipPath>
		<g transform="matrix(1 0 0 1 0 9.536743e-007)" clip-path="url(#SVGID_7_)">
			
				<image overflow="visible" width="640" height="832" xlink:href="61185EC.jpg"  transform="matrix(0.7061 0 0 0.7061 -42.3892 -14.8984)">
			</image>
		</g>
	</g>
</g>
</svg>
