<?xml version="1.0" encoding="utf-8"?>
<!-- Generator: Adobe Illustrator 16.0.3, SVG Export Plug-In . SVG Version: 6.00 Build 0)  -->
<!DOCTYPE svg PUBLIC "-//W3C//DTD SVG 1.1//EN" "http://www.w3.org/Graphics/SVG/1.1/DTD/svg11.dtd">
<svg version="1.1" id="Layer_1" xmlns="http://www.w3.org/2000/svg" xmlns:xlink="http://www.w3.org/1999/xlink" x="0px" y="0px"
	 width="25px" height="16.921px" viewBox="167.591 57.78 25 16.921" enable-background="new 167.591 57.78 25 16.921"
	 xml:space="preserve">
<path fill="#FFFFFF" d="M167.591,72.426c4.028,0,11.645,2.276,11.645,2.276V60.056c0,0-7.931-2.275-11.645-2.275V72.426z
	 M168.49,59.327c3.431,0,9.705,1.862,9.97,1.942c0.232,0.07,0.364,0.314,0.294,0.545c-0.057,0.19-0.231,0.313-0.419,0.313
	c-0.042,0-0.084-0.006-0.125-0.019c-0.064-0.019-6.417-1.905-9.72-1.905c-0.241,0-0.438-0.197-0.438-0.438
	C168.052,59.523,168.249,59.327,168.49,59.327z M168.49,61.135c1.349,0,3.292,0.286,5.776,0.852
	c0.236,0.054,0.384,0.289,0.331,0.524c-0.046,0.204-0.227,0.342-0.427,0.342c-0.032,0-0.065-0.004-0.098-0.012
	c-2.387-0.542-4.317-0.83-5.582-0.83c-0.241,0-0.438-0.196-0.438-0.438C168.052,61.331,168.249,61.135,168.49,61.135z
	 M168.49,62.942c3.431,0,9.705,1.863,9.97,1.942c0.232,0.069,0.364,0.313,0.294,0.545c-0.057,0.19-0.231,0.313-0.419,0.313
	c-0.042,0-0.084-0.006-0.125-0.019c-0.064-0.019-6.417-1.906-9.72-1.906c-0.241,0-0.438-0.196-0.438-0.438
	C168.052,63.138,168.249,62.942,168.49,62.942z M168.49,64.749c3.431,0,9.705,1.863,9.97,1.942c0.232,0.069,0.364,0.313,0.294,0.546
	c-0.057,0.19-0.231,0.313-0.419,0.313c-0.042,0-0.084-0.006-0.125-0.019c-0.064-0.02-6.417-1.905-9.72-1.905
	c-0.241,0-0.438-0.197-0.438-0.439C168.052,64.946,168.249,64.749,168.49,64.749z M168.49,66.557c3.431,0,9.705,1.863,9.97,1.942
	c0.232,0.069,0.364,0.313,0.294,0.545c-0.057,0.19-0.231,0.313-0.419,0.313c-0.042,0-0.084-0.005-0.125-0.019
	c-0.064-0.019-6.417-1.905-9.72-1.905c-0.241,0-0.438-0.196-0.438-0.438C168.052,66.753,168.249,66.557,168.49,66.557z
	 M168.49,68.364c3.431,0,9.705,1.863,9.97,1.942c0.232,0.069,0.364,0.313,0.294,0.545c-0.057,0.19-0.231,0.313-0.419,0.313
	c-0.042,0-0.084-0.006-0.125-0.019c-0.064-0.019-6.417-1.906-9.72-1.906c-0.241,0-0.438-0.196-0.438-0.438
	C168.052,68.561,168.249,68.364,168.49,68.364z M168.49,70.172c1.224,0,2.945,0.237,5.117,0.706
	c0.237,0.051,0.387,0.284,0.336,0.521c-0.044,0.206-0.226,0.347-0.428,0.347c-0.031,0-0.062-0.004-0.093-0.01
	c-2.112-0.456-3.771-0.686-4.933-0.686c-0.241,0-0.438-0.197-0.438-0.438C168.052,70.368,168.249,70.172,168.49,70.172z
	 M180.946,60.056v14.646c0,0,7.616-2.276,11.645-2.276V57.78C188.877,57.78,180.946,60.056,180.946,60.056z M191.776,69.241
	c-3.302,0-9.654,1.887-9.718,1.906c-0.043,0.013-0.084,0.019-0.126,0.019c-0.188,0-0.363-0.123-0.42-0.313
	c-0.069-0.232,0.063-0.477,0.294-0.545c0.266-0.08,6.54-1.942,9.97-1.942c0.242,0,0.438,0.197,0.438,0.438
	C192.215,69.045,192.02,69.241,191.776,69.241z M191.776,67.434c-3.302,0-9.654,1.887-9.718,1.905
	c-0.043,0.013-0.084,0.019-0.126,0.019c-0.188,0-0.363-0.123-0.42-0.313c-0.069-0.232,0.063-0.477,0.294-0.546
	c0.266-0.079,6.54-1.942,9.97-1.942c0.242,0,0.438,0.196,0.438,0.438C192.216,67.238,192.02,67.434,191.776,67.434z M191.776,65.626
	c-3.302,0-9.654,1.886-9.718,1.905c-0.043,0.012-0.084,0.019-0.126,0.019c-0.188,0-0.363-0.123-0.42-0.313
	c-0.069-0.232,0.063-0.477,0.294-0.546c0.266-0.079,6.54-1.942,9.97-1.942c0.242,0,0.438,0.197,0.438,0.439
	C192.215,65.43,192.02,65.626,191.776,65.626z M191.776,62.011c-3.302,0-9.654,1.887-9.718,1.906
	c-0.043,0.013-0.084,0.018-0.126,0.018c-0.188,0-0.363-0.123-0.42-0.313c-0.069-0.232,0.063-0.477,0.294-0.545
	c0.266-0.08,6.54-1.942,9.97-1.942c0.242,0,0.438,0.196,0.438,0.438C192.215,61.815,192.02,62.011,191.776,62.011z M191.776,60.204
	c-3.302,0-9.654,1.887-9.718,1.905c-0.043,0.012-0.084,0.019-0.126,0.019c-0.188,0-0.363-0.123-0.42-0.313
	c-0.069-0.231,0.063-0.476,0.294-0.545c0.266-0.08,6.54-1.942,9.97-1.942c0.242,0,0.438,0.196,0.438,0.438
	C192.216,60.007,192.02,60.204,191.776,60.204z"/>
</svg>
