<?xml version="1.0" encoding="utf-8"?>
<!-- Generator: Adobe Illustrator 16.0.3, SVG Export Plug-In . SVG Version: 6.00 Build 0)  -->
<!DOCTYPE svg PUBLIC "-//W3C//DTD SVG 1.1//EN" "http://www.w3.org/Graphics/SVG/1.1/DTD/svg11.dtd">
<svg version="1.1" id="Layer_1" xmlns="http://www.w3.org/2000/svg" xmlns:xlink="http://www.w3.org/1999/xlink" x="0px" y="0px"
	 width="17.086px" height="25px" viewBox="171.183 0.271 17.086 25" enable-background="new 171.183 0.271 17.086 25"
	 xml:space="preserve">
<g>
	<path fill="#FFFFFF" d="M182.292,9.17c-0.232,3.811-1.95,6.747-5.212,8.733c-1.487,0.906-3.137,1.364-4.885,1.411
		c-0.206,0.006-0.473-0.069-0.606-0.208c-0.117-0.123-0.146-0.398-0.109-0.585c0.055-0.286,0.3-0.38,0.59-0.392
		c1.674-0.072,3.239-0.521,4.652-1.428c1.995-1.282,3.347-3.052,4.006-5.343c0.239-0.832,0.366-1.674,0.353-2.539
		c-0.011-0.764-0.589-1.362-1.341-1.386c-0.742-0.024-1.392,0.587-1.405,1.357c-0.019,1.115-0.253,2.172-0.796,3.152
		c-0.8,1.445-1.973,2.461-3.527,3.032c-0.666,0.245-1.35,0.383-2.062,0.383c-0.514,0-0.751-0.168-0.763-0.561
		c-0.012-0.427,0.21-0.622,0.73-0.637c1.253-0.036,2.368-0.458,3.315-1.271c1.233-1.06,1.884-2.422,1.893-4.049
		c0.009-1.49,1.171-2.571,2.489-2.614c1.498-0.049,2.672,1.108,2.678,2.606C182.292,8.943,182.292,9.057,182.292,9.17z"/>
	<path fill="#FFFFFF" d="M186.291,10.688c0,0.734-0.011,1.469,0.003,2.202c0.013,0.647,0.541,1.194,1.185,1.26
		c0.111,0.012,0.229,0.015,0.336,0.045c0.289,0.08,0.455,0.34,0.421,0.638c-0.034,0.301-0.249,0.5-0.556,0.518
		c-1.255,0.07-2.371-0.84-2.575-2.116c-0.042-0.271-0.043-0.549-0.044-0.824c-0.004-1.139,0.002-2.278-0.002-3.417
		c-0.007-2.21-0.977-3.866-2.906-4.931c-0.947-0.523-1.987-0.667-3.066-0.574c-0.204,0.018-0.475-0.04-0.613-0.17
		c-0.127-0.119-0.187-0.397-0.151-0.581c0.048-0.25,0.27-0.409,0.546-0.433c2.771-0.234,4.949,0.772,6.455,3.129
		c0.638,0.997,0.919,2.117,0.948,3.296c0.018,0.652,0.004,1.305,0.004,1.957C186.28,10.688,186.286,10.688,186.291,10.688z"/>
	<path fill="#FFFFFF" d="M171.185,8.374c0.271-3.109,1.697-5.492,4.434-7.045c1.316-0.746,2.747-1.082,4.25-1.057
		c1.459,0.024,2.834,0.412,4.105,1.142c0.391,0.224,0.495,0.558,0.294,0.906c-0.175,0.306-0.551,0.36-0.953,0.124
		c-1.145-0.67-2.386-0.969-3.704-0.955c-3.145,0.036-5.984,2.134-6.883,5.135c-0.205,0.685-0.251,1.418-0.342,2.133
		c-0.053,0.422-0.252,0.659-0.629,0.65c-0.329-0.008-0.557-0.233-0.57-0.568C171.18,8.684,171.185,8.528,171.185,8.374z"/>
	<path fill="#FFFFFF" d="M175.117,8.891c0.098-2.005,0.987-3.518,2.859-4.301c2.281-0.955,4.886,0.081,5.895,2.346
		c0.096,0.216,0.178,0.44,0.244,0.667c0.126,0.43-0.022,0.762-0.367,0.859c-0.382,0.108-0.668-0.074-0.793-0.521
		c-0.239-0.852-0.734-1.51-1.478-1.983c-2.058-1.31-4.84,0.037-5.09,2.462c-0.028,0.278-0.038,0.558-0.067,0.835
		c-0.042,0.394-0.297,0.613-0.661,0.58c-0.333-0.03-0.547-0.292-0.542-0.666C175.118,9.077,175.117,8.984,175.117,8.891z"/>
	<path fill="#FFFFFF" d="M180.016,17.962c1.483,0.047,2.777,0.449,3.981,1.167c0.798,0.475,1.659,0.785,2.587,0.893
		c0.431,0.05,0.68,0.337,0.632,0.723c-0.042,0.342-0.355,0.538-0.769,0.485c-1.273-0.16-2.4-0.69-3.519-1.294
		c-1.566-0.844-3.208-1.042-4.886-0.294c-0.725,0.323-1.439,0.668-2.169,0.977c-0.303,0.128-0.652-0.043-0.756-0.311
		c-0.125-0.319,0.006-0.664,0.32-0.808c0.748-0.343,1.501-0.677,2.25-1.018C178.453,18.132,179.264,18.005,180.016,17.962z"/>
	<path fill="#FFFFFF" d="M186.987,10.503c0-0.858,0.07-1.723-0.015-2.573c-0.167-1.681-0.916-3.108-2.099-4.313
		c-0.396-0.405-0.305-0.929,0.217-1.059c0.18-0.045,0.468,0.046,0.604,0.179c0.969,0.943,1.668,2.061,2.104,3.346
		c0.338,0.993,0.449,2.012,0.447,3.053c-0.002,1.205,0.017,2.411,0.022,3.616c0.002,0.325-0.329,0.66-0.631,0.65
		c-0.319-0.01-0.61-0.331-0.609-0.666c0.001-0.745,0-1.489,0-2.234C187.016,10.503,187.002,10.503,186.987,10.503z"/>
	<path fill="#FFFFFF" d="M171.854,11.41c-0.369,0-0.646-0.229-0.666-0.548c-0.025-0.404,0.165-0.613,0.602-0.665
		c0.878-0.103,1.341-0.624,1.375-1.492c0.104-2.619,1.333-4.535,3.64-5.765c0.338-0.18,0.672-0.078,0.848,0.242
		c0.167,0.303,0.053,0.647-0.293,0.827c-1.293,0.669-2.231,1.67-2.683,3.054c-0.198,0.608-0.27,1.271-0.308,1.914
		C174.292,10.257,173.13,11.413,171.854,11.41z"/>
	<path fill="#FFFFFF" d="M180.144,21.875c0.465,0.147,0.968,0.262,1.433,0.464c0.631,0.273,1.23,0.617,1.848,0.923
		c0.386,0.192,0.543,0.503,0.396,0.816c-0.158,0.334-0.51,0.458-0.886,0.28c-0.724-0.344-1.434-0.718-2.16-1.055
		c-0.407-0.188-0.802-0.18-1.242,0.029c-0.927,0.441-1.883,0.826-2.844,1.192c-0.507,0.193-0.908-0.167-0.83-0.683
		c0.04-0.263,0.23-0.375,0.446-0.466c0.938-0.394,1.872-0.796,2.813-1.179C179.427,22.071,179.757,21.995,180.144,21.875z"/>
	<path fill="#FFFFFF" d="M181.032,21.299c-0.112-0.024-0.282-0.07-0.455-0.095c-0.698-0.098-1.35,0.033-1.97,0.376
		c-1.31,0.724-2.708,1.205-4.18,1.474c-0.429,0.078-0.745-0.118-0.8-0.479c-0.056-0.361,0.19-0.632,0.606-0.71
		c1.377-0.261,2.684-0.727,3.912-1.404c0.994-0.548,2.045-0.597,3.125-0.344c0.339,0.08,0.511,0.379,0.452,0.707
		C181.668,21.116,181.414,21.31,181.032,21.299z"/>
	<path fill="#FFFFFF" d="M187.292,19.324c-2.384-0.051-4.806-1.754-5.68-3.995c-0.071-0.181-0.151-0.366-0.177-0.556
		c-0.045-0.329,0.143-0.574,0.447-0.641c0.294-0.065,0.584,0.083,0.692,0.375c0.432,1.168,1.155,2.102,2.203,2.781
		c0.78,0.506,1.641,0.767,2.562,0.837c0.454,0.034,0.663,0.241,0.643,0.654C187.964,19.131,187.708,19.333,187.292,19.324z"/>
	<path fill="#FFFFFF" d="M180.317,9.236c-0.15,2.374-1.125,4.432-2.977,6.063c-0.417,0.367-0.862,0.261-1.047-0.22
		c-0.107-0.278,0.016-0.491,0.21-0.659c1.028-0.891,1.811-1.959,2.203-3.262c0.212-0.705,0.3-1.452,0.396-2.186
		c0.067-0.519,0.229-0.765,0.622-0.752c0.355,0.011,0.648,0.29,0.594,0.778C180.313,9.048,180.317,9.101,180.317,9.236z"/>
	<path fill="#FFFFFF" d="M184.3,11.374c0,0.58-0.032,1.162,0.008,1.738c0.051,0.72,0.359,1.345,0.823,1.899
		c0.12,0.144,0.229,0.323,0.272,0.501c0.059,0.245-0.026,0.464-0.275,0.598c-0.251,0.135-0.485,0.115-0.688-0.07
		c-0.744-0.681-1.221-1.537-1.294-2.528c-0.093-1.247-0.06-2.503-0.062-3.755c-0.002-0.386,0.241-0.606,0.595-0.607
		c0.357,0,0.578,0.208,0.591,0.609c0.018,0.538,0.005,1.076,0.005,1.615C184.283,11.374,184.291,11.374,184.3,11.374z"/>
	<path fill="#FFFFFF" d="M172.142,13.37c-0.708,0.022-0.974-0.19-0.955-0.626c0.013-0.303,0.239-0.557,0.545-0.562
		c1.212-0.02,2.153-0.532,2.851-1.519c0.215-0.304,0.595-0.363,0.875-0.167c0.26,0.182,0.321,0.59,0.111,0.885
		C174.688,12.616,173.492,13.288,172.142,13.37z"/>
	<path fill="#FFFFFF" d="M171.964,17.365c-0.314,0.021-0.614-0.064-0.719-0.365c-0.063-0.183-0.013-0.455,0.087-0.628
		c0.073-0.126,0.309-0.218,0.475-0.223c1.132-0.032,2.21-0.259,3.228-0.77c0.316-0.158,0.691-0.015,0.819,0.271
		c0.151,0.337,0.029,0.648-0.312,0.823C174.418,17.05,173.212,17.291,171.964,17.365z"/>
	<path fill="#FFFFFF" d="M185.06,22.994c-0.344-0.114-0.847-0.262-1.336-0.448c-0.373-0.143-0.73-0.329-1.09-0.506
		c-0.37-0.183-0.505-0.52-0.35-0.835c0.163-0.335,0.475-0.426,0.866-0.269c0.762,0.306,1.525,0.607,2.29,0.903
		c0.301,0.116,0.484,0.385,0.43,0.663C185.807,22.825,185.57,23.008,185.06,22.994z"/>
	<path fill="#FFFFFF" d="M187.326,17.361c-0.254-0.055-0.704-0.126-1.136-0.256c-0.344-0.104-0.478-0.449-0.362-0.771
		c0.113-0.315,0.426-0.442,0.778-0.36c0.329,0.078,0.668,0.121,1.005,0.163c0.429,0.054,0.65,0.278,0.625,0.656
		C188.213,17.145,187.93,17.372,187.326,17.361z"/>
	<path fill="#FFFFFF" d="M172.89,21.285c-0.357-0.001-0.623-0.227-0.665-0.528c-0.045-0.324,0.123-0.6,0.456-0.664
		c0.393-0.076,0.792-0.128,1.192-0.157c0.325-0.023,0.578,0.228,0.6,0.541c0.021,0.319-0.181,0.589-0.495,0.642
		C173.603,21.181,173.226,21.234,172.89,21.285z"/>
	<path fill="#FFFFFF" d="M181.453,17.284c-0.535-0.027-1.07-0.047-1.604-0.083c-0.198-0.014-0.26-0.194-0.118-0.359
		c0.254-0.296,0.518-0.584,0.792-0.863c0.162-0.165,0.429-0.123,0.557,0.078c0.188,0.294,0.369,0.592,0.541,0.896
		C181.743,17.169,181.669,17.315,181.453,17.284z"/>
	<path fill="#FFFFFF" d="M180.364,25.218c-0.1,0.015-0.201,0.029-0.302,0.043c-0.285,0.042-0.513-0.061-0.646-0.308
		c-0.134-0.247-0.044-0.57,0.174-0.752c0.373-0.312,0.839-0.332,1.21-0.032c0.194,0.157,0.3,0.369,0.223,0.627
		C180.926,25.113,180.73,25.239,180.364,25.218z"/>
</g>
</svg>
