<?xml version="1.0" encoding="utf-8"?>
<!-- Generator: Adobe Illustrator 16.0.3, SVG Export Plug-In . SVG Version: 6.00 Build 0)  -->
<!DOCTYPE svg PUBLIC "-//W3C//DTD SVG 1.1//EN" "http://www.w3.org/Graphics/SVG/1.1/DTD/svg11.dtd">
<svg version="1.1" id="Capa_1" xmlns="http://www.w3.org/2000/svg" xmlns:xlink="http://www.w3.org/1999/xlink" x="0px" y="0px"
	 width="25px" height="18.011px" viewBox="167.876 53.191 25 18.011" enable-background="new 167.876 53.191 25 18.011"
	 xml:space="preserve">
<path fill="#FFFFFF" d="M192.876,67.983h-3.687c0.865-1.221,2.38-3.988,2.38-8.38c0-6.79-5.428-6.407-9.563-6.407
	c-5.165,0-14.13,0.789-14.13,8.512c0,3.873,2.845,7.005,2.845,7.005h2.173c0,0.009-0.001,0.018-0.001,0.026
	c0,1.359,1.105,2.464,2.465,2.464c1.359,0,2.464-1.105,2.464-2.464c0-0.009,0-0.018,0-0.026h15.055V67.983z M173.973,60.053
	c0,0.148-0.12,0.268-0.268,0.268h-3.242c-0.148,0-0.268-0.12-0.268-0.268v-2.19c0-0.148,0.12-0.268,0.268-0.268h3.242
	c0.148,0,0.268,0.12,0.268,0.268V60.053z M184.223,65.544c0,0.624-0.172,1.217-0.483,1.671c-0.353,0.513-0.841,0.795-1.375,0.795
	h-1.292c-0.533,0-1.021-0.282-1.375-0.795c-0.312-0.454-0.483-1.047-0.483-1.671v-9.113c0-0.624,0.171-1.217,0.483-1.671
	c0.353-0.513,0.841-0.795,1.375-0.795h1.292c0.534,0,1.022,0.283,1.375,0.795c0.312,0.454,0.483,1.047,0.483,1.671V65.544
	L184.223,65.544z M185.97,60.053v-2.19c0-0.148,0.12-0.268,0.268-0.268h3.242c0.147,0,0.268,0.12,0.268,0.268v2.19
	c0,0.148-0.12,0.268-0.268,0.268h-3.242C186.09,60.32,185.97,60.201,185.97,60.053z M182.364,54.591h-1.292
	c-0.321,0-0.626,0.186-0.859,0.524c-0.241,0.351-0.374,0.818-0.374,1.317v9.113c0,0.499,0.133,0.966,0.374,1.317
	c0.232,0.338,0.538,0.524,0.859,0.524h1.292c0.322,0,0.627-0.186,0.86-0.524c0.24-0.351,0.373-0.818,0.373-1.317v-9.113
	c0-0.499-0.133-0.966-0.373-1.317C182.991,54.777,182.687,54.591,182.364,54.591z M183.081,61.225c0,0.147-0.119,0.267-0.268,0.267
	H180.6c-0.148,0-0.268-0.12-0.268-0.267v-4.796c0-0.148,0.12-0.268,0.268-0.268h2.214c0.148,0,0.268,0.12,0.268,0.268V61.225z"/>
</svg>
